G04 #@! TF.GenerationSoftware,KiCad,Pcbnew,8.0.5*
G04 #@! TF.CreationDate,2024-11-13T12:29:25-06:00*
G04 #@! TF.ProjectId,APG_Sensor_Test_Board,4150475f-5365-46e7-936f-725f54657374,rev?*
G04 #@! TF.SameCoordinates,Original*
G04 #@! TF.FileFunction,Legend,Top*
G04 #@! TF.FilePolarity,Positive*
%FSLAX46Y46*%
G04 Gerber Fmt 4.6, Leading zero omitted, Abs format (unit mm)*
G04 Created by KiCad (PCBNEW 8.0.5) date 2024-11-13 12:29:25*
%MOMM*%
%LPD*%
G01*
G04 APERTURE LIST*
G04 Aperture macros list*
%AMRoundRect*
0 Rectangle with rounded corners*
0 $1 Rounding radius*
0 $2 $3 $4 $5 $6 $7 $8 $9 X,Y pos of 4 corners*
0 Add a 4 corners polygon primitive as box body*
4,1,4,$2,$3,$4,$5,$6,$7,$8,$9,$2,$3,0*
0 Add four circle primitives for the rounded corners*
1,1,$1+$1,$2,$3*
1,1,$1+$1,$4,$5*
1,1,$1+$1,$6,$7*
1,1,$1+$1,$8,$9*
0 Add four rect primitives between the rounded corners*
20,1,$1+$1,$2,$3,$4,$5,0*
20,1,$1+$1,$4,$5,$6,$7,0*
20,1,$1+$1,$6,$7,$8,$9,0*
20,1,$1+$1,$8,$9,$2,$3,0*%
G04 Aperture macros list end*
%ADD10C,0.187500*%
%ADD11C,0.120000*%
%ADD12C,0.150000*%
%ADD13C,0.100000*%
%ADD14RoundRect,0.150000X-0.150000X0.650000X-0.150000X-0.650000X0.150000X-0.650000X0.150000X0.650000X0*%
%ADD15RoundRect,0.200000X0.200000X0.275000X-0.200000X0.275000X-0.200000X-0.275000X0.200000X-0.275000X0*%
%ADD16RoundRect,0.062500X0.062500X-0.237500X0.062500X0.237500X-0.062500X0.237500X-0.062500X-0.237500X0*%
%ADD17C,3.200000*%
%ADD18RoundRect,0.150000X-0.325000X-0.150000X0.325000X-0.150000X0.325000X0.150000X-0.325000X0.150000X0*%
%ADD19RoundRect,0.150000X-0.150000X-0.325000X0.150000X-0.325000X0.150000X0.325000X-0.150000X0.325000X0*%
%ADD20R,1.700000X1.700000*%
%ADD21O,1.700000X1.700000*%
%ADD22RoundRect,0.200000X-0.200000X-0.275000X0.200000X-0.275000X0.200000X0.275000X-0.200000X0.275000X0*%
%ADD23C,0.650000*%
%ADD24RoundRect,0.150000X-0.150000X-0.425000X0.150000X-0.425000X0.150000X0.425000X-0.150000X0.425000X0*%
%ADD25RoundRect,0.075000X-0.075000X-0.500000X0.075000X-0.500000X0.075000X0.500000X-0.075000X0.500000X0*%
%ADD26O,1.000000X2.100000*%
%ADD27O,1.000000X1.800000*%
%ADD28RoundRect,0.225000X0.225000X0.250000X-0.225000X0.250000X-0.225000X-0.250000X0.225000X-0.250000X0*%
%ADD29RoundRect,0.200000X-0.275000X0.200000X-0.275000X-0.200000X0.275000X-0.200000X0.275000X0.200000X0*%
%ADD30RoundRect,0.225000X-0.250000X0.225000X-0.250000X-0.225000X0.250000X-0.225000X0.250000X0.225000X0*%
%ADD31R,0.550000X0.950000*%
%ADD32RoundRect,0.250000X0.262500X0.450000X-0.262500X0.450000X-0.262500X-0.450000X0.262500X-0.450000X0*%
%ADD33RoundRect,0.150000X-0.512500X-0.150000X0.512500X-0.150000X0.512500X0.150000X-0.512500X0.150000X0*%
%ADD34RoundRect,0.200000X0.275000X-0.200000X0.275000X0.200000X-0.275000X0.200000X-0.275000X-0.200000X0*%
%ADD35RoundRect,0.225000X0.250000X-0.225000X0.250000X0.225000X-0.250000X0.225000X-0.250000X-0.225000X0*%
%ADD36RoundRect,0.243750X0.243750X0.456250X-0.243750X0.456250X-0.243750X-0.456250X0.243750X-0.456250X0*%
%ADD37RoundRect,0.125000X0.175000X0.125000X-0.175000X0.125000X-0.175000X-0.125000X0.175000X-0.125000X0*%
%ADD38RoundRect,0.225000X-0.225000X-0.250000X0.225000X-0.250000X0.225000X0.250000X-0.225000X0.250000X0*%
%ADD39C,2.000000*%
%ADD40R,2.000000X2.000000*%
%ADD41C,1.000000*%
%ADD42R,0.675000X0.254000*%
%ADD43R,0.254000X0.675000*%
%ADD44RoundRect,0.250000X-0.650000X1.000000X-0.650000X-1.000000X0.650000X-1.000000X0.650000X1.000000X0*%
%ADD45R,1.500000X0.900000*%
%ADD46R,0.900000X1.500000*%
%ADD47C,0.600000*%
%ADD48R,3.900000X3.900000*%
G04 APERTURE END LIST*
D10*
X108929750Y-58016212D02*
X108882130Y-58123355D01*
X108882130Y-58123355D02*
X108882130Y-58301926D01*
X108882130Y-58301926D02*
X108929750Y-58373355D01*
X108929750Y-58373355D02*
X108977369Y-58409069D01*
X108977369Y-58409069D02*
X109072607Y-58444783D01*
X109072607Y-58444783D02*
X109167845Y-58444783D01*
X109167845Y-58444783D02*
X109263083Y-58409069D01*
X109263083Y-58409069D02*
X109310702Y-58373355D01*
X109310702Y-58373355D02*
X109358321Y-58301926D01*
X109358321Y-58301926D02*
X109405940Y-58159069D01*
X109405940Y-58159069D02*
X109453559Y-58087640D01*
X109453559Y-58087640D02*
X109501178Y-58051926D01*
X109501178Y-58051926D02*
X109596416Y-58016212D01*
X109596416Y-58016212D02*
X109691654Y-58016212D01*
X109691654Y-58016212D02*
X109786892Y-58051926D01*
X109786892Y-58051926D02*
X109834511Y-58087640D01*
X109834511Y-58087640D02*
X109882130Y-58159069D01*
X109882130Y-58159069D02*
X109882130Y-58337640D01*
X109882130Y-58337640D02*
X109834511Y-58444783D01*
X109882130Y-58694783D02*
X108882130Y-58873355D01*
X108882130Y-58873355D02*
X109596416Y-59016212D01*
X109596416Y-59016212D02*
X108882130Y-59159069D01*
X108882130Y-59159069D02*
X109882130Y-59337641D01*
X109786892Y-59587641D02*
X109834511Y-59623355D01*
X109834511Y-59623355D02*
X109882130Y-59694784D01*
X109882130Y-59694784D02*
X109882130Y-59873355D01*
X109882130Y-59873355D02*
X109834511Y-59944784D01*
X109834511Y-59944784D02*
X109786892Y-59980498D01*
X109786892Y-59980498D02*
X109691654Y-60016212D01*
X109691654Y-60016212D02*
X109596416Y-60016212D01*
X109596416Y-60016212D02*
X109453559Y-59980498D01*
X109453559Y-59980498D02*
X108882130Y-59551926D01*
X108882130Y-59551926D02*
X108882130Y-60016212D01*
X174255940Y-58001926D02*
X174255940Y-58251926D01*
X173732130Y-58359069D02*
X173732130Y-58001926D01*
X173732130Y-58001926D02*
X174732130Y-58001926D01*
X174732130Y-58001926D02*
X174732130Y-58359069D01*
X173779750Y-58644783D02*
X173732130Y-58751926D01*
X173732130Y-58751926D02*
X173732130Y-58930497D01*
X173732130Y-58930497D02*
X173779750Y-59001926D01*
X173779750Y-59001926D02*
X173827369Y-59037640D01*
X173827369Y-59037640D02*
X173922607Y-59073354D01*
X173922607Y-59073354D02*
X174017845Y-59073354D01*
X174017845Y-59073354D02*
X174113083Y-59037640D01*
X174113083Y-59037640D02*
X174160702Y-59001926D01*
X174160702Y-59001926D02*
X174208321Y-58930497D01*
X174208321Y-58930497D02*
X174255940Y-58787640D01*
X174255940Y-58787640D02*
X174303559Y-58716211D01*
X174303559Y-58716211D02*
X174351178Y-58680497D01*
X174351178Y-58680497D02*
X174446416Y-58644783D01*
X174446416Y-58644783D02*
X174541654Y-58644783D01*
X174541654Y-58644783D02*
X174636892Y-58680497D01*
X174636892Y-58680497D02*
X174684511Y-58716211D01*
X174684511Y-58716211D02*
X174732130Y-58787640D01*
X174732130Y-58787640D02*
X174732130Y-58966211D01*
X174732130Y-58966211D02*
X174684511Y-59073354D01*
X173732130Y-59394783D02*
X174732130Y-59394783D01*
X174732130Y-59394783D02*
X174732130Y-59680497D01*
X174732130Y-59680497D02*
X174684511Y-59751926D01*
X174684511Y-59751926D02*
X174636892Y-59787640D01*
X174636892Y-59787640D02*
X174541654Y-59823354D01*
X174541654Y-59823354D02*
X174398797Y-59823354D01*
X174398797Y-59823354D02*
X174303559Y-59787640D01*
X174303559Y-59787640D02*
X174255940Y-59751926D01*
X174255940Y-59751926D02*
X174208321Y-59680497D01*
X174208321Y-59680497D02*
X174208321Y-59394783D01*
X173636892Y-59966212D02*
X173636892Y-60537640D01*
X174255940Y-60716212D02*
X174255940Y-60966212D01*
X173732130Y-61073355D02*
X173732130Y-60716212D01*
X173732130Y-60716212D02*
X174732130Y-60716212D01*
X174732130Y-60716212D02*
X174732130Y-61073355D01*
X173732130Y-61394783D02*
X174732130Y-61394783D01*
X174732130Y-61394783D02*
X173732130Y-61823354D01*
X173732130Y-61823354D02*
X174732130Y-61823354D01*
X118629750Y-57966212D02*
X118582130Y-58073355D01*
X118582130Y-58073355D02*
X118582130Y-58251926D01*
X118582130Y-58251926D02*
X118629750Y-58323355D01*
X118629750Y-58323355D02*
X118677369Y-58359069D01*
X118677369Y-58359069D02*
X118772607Y-58394783D01*
X118772607Y-58394783D02*
X118867845Y-58394783D01*
X118867845Y-58394783D02*
X118963083Y-58359069D01*
X118963083Y-58359069D02*
X119010702Y-58323355D01*
X119010702Y-58323355D02*
X119058321Y-58251926D01*
X119058321Y-58251926D02*
X119105940Y-58109069D01*
X119105940Y-58109069D02*
X119153559Y-58037640D01*
X119153559Y-58037640D02*
X119201178Y-58001926D01*
X119201178Y-58001926D02*
X119296416Y-57966212D01*
X119296416Y-57966212D02*
X119391654Y-57966212D01*
X119391654Y-57966212D02*
X119486892Y-58001926D01*
X119486892Y-58001926D02*
X119534511Y-58037640D01*
X119534511Y-58037640D02*
X119582130Y-58109069D01*
X119582130Y-58109069D02*
X119582130Y-58287640D01*
X119582130Y-58287640D02*
X119534511Y-58394783D01*
X119582130Y-58644783D02*
X118582130Y-58823355D01*
X118582130Y-58823355D02*
X119296416Y-58966212D01*
X119296416Y-58966212D02*
X118582130Y-59109069D01*
X118582130Y-59109069D02*
X119582130Y-59287641D01*
X118582130Y-59966212D02*
X118582130Y-59537641D01*
X118582130Y-59751926D02*
X119582130Y-59751926D01*
X119582130Y-59751926D02*
X119439273Y-59680498D01*
X119439273Y-59680498D02*
X119344035Y-59609069D01*
X119344035Y-59609069D02*
X119296416Y-59537641D01*
X183532130Y-58051926D02*
X184532130Y-58051926D01*
X184532130Y-58551926D02*
X184532130Y-58694783D01*
X184532130Y-58694783D02*
X184484511Y-58766212D01*
X184484511Y-58766212D02*
X184389273Y-58837640D01*
X184389273Y-58837640D02*
X184198797Y-58873355D01*
X184198797Y-58873355D02*
X183865464Y-58873355D01*
X183865464Y-58873355D02*
X183674988Y-58837640D01*
X183674988Y-58837640D02*
X183579750Y-58766212D01*
X183579750Y-58766212D02*
X183532130Y-58694783D01*
X183532130Y-58694783D02*
X183532130Y-58551926D01*
X183532130Y-58551926D02*
X183579750Y-58480498D01*
X183579750Y-58480498D02*
X183674988Y-58409069D01*
X183674988Y-58409069D02*
X183865464Y-58373355D01*
X183865464Y-58373355D02*
X184198797Y-58373355D01*
X184198797Y-58373355D02*
X184389273Y-58409069D01*
X184389273Y-58409069D02*
X184484511Y-58480498D01*
X184484511Y-58480498D02*
X184532130Y-58551926D01*
X184532130Y-59337640D02*
X184532130Y-59409069D01*
X184532130Y-59409069D02*
X184484511Y-59480497D01*
X184484511Y-59480497D02*
X184436892Y-59516212D01*
X184436892Y-59516212D02*
X184341654Y-59551926D01*
X184341654Y-59551926D02*
X184151178Y-59587640D01*
X184151178Y-59587640D02*
X183913083Y-59587640D01*
X183913083Y-59587640D02*
X183722607Y-59551926D01*
X183722607Y-59551926D02*
X183627369Y-59516212D01*
X183627369Y-59516212D02*
X183579750Y-59480497D01*
X183579750Y-59480497D02*
X183532130Y-59409069D01*
X183532130Y-59409069D02*
X183532130Y-59337640D01*
X183532130Y-59337640D02*
X183579750Y-59266212D01*
X183579750Y-59266212D02*
X183627369Y-59230497D01*
X183627369Y-59230497D02*
X183722607Y-59194783D01*
X183722607Y-59194783D02*
X183913083Y-59159069D01*
X183913083Y-59159069D02*
X184151178Y-59159069D01*
X184151178Y-59159069D02*
X184341654Y-59194783D01*
X184341654Y-59194783D02*
X184436892Y-59230497D01*
X184436892Y-59230497D02*
X184484511Y-59266212D01*
X184484511Y-59266212D02*
X184532130Y-59337640D01*
X116751926Y-70236916D02*
X117323355Y-70236916D01*
X117037640Y-70617869D02*
X117037640Y-69855964D01*
X117609068Y-69617869D02*
X118073354Y-69617869D01*
X118073354Y-69617869D02*
X117823354Y-69998821D01*
X117823354Y-69998821D02*
X117930497Y-69998821D01*
X117930497Y-69998821D02*
X118001926Y-70046440D01*
X118001926Y-70046440D02*
X118037640Y-70094059D01*
X118037640Y-70094059D02*
X118073354Y-70189297D01*
X118073354Y-70189297D02*
X118073354Y-70427392D01*
X118073354Y-70427392D02*
X118037640Y-70522630D01*
X118037640Y-70522630D02*
X118001926Y-70570250D01*
X118001926Y-70570250D02*
X117930497Y-70617869D01*
X117930497Y-70617869D02*
X117716211Y-70617869D01*
X117716211Y-70617869D02*
X117644783Y-70570250D01*
X117644783Y-70570250D02*
X117609068Y-70522630D01*
X118394783Y-70522630D02*
X118430497Y-70570250D01*
X118430497Y-70570250D02*
X118394783Y-70617869D01*
X118394783Y-70617869D02*
X118359069Y-70570250D01*
X118359069Y-70570250D02*
X118394783Y-70522630D01*
X118394783Y-70522630D02*
X118394783Y-70617869D01*
X118680497Y-69617869D02*
X119144783Y-69617869D01*
X119144783Y-69617869D02*
X118894783Y-69998821D01*
X118894783Y-69998821D02*
X119001926Y-69998821D01*
X119001926Y-69998821D02*
X119073355Y-70046440D01*
X119073355Y-70046440D02*
X119109069Y-70094059D01*
X119109069Y-70094059D02*
X119144783Y-70189297D01*
X119144783Y-70189297D02*
X119144783Y-70427392D01*
X119144783Y-70427392D02*
X119109069Y-70522630D01*
X119109069Y-70522630D02*
X119073355Y-70570250D01*
X119073355Y-70570250D02*
X119001926Y-70617869D01*
X119001926Y-70617869D02*
X118787640Y-70617869D01*
X118787640Y-70617869D02*
X118716212Y-70570250D01*
X118716212Y-70570250D02*
X118680497Y-70522630D01*
X119359069Y-69617869D02*
X119609069Y-70617869D01*
X119609069Y-70617869D02*
X119859069Y-69617869D01*
X97532130Y-61851926D02*
X98532130Y-61851926D01*
X98532130Y-61851926D02*
X98532130Y-62030497D01*
X98532130Y-62030497D02*
X98484511Y-62137640D01*
X98484511Y-62137640D02*
X98389273Y-62209069D01*
X98389273Y-62209069D02*
X98294035Y-62244783D01*
X98294035Y-62244783D02*
X98103559Y-62280497D01*
X98103559Y-62280497D02*
X97960702Y-62280497D01*
X97960702Y-62280497D02*
X97770226Y-62244783D01*
X97770226Y-62244783D02*
X97674988Y-62209069D01*
X97674988Y-62209069D02*
X97579750Y-62137640D01*
X97579750Y-62137640D02*
X97532130Y-62030497D01*
X97532130Y-62030497D02*
X97532130Y-61851926D01*
X98055940Y-62851926D02*
X98008321Y-62959069D01*
X98008321Y-62959069D02*
X97960702Y-62994783D01*
X97960702Y-62994783D02*
X97865464Y-63030497D01*
X97865464Y-63030497D02*
X97722607Y-63030497D01*
X97722607Y-63030497D02*
X97627369Y-62994783D01*
X97627369Y-62994783D02*
X97579750Y-62959069D01*
X97579750Y-62959069D02*
X97532130Y-62887640D01*
X97532130Y-62887640D02*
X97532130Y-62601926D01*
X97532130Y-62601926D02*
X98532130Y-62601926D01*
X98532130Y-62601926D02*
X98532130Y-62851926D01*
X98532130Y-62851926D02*
X98484511Y-62923355D01*
X98484511Y-62923355D02*
X98436892Y-62959069D01*
X98436892Y-62959069D02*
X98341654Y-62994783D01*
X98341654Y-62994783D02*
X98246416Y-62994783D01*
X98246416Y-62994783D02*
X98151178Y-62959069D01*
X98151178Y-62959069D02*
X98103559Y-62923355D01*
X98103559Y-62923355D02*
X98055940Y-62851926D01*
X98055940Y-62851926D02*
X98055940Y-62601926D01*
X98436892Y-63316212D02*
X98484511Y-63351926D01*
X98484511Y-63351926D02*
X98532130Y-63423355D01*
X98532130Y-63423355D02*
X98532130Y-63601926D01*
X98532130Y-63601926D02*
X98484511Y-63673355D01*
X98484511Y-63673355D02*
X98436892Y-63709069D01*
X98436892Y-63709069D02*
X98341654Y-63744783D01*
X98341654Y-63744783D02*
X98246416Y-63744783D01*
X98246416Y-63744783D02*
X98103559Y-63709069D01*
X98103559Y-63709069D02*
X97532130Y-63280497D01*
X97532130Y-63280497D02*
X97532130Y-63744783D01*
X111501926Y-80486916D02*
X112073355Y-80486916D01*
X111787640Y-80867869D02*
X111787640Y-80105964D01*
X112787640Y-79867869D02*
X112430497Y-79867869D01*
X112430497Y-79867869D02*
X112394783Y-80344059D01*
X112394783Y-80344059D02*
X112430497Y-80296440D01*
X112430497Y-80296440D02*
X112501926Y-80248821D01*
X112501926Y-80248821D02*
X112680497Y-80248821D01*
X112680497Y-80248821D02*
X112751926Y-80296440D01*
X112751926Y-80296440D02*
X112787640Y-80344059D01*
X112787640Y-80344059D02*
X112823354Y-80439297D01*
X112823354Y-80439297D02*
X112823354Y-80677392D01*
X112823354Y-80677392D02*
X112787640Y-80772630D01*
X112787640Y-80772630D02*
X112751926Y-80820250D01*
X112751926Y-80820250D02*
X112680497Y-80867869D01*
X112680497Y-80867869D02*
X112501926Y-80867869D01*
X112501926Y-80867869D02*
X112430497Y-80820250D01*
X112430497Y-80820250D02*
X112394783Y-80772630D01*
X113037640Y-79867869D02*
X113287640Y-80867869D01*
X113287640Y-80867869D02*
X113537640Y-79867869D01*
X126284511Y-54494783D02*
X126332130Y-54423355D01*
X126332130Y-54423355D02*
X126332130Y-54316212D01*
X126332130Y-54316212D02*
X126284511Y-54209069D01*
X126284511Y-54209069D02*
X126189273Y-54137640D01*
X126189273Y-54137640D02*
X126094035Y-54101926D01*
X126094035Y-54101926D02*
X125903559Y-54066212D01*
X125903559Y-54066212D02*
X125760702Y-54066212D01*
X125760702Y-54066212D02*
X125570226Y-54101926D01*
X125570226Y-54101926D02*
X125474988Y-54137640D01*
X125474988Y-54137640D02*
X125379750Y-54209069D01*
X125379750Y-54209069D02*
X125332130Y-54316212D01*
X125332130Y-54316212D02*
X125332130Y-54387640D01*
X125332130Y-54387640D02*
X125379750Y-54494783D01*
X125379750Y-54494783D02*
X125427369Y-54530497D01*
X125427369Y-54530497D02*
X125760702Y-54530497D01*
X125760702Y-54530497D02*
X125760702Y-54387640D01*
X125332130Y-54851926D02*
X126332130Y-54851926D01*
X126332130Y-54851926D02*
X125332130Y-55280497D01*
X125332130Y-55280497D02*
X126332130Y-55280497D01*
X125332130Y-55637640D02*
X126332130Y-55637640D01*
X126332130Y-55637640D02*
X126332130Y-55816211D01*
X126332130Y-55816211D02*
X126284511Y-55923354D01*
X126284511Y-55923354D02*
X126189273Y-55994783D01*
X126189273Y-55994783D02*
X126094035Y-56030497D01*
X126094035Y-56030497D02*
X125903559Y-56066211D01*
X125903559Y-56066211D02*
X125760702Y-56066211D01*
X125760702Y-56066211D02*
X125570226Y-56030497D01*
X125570226Y-56030497D02*
X125474988Y-55994783D01*
X125474988Y-55994783D02*
X125379750Y-55923354D01*
X125379750Y-55923354D02*
X125332130Y-55816211D01*
X125332130Y-55816211D02*
X125332130Y-55637640D01*
X97532130Y-64701926D02*
X98532130Y-64701926D01*
X98532130Y-64701926D02*
X98532130Y-64880497D01*
X98532130Y-64880497D02*
X98484511Y-64987640D01*
X98484511Y-64987640D02*
X98389273Y-65059069D01*
X98389273Y-65059069D02*
X98294035Y-65094783D01*
X98294035Y-65094783D02*
X98103559Y-65130497D01*
X98103559Y-65130497D02*
X97960702Y-65130497D01*
X97960702Y-65130497D02*
X97770226Y-65094783D01*
X97770226Y-65094783D02*
X97674988Y-65059069D01*
X97674988Y-65059069D02*
X97579750Y-64987640D01*
X97579750Y-64987640D02*
X97532130Y-64880497D01*
X97532130Y-64880497D02*
X97532130Y-64701926D01*
X98055940Y-65701926D02*
X98008321Y-65809069D01*
X98008321Y-65809069D02*
X97960702Y-65844783D01*
X97960702Y-65844783D02*
X97865464Y-65880497D01*
X97865464Y-65880497D02*
X97722607Y-65880497D01*
X97722607Y-65880497D02*
X97627369Y-65844783D01*
X97627369Y-65844783D02*
X97579750Y-65809069D01*
X97579750Y-65809069D02*
X97532130Y-65737640D01*
X97532130Y-65737640D02*
X97532130Y-65451926D01*
X97532130Y-65451926D02*
X98532130Y-65451926D01*
X98532130Y-65451926D02*
X98532130Y-65701926D01*
X98532130Y-65701926D02*
X98484511Y-65773355D01*
X98484511Y-65773355D02*
X98436892Y-65809069D01*
X98436892Y-65809069D02*
X98341654Y-65844783D01*
X98341654Y-65844783D02*
X98246416Y-65844783D01*
X98246416Y-65844783D02*
X98151178Y-65809069D01*
X98151178Y-65809069D02*
X98103559Y-65773355D01*
X98103559Y-65773355D02*
X98055940Y-65701926D01*
X98055940Y-65701926D02*
X98055940Y-65451926D01*
X98532130Y-66130497D02*
X98532130Y-66594783D01*
X98532130Y-66594783D02*
X98151178Y-66344783D01*
X98151178Y-66344783D02*
X98151178Y-66451926D01*
X98151178Y-66451926D02*
X98103559Y-66523355D01*
X98103559Y-66523355D02*
X98055940Y-66559069D01*
X98055940Y-66559069D02*
X97960702Y-66594783D01*
X97960702Y-66594783D02*
X97722607Y-66594783D01*
X97722607Y-66594783D02*
X97627369Y-66559069D01*
X97627369Y-66559069D02*
X97579750Y-66523355D01*
X97579750Y-66523355D02*
X97532130Y-66451926D01*
X97532130Y-66451926D02*
X97532130Y-66237640D01*
X97532130Y-66237640D02*
X97579750Y-66166212D01*
X97579750Y-66166212D02*
X97627369Y-66130497D01*
X97482130Y-59201926D02*
X98482130Y-59201926D01*
X98482130Y-59201926D02*
X98482130Y-59380497D01*
X98482130Y-59380497D02*
X98434511Y-59487640D01*
X98434511Y-59487640D02*
X98339273Y-59559069D01*
X98339273Y-59559069D02*
X98244035Y-59594783D01*
X98244035Y-59594783D02*
X98053559Y-59630497D01*
X98053559Y-59630497D02*
X97910702Y-59630497D01*
X97910702Y-59630497D02*
X97720226Y-59594783D01*
X97720226Y-59594783D02*
X97624988Y-59559069D01*
X97624988Y-59559069D02*
X97529750Y-59487640D01*
X97529750Y-59487640D02*
X97482130Y-59380497D01*
X97482130Y-59380497D02*
X97482130Y-59201926D01*
X98005940Y-60201926D02*
X97958321Y-60309069D01*
X97958321Y-60309069D02*
X97910702Y-60344783D01*
X97910702Y-60344783D02*
X97815464Y-60380497D01*
X97815464Y-60380497D02*
X97672607Y-60380497D01*
X97672607Y-60380497D02*
X97577369Y-60344783D01*
X97577369Y-60344783D02*
X97529750Y-60309069D01*
X97529750Y-60309069D02*
X97482130Y-60237640D01*
X97482130Y-60237640D02*
X97482130Y-59951926D01*
X97482130Y-59951926D02*
X98482130Y-59951926D01*
X98482130Y-59951926D02*
X98482130Y-60201926D01*
X98482130Y-60201926D02*
X98434511Y-60273355D01*
X98434511Y-60273355D02*
X98386892Y-60309069D01*
X98386892Y-60309069D02*
X98291654Y-60344783D01*
X98291654Y-60344783D02*
X98196416Y-60344783D01*
X98196416Y-60344783D02*
X98101178Y-60309069D01*
X98101178Y-60309069D02*
X98053559Y-60273355D01*
X98053559Y-60273355D02*
X98005940Y-60201926D01*
X98005940Y-60201926D02*
X98005940Y-59951926D01*
X97482130Y-61094783D02*
X97482130Y-60666212D01*
X97482130Y-60880497D02*
X98482130Y-60880497D01*
X98482130Y-60880497D02*
X98339273Y-60809069D01*
X98339273Y-60809069D02*
X98244035Y-60737640D01*
X98244035Y-60737640D02*
X98196416Y-60666212D01*
D11*
X160575000Y-55825000D02*
X160835000Y-55825000D01*
X160575000Y-58550000D02*
X160575000Y-55825000D01*
X160575000Y-58550000D02*
X160575000Y-61275000D01*
X160575000Y-61275000D02*
X160835000Y-61275000D01*
X166025000Y-55825000D02*
X165765000Y-55825000D01*
X166025000Y-58550000D02*
X166025000Y-55825000D01*
X166025000Y-58550000D02*
X166025000Y-61275000D01*
X166025000Y-61275000D02*
X165765000Y-61275000D01*
X166095000Y-55282500D02*
X165765000Y-55042500D01*
X166095000Y-54802500D01*
X166095000Y-55282500D01*
G36*
X166095000Y-55282500D02*
G01*
X165765000Y-55042500D01*
X166095000Y-54802500D01*
X166095000Y-55282500D01*
G37*
X164862258Y-76752500D02*
X164387742Y-76752500D01*
X164862258Y-77797500D02*
X164387742Y-77797500D01*
X123770000Y-78500000D02*
X123770000Y-79800000D01*
X125630000Y-78500000D02*
X125630000Y-80000000D01*
X123810000Y-80420000D02*
X123530000Y-80140000D01*
X123810000Y-80140000D01*
X123810000Y-80420000D01*
G36*
X123810000Y-80420000D02*
G01*
X123530000Y-80140000D01*
X123810000Y-80140000D01*
X123810000Y-80420000D01*
G37*
X144990000Y-76040000D02*
X144240000Y-76040000D01*
X144990000Y-81260000D02*
X143940000Y-81260000D01*
X146110000Y-76040000D02*
X147160000Y-76040000D01*
X146110000Y-81260000D02*
X147160000Y-81260000D01*
X143940000Y-76040000D02*
X143800000Y-75850000D01*
X144080000Y-75850000D01*
X143940000Y-76040000D01*
G36*
X143940000Y-76040000D02*
G01*
X143800000Y-75850000D01*
X144080000Y-75850000D01*
X143940000Y-76040000D01*
G37*
X124545000Y-53180000D02*
X124545000Y-51850000D01*
X125875000Y-53180000D02*
X124545000Y-53180000D01*
X127145000Y-50520000D02*
X129745000Y-50520000D01*
X127145000Y-53180000D02*
X127145000Y-50520000D01*
X127145000Y-53180000D02*
X129745000Y-53180000D01*
X129745000Y-53180000D02*
X129745000Y-50520000D01*
X163687742Y-71277500D02*
X164162258Y-71277500D01*
X163687742Y-72322500D02*
X164162258Y-72322500D01*
X119530000Y-86850000D02*
X119530000Y-85150000D01*
X128870000Y-86850000D02*
X128870000Y-85150000D01*
X170512258Y-71277500D02*
X170037742Y-71277500D01*
X170512258Y-72322500D02*
X170037742Y-72322500D01*
X144487742Y-82177500D02*
X144962258Y-82177500D01*
X144487742Y-83222500D02*
X144962258Y-83222500D01*
X141390580Y-76140000D02*
X141109420Y-76140000D01*
X141390580Y-77160000D02*
X141109420Y-77160000D01*
X170777500Y-86462742D02*
X170777500Y-86937258D01*
X171822500Y-86462742D02*
X171822500Y-86937258D01*
X121624758Y-58227500D02*
X121150242Y-58227500D01*
X121624758Y-59272500D02*
X121150242Y-59272500D01*
X166267258Y-52227500D02*
X165792742Y-52227500D01*
X166267258Y-53272500D02*
X165792742Y-53272500D01*
X116890580Y-58240000D02*
X116609420Y-58240000D01*
X116890580Y-59260000D02*
X116609420Y-59260000D01*
X168112258Y-63127500D02*
X167637742Y-63127500D01*
X168112258Y-64172500D02*
X167637742Y-64172500D01*
X137698332Y-51834420D02*
X137698332Y-52115580D01*
X138718332Y-51834420D02*
X138718332Y-52115580D01*
X160327500Y-74462742D02*
X160327500Y-74937258D01*
X161372500Y-74462742D02*
X161372500Y-74937258D01*
X165775000Y-81425000D02*
X166275000Y-81425000D01*
X165775000Y-81925000D02*
X165775000Y-81425000D01*
X165775000Y-84425000D02*
X165775000Y-83675000D01*
X170475000Y-81425000D02*
X170975000Y-81425000D01*
X170975000Y-81425000D02*
X170975000Y-81925000D01*
X170975000Y-84225000D02*
X170975000Y-84725000D01*
X170975000Y-84725000D02*
X170475000Y-84725000D01*
X165775000Y-84985000D02*
X165415000Y-84625000D01*
X165775000Y-84625000D01*
X165775000Y-84985000D01*
G36*
X165775000Y-84985000D02*
G01*
X165415000Y-84625000D01*
X165775000Y-84625000D01*
X165775000Y-84985000D01*
G37*
X119927064Y-80015000D02*
X119472936Y-80015000D01*
X119927064Y-81485000D02*
X119472936Y-81485000D01*
X115477500Y-67687742D02*
X115477500Y-68162258D01*
X116522500Y-67687742D02*
X116522500Y-68162258D01*
X157187258Y-73577500D02*
X156712742Y-73577500D01*
X157187258Y-74622500D02*
X156712742Y-74622500D01*
X119700000Y-73190000D02*
X118900000Y-73190000D01*
X119700000Y-73190000D02*
X120500000Y-73190000D01*
X119700000Y-76310000D02*
X118900000Y-76310000D01*
X119700000Y-76310000D02*
X120500000Y-76310000D01*
X118400000Y-73240000D02*
X118160000Y-72910000D01*
X118640000Y-72910000D01*
X118400000Y-73240000D01*
G36*
X118400000Y-73240000D02*
G01*
X118160000Y-72910000D01*
X118640000Y-72910000D01*
X118400000Y-73240000D01*
G37*
X116687258Y-86727500D02*
X116212742Y-86727500D01*
X116687258Y-87772500D02*
X116212742Y-87772500D01*
X153240000Y-84059420D02*
X153240000Y-84340580D01*
X154260000Y-84059420D02*
X154260000Y-84340580D01*
X169127500Y-86937258D02*
X169127500Y-86462742D01*
X170172500Y-86937258D02*
X170172500Y-86462742D01*
X133727500Y-51687742D02*
X133727500Y-52162258D01*
X134772500Y-51687742D02*
X134772500Y-52162258D01*
X166540000Y-61515580D02*
X166540000Y-61234420D01*
X167560000Y-61515580D02*
X167560000Y-61234420D01*
X117928080Y-71490000D02*
X117646920Y-71490000D01*
X117928080Y-72510000D02*
X117646920Y-72510000D01*
X104337258Y-62377500D02*
X103862742Y-62377500D01*
X104337258Y-63422500D02*
X103862742Y-63422500D01*
X160327500Y-77987258D02*
X160327500Y-77512742D01*
X161372500Y-77987258D02*
X161372500Y-77512742D01*
X165977500Y-88487258D02*
X165977500Y-88012742D01*
X167022500Y-88487258D02*
X167022500Y-88012742D01*
X186637258Y-58127500D02*
X186162742Y-58127500D01*
X186637258Y-59172500D02*
X186162742Y-59172500D01*
X99750000Y-63860000D02*
X102435000Y-63860000D01*
X102435000Y-61940000D02*
X99750000Y-61940000D01*
X102435000Y-63860000D02*
X102435000Y-61940000D01*
X167352500Y-73237742D02*
X167352500Y-73712258D01*
X168397500Y-73237742D02*
X168397500Y-73712258D01*
X151187258Y-82727500D02*
X150712742Y-82727500D01*
X151187258Y-83772500D02*
X150712742Y-83772500D01*
X113090000Y-67340000D02*
X113090000Y-67650000D01*
X113090000Y-67340000D02*
X114250000Y-67340000D01*
X113090000Y-69260000D02*
X113090000Y-68950000D01*
X113090000Y-69260000D02*
X114250000Y-69260000D01*
D12*
X114975000Y-68800000D02*
G75*
G02*
X114825000Y-68800000I-75000J0D01*
G01*
X114825000Y-68800000D02*
G75*
G02*
X114975000Y-68800000I75000J0D01*
G01*
D11*
X158409420Y-79040000D02*
X158690580Y-79040000D01*
X158409420Y-80060000D02*
X158690580Y-80060000D01*
X105900000Y-53050000D02*
X105900000Y-54550000D01*
X107150000Y-57050000D02*
X111650000Y-57050000D01*
X111650000Y-50550000D02*
X107150000Y-50550000D01*
X112900000Y-54550000D02*
X112900000Y-53050000D01*
X181890580Y-58140000D02*
X181609420Y-58140000D01*
X181890580Y-59160000D02*
X181609420Y-59160000D01*
X180450000Y-53050000D02*
X180450000Y-54550000D01*
X181700000Y-57050000D02*
X186200000Y-57050000D01*
X186200000Y-50550000D02*
X181700000Y-50550000D01*
X187450000Y-54550000D02*
X187450000Y-53050000D01*
X105699999Y-80300000D02*
G75*
G02*
X102700000Y-80300000I-1499999J6400000D01*
G01*
X110430000Y-73900000D02*
G75*
G02*
X97970000Y-73900000I-6230000J0D01*
G01*
X97970000Y-73900000D02*
G75*
G02*
X110430000Y-73900000I6230000J0D01*
G01*
X99750000Y-66510000D02*
X102435000Y-66510000D01*
X102435000Y-64590000D02*
X99750000Y-64590000D01*
X102435000Y-66510000D02*
X102435000Y-64590000D01*
X116590580Y-81740000D02*
X116309420Y-81740000D01*
X116590580Y-82760000D02*
X116309420Y-82760000D01*
X129090242Y-54767500D02*
X129564758Y-54767500D01*
X129090242Y-55812500D02*
X129564758Y-55812500D01*
X130977500Y-52087258D02*
X130977500Y-51612742D01*
X132022500Y-52087258D02*
X132022500Y-51612742D01*
X124190000Y-76359420D02*
X124190000Y-76640580D01*
X125210000Y-76359420D02*
X125210000Y-76640580D01*
X103677500Y-82437258D02*
X103677500Y-81962742D01*
X104722500Y-82437258D02*
X104722500Y-81962742D01*
X107240580Y-58240000D02*
X106959420Y-58240000D01*
X107240580Y-59260000D02*
X106959420Y-59260000D01*
X176787258Y-58127500D02*
X176312742Y-58127500D01*
X176787258Y-59172500D02*
X176312742Y-59172500D01*
X165802500Y-73237742D02*
X165802500Y-73712258D01*
X166847500Y-73237742D02*
X166847500Y-73712258D01*
X121537500Y-70000000D02*
G75*
G02*
X120137500Y-70000000I-700000J0D01*
G01*
X120137500Y-70000000D02*
G75*
G02*
X121537500Y-70000000I700000J0D01*
G01*
X141390580Y-80340000D02*
X141109420Y-80340000D01*
X141390580Y-81360000D02*
X141109420Y-81360000D01*
X104337258Y-65027500D02*
X103862742Y-65027500D01*
X104337258Y-66072500D02*
X103862742Y-66072500D01*
X155277500Y-84399758D02*
X155277500Y-83925242D01*
X156322500Y-84399758D02*
X156322500Y-83925242D01*
X116687258Y-84727500D02*
X116212742Y-84727500D01*
X116687258Y-85772500D02*
X116212742Y-85772500D01*
X116590580Y-80240000D02*
X116309420Y-80240000D01*
X116590580Y-81260000D02*
X116309420Y-81260000D01*
X111974758Y-58227500D02*
X111500242Y-58227500D01*
X111974758Y-59272500D02*
X111500242Y-59272500D01*
X166562258Y-75252500D02*
X166087742Y-75252500D01*
X166562258Y-76297500D02*
X166087742Y-76297500D01*
X113650000Y-78500000D02*
G75*
G02*
X112250000Y-78500000I-700000J0D01*
G01*
X112250000Y-78500000D02*
G75*
G02*
X113650000Y-78500000I700000J0D01*
G01*
X152540000Y-76090000D02*
X152540000Y-76350000D01*
X152540000Y-76090000D02*
X152800000Y-76090000D01*
X156560000Y-76090000D02*
X156300000Y-76090000D01*
X156560000Y-76090000D02*
X156560000Y-76350000D01*
X156560000Y-81510000D02*
X156300000Y-81510000D01*
X156560000Y-81510000D02*
X156560000Y-81250000D01*
D13*
X152540000Y-81870000D02*
X152180000Y-81510000D01*
X152540000Y-81510000D01*
X152540000Y-81870000D01*
G36*
X152540000Y-81870000D02*
G01*
X152180000Y-81510000D01*
X152540000Y-81510000D01*
X152540000Y-81870000D01*
G37*
D11*
X170750000Y-53050000D02*
X170750000Y-54550000D01*
X172000000Y-57050000D02*
X176500000Y-57050000D01*
X176500000Y-50550000D02*
X172000000Y-50550000D01*
X177750000Y-54550000D02*
X177750000Y-53050000D01*
X104287258Y-59627500D02*
X103812742Y-59627500D01*
X104287258Y-60672500D02*
X103812742Y-60672500D01*
X172090580Y-58140000D02*
X171809420Y-58140000D01*
X172090580Y-59160000D02*
X171809420Y-59160000D01*
X115550000Y-53050000D02*
X115550000Y-54550000D01*
X116800000Y-57050000D02*
X121300000Y-57050000D01*
X121300000Y-50550000D02*
X116800000Y-50550000D01*
X122550000Y-54550000D02*
X122550000Y-53050000D01*
X157340000Y-84059420D02*
X157340000Y-84340580D01*
X158360000Y-84059420D02*
X158360000Y-84340580D01*
X193770000Y-59025000D02*
X195100000Y-59025000D01*
X193770000Y-60355000D02*
X193770000Y-59025000D01*
X193770000Y-61625000D02*
X193770000Y-64225000D01*
X193770000Y-61625000D02*
X196430000Y-61625000D01*
X193770000Y-64225000D02*
X196430000Y-64225000D01*
X196430000Y-61625000D02*
X196430000Y-64225000D01*
X193820000Y-78150000D02*
X193820000Y-65390000D01*
X196480000Y-65390000D02*
X193820000Y-65390000D01*
X196480000Y-78150000D02*
X193820000Y-78150000D01*
X196480000Y-78150000D02*
X196480000Y-65390000D01*
X196480000Y-79420000D02*
X196480000Y-80750000D01*
X196480000Y-80750000D02*
X195150000Y-80750000D01*
X141050242Y-78227500D02*
X141524758Y-78227500D01*
X141050242Y-79272500D02*
X141524758Y-79272500D01*
X135719166Y-51834420D02*
X135719166Y-52115580D01*
X136739166Y-51834420D02*
X136739166Y-52115580D01*
X114050000Y-72990000D02*
X114050000Y-78500000D01*
X117350000Y-72990000D02*
X114050000Y-72990000D01*
X117350000Y-72990000D02*
X117350000Y-78500000D01*
X99712500Y-61110000D02*
X102397500Y-61110000D01*
X102397500Y-59190000D02*
X99712500Y-59190000D01*
X102397500Y-61110000D02*
X102397500Y-59190000D01*
X167134420Y-85415000D02*
X167415580Y-85415000D01*
X167134420Y-86435000D02*
X167415580Y-86435000D01*
X121471920Y-71490000D02*
X121753080Y-71490000D01*
X121471920Y-72510000D02*
X121753080Y-72510000D01*
X140050000Y-68690000D02*
X140050000Y-69690000D01*
X140050000Y-69690000D02*
X141550000Y-69690000D01*
X158450000Y-69690000D02*
X156950000Y-69690000D01*
X158450000Y-69690000D02*
X158450000Y-68690000D01*
X140050000Y-50715000D02*
X139550000Y-50715000D01*
X140050000Y-50215000D01*
X140050000Y-50715000D01*
G36*
X140050000Y-50715000D02*
G01*
X139550000Y-50715000D01*
X140050000Y-50215000D01*
X140050000Y-50715000D01*
G37*
%LPC*%
D14*
X165205000Y-54950000D03*
X163935000Y-54950000D03*
X162665000Y-54950000D03*
X161395000Y-54950000D03*
X161395000Y-62150000D03*
X162665000Y-62150000D03*
X163935000Y-62150000D03*
X165205000Y-62150000D03*
D15*
X165450000Y-77275000D03*
X163800000Y-77275000D03*
D16*
X124200000Y-79900000D03*
X124700000Y-79900000D03*
X125200000Y-79900000D03*
X125200000Y-78600000D03*
X124700000Y-78600000D03*
X124200000Y-78600000D03*
D17*
X192950000Y-54000000D03*
D18*
X144550000Y-76650000D03*
X144550000Y-77450000D03*
X144550000Y-78250000D03*
X144550000Y-79050000D03*
X144550000Y-79850000D03*
X144550000Y-80650000D03*
D19*
X145550000Y-80650000D03*
D18*
X146550000Y-80650000D03*
X146550000Y-79850000D03*
X146550000Y-79050000D03*
X146550000Y-78250000D03*
X146550000Y-77450000D03*
X146550000Y-76650000D03*
D19*
X145550000Y-76650000D03*
D20*
X125875000Y-51850000D03*
D21*
X128415000Y-51850000D03*
D22*
X163100000Y-71800000D03*
X164750000Y-71800000D03*
D23*
X121310000Y-84345000D03*
X127090000Y-84345000D03*
D24*
X121000000Y-83270000D03*
X121800000Y-83270000D03*
D25*
X122950000Y-83270000D03*
X123950000Y-83270000D03*
X124450000Y-83270000D03*
X125450000Y-83270000D03*
D24*
X126600000Y-83270000D03*
X127400000Y-83270000D03*
X127400000Y-83270000D03*
X126600000Y-83270000D03*
D25*
X125950000Y-83270000D03*
X124950000Y-83270000D03*
X123450000Y-83270000D03*
X122450000Y-83270000D03*
D24*
X121800000Y-83270000D03*
X121000000Y-83270000D03*
D26*
X119880000Y-83845000D03*
D27*
X119880000Y-88025000D03*
D26*
X128520000Y-83845000D03*
D27*
X128520000Y-88025000D03*
D15*
X171100000Y-71800000D03*
X169450000Y-71800000D03*
D22*
X143900000Y-82700000D03*
X145550000Y-82700000D03*
D28*
X142025000Y-76650000D03*
X140475000Y-76650000D03*
D29*
X171300000Y-85875000D03*
X171300000Y-87525000D03*
D15*
X122212500Y-58750000D03*
X120562500Y-58750000D03*
X166855000Y-52750000D03*
X165205000Y-52750000D03*
D28*
X117525000Y-58750000D03*
X115975000Y-58750000D03*
D15*
X168700000Y-63650000D03*
X167050000Y-63650000D03*
D30*
X138208332Y-51200000D03*
X138208332Y-52750000D03*
D29*
X160850000Y-73875000D03*
X160850000Y-75525000D03*
D31*
X166500000Y-84150000D03*
X167750000Y-84150000D03*
X169000000Y-84150000D03*
X170250000Y-84150000D03*
X170250000Y-82000000D03*
X169000000Y-82000000D03*
X167750000Y-82000000D03*
X166500000Y-82000000D03*
D32*
X120612500Y-80750000D03*
X118787500Y-80750000D03*
D29*
X116000000Y-67100000D03*
X116000000Y-68750000D03*
D15*
X157775000Y-74100000D03*
X156125000Y-74100000D03*
D33*
X118562500Y-73800000D03*
X118562500Y-74750000D03*
X118562500Y-75700000D03*
X120837500Y-75700000D03*
X120837500Y-73800000D03*
D15*
X117275000Y-87250000D03*
X115625000Y-87250000D03*
D30*
X153750000Y-83425000D03*
X153750000Y-84975000D03*
D34*
X169650000Y-87525000D03*
X169650000Y-85875000D03*
D29*
X134250000Y-51100000D03*
X134250000Y-52750000D03*
D35*
X167050000Y-62150000D03*
X167050000Y-60600000D03*
D28*
X118562500Y-72000000D03*
X117012500Y-72000000D03*
D15*
X104925000Y-62900000D03*
X103275000Y-62900000D03*
D34*
X160850000Y-78575000D03*
X160850000Y-76925000D03*
X166500000Y-89075000D03*
X166500000Y-87425000D03*
D15*
X187225000Y-58650000D03*
X185575000Y-58650000D03*
D36*
X101687500Y-62900000D03*
X99812500Y-62900000D03*
D17*
X100800000Y-54000000D03*
D29*
X167875000Y-72650000D03*
X167875000Y-74300000D03*
D15*
X151775000Y-83250000D03*
X150125000Y-83250000D03*
D37*
X114250000Y-68800000D03*
X114250000Y-67800000D03*
X112950000Y-68300000D03*
D38*
X157775000Y-79550000D03*
X159325000Y-79550000D03*
D39*
X112650000Y-56050000D03*
X106150000Y-56050000D03*
X112650000Y-51550000D03*
X106150000Y-51550000D03*
D28*
X182525000Y-58650000D03*
X180975000Y-58650000D03*
D39*
X180700000Y-51550000D03*
X187200000Y-51550000D03*
X180700000Y-56050000D03*
X187200000Y-56050000D03*
D40*
X104200000Y-76400000D03*
D39*
X104200000Y-71400000D03*
D36*
X101687500Y-65550000D03*
X99812500Y-65550000D03*
D28*
X117225000Y-82250000D03*
X115675000Y-82250000D03*
D22*
X128502500Y-55290000D03*
X130152500Y-55290000D03*
D34*
X131500000Y-52675000D03*
X131500000Y-51025000D03*
D30*
X124700000Y-75725000D03*
X124700000Y-77275000D03*
D34*
X104200000Y-83025000D03*
X104200000Y-81375000D03*
D28*
X107875000Y-58750000D03*
X106325000Y-58750000D03*
D15*
X177375000Y-58650000D03*
X175725000Y-58650000D03*
D29*
X166325000Y-72650000D03*
X166325000Y-74300000D03*
D41*
X120837500Y-70000000D03*
D28*
X142025000Y-80850000D03*
X140475000Y-80850000D03*
D15*
X104925000Y-65550000D03*
X103275000Y-65550000D03*
D34*
X155800000Y-84987500D03*
X155800000Y-83337500D03*
D15*
X117275000Y-85250000D03*
X115625000Y-85250000D03*
D28*
X117225000Y-80750000D03*
X115675000Y-80750000D03*
D15*
X112562500Y-58750000D03*
X110912500Y-58750000D03*
D17*
X100800000Y-86750000D03*
X192950000Y-86750000D03*
D15*
X167150000Y-75775000D03*
X165500000Y-75775000D03*
D41*
X112950000Y-78500000D03*
D42*
X152887500Y-81050000D03*
D43*
X153800000Y-81187500D03*
X154300000Y-81187500D03*
X154800000Y-81187500D03*
X155300000Y-81187500D03*
D42*
X156212500Y-81050000D03*
X156212500Y-80550000D03*
X156212500Y-80050000D03*
X156212500Y-79550000D03*
X156212500Y-79050000D03*
X156212500Y-78550000D03*
X156212500Y-78050000D03*
X156212500Y-77550000D03*
X156212500Y-77050000D03*
X156212500Y-76550000D03*
D43*
X155300000Y-76412500D03*
X154800000Y-76412500D03*
X154300000Y-76412500D03*
X153800000Y-76412500D03*
D42*
X152887500Y-76550000D03*
X152887500Y-77050000D03*
X152887500Y-77550000D03*
X152887500Y-78050000D03*
X152887500Y-78550000D03*
X152887500Y-79050000D03*
X152887500Y-79550000D03*
X152887500Y-80050000D03*
X152887500Y-80550000D03*
D39*
X171000000Y-51550000D03*
X177500000Y-51550000D03*
X171000000Y-56050000D03*
X177500000Y-56050000D03*
D15*
X104875000Y-60150000D03*
X103225000Y-60150000D03*
D28*
X172725000Y-58650000D03*
X171175000Y-58650000D03*
D39*
X122300000Y-56050000D03*
X115800000Y-56050000D03*
X122300000Y-51550000D03*
X115800000Y-51550000D03*
D30*
X157850000Y-83425000D03*
X157850000Y-84975000D03*
D20*
X195100000Y-60355000D03*
D21*
X195100000Y-62895000D03*
D20*
X195150000Y-79420000D03*
D21*
X195150000Y-76880000D03*
X195150000Y-74340000D03*
X195150000Y-71800000D03*
X195150000Y-69260000D03*
X195150000Y-66720000D03*
D22*
X140462500Y-78750000D03*
X142112500Y-78750000D03*
D30*
X136229166Y-51200000D03*
X136229166Y-52750000D03*
D44*
X115700000Y-74500000D03*
X115700000Y-78500000D03*
D36*
X101650000Y-60150000D03*
X99775000Y-60150000D03*
D38*
X166500000Y-85925000D03*
X168050000Y-85925000D03*
X120837500Y-72000000D03*
X122387500Y-72000000D03*
D45*
X140500000Y-51480000D03*
X140500000Y-52750000D03*
X140500000Y-54020000D03*
X140500000Y-55290000D03*
X140500000Y-56560000D03*
X140500000Y-57830000D03*
X140500000Y-59100000D03*
X140500000Y-60370000D03*
X140500000Y-61640000D03*
X140500000Y-62910000D03*
X140500000Y-64180000D03*
X140500000Y-65450000D03*
X140500000Y-66720000D03*
X140500000Y-67990000D03*
D46*
X142265000Y-69240000D03*
X143535000Y-69240000D03*
X144805000Y-69240000D03*
X146075000Y-69240000D03*
X147345000Y-69240000D03*
X148615000Y-69240000D03*
X149885000Y-69240000D03*
X151155000Y-69240000D03*
X152425000Y-69240000D03*
X153695000Y-69240000D03*
X154965000Y-69240000D03*
X156235000Y-69240000D03*
D45*
X158000000Y-67990000D03*
X158000000Y-66720000D03*
X158000000Y-65450000D03*
X158000000Y-64180000D03*
X158000000Y-62910000D03*
X158000000Y-61640000D03*
X158000000Y-60370000D03*
X158000000Y-59100000D03*
X158000000Y-57830000D03*
X158000000Y-56560000D03*
X158000000Y-55290000D03*
X158000000Y-54020000D03*
X158000000Y-52750000D03*
X158000000Y-51480000D03*
D47*
X146350000Y-58500000D03*
X146350000Y-59900000D03*
X147050000Y-57800000D03*
X147050000Y-59200000D03*
X147050000Y-60600000D03*
X147750000Y-58500000D03*
D48*
X147750000Y-59200000D03*
D47*
X147750000Y-59900000D03*
X148450000Y-57800000D03*
X148450000Y-59200000D03*
X148450000Y-60600000D03*
X149150000Y-58500000D03*
X149150000Y-59900000D03*
%LPD*%
M02*
