%TF.GenerationSoftware,KiCad,Pcbnew,8.0.5*%
%TF.CreationDate,2024-11-13T12:29:47-06:00*%
%TF.ProjectId,APG_Sensor_Test_Board,4150475f-5365-46e7-936f-725f54657374,rev?*%
%TF.SameCoordinates,Original*%
%TF.FileFunction,Drillmap*%
%TF.FilePolarity,Positive*%
%FSLAX45Y45*%
G04 Gerber Fmt 4.5, Leading zero omitted, Abs format (unit mm)*
G04 Created by KiCad (PCBNEW 8.0.5) date 2024-11-13 12:29:47*
%MOMM*%
%LPD*%
G01*
G04 APERTURE LIST*
%ADD10C,0.050000*%
%ADD11C,0.200000*%
%ADD12C,0.100000*%
%ADD13C,0.320000*%
G04 APERTURE END LIST*
D10*
X9700000Y-5250000D02*
G75*
G02*
X9950000Y-5000000I250000J0D01*
G01*
X19700000Y-8810000D02*
X19700000Y-5250000D01*
X9950000Y-9055000D02*
G75*
G02*
X9700000Y-8805000I0J250000D01*
G01*
X19450000Y-5000000D02*
X9950000Y-5000000D01*
X9950000Y-9055000D02*
X19450000Y-9060000D01*
X19700000Y-8810000D02*
G75*
G02*
X19450000Y-9060000I-250000J0D01*
G01*
X16600000Y-8075000D02*
X16530000Y-8075000D01*
X16530000Y-8900000D01*
X16375000Y-8900000D01*
X16375000Y-7915000D01*
X16600000Y-7915000D01*
X16600000Y-8075000D01*
X19450000Y-5000000D02*
G75*
G02*
X19700000Y-5250000I0J-250000D01*
G01*
X9700000Y-8805000D02*
X9700000Y-5250000D01*
X17375000Y-8900000D02*
X17275000Y-8900000D01*
X17275000Y-8075000D01*
X16825000Y-8075000D01*
X16825000Y-7915000D01*
X17375000Y-7915000D01*
X17375000Y-8900000D01*
D11*
D12*
X12098500Y-8402000D02*
X12163500Y-8467000D01*
X12163500Y-8402000D02*
X12098500Y-8467000D01*
X12676500Y-8402000D02*
X12741500Y-8467000D01*
X12741500Y-8402000D02*
X12676500Y-8467000D01*
D13*
X10240000Y-5400000D02*
G75*
G02*
X9920000Y-5400000I-160000J0D01*
G01*
X9920000Y-5400000D02*
G75*
G02*
X10240000Y-5400000I160000J0D01*
G01*
X10240000Y-8675000D02*
G75*
G02*
X9920000Y-8675000I-160000J0D01*
G01*
X9920000Y-8675000D02*
G75*
G02*
X10240000Y-8675000I160000J0D01*
G01*
X19455000Y-5400000D02*
G75*
G02*
X19135000Y-5400000I-160000J0D01*
G01*
X19135000Y-5400000D02*
G75*
G02*
X19455000Y-5400000I160000J0D01*
G01*
X19455000Y-8675000D02*
G75*
G02*
X19135000Y-8675000I-160000J0D01*
G01*
X19135000Y-8675000D02*
G75*
G02*
X19455000Y-8675000I160000J0D01*
G01*
D11*
X9958277Y-9373984D02*
X9958277Y-9173984D01*
X9958277Y-9173984D02*
X10005896Y-9173984D01*
X10005896Y-9173984D02*
X10034467Y-9183508D01*
X10034467Y-9183508D02*
X10053515Y-9202555D01*
X10053515Y-9202555D02*
X10063039Y-9221603D01*
X10063039Y-9221603D02*
X10072563Y-9259698D01*
X10072563Y-9259698D02*
X10072563Y-9288270D01*
X10072563Y-9288270D02*
X10063039Y-9326365D01*
X10063039Y-9326365D02*
X10053515Y-9345412D01*
X10053515Y-9345412D02*
X10034467Y-9364460D01*
X10034467Y-9364460D02*
X10005896Y-9373984D01*
X10005896Y-9373984D02*
X9958277Y-9373984D01*
X10158277Y-9373984D02*
X10158277Y-9240650D01*
X10158277Y-9278746D02*
X10167801Y-9259698D01*
X10167801Y-9259698D02*
X10177324Y-9250174D01*
X10177324Y-9250174D02*
X10196372Y-9240650D01*
X10196372Y-9240650D02*
X10215420Y-9240650D01*
X10282086Y-9373984D02*
X10282086Y-9240650D01*
X10282086Y-9173984D02*
X10272563Y-9183508D01*
X10272563Y-9183508D02*
X10282086Y-9193031D01*
X10282086Y-9193031D02*
X10291610Y-9183508D01*
X10291610Y-9183508D02*
X10282086Y-9173984D01*
X10282086Y-9173984D02*
X10282086Y-9193031D01*
X10405896Y-9373984D02*
X10386848Y-9364460D01*
X10386848Y-9364460D02*
X10377324Y-9345412D01*
X10377324Y-9345412D02*
X10377324Y-9173984D01*
X10510658Y-9373984D02*
X10491610Y-9364460D01*
X10491610Y-9364460D02*
X10482086Y-9345412D01*
X10482086Y-9345412D02*
X10482086Y-9173984D01*
X10739229Y-9373984D02*
X10739229Y-9173984D01*
X10739229Y-9173984D02*
X10805896Y-9316841D01*
X10805896Y-9316841D02*
X10872563Y-9173984D01*
X10872563Y-9173984D02*
X10872563Y-9373984D01*
X11053515Y-9373984D02*
X11053515Y-9269222D01*
X11053515Y-9269222D02*
X11043991Y-9250174D01*
X11043991Y-9250174D02*
X11024944Y-9240650D01*
X11024944Y-9240650D02*
X10986848Y-9240650D01*
X10986848Y-9240650D02*
X10967801Y-9250174D01*
X11053515Y-9364460D02*
X11034467Y-9373984D01*
X11034467Y-9373984D02*
X10986848Y-9373984D01*
X10986848Y-9373984D02*
X10967801Y-9364460D01*
X10967801Y-9364460D02*
X10958277Y-9345412D01*
X10958277Y-9345412D02*
X10958277Y-9326365D01*
X10958277Y-9326365D02*
X10967801Y-9307317D01*
X10967801Y-9307317D02*
X10986848Y-9297793D01*
X10986848Y-9297793D02*
X11034467Y-9297793D01*
X11034467Y-9297793D02*
X11053515Y-9288270D01*
X11148753Y-9240650D02*
X11148753Y-9440650D01*
X11148753Y-9250174D02*
X11167801Y-9240650D01*
X11167801Y-9240650D02*
X11205896Y-9240650D01*
X11205896Y-9240650D02*
X11224943Y-9250174D01*
X11224943Y-9250174D02*
X11234467Y-9259698D01*
X11234467Y-9259698D02*
X11243991Y-9278746D01*
X11243991Y-9278746D02*
X11243991Y-9335889D01*
X11243991Y-9335889D02*
X11234467Y-9354936D01*
X11234467Y-9354936D02*
X11224943Y-9364460D01*
X11224943Y-9364460D02*
X11205896Y-9373984D01*
X11205896Y-9373984D02*
X11167801Y-9373984D01*
X11167801Y-9373984D02*
X11148753Y-9364460D01*
X11329705Y-9354936D02*
X11339229Y-9364460D01*
X11339229Y-9364460D02*
X11329705Y-9373984D01*
X11329705Y-9373984D02*
X11320182Y-9364460D01*
X11320182Y-9364460D02*
X11329705Y-9354936D01*
X11329705Y-9354936D02*
X11329705Y-9373984D01*
X11329705Y-9250174D02*
X11339229Y-9259698D01*
X11339229Y-9259698D02*
X11329705Y-9269222D01*
X11329705Y-9269222D02*
X11320182Y-9259698D01*
X11320182Y-9259698D02*
X11329705Y-9250174D01*
X11329705Y-9250174D02*
X11329705Y-9269222D01*
D12*
X9632500Y-9670000D02*
X9697500Y-9735000D01*
X9697500Y-9670000D02*
X9632500Y-9735000D01*
D11*
X9996372Y-9593984D02*
X10015420Y-9593984D01*
X10015420Y-9593984D02*
X10034467Y-9603508D01*
X10034467Y-9603508D02*
X10043991Y-9613031D01*
X10043991Y-9613031D02*
X10053515Y-9632079D01*
X10053515Y-9632079D02*
X10063039Y-9670174D01*
X10063039Y-9670174D02*
X10063039Y-9717793D01*
X10063039Y-9717793D02*
X10053515Y-9755889D01*
X10053515Y-9755889D02*
X10043991Y-9774936D01*
X10043991Y-9774936D02*
X10034467Y-9784460D01*
X10034467Y-9784460D02*
X10015420Y-9793984D01*
X10015420Y-9793984D02*
X9996372Y-9793984D01*
X9996372Y-9793984D02*
X9977324Y-9784460D01*
X9977324Y-9784460D02*
X9967801Y-9774936D01*
X9967801Y-9774936D02*
X9958277Y-9755889D01*
X9958277Y-9755889D02*
X9948753Y-9717793D01*
X9948753Y-9717793D02*
X9948753Y-9670174D01*
X9948753Y-9670174D02*
X9958277Y-9632079D01*
X9958277Y-9632079D02*
X9967801Y-9613031D01*
X9967801Y-9613031D02*
X9977324Y-9603508D01*
X9977324Y-9603508D02*
X9996372Y-9593984D01*
X10148753Y-9774936D02*
X10158277Y-9784460D01*
X10158277Y-9784460D02*
X10148753Y-9793984D01*
X10148753Y-9793984D02*
X10139229Y-9784460D01*
X10139229Y-9784460D02*
X10148753Y-9774936D01*
X10148753Y-9774936D02*
X10148753Y-9793984D01*
X10329705Y-9593984D02*
X10291610Y-9593984D01*
X10291610Y-9593984D02*
X10272563Y-9603508D01*
X10272563Y-9603508D02*
X10263039Y-9613031D01*
X10263039Y-9613031D02*
X10243991Y-9641603D01*
X10243991Y-9641603D02*
X10234467Y-9679698D01*
X10234467Y-9679698D02*
X10234467Y-9755889D01*
X10234467Y-9755889D02*
X10243991Y-9774936D01*
X10243991Y-9774936D02*
X10253515Y-9784460D01*
X10253515Y-9784460D02*
X10272563Y-9793984D01*
X10272563Y-9793984D02*
X10310658Y-9793984D01*
X10310658Y-9793984D02*
X10329705Y-9784460D01*
X10329705Y-9784460D02*
X10339229Y-9774936D01*
X10339229Y-9774936D02*
X10348753Y-9755889D01*
X10348753Y-9755889D02*
X10348753Y-9708270D01*
X10348753Y-9708270D02*
X10339229Y-9689222D01*
X10339229Y-9689222D02*
X10329705Y-9679698D01*
X10329705Y-9679698D02*
X10310658Y-9670174D01*
X10310658Y-9670174D02*
X10272563Y-9670174D01*
X10272563Y-9670174D02*
X10253515Y-9679698D01*
X10253515Y-9679698D02*
X10243991Y-9689222D01*
X10243991Y-9689222D02*
X10234467Y-9708270D01*
X10529705Y-9593984D02*
X10434467Y-9593984D01*
X10434467Y-9593984D02*
X10424944Y-9689222D01*
X10424944Y-9689222D02*
X10434467Y-9679698D01*
X10434467Y-9679698D02*
X10453515Y-9670174D01*
X10453515Y-9670174D02*
X10501134Y-9670174D01*
X10501134Y-9670174D02*
X10520182Y-9679698D01*
X10520182Y-9679698D02*
X10529705Y-9689222D01*
X10529705Y-9689222D02*
X10539229Y-9708270D01*
X10539229Y-9708270D02*
X10539229Y-9755889D01*
X10539229Y-9755889D02*
X10529705Y-9774936D01*
X10529705Y-9774936D02*
X10520182Y-9784460D01*
X10520182Y-9784460D02*
X10501134Y-9793984D01*
X10501134Y-9793984D02*
X10453515Y-9793984D01*
X10453515Y-9793984D02*
X10434467Y-9784460D01*
X10434467Y-9784460D02*
X10424944Y-9774936D01*
X10663039Y-9593984D02*
X10682086Y-9593984D01*
X10682086Y-9593984D02*
X10701134Y-9603508D01*
X10701134Y-9603508D02*
X10710658Y-9613031D01*
X10710658Y-9613031D02*
X10720182Y-9632079D01*
X10720182Y-9632079D02*
X10729705Y-9670174D01*
X10729705Y-9670174D02*
X10729705Y-9717793D01*
X10729705Y-9717793D02*
X10720182Y-9755889D01*
X10720182Y-9755889D02*
X10710658Y-9774936D01*
X10710658Y-9774936D02*
X10701134Y-9784460D01*
X10701134Y-9784460D02*
X10682086Y-9793984D01*
X10682086Y-9793984D02*
X10663039Y-9793984D01*
X10663039Y-9793984D02*
X10643991Y-9784460D01*
X10643991Y-9784460D02*
X10634467Y-9774936D01*
X10634467Y-9774936D02*
X10624944Y-9755889D01*
X10624944Y-9755889D02*
X10615420Y-9717793D01*
X10615420Y-9717793D02*
X10615420Y-9670174D01*
X10615420Y-9670174D02*
X10624944Y-9632079D01*
X10624944Y-9632079D02*
X10634467Y-9613031D01*
X10634467Y-9613031D02*
X10643991Y-9603508D01*
X10643991Y-9603508D02*
X10663039Y-9593984D01*
X10815420Y-9793984D02*
X10815420Y-9660650D01*
X10815420Y-9679698D02*
X10824944Y-9670174D01*
X10824944Y-9670174D02*
X10843991Y-9660650D01*
X10843991Y-9660650D02*
X10872563Y-9660650D01*
X10872563Y-9660650D02*
X10891610Y-9670174D01*
X10891610Y-9670174D02*
X10901134Y-9689222D01*
X10901134Y-9689222D02*
X10901134Y-9793984D01*
X10901134Y-9689222D02*
X10910658Y-9670174D01*
X10910658Y-9670174D02*
X10929705Y-9660650D01*
X10929705Y-9660650D02*
X10958277Y-9660650D01*
X10958277Y-9660650D02*
X10977325Y-9670174D01*
X10977325Y-9670174D02*
X10986848Y-9689222D01*
X10986848Y-9689222D02*
X10986848Y-9793984D01*
X11082086Y-9793984D02*
X11082086Y-9660650D01*
X11082086Y-9679698D02*
X11091610Y-9670174D01*
X11091610Y-9670174D02*
X11110658Y-9660650D01*
X11110658Y-9660650D02*
X11139229Y-9660650D01*
X11139229Y-9660650D02*
X11158277Y-9670174D01*
X11158277Y-9670174D02*
X11167801Y-9689222D01*
X11167801Y-9689222D02*
X11167801Y-9793984D01*
X11167801Y-9689222D02*
X11177325Y-9670174D01*
X11177325Y-9670174D02*
X11196372Y-9660650D01*
X11196372Y-9660650D02*
X11224943Y-9660650D01*
X11224943Y-9660650D02*
X11243991Y-9670174D01*
X11243991Y-9670174D02*
X11253515Y-9689222D01*
X11253515Y-9689222D02*
X11253515Y-9793984D01*
X11643991Y-9584460D02*
X11472563Y-9841603D01*
X11901134Y-9593984D02*
X11920182Y-9593984D01*
X11920182Y-9593984D02*
X11939229Y-9603508D01*
X11939229Y-9603508D02*
X11948753Y-9613031D01*
X11948753Y-9613031D02*
X11958277Y-9632079D01*
X11958277Y-9632079D02*
X11967801Y-9670174D01*
X11967801Y-9670174D02*
X11967801Y-9717793D01*
X11967801Y-9717793D02*
X11958277Y-9755889D01*
X11958277Y-9755889D02*
X11948753Y-9774936D01*
X11948753Y-9774936D02*
X11939229Y-9784460D01*
X11939229Y-9784460D02*
X11920182Y-9793984D01*
X11920182Y-9793984D02*
X11901134Y-9793984D01*
X11901134Y-9793984D02*
X11882086Y-9784460D01*
X11882086Y-9784460D02*
X11872563Y-9774936D01*
X11872563Y-9774936D02*
X11863039Y-9755889D01*
X11863039Y-9755889D02*
X11853515Y-9717793D01*
X11853515Y-9717793D02*
X11853515Y-9670174D01*
X11853515Y-9670174D02*
X11863039Y-9632079D01*
X11863039Y-9632079D02*
X11872563Y-9613031D01*
X11872563Y-9613031D02*
X11882086Y-9603508D01*
X11882086Y-9603508D02*
X11901134Y-9593984D01*
X12053515Y-9774936D02*
X12063039Y-9784460D01*
X12063039Y-9784460D02*
X12053515Y-9793984D01*
X12053515Y-9793984D02*
X12043991Y-9784460D01*
X12043991Y-9784460D02*
X12053515Y-9774936D01*
X12053515Y-9774936D02*
X12053515Y-9793984D01*
X12186848Y-9593984D02*
X12205896Y-9593984D01*
X12205896Y-9593984D02*
X12224944Y-9603508D01*
X12224944Y-9603508D02*
X12234467Y-9613031D01*
X12234467Y-9613031D02*
X12243991Y-9632079D01*
X12243991Y-9632079D02*
X12253515Y-9670174D01*
X12253515Y-9670174D02*
X12253515Y-9717793D01*
X12253515Y-9717793D02*
X12243991Y-9755889D01*
X12243991Y-9755889D02*
X12234467Y-9774936D01*
X12234467Y-9774936D02*
X12224944Y-9784460D01*
X12224944Y-9784460D02*
X12205896Y-9793984D01*
X12205896Y-9793984D02*
X12186848Y-9793984D01*
X12186848Y-9793984D02*
X12167801Y-9784460D01*
X12167801Y-9784460D02*
X12158277Y-9774936D01*
X12158277Y-9774936D02*
X12148753Y-9755889D01*
X12148753Y-9755889D02*
X12139229Y-9717793D01*
X12139229Y-9717793D02*
X12139229Y-9670174D01*
X12139229Y-9670174D02*
X12148753Y-9632079D01*
X12148753Y-9632079D02*
X12158277Y-9613031D01*
X12158277Y-9613031D02*
X12167801Y-9603508D01*
X12167801Y-9603508D02*
X12186848Y-9593984D01*
X12329706Y-9613031D02*
X12339229Y-9603508D01*
X12339229Y-9603508D02*
X12358277Y-9593984D01*
X12358277Y-9593984D02*
X12405896Y-9593984D01*
X12405896Y-9593984D02*
X12424944Y-9603508D01*
X12424944Y-9603508D02*
X12434467Y-9613031D01*
X12434467Y-9613031D02*
X12443991Y-9632079D01*
X12443991Y-9632079D02*
X12443991Y-9651127D01*
X12443991Y-9651127D02*
X12434467Y-9679698D01*
X12434467Y-9679698D02*
X12320182Y-9793984D01*
X12320182Y-9793984D02*
X12443991Y-9793984D01*
X12624944Y-9593984D02*
X12529706Y-9593984D01*
X12529706Y-9593984D02*
X12520182Y-9689222D01*
X12520182Y-9689222D02*
X12529706Y-9679698D01*
X12529706Y-9679698D02*
X12548753Y-9670174D01*
X12548753Y-9670174D02*
X12596372Y-9670174D01*
X12596372Y-9670174D02*
X12615420Y-9679698D01*
X12615420Y-9679698D02*
X12624944Y-9689222D01*
X12624944Y-9689222D02*
X12634467Y-9708270D01*
X12634467Y-9708270D02*
X12634467Y-9755889D01*
X12634467Y-9755889D02*
X12624944Y-9774936D01*
X12624944Y-9774936D02*
X12615420Y-9784460D01*
X12615420Y-9784460D02*
X12596372Y-9793984D01*
X12596372Y-9793984D02*
X12548753Y-9793984D01*
X12548753Y-9793984D02*
X12529706Y-9784460D01*
X12529706Y-9784460D02*
X12520182Y-9774936D01*
X12805896Y-9593984D02*
X12767801Y-9593984D01*
X12767801Y-9593984D02*
X12748753Y-9603508D01*
X12748753Y-9603508D02*
X12739229Y-9613031D01*
X12739229Y-9613031D02*
X12720182Y-9641603D01*
X12720182Y-9641603D02*
X12710658Y-9679698D01*
X12710658Y-9679698D02*
X12710658Y-9755889D01*
X12710658Y-9755889D02*
X12720182Y-9774936D01*
X12720182Y-9774936D02*
X12729706Y-9784460D01*
X12729706Y-9784460D02*
X12748753Y-9793984D01*
X12748753Y-9793984D02*
X12786848Y-9793984D01*
X12786848Y-9793984D02*
X12805896Y-9784460D01*
X12805896Y-9784460D02*
X12815420Y-9774936D01*
X12815420Y-9774936D02*
X12824944Y-9755889D01*
X12824944Y-9755889D02*
X12824944Y-9708270D01*
X12824944Y-9708270D02*
X12815420Y-9689222D01*
X12815420Y-9689222D02*
X12805896Y-9679698D01*
X12805896Y-9679698D02*
X12786848Y-9670174D01*
X12786848Y-9670174D02*
X12748753Y-9670174D01*
X12748753Y-9670174D02*
X12729706Y-9679698D01*
X12729706Y-9679698D02*
X12720182Y-9689222D01*
X12720182Y-9689222D02*
X12710658Y-9708270D01*
X12901134Y-9593984D02*
X12901134Y-9632079D01*
X12977325Y-9593984D02*
X12977325Y-9632079D01*
X13272563Y-9870174D02*
X13263039Y-9860650D01*
X13263039Y-9860650D02*
X13243991Y-9832079D01*
X13243991Y-9832079D02*
X13234468Y-9813031D01*
X13234468Y-9813031D02*
X13224944Y-9784460D01*
X13224944Y-9784460D02*
X13215420Y-9736841D01*
X13215420Y-9736841D02*
X13215420Y-9698746D01*
X13215420Y-9698746D02*
X13224944Y-9651127D01*
X13224944Y-9651127D02*
X13234468Y-9622555D01*
X13234468Y-9622555D02*
X13243991Y-9603508D01*
X13243991Y-9603508D02*
X13263039Y-9574936D01*
X13263039Y-9574936D02*
X13272563Y-9565412D01*
X13339229Y-9613031D02*
X13348753Y-9603508D01*
X13348753Y-9603508D02*
X13367801Y-9593984D01*
X13367801Y-9593984D02*
X13415420Y-9593984D01*
X13415420Y-9593984D02*
X13434468Y-9603508D01*
X13434468Y-9603508D02*
X13443991Y-9613031D01*
X13443991Y-9613031D02*
X13453515Y-9632079D01*
X13453515Y-9632079D02*
X13453515Y-9651127D01*
X13453515Y-9651127D02*
X13443991Y-9679698D01*
X13443991Y-9679698D02*
X13329706Y-9793984D01*
X13329706Y-9793984D02*
X13453515Y-9793984D01*
X13691610Y-9793984D02*
X13691610Y-9593984D01*
X13777325Y-9793984D02*
X13777325Y-9689222D01*
X13777325Y-9689222D02*
X13767801Y-9670174D01*
X13767801Y-9670174D02*
X13748753Y-9660650D01*
X13748753Y-9660650D02*
X13720182Y-9660650D01*
X13720182Y-9660650D02*
X13701134Y-9670174D01*
X13701134Y-9670174D02*
X13691610Y-9679698D01*
X13901134Y-9793984D02*
X13882087Y-9784460D01*
X13882087Y-9784460D02*
X13872563Y-9774936D01*
X13872563Y-9774936D02*
X13863039Y-9755889D01*
X13863039Y-9755889D02*
X13863039Y-9698746D01*
X13863039Y-9698746D02*
X13872563Y-9679698D01*
X13872563Y-9679698D02*
X13882087Y-9670174D01*
X13882087Y-9670174D02*
X13901134Y-9660650D01*
X13901134Y-9660650D02*
X13929706Y-9660650D01*
X13929706Y-9660650D02*
X13948753Y-9670174D01*
X13948753Y-9670174D02*
X13958277Y-9679698D01*
X13958277Y-9679698D02*
X13967801Y-9698746D01*
X13967801Y-9698746D02*
X13967801Y-9755889D01*
X13967801Y-9755889D02*
X13958277Y-9774936D01*
X13958277Y-9774936D02*
X13948753Y-9784460D01*
X13948753Y-9784460D02*
X13929706Y-9793984D01*
X13929706Y-9793984D02*
X13901134Y-9793984D01*
X14082087Y-9793984D02*
X14063039Y-9784460D01*
X14063039Y-9784460D02*
X14053515Y-9765412D01*
X14053515Y-9765412D02*
X14053515Y-9593984D01*
X14234468Y-9784460D02*
X14215420Y-9793984D01*
X14215420Y-9793984D02*
X14177325Y-9793984D01*
X14177325Y-9793984D02*
X14158277Y-9784460D01*
X14158277Y-9784460D02*
X14148753Y-9765412D01*
X14148753Y-9765412D02*
X14148753Y-9689222D01*
X14148753Y-9689222D02*
X14158277Y-9670174D01*
X14158277Y-9670174D02*
X14177325Y-9660650D01*
X14177325Y-9660650D02*
X14215420Y-9660650D01*
X14215420Y-9660650D02*
X14234468Y-9670174D01*
X14234468Y-9670174D02*
X14243991Y-9689222D01*
X14243991Y-9689222D02*
X14243991Y-9708270D01*
X14243991Y-9708270D02*
X14148753Y-9727317D01*
X14320182Y-9784460D02*
X14339230Y-9793984D01*
X14339230Y-9793984D02*
X14377325Y-9793984D01*
X14377325Y-9793984D02*
X14396372Y-9784460D01*
X14396372Y-9784460D02*
X14405896Y-9765412D01*
X14405896Y-9765412D02*
X14405896Y-9755889D01*
X14405896Y-9755889D02*
X14396372Y-9736841D01*
X14396372Y-9736841D02*
X14377325Y-9727317D01*
X14377325Y-9727317D02*
X14348753Y-9727317D01*
X14348753Y-9727317D02*
X14329706Y-9717793D01*
X14329706Y-9717793D02*
X14320182Y-9698746D01*
X14320182Y-9698746D02*
X14320182Y-9689222D01*
X14320182Y-9689222D02*
X14329706Y-9670174D01*
X14329706Y-9670174D02*
X14348753Y-9660650D01*
X14348753Y-9660650D02*
X14377325Y-9660650D01*
X14377325Y-9660650D02*
X14396372Y-9670174D01*
X14472563Y-9870174D02*
X14482087Y-9860650D01*
X14482087Y-9860650D02*
X14501134Y-9832079D01*
X14501134Y-9832079D02*
X14510658Y-9813031D01*
X14510658Y-9813031D02*
X14520182Y-9784460D01*
X14520182Y-9784460D02*
X14529706Y-9736841D01*
X14529706Y-9736841D02*
X14529706Y-9698746D01*
X14529706Y-9698746D02*
X14520182Y-9651127D01*
X14520182Y-9651127D02*
X14510658Y-9622555D01*
X14510658Y-9622555D02*
X14501134Y-9603508D01*
X14501134Y-9603508D02*
X14482087Y-9574936D01*
X14482087Y-9574936D02*
X14472563Y-9565412D01*
X14834468Y-9870174D02*
X14824944Y-9860650D01*
X14824944Y-9860650D02*
X14805896Y-9832079D01*
X14805896Y-9832079D02*
X14796372Y-9813031D01*
X14796372Y-9813031D02*
X14786849Y-9784460D01*
X14786849Y-9784460D02*
X14777325Y-9736841D01*
X14777325Y-9736841D02*
X14777325Y-9698746D01*
X14777325Y-9698746D02*
X14786849Y-9651127D01*
X14786849Y-9651127D02*
X14796372Y-9622555D01*
X14796372Y-9622555D02*
X14805896Y-9603508D01*
X14805896Y-9603508D02*
X14824944Y-9574936D01*
X14824944Y-9574936D02*
X14834468Y-9565412D01*
X14910658Y-9660650D02*
X14910658Y-9793984D01*
X14910658Y-9679698D02*
X14920182Y-9670174D01*
X14920182Y-9670174D02*
X14939230Y-9660650D01*
X14939230Y-9660650D02*
X14967801Y-9660650D01*
X14967801Y-9660650D02*
X14986849Y-9670174D01*
X14986849Y-9670174D02*
X14996372Y-9689222D01*
X14996372Y-9689222D02*
X14996372Y-9793984D01*
X15120182Y-9793984D02*
X15101134Y-9784460D01*
X15101134Y-9784460D02*
X15091611Y-9774936D01*
X15091611Y-9774936D02*
X15082087Y-9755889D01*
X15082087Y-9755889D02*
X15082087Y-9698746D01*
X15082087Y-9698746D02*
X15091611Y-9679698D01*
X15091611Y-9679698D02*
X15101134Y-9670174D01*
X15101134Y-9670174D02*
X15120182Y-9660650D01*
X15120182Y-9660650D02*
X15148753Y-9660650D01*
X15148753Y-9660650D02*
X15167801Y-9670174D01*
X15167801Y-9670174D02*
X15177325Y-9679698D01*
X15177325Y-9679698D02*
X15186849Y-9698746D01*
X15186849Y-9698746D02*
X15186849Y-9755889D01*
X15186849Y-9755889D02*
X15177325Y-9774936D01*
X15177325Y-9774936D02*
X15167801Y-9784460D01*
X15167801Y-9784460D02*
X15148753Y-9793984D01*
X15148753Y-9793984D02*
X15120182Y-9793984D01*
X15243992Y-9660650D02*
X15320182Y-9660650D01*
X15272563Y-9593984D02*
X15272563Y-9765412D01*
X15272563Y-9765412D02*
X15282087Y-9784460D01*
X15282087Y-9784460D02*
X15301134Y-9793984D01*
X15301134Y-9793984D02*
X15320182Y-9793984D01*
X15539230Y-9660650D02*
X15539230Y-9860650D01*
X15539230Y-9670174D02*
X15558277Y-9660650D01*
X15558277Y-9660650D02*
X15596373Y-9660650D01*
X15596373Y-9660650D02*
X15615420Y-9670174D01*
X15615420Y-9670174D02*
X15624944Y-9679698D01*
X15624944Y-9679698D02*
X15634468Y-9698746D01*
X15634468Y-9698746D02*
X15634468Y-9755889D01*
X15634468Y-9755889D02*
X15624944Y-9774936D01*
X15624944Y-9774936D02*
X15615420Y-9784460D01*
X15615420Y-9784460D02*
X15596373Y-9793984D01*
X15596373Y-9793984D02*
X15558277Y-9793984D01*
X15558277Y-9793984D02*
X15539230Y-9784460D01*
X15748753Y-9793984D02*
X15729706Y-9784460D01*
X15729706Y-9784460D02*
X15720182Y-9765412D01*
X15720182Y-9765412D02*
X15720182Y-9593984D01*
X15910658Y-9793984D02*
X15910658Y-9689222D01*
X15910658Y-9689222D02*
X15901134Y-9670174D01*
X15901134Y-9670174D02*
X15882087Y-9660650D01*
X15882087Y-9660650D02*
X15843992Y-9660650D01*
X15843992Y-9660650D02*
X15824944Y-9670174D01*
X15910658Y-9784460D02*
X15891611Y-9793984D01*
X15891611Y-9793984D02*
X15843992Y-9793984D01*
X15843992Y-9793984D02*
X15824944Y-9784460D01*
X15824944Y-9784460D02*
X15815420Y-9765412D01*
X15815420Y-9765412D02*
X15815420Y-9746365D01*
X15815420Y-9746365D02*
X15824944Y-9727317D01*
X15824944Y-9727317D02*
X15843992Y-9717793D01*
X15843992Y-9717793D02*
X15891611Y-9717793D01*
X15891611Y-9717793D02*
X15910658Y-9708270D01*
X15977325Y-9660650D02*
X16053515Y-9660650D01*
X16005896Y-9593984D02*
X16005896Y-9765412D01*
X16005896Y-9765412D02*
X16015420Y-9784460D01*
X16015420Y-9784460D02*
X16034468Y-9793984D01*
X16034468Y-9793984D02*
X16053515Y-9793984D01*
X16196373Y-9784460D02*
X16177325Y-9793984D01*
X16177325Y-9793984D02*
X16139230Y-9793984D01*
X16139230Y-9793984D02*
X16120182Y-9784460D01*
X16120182Y-9784460D02*
X16110658Y-9765412D01*
X16110658Y-9765412D02*
X16110658Y-9689222D01*
X16110658Y-9689222D02*
X16120182Y-9670174D01*
X16120182Y-9670174D02*
X16139230Y-9660650D01*
X16139230Y-9660650D02*
X16177325Y-9660650D01*
X16177325Y-9660650D02*
X16196373Y-9670174D01*
X16196373Y-9670174D02*
X16205896Y-9689222D01*
X16205896Y-9689222D02*
X16205896Y-9708270D01*
X16205896Y-9708270D02*
X16110658Y-9727317D01*
X16377325Y-9793984D02*
X16377325Y-9593984D01*
X16377325Y-9784460D02*
X16358277Y-9793984D01*
X16358277Y-9793984D02*
X16320182Y-9793984D01*
X16320182Y-9793984D02*
X16301134Y-9784460D01*
X16301134Y-9784460D02*
X16291611Y-9774936D01*
X16291611Y-9774936D02*
X16282087Y-9755889D01*
X16282087Y-9755889D02*
X16282087Y-9698746D01*
X16282087Y-9698746D02*
X16291611Y-9679698D01*
X16291611Y-9679698D02*
X16301134Y-9670174D01*
X16301134Y-9670174D02*
X16320182Y-9660650D01*
X16320182Y-9660650D02*
X16358277Y-9660650D01*
X16358277Y-9660650D02*
X16377325Y-9670174D01*
X16453515Y-9870174D02*
X16463039Y-9860650D01*
X16463039Y-9860650D02*
X16482087Y-9832079D01*
X16482087Y-9832079D02*
X16491611Y-9813031D01*
X16491611Y-9813031D02*
X16501134Y-9784460D01*
X16501134Y-9784460D02*
X16510658Y-9736841D01*
X16510658Y-9736841D02*
X16510658Y-9698746D01*
X16510658Y-9698746D02*
X16501134Y-9651127D01*
X16501134Y-9651127D02*
X16491611Y-9622555D01*
X16491611Y-9622555D02*
X16482087Y-9603508D01*
X16482087Y-9603508D02*
X16463039Y-9574936D01*
X16463039Y-9574936D02*
X16453515Y-9565412D01*
X9697500Y-9966500D02*
G75*
G02*
X9497500Y-9966500I-100000J0D01*
G01*
X9497500Y-9966500D02*
G75*
G02*
X9697500Y-9966500I100000J0D01*
G01*
X9939229Y-9857984D02*
X10063039Y-9857984D01*
X10063039Y-9857984D02*
X9996372Y-9934174D01*
X9996372Y-9934174D02*
X10024944Y-9934174D01*
X10024944Y-9934174D02*
X10043991Y-9943698D01*
X10043991Y-9943698D02*
X10053515Y-9953222D01*
X10053515Y-9953222D02*
X10063039Y-9972270D01*
X10063039Y-9972270D02*
X10063039Y-10019889D01*
X10063039Y-10019889D02*
X10053515Y-10038936D01*
X10053515Y-10038936D02*
X10043991Y-10048460D01*
X10043991Y-10048460D02*
X10024944Y-10057984D01*
X10024944Y-10057984D02*
X9967801Y-10057984D01*
X9967801Y-10057984D02*
X9948753Y-10048460D01*
X9948753Y-10048460D02*
X9939229Y-10038936D01*
X10148753Y-10038936D02*
X10158277Y-10048460D01*
X10158277Y-10048460D02*
X10148753Y-10057984D01*
X10148753Y-10057984D02*
X10139229Y-10048460D01*
X10139229Y-10048460D02*
X10148753Y-10038936D01*
X10148753Y-10038936D02*
X10148753Y-10057984D01*
X10234467Y-9877031D02*
X10243991Y-9867508D01*
X10243991Y-9867508D02*
X10263039Y-9857984D01*
X10263039Y-9857984D02*
X10310658Y-9857984D01*
X10310658Y-9857984D02*
X10329705Y-9867508D01*
X10329705Y-9867508D02*
X10339229Y-9877031D01*
X10339229Y-9877031D02*
X10348753Y-9896079D01*
X10348753Y-9896079D02*
X10348753Y-9915127D01*
X10348753Y-9915127D02*
X10339229Y-9943698D01*
X10339229Y-9943698D02*
X10224944Y-10057984D01*
X10224944Y-10057984D02*
X10348753Y-10057984D01*
X10472563Y-9857984D02*
X10491610Y-9857984D01*
X10491610Y-9857984D02*
X10510658Y-9867508D01*
X10510658Y-9867508D02*
X10520182Y-9877031D01*
X10520182Y-9877031D02*
X10529705Y-9896079D01*
X10529705Y-9896079D02*
X10539229Y-9934174D01*
X10539229Y-9934174D02*
X10539229Y-9981793D01*
X10539229Y-9981793D02*
X10529705Y-10019889D01*
X10529705Y-10019889D02*
X10520182Y-10038936D01*
X10520182Y-10038936D02*
X10510658Y-10048460D01*
X10510658Y-10048460D02*
X10491610Y-10057984D01*
X10491610Y-10057984D02*
X10472563Y-10057984D01*
X10472563Y-10057984D02*
X10453515Y-10048460D01*
X10453515Y-10048460D02*
X10443991Y-10038936D01*
X10443991Y-10038936D02*
X10434467Y-10019889D01*
X10434467Y-10019889D02*
X10424944Y-9981793D01*
X10424944Y-9981793D02*
X10424944Y-9934174D01*
X10424944Y-9934174D02*
X10434467Y-9896079D01*
X10434467Y-9896079D02*
X10443991Y-9877031D01*
X10443991Y-9877031D02*
X10453515Y-9867508D01*
X10453515Y-9867508D02*
X10472563Y-9857984D01*
X10663039Y-9857984D02*
X10682086Y-9857984D01*
X10682086Y-9857984D02*
X10701134Y-9867508D01*
X10701134Y-9867508D02*
X10710658Y-9877031D01*
X10710658Y-9877031D02*
X10720182Y-9896079D01*
X10720182Y-9896079D02*
X10729705Y-9934174D01*
X10729705Y-9934174D02*
X10729705Y-9981793D01*
X10729705Y-9981793D02*
X10720182Y-10019889D01*
X10720182Y-10019889D02*
X10710658Y-10038936D01*
X10710658Y-10038936D02*
X10701134Y-10048460D01*
X10701134Y-10048460D02*
X10682086Y-10057984D01*
X10682086Y-10057984D02*
X10663039Y-10057984D01*
X10663039Y-10057984D02*
X10643991Y-10048460D01*
X10643991Y-10048460D02*
X10634467Y-10038936D01*
X10634467Y-10038936D02*
X10624944Y-10019889D01*
X10624944Y-10019889D02*
X10615420Y-9981793D01*
X10615420Y-9981793D02*
X10615420Y-9934174D01*
X10615420Y-9934174D02*
X10624944Y-9896079D01*
X10624944Y-9896079D02*
X10634467Y-9877031D01*
X10634467Y-9877031D02*
X10643991Y-9867508D01*
X10643991Y-9867508D02*
X10663039Y-9857984D01*
X10815420Y-10057984D02*
X10815420Y-9924650D01*
X10815420Y-9943698D02*
X10824944Y-9934174D01*
X10824944Y-9934174D02*
X10843991Y-9924650D01*
X10843991Y-9924650D02*
X10872563Y-9924650D01*
X10872563Y-9924650D02*
X10891610Y-9934174D01*
X10891610Y-9934174D02*
X10901134Y-9953222D01*
X10901134Y-9953222D02*
X10901134Y-10057984D01*
X10901134Y-9953222D02*
X10910658Y-9934174D01*
X10910658Y-9934174D02*
X10929705Y-9924650D01*
X10929705Y-9924650D02*
X10958277Y-9924650D01*
X10958277Y-9924650D02*
X10977325Y-9934174D01*
X10977325Y-9934174D02*
X10986848Y-9953222D01*
X10986848Y-9953222D02*
X10986848Y-10057984D01*
X11082086Y-10057984D02*
X11082086Y-9924650D01*
X11082086Y-9943698D02*
X11091610Y-9934174D01*
X11091610Y-9934174D02*
X11110658Y-9924650D01*
X11110658Y-9924650D02*
X11139229Y-9924650D01*
X11139229Y-9924650D02*
X11158277Y-9934174D01*
X11158277Y-9934174D02*
X11167801Y-9953222D01*
X11167801Y-9953222D02*
X11167801Y-10057984D01*
X11167801Y-9953222D02*
X11177325Y-9934174D01*
X11177325Y-9934174D02*
X11196372Y-9924650D01*
X11196372Y-9924650D02*
X11224943Y-9924650D01*
X11224943Y-9924650D02*
X11243991Y-9934174D01*
X11243991Y-9934174D02*
X11253515Y-9953222D01*
X11253515Y-9953222D02*
X11253515Y-10057984D01*
X11643991Y-9848460D02*
X11472563Y-10105603D01*
X11901134Y-9857984D02*
X11920182Y-9857984D01*
X11920182Y-9857984D02*
X11939229Y-9867508D01*
X11939229Y-9867508D02*
X11948753Y-9877031D01*
X11948753Y-9877031D02*
X11958277Y-9896079D01*
X11958277Y-9896079D02*
X11967801Y-9934174D01*
X11967801Y-9934174D02*
X11967801Y-9981793D01*
X11967801Y-9981793D02*
X11958277Y-10019889D01*
X11958277Y-10019889D02*
X11948753Y-10038936D01*
X11948753Y-10038936D02*
X11939229Y-10048460D01*
X11939229Y-10048460D02*
X11920182Y-10057984D01*
X11920182Y-10057984D02*
X11901134Y-10057984D01*
X11901134Y-10057984D02*
X11882086Y-10048460D01*
X11882086Y-10048460D02*
X11872563Y-10038936D01*
X11872563Y-10038936D02*
X11863039Y-10019889D01*
X11863039Y-10019889D02*
X11853515Y-9981793D01*
X11853515Y-9981793D02*
X11853515Y-9934174D01*
X11853515Y-9934174D02*
X11863039Y-9896079D01*
X11863039Y-9896079D02*
X11872563Y-9877031D01*
X11872563Y-9877031D02*
X11882086Y-9867508D01*
X11882086Y-9867508D02*
X11901134Y-9857984D01*
X12053515Y-10038936D02*
X12063039Y-10048460D01*
X12063039Y-10048460D02*
X12053515Y-10057984D01*
X12053515Y-10057984D02*
X12043991Y-10048460D01*
X12043991Y-10048460D02*
X12053515Y-10038936D01*
X12053515Y-10038936D02*
X12053515Y-10057984D01*
X12253515Y-10057984D02*
X12139229Y-10057984D01*
X12196372Y-10057984D02*
X12196372Y-9857984D01*
X12196372Y-9857984D02*
X12177325Y-9886555D01*
X12177325Y-9886555D02*
X12158277Y-9905603D01*
X12158277Y-9905603D02*
X12139229Y-9915127D01*
X12329706Y-9877031D02*
X12339229Y-9867508D01*
X12339229Y-9867508D02*
X12358277Y-9857984D01*
X12358277Y-9857984D02*
X12405896Y-9857984D01*
X12405896Y-9857984D02*
X12424944Y-9867508D01*
X12424944Y-9867508D02*
X12434467Y-9877031D01*
X12434467Y-9877031D02*
X12443991Y-9896079D01*
X12443991Y-9896079D02*
X12443991Y-9915127D01*
X12443991Y-9915127D02*
X12434467Y-9943698D01*
X12434467Y-9943698D02*
X12320182Y-10057984D01*
X12320182Y-10057984D02*
X12443991Y-10057984D01*
X12615420Y-9857984D02*
X12577325Y-9857984D01*
X12577325Y-9857984D02*
X12558277Y-9867508D01*
X12558277Y-9867508D02*
X12548753Y-9877031D01*
X12548753Y-9877031D02*
X12529706Y-9905603D01*
X12529706Y-9905603D02*
X12520182Y-9943698D01*
X12520182Y-9943698D02*
X12520182Y-10019889D01*
X12520182Y-10019889D02*
X12529706Y-10038936D01*
X12529706Y-10038936D02*
X12539229Y-10048460D01*
X12539229Y-10048460D02*
X12558277Y-10057984D01*
X12558277Y-10057984D02*
X12596372Y-10057984D01*
X12596372Y-10057984D02*
X12615420Y-10048460D01*
X12615420Y-10048460D02*
X12624944Y-10038936D01*
X12624944Y-10038936D02*
X12634467Y-10019889D01*
X12634467Y-10019889D02*
X12634467Y-9972270D01*
X12634467Y-9972270D02*
X12624944Y-9953222D01*
X12624944Y-9953222D02*
X12615420Y-9943698D01*
X12615420Y-9943698D02*
X12596372Y-9934174D01*
X12596372Y-9934174D02*
X12558277Y-9934174D01*
X12558277Y-9934174D02*
X12539229Y-9943698D01*
X12539229Y-9943698D02*
X12529706Y-9953222D01*
X12529706Y-9953222D02*
X12520182Y-9972270D01*
X12758277Y-9857984D02*
X12777325Y-9857984D01*
X12777325Y-9857984D02*
X12796372Y-9867508D01*
X12796372Y-9867508D02*
X12805896Y-9877031D01*
X12805896Y-9877031D02*
X12815420Y-9896079D01*
X12815420Y-9896079D02*
X12824944Y-9934174D01*
X12824944Y-9934174D02*
X12824944Y-9981793D01*
X12824944Y-9981793D02*
X12815420Y-10019889D01*
X12815420Y-10019889D02*
X12805896Y-10038936D01*
X12805896Y-10038936D02*
X12796372Y-10048460D01*
X12796372Y-10048460D02*
X12777325Y-10057984D01*
X12777325Y-10057984D02*
X12758277Y-10057984D01*
X12758277Y-10057984D02*
X12739229Y-10048460D01*
X12739229Y-10048460D02*
X12729706Y-10038936D01*
X12729706Y-10038936D02*
X12720182Y-10019889D01*
X12720182Y-10019889D02*
X12710658Y-9981793D01*
X12710658Y-9981793D02*
X12710658Y-9934174D01*
X12710658Y-9934174D02*
X12720182Y-9896079D01*
X12720182Y-9896079D02*
X12729706Y-9877031D01*
X12729706Y-9877031D02*
X12739229Y-9867508D01*
X12739229Y-9867508D02*
X12758277Y-9857984D01*
X12901134Y-9857984D02*
X12901134Y-9896079D01*
X12977325Y-9857984D02*
X12977325Y-9896079D01*
X13272563Y-10134174D02*
X13263039Y-10124650D01*
X13263039Y-10124650D02*
X13243991Y-10096079D01*
X13243991Y-10096079D02*
X13234468Y-10077031D01*
X13234468Y-10077031D02*
X13224944Y-10048460D01*
X13224944Y-10048460D02*
X13215420Y-10000841D01*
X13215420Y-10000841D02*
X13215420Y-9962746D01*
X13215420Y-9962746D02*
X13224944Y-9915127D01*
X13224944Y-9915127D02*
X13234468Y-9886555D01*
X13234468Y-9886555D02*
X13243991Y-9867508D01*
X13243991Y-9867508D02*
X13263039Y-9838936D01*
X13263039Y-9838936D02*
X13272563Y-9829412D01*
X13434468Y-9924650D02*
X13434468Y-10057984D01*
X13386848Y-9848460D02*
X13339229Y-9991317D01*
X13339229Y-9991317D02*
X13463039Y-9991317D01*
X13691610Y-10057984D02*
X13691610Y-9857984D01*
X13777325Y-10057984D02*
X13777325Y-9953222D01*
X13777325Y-9953222D02*
X13767801Y-9934174D01*
X13767801Y-9934174D02*
X13748753Y-9924650D01*
X13748753Y-9924650D02*
X13720182Y-9924650D01*
X13720182Y-9924650D02*
X13701134Y-9934174D01*
X13701134Y-9934174D02*
X13691610Y-9943698D01*
X13901134Y-10057984D02*
X13882087Y-10048460D01*
X13882087Y-10048460D02*
X13872563Y-10038936D01*
X13872563Y-10038936D02*
X13863039Y-10019889D01*
X13863039Y-10019889D02*
X13863039Y-9962746D01*
X13863039Y-9962746D02*
X13872563Y-9943698D01*
X13872563Y-9943698D02*
X13882087Y-9934174D01*
X13882087Y-9934174D02*
X13901134Y-9924650D01*
X13901134Y-9924650D02*
X13929706Y-9924650D01*
X13929706Y-9924650D02*
X13948753Y-9934174D01*
X13948753Y-9934174D02*
X13958277Y-9943698D01*
X13958277Y-9943698D02*
X13967801Y-9962746D01*
X13967801Y-9962746D02*
X13967801Y-10019889D01*
X13967801Y-10019889D02*
X13958277Y-10038936D01*
X13958277Y-10038936D02*
X13948753Y-10048460D01*
X13948753Y-10048460D02*
X13929706Y-10057984D01*
X13929706Y-10057984D02*
X13901134Y-10057984D01*
X14082087Y-10057984D02*
X14063039Y-10048460D01*
X14063039Y-10048460D02*
X14053515Y-10029412D01*
X14053515Y-10029412D02*
X14053515Y-9857984D01*
X14234468Y-10048460D02*
X14215420Y-10057984D01*
X14215420Y-10057984D02*
X14177325Y-10057984D01*
X14177325Y-10057984D02*
X14158277Y-10048460D01*
X14158277Y-10048460D02*
X14148753Y-10029412D01*
X14148753Y-10029412D02*
X14148753Y-9953222D01*
X14148753Y-9953222D02*
X14158277Y-9934174D01*
X14158277Y-9934174D02*
X14177325Y-9924650D01*
X14177325Y-9924650D02*
X14215420Y-9924650D01*
X14215420Y-9924650D02*
X14234468Y-9934174D01*
X14234468Y-9934174D02*
X14243991Y-9953222D01*
X14243991Y-9953222D02*
X14243991Y-9972270D01*
X14243991Y-9972270D02*
X14148753Y-9991317D01*
X14320182Y-10048460D02*
X14339230Y-10057984D01*
X14339230Y-10057984D02*
X14377325Y-10057984D01*
X14377325Y-10057984D02*
X14396372Y-10048460D01*
X14396372Y-10048460D02*
X14405896Y-10029412D01*
X14405896Y-10029412D02*
X14405896Y-10019889D01*
X14405896Y-10019889D02*
X14396372Y-10000841D01*
X14396372Y-10000841D02*
X14377325Y-9991317D01*
X14377325Y-9991317D02*
X14348753Y-9991317D01*
X14348753Y-9991317D02*
X14329706Y-9981793D01*
X14329706Y-9981793D02*
X14320182Y-9962746D01*
X14320182Y-9962746D02*
X14320182Y-9953222D01*
X14320182Y-9953222D02*
X14329706Y-9934174D01*
X14329706Y-9934174D02*
X14348753Y-9924650D01*
X14348753Y-9924650D02*
X14377325Y-9924650D01*
X14377325Y-9924650D02*
X14396372Y-9934174D01*
X14472563Y-10134174D02*
X14482087Y-10124650D01*
X14482087Y-10124650D02*
X14501134Y-10096079D01*
X14501134Y-10096079D02*
X14510658Y-10077031D01*
X14510658Y-10077031D02*
X14520182Y-10048460D01*
X14520182Y-10048460D02*
X14529706Y-10000841D01*
X14529706Y-10000841D02*
X14529706Y-9962746D01*
X14529706Y-9962746D02*
X14520182Y-9915127D01*
X14520182Y-9915127D02*
X14510658Y-9886555D01*
X14510658Y-9886555D02*
X14501134Y-9867508D01*
X14501134Y-9867508D02*
X14482087Y-9838936D01*
X14482087Y-9838936D02*
X14472563Y-9829412D01*
X14834468Y-10134174D02*
X14824944Y-10124650D01*
X14824944Y-10124650D02*
X14805896Y-10096079D01*
X14805896Y-10096079D02*
X14796372Y-10077031D01*
X14796372Y-10077031D02*
X14786849Y-10048460D01*
X14786849Y-10048460D02*
X14777325Y-10000841D01*
X14777325Y-10000841D02*
X14777325Y-9962746D01*
X14777325Y-9962746D02*
X14786849Y-9915127D01*
X14786849Y-9915127D02*
X14796372Y-9886555D01*
X14796372Y-9886555D02*
X14805896Y-9867508D01*
X14805896Y-9867508D02*
X14824944Y-9838936D01*
X14824944Y-9838936D02*
X14834468Y-9829412D01*
X14910658Y-9924650D02*
X14910658Y-10057984D01*
X14910658Y-9943698D02*
X14920182Y-9934174D01*
X14920182Y-9934174D02*
X14939230Y-9924650D01*
X14939230Y-9924650D02*
X14967801Y-9924650D01*
X14967801Y-9924650D02*
X14986849Y-9934174D01*
X14986849Y-9934174D02*
X14996372Y-9953222D01*
X14996372Y-9953222D02*
X14996372Y-10057984D01*
X15120182Y-10057984D02*
X15101134Y-10048460D01*
X15101134Y-10048460D02*
X15091611Y-10038936D01*
X15091611Y-10038936D02*
X15082087Y-10019889D01*
X15082087Y-10019889D02*
X15082087Y-9962746D01*
X15082087Y-9962746D02*
X15091611Y-9943698D01*
X15091611Y-9943698D02*
X15101134Y-9934174D01*
X15101134Y-9934174D02*
X15120182Y-9924650D01*
X15120182Y-9924650D02*
X15148753Y-9924650D01*
X15148753Y-9924650D02*
X15167801Y-9934174D01*
X15167801Y-9934174D02*
X15177325Y-9943698D01*
X15177325Y-9943698D02*
X15186849Y-9962746D01*
X15186849Y-9962746D02*
X15186849Y-10019889D01*
X15186849Y-10019889D02*
X15177325Y-10038936D01*
X15177325Y-10038936D02*
X15167801Y-10048460D01*
X15167801Y-10048460D02*
X15148753Y-10057984D01*
X15148753Y-10057984D02*
X15120182Y-10057984D01*
X15243992Y-9924650D02*
X15320182Y-9924650D01*
X15272563Y-9857984D02*
X15272563Y-10029412D01*
X15272563Y-10029412D02*
X15282087Y-10048460D01*
X15282087Y-10048460D02*
X15301134Y-10057984D01*
X15301134Y-10057984D02*
X15320182Y-10057984D01*
X15539230Y-9924650D02*
X15539230Y-10124650D01*
X15539230Y-9934174D02*
X15558277Y-9924650D01*
X15558277Y-9924650D02*
X15596373Y-9924650D01*
X15596373Y-9924650D02*
X15615420Y-9934174D01*
X15615420Y-9934174D02*
X15624944Y-9943698D01*
X15624944Y-9943698D02*
X15634468Y-9962746D01*
X15634468Y-9962746D02*
X15634468Y-10019889D01*
X15634468Y-10019889D02*
X15624944Y-10038936D01*
X15624944Y-10038936D02*
X15615420Y-10048460D01*
X15615420Y-10048460D02*
X15596373Y-10057984D01*
X15596373Y-10057984D02*
X15558277Y-10057984D01*
X15558277Y-10057984D02*
X15539230Y-10048460D01*
X15748753Y-10057984D02*
X15729706Y-10048460D01*
X15729706Y-10048460D02*
X15720182Y-10029412D01*
X15720182Y-10029412D02*
X15720182Y-9857984D01*
X15910658Y-10057984D02*
X15910658Y-9953222D01*
X15910658Y-9953222D02*
X15901134Y-9934174D01*
X15901134Y-9934174D02*
X15882087Y-9924650D01*
X15882087Y-9924650D02*
X15843992Y-9924650D01*
X15843992Y-9924650D02*
X15824944Y-9934174D01*
X15910658Y-10048460D02*
X15891611Y-10057984D01*
X15891611Y-10057984D02*
X15843992Y-10057984D01*
X15843992Y-10057984D02*
X15824944Y-10048460D01*
X15824944Y-10048460D02*
X15815420Y-10029412D01*
X15815420Y-10029412D02*
X15815420Y-10010365D01*
X15815420Y-10010365D02*
X15824944Y-9991317D01*
X15824944Y-9991317D02*
X15843992Y-9981793D01*
X15843992Y-9981793D02*
X15891611Y-9981793D01*
X15891611Y-9981793D02*
X15910658Y-9972270D01*
X15977325Y-9924650D02*
X16053515Y-9924650D01*
X16005896Y-9857984D02*
X16005896Y-10029412D01*
X16005896Y-10029412D02*
X16015420Y-10048460D01*
X16015420Y-10048460D02*
X16034468Y-10057984D01*
X16034468Y-10057984D02*
X16053515Y-10057984D01*
X16196373Y-10048460D02*
X16177325Y-10057984D01*
X16177325Y-10057984D02*
X16139230Y-10057984D01*
X16139230Y-10057984D02*
X16120182Y-10048460D01*
X16120182Y-10048460D02*
X16110658Y-10029412D01*
X16110658Y-10029412D02*
X16110658Y-9953222D01*
X16110658Y-9953222D02*
X16120182Y-9934174D01*
X16120182Y-9934174D02*
X16139230Y-9924650D01*
X16139230Y-9924650D02*
X16177325Y-9924650D01*
X16177325Y-9924650D02*
X16196373Y-9934174D01*
X16196373Y-9934174D02*
X16205896Y-9953222D01*
X16205896Y-9953222D02*
X16205896Y-9972270D01*
X16205896Y-9972270D02*
X16110658Y-9991317D01*
X16377325Y-10057984D02*
X16377325Y-9857984D01*
X16377325Y-10048460D02*
X16358277Y-10057984D01*
X16358277Y-10057984D02*
X16320182Y-10057984D01*
X16320182Y-10057984D02*
X16301134Y-10048460D01*
X16301134Y-10048460D02*
X16291611Y-10038936D01*
X16291611Y-10038936D02*
X16282087Y-10019889D01*
X16282087Y-10019889D02*
X16282087Y-9962746D01*
X16282087Y-9962746D02*
X16291611Y-9943698D01*
X16291611Y-9943698D02*
X16301134Y-9934174D01*
X16301134Y-9934174D02*
X16320182Y-9924650D01*
X16320182Y-9924650D02*
X16358277Y-9924650D01*
X16358277Y-9924650D02*
X16377325Y-9934174D01*
X16453515Y-10134174D02*
X16463039Y-10124650D01*
X16463039Y-10124650D02*
X16482087Y-10096079D01*
X16482087Y-10096079D02*
X16491611Y-10077031D01*
X16491611Y-10077031D02*
X16501134Y-10048460D01*
X16501134Y-10048460D02*
X16510658Y-10000841D01*
X16510658Y-10000841D02*
X16510658Y-9962746D01*
X16510658Y-9962746D02*
X16501134Y-9915127D01*
X16501134Y-9915127D02*
X16491611Y-9886555D01*
X16491611Y-9886555D02*
X16482087Y-9867508D01*
X16482087Y-9867508D02*
X16463039Y-9838936D01*
X16463039Y-9838936D02*
X16453515Y-9829412D01*
M02*
