G04 #@! TF.GenerationSoftware,KiCad,Pcbnew,8.0.5*
G04 #@! TF.CreationDate,2024-11-13T12:29:25-06:00*
G04 #@! TF.ProjectId,APG_Sensor_Test_Board,4150475f-5365-46e7-936f-725f54657374,rev?*
G04 #@! TF.SameCoordinates,Original*
G04 #@! TF.FileFunction,Copper,L3,Inr*
G04 #@! TF.FilePolarity,Positive*
%FSLAX46Y46*%
G04 Gerber Fmt 4.6, Leading zero omitted, Abs format (unit mm)*
G04 Created by KiCad (PCBNEW 8.0.5) date 2024-11-13 12:29:25*
%MOMM*%
%LPD*%
G01*
G04 APERTURE LIST*
G04 #@! TA.AperFunction,ComponentPad*
%ADD10R,1.700000X1.700000*%
G04 #@! TD*
G04 #@! TA.AperFunction,ComponentPad*
%ADD11O,1.700000X1.700000*%
G04 #@! TD*
G04 #@! TA.AperFunction,ComponentPad*
%ADD12O,1.000000X2.100000*%
G04 #@! TD*
G04 #@! TA.AperFunction,ComponentPad*
%ADD13O,1.000000X1.800000*%
G04 #@! TD*
G04 #@! TA.AperFunction,ComponentPad*
%ADD14C,2.000000*%
G04 #@! TD*
G04 #@! TA.AperFunction,ComponentPad*
%ADD15R,2.000000X2.000000*%
G04 #@! TD*
G04 #@! TA.AperFunction,HeatsinkPad*
%ADD16C,0.600000*%
G04 #@! TD*
G04 #@! TA.AperFunction,ViaPad*
%ADD17C,0.600000*%
G04 #@! TD*
G04 #@! TA.AperFunction,Conductor*
%ADD18C,0.200000*%
G04 #@! TD*
G04 #@! TA.AperFunction,Conductor*
%ADD19C,0.400000*%
G04 #@! TD*
G04 APERTURE END LIST*
D10*
X125875000Y-51850000D03*
D11*
X128415000Y-51850000D03*
D12*
X119880000Y-83845000D03*
D13*
X119880000Y-88025000D03*
D12*
X128520000Y-83845000D03*
D13*
X128520000Y-88025000D03*
D14*
X112650000Y-56050000D03*
X106150000Y-56050000D03*
X112650000Y-51550000D03*
X106150000Y-51550000D03*
X180700000Y-51550000D03*
X187200000Y-51550000D03*
X180700000Y-56050000D03*
X187200000Y-56050000D03*
D15*
X104200000Y-76400000D03*
D14*
X104200000Y-71400000D03*
X171000000Y-51550000D03*
X177500000Y-51550000D03*
X171000000Y-56050000D03*
X177500000Y-56050000D03*
X122300000Y-56050000D03*
X115800000Y-56050000D03*
X122300000Y-51550000D03*
X115800000Y-51550000D03*
D10*
X195100000Y-60355000D03*
D11*
X195100000Y-62895000D03*
D10*
X195150000Y-79420000D03*
D11*
X195150000Y-76880000D03*
X195150000Y-74340000D03*
X195150000Y-71800000D03*
X195150000Y-69260000D03*
X195150000Y-66720000D03*
D16*
X146350000Y-58500000D03*
X146350000Y-59900000D03*
X147050000Y-57800000D03*
X147050000Y-59200000D03*
X147050000Y-60600000D03*
X147750000Y-58500000D03*
X147750000Y-59900000D03*
X148450000Y-57800000D03*
X148450000Y-59200000D03*
X148450000Y-60600000D03*
X149150000Y-58500000D03*
X149150000Y-59900000D03*
D17*
X106325000Y-58750000D03*
X124700000Y-75725000D03*
X159325000Y-79550000D03*
X153750000Y-84975000D03*
X131500000Y-51025000D03*
X124700000Y-80500000D03*
X138208332Y-51200000D03*
X171300000Y-87525000D03*
X156000000Y-52250000D03*
X117012500Y-72000000D03*
X140500000Y-51480000D03*
X151950000Y-79300000D03*
X122387500Y-72000000D03*
X140475000Y-76650000D03*
X115975000Y-58750000D03*
X143550000Y-79050000D03*
X143550000Y-77450000D03*
X140475000Y-80850000D03*
X115625000Y-85250000D03*
X116000000Y-67100000D03*
X167050000Y-60600000D03*
X118562500Y-74750000D03*
X168050000Y-85925000D03*
X115625000Y-87250000D03*
X133100000Y-88000000D03*
X169000000Y-84150000D03*
X160850000Y-54950000D03*
X115675000Y-81500000D03*
X143550000Y-79850000D03*
X157850000Y-84975000D03*
X136229166Y-51200000D03*
X140500000Y-54020000D03*
X155950000Y-53800000D03*
X155300000Y-79450000D03*
X155400000Y-75300000D03*
X187225000Y-58650000D03*
X104200000Y-83025000D03*
X163100000Y-71800000D03*
X112562500Y-58750000D03*
X166500000Y-89075000D03*
X99775000Y-60150000D03*
X99812500Y-65550000D03*
X120837500Y-73000000D03*
X122212500Y-58750000D03*
X171100000Y-71800000D03*
X155800000Y-84987500D03*
X134250000Y-51100000D03*
X168700000Y-63650000D03*
X177375000Y-58650000D03*
X140462500Y-78750000D03*
X99812500Y-62900000D03*
X121800000Y-82000000D03*
X126550000Y-82000000D03*
X159650000Y-61550000D03*
X158000000Y-59100000D03*
X159950000Y-60350000D03*
X140500000Y-64180000D03*
X158000000Y-57830000D03*
X158000000Y-56560000D03*
X160250000Y-56100000D03*
X161500000Y-52750000D03*
X159750000Y-54900000D03*
X168500000Y-77150000D03*
X166300000Y-77050000D03*
X154950000Y-74100000D03*
X153850000Y-75150000D03*
X156100000Y-70950000D03*
X149950000Y-76550000D03*
X151150000Y-74400000D03*
X153695000Y-70850000D03*
X153695000Y-74050000D03*
X152050000Y-75750000D03*
X149400000Y-74600000D03*
X149885000Y-73350000D03*
X149885000Y-70550000D03*
X157150000Y-77300000D03*
X157100000Y-81050000D03*
X149050000Y-71750000D03*
X157100000Y-78550000D03*
X147345000Y-72295000D03*
X149000000Y-72700000D03*
X145550000Y-82700000D03*
X145550000Y-75100000D03*
X144800000Y-73900000D03*
X148250000Y-80650000D03*
X147700000Y-79300000D03*
X142250000Y-74500000D03*
X161450000Y-60150000D03*
X162050000Y-64200000D03*
X154800000Y-81950000D03*
X150125000Y-83250000D03*
X140500000Y-65450000D03*
D18*
X155300000Y-79450000D02*
X155300000Y-75300000D01*
X155300000Y-75300000D02*
X155400000Y-75300000D01*
D19*
X121800000Y-82000000D02*
X126550000Y-82000000D01*
G04 #@! TA.AperFunction,Conductor*
G36*
X105266243Y-50520185D02*
G01*
X105311998Y-50572989D01*
X105321942Y-50642147D01*
X105292917Y-50705703D01*
X105282742Y-50716137D01*
X105259020Y-50737761D01*
X105124943Y-50915308D01*
X105124938Y-50915316D01*
X105025775Y-51114461D01*
X105025769Y-51114476D01*
X104964885Y-51328462D01*
X104964884Y-51328464D01*
X104944357Y-51549999D01*
X104944357Y-51550000D01*
X104964884Y-51771535D01*
X104964885Y-51771537D01*
X105025769Y-51985523D01*
X105025775Y-51985538D01*
X105124938Y-52184683D01*
X105124943Y-52184691D01*
X105259020Y-52362238D01*
X105423437Y-52512123D01*
X105423439Y-52512125D01*
X105612595Y-52629245D01*
X105612596Y-52629245D01*
X105612599Y-52629247D01*
X105820060Y-52709618D01*
X106038757Y-52750500D01*
X106038759Y-52750500D01*
X106261241Y-52750500D01*
X106261243Y-52750500D01*
X106479940Y-52709618D01*
X106687401Y-52629247D01*
X106876562Y-52512124D01*
X107040981Y-52362236D01*
X107175058Y-52184689D01*
X107274229Y-51985528D01*
X107335115Y-51771536D01*
X107355643Y-51550000D01*
X107351708Y-51507539D01*
X107335115Y-51328464D01*
X107335114Y-51328462D01*
X107326552Y-51298371D01*
X107274229Y-51114472D01*
X107274224Y-51114461D01*
X107175061Y-50915316D01*
X107175056Y-50915308D01*
X107040979Y-50737761D01*
X107017258Y-50716137D01*
X106980976Y-50656426D01*
X106982737Y-50586578D01*
X107021981Y-50528771D01*
X107086247Y-50501356D01*
X107100796Y-50500500D01*
X111699204Y-50500500D01*
X111766243Y-50520185D01*
X111811998Y-50572989D01*
X111821942Y-50642147D01*
X111792917Y-50705703D01*
X111782742Y-50716137D01*
X111759020Y-50737761D01*
X111624943Y-50915308D01*
X111624938Y-50915316D01*
X111525775Y-51114461D01*
X111525769Y-51114476D01*
X111464885Y-51328462D01*
X111464884Y-51328464D01*
X111444357Y-51549999D01*
X111444357Y-51550000D01*
X111464884Y-51771535D01*
X111464885Y-51771537D01*
X111525769Y-51985523D01*
X111525775Y-51985538D01*
X111624938Y-52184683D01*
X111624943Y-52184691D01*
X111759020Y-52362238D01*
X111923437Y-52512123D01*
X111923439Y-52512125D01*
X112112595Y-52629245D01*
X112112596Y-52629245D01*
X112112599Y-52629247D01*
X112320060Y-52709618D01*
X112538757Y-52750500D01*
X112538759Y-52750500D01*
X112761241Y-52750500D01*
X112761243Y-52750500D01*
X112979940Y-52709618D01*
X113187401Y-52629247D01*
X113376562Y-52512124D01*
X113540981Y-52362236D01*
X113675058Y-52184689D01*
X113774229Y-51985528D01*
X113835115Y-51771536D01*
X113855643Y-51550000D01*
X113851708Y-51507539D01*
X113835115Y-51328464D01*
X113835114Y-51328462D01*
X113826552Y-51298371D01*
X113774229Y-51114472D01*
X113774224Y-51114461D01*
X113675061Y-50915316D01*
X113675056Y-50915308D01*
X113540979Y-50737761D01*
X113517258Y-50716137D01*
X113480976Y-50656426D01*
X113482737Y-50586578D01*
X113521981Y-50528771D01*
X113586247Y-50501356D01*
X113600796Y-50500500D01*
X114849204Y-50500500D01*
X114916243Y-50520185D01*
X114961998Y-50572989D01*
X114971942Y-50642147D01*
X114942917Y-50705703D01*
X114932742Y-50716137D01*
X114909020Y-50737761D01*
X114774943Y-50915308D01*
X114774938Y-50915316D01*
X114675775Y-51114461D01*
X114675769Y-51114476D01*
X114614885Y-51328462D01*
X114614884Y-51328464D01*
X114594357Y-51549999D01*
X114594357Y-51550000D01*
X114614884Y-51771535D01*
X114614885Y-51771537D01*
X114675769Y-51985523D01*
X114675775Y-51985538D01*
X114774938Y-52184683D01*
X114774943Y-52184691D01*
X114909020Y-52362238D01*
X115073437Y-52512123D01*
X115073439Y-52512125D01*
X115262595Y-52629245D01*
X115262596Y-52629245D01*
X115262599Y-52629247D01*
X115470060Y-52709618D01*
X115688757Y-52750500D01*
X115688759Y-52750500D01*
X115911241Y-52750500D01*
X115911243Y-52750500D01*
X116129940Y-52709618D01*
X116337401Y-52629247D01*
X116526562Y-52512124D01*
X116690981Y-52362236D01*
X116825058Y-52184689D01*
X116924229Y-51985528D01*
X116985115Y-51771536D01*
X117005643Y-51550000D01*
X117001708Y-51507539D01*
X116985115Y-51328464D01*
X116985114Y-51328462D01*
X116976552Y-51298371D01*
X116924229Y-51114472D01*
X116924224Y-51114461D01*
X116825061Y-50915316D01*
X116825056Y-50915308D01*
X116690979Y-50737761D01*
X116667258Y-50716137D01*
X116630976Y-50656426D01*
X116632737Y-50586578D01*
X116671981Y-50528771D01*
X116736247Y-50501356D01*
X116750796Y-50500500D01*
X121349204Y-50500500D01*
X121416243Y-50520185D01*
X121461998Y-50572989D01*
X121471942Y-50642147D01*
X121442917Y-50705703D01*
X121432742Y-50716137D01*
X121409020Y-50737761D01*
X121274943Y-50915308D01*
X121274938Y-50915316D01*
X121175775Y-51114461D01*
X121175769Y-51114476D01*
X121114885Y-51328462D01*
X121114884Y-51328464D01*
X121094357Y-51549999D01*
X121094357Y-51550000D01*
X121114884Y-51771535D01*
X121114885Y-51771537D01*
X121175769Y-51985523D01*
X121175775Y-51985538D01*
X121274938Y-52184683D01*
X121274943Y-52184691D01*
X121409020Y-52362238D01*
X121573437Y-52512123D01*
X121573439Y-52512125D01*
X121762595Y-52629245D01*
X121762596Y-52629245D01*
X121762599Y-52629247D01*
X121970060Y-52709618D01*
X122188757Y-52750500D01*
X122188759Y-52750500D01*
X122411241Y-52750500D01*
X122411243Y-52750500D01*
X122629940Y-52709618D01*
X122837401Y-52629247D01*
X123026562Y-52512124D01*
X123190981Y-52362236D01*
X123325058Y-52184689D01*
X123424229Y-51985528D01*
X123485115Y-51771536D01*
X123505643Y-51550000D01*
X123501708Y-51507539D01*
X123485115Y-51328464D01*
X123485114Y-51328462D01*
X123476552Y-51298371D01*
X123424229Y-51114472D01*
X123424224Y-51114461D01*
X123357393Y-50980247D01*
X124824500Y-50980247D01*
X124824500Y-52719752D01*
X124836131Y-52778229D01*
X124836132Y-52778230D01*
X124880447Y-52844552D01*
X124946769Y-52888867D01*
X124946770Y-52888868D01*
X125005247Y-52900499D01*
X125005250Y-52900500D01*
X125005252Y-52900500D01*
X126744750Y-52900500D01*
X126744751Y-52900499D01*
X126759568Y-52897552D01*
X126803229Y-52888868D01*
X126803229Y-52888867D01*
X126803231Y-52888867D01*
X126869552Y-52844552D01*
X126913867Y-52778231D01*
X126913867Y-52778229D01*
X126913868Y-52778229D01*
X126925499Y-52719752D01*
X126925500Y-52719750D01*
X126925500Y-51850000D01*
X127359417Y-51850000D01*
X127379699Y-52055932D01*
X127379700Y-52055934D01*
X127439768Y-52253954D01*
X127537315Y-52436450D01*
X127537317Y-52436452D01*
X127668589Y-52596410D01*
X127765209Y-52675702D01*
X127828550Y-52727685D01*
X128011046Y-52825232D01*
X128209066Y-52885300D01*
X128209065Y-52885300D01*
X128227529Y-52887118D01*
X128415000Y-52905583D01*
X128620934Y-52885300D01*
X128818954Y-52825232D01*
X129001450Y-52727685D01*
X129161410Y-52596410D01*
X129292685Y-52436450D01*
X129390232Y-52253954D01*
X129391431Y-52250000D01*
X155494353Y-52250000D01*
X155514834Y-52392456D01*
X155553275Y-52476628D01*
X155574623Y-52523373D01*
X155668872Y-52632143D01*
X155789947Y-52709953D01*
X155789950Y-52709954D01*
X155789949Y-52709954D01*
X155850327Y-52727682D01*
X155926336Y-52750000D01*
X155928036Y-52750499D01*
X155928038Y-52750500D01*
X155928039Y-52750500D01*
X156071962Y-52750500D01*
X156071962Y-52750499D01*
X156073661Y-52750000D01*
X160994353Y-52750000D01*
X161014834Y-52892456D01*
X161050114Y-52969706D01*
X161074623Y-53023373D01*
X161168872Y-53132143D01*
X161289947Y-53209953D01*
X161289950Y-53209954D01*
X161289949Y-53209954D01*
X161428036Y-53250499D01*
X161428038Y-53250500D01*
X161428039Y-53250500D01*
X161571962Y-53250500D01*
X161571962Y-53250499D01*
X161710053Y-53209953D01*
X161831128Y-53132143D01*
X161925377Y-53023373D01*
X161985165Y-52892457D01*
X162005647Y-52750000D01*
X161985165Y-52607543D01*
X161925377Y-52476627D01*
X161831128Y-52367857D01*
X161710053Y-52290047D01*
X161710051Y-52290046D01*
X161710049Y-52290045D01*
X161710050Y-52290045D01*
X161571963Y-52249500D01*
X161571961Y-52249500D01*
X161428039Y-52249500D01*
X161428036Y-52249500D01*
X161289949Y-52290045D01*
X161168873Y-52367856D01*
X161074623Y-52476626D01*
X161074622Y-52476628D01*
X161014834Y-52607543D01*
X160994353Y-52750000D01*
X156073661Y-52750000D01*
X156210053Y-52709953D01*
X156331128Y-52632143D01*
X156425377Y-52523373D01*
X156485165Y-52392457D01*
X156505647Y-52250000D01*
X156485165Y-52107543D01*
X156425377Y-51976627D01*
X156331128Y-51867857D01*
X156210053Y-51790047D01*
X156210051Y-51790046D01*
X156210049Y-51790045D01*
X156210050Y-51790045D01*
X156071963Y-51749500D01*
X156071961Y-51749500D01*
X155928039Y-51749500D01*
X155928036Y-51749500D01*
X155789949Y-51790045D01*
X155668873Y-51867856D01*
X155574623Y-51976626D01*
X155574622Y-51976628D01*
X155514834Y-52107543D01*
X155494353Y-52250000D01*
X129391431Y-52250000D01*
X129450300Y-52055934D01*
X129470583Y-51850000D01*
X129450300Y-51644066D01*
X129390232Y-51446046D01*
X129292685Y-51263550D01*
X129213823Y-51167456D01*
X129161410Y-51103589D01*
X129011121Y-50980252D01*
X129001450Y-50972315D01*
X128818954Y-50874768D01*
X128620934Y-50814700D01*
X128620932Y-50814699D01*
X128620934Y-50814699D01*
X128415000Y-50794417D01*
X128209067Y-50814699D01*
X128011043Y-50874769D01*
X127900898Y-50933643D01*
X127828550Y-50972315D01*
X127828548Y-50972316D01*
X127828547Y-50972317D01*
X127668589Y-51103589D01*
X127537317Y-51263547D01*
X127537315Y-51263550D01*
X127518703Y-51298371D01*
X127439769Y-51446043D01*
X127379699Y-51644067D01*
X127359417Y-51850000D01*
X126925500Y-51850000D01*
X126925500Y-50980249D01*
X126925499Y-50980247D01*
X126913868Y-50921770D01*
X126913867Y-50921769D01*
X126869552Y-50855447D01*
X126803230Y-50811132D01*
X126803229Y-50811131D01*
X126744752Y-50799500D01*
X126744748Y-50799500D01*
X125005252Y-50799500D01*
X125005247Y-50799500D01*
X124946770Y-50811131D01*
X124946769Y-50811132D01*
X124880447Y-50855447D01*
X124836132Y-50921769D01*
X124836131Y-50921770D01*
X124824500Y-50980247D01*
X123357393Y-50980247D01*
X123325061Y-50915316D01*
X123325056Y-50915308D01*
X123190979Y-50737761D01*
X123167258Y-50716137D01*
X123130976Y-50656426D01*
X123132737Y-50586578D01*
X123171981Y-50528771D01*
X123236247Y-50501356D01*
X123250796Y-50500500D01*
X131020703Y-50500500D01*
X131087742Y-50520185D01*
X131133497Y-50572989D01*
X131143441Y-50642147D01*
X131114416Y-50705702D01*
X131074625Y-50751622D01*
X131074622Y-50751628D01*
X131014834Y-50882543D01*
X130994353Y-51025000D01*
X131014834Y-51167456D01*
X131074622Y-51298371D01*
X131074623Y-51298373D01*
X131168872Y-51407143D01*
X131289947Y-51484953D01*
X131289950Y-51484954D01*
X131289949Y-51484954D01*
X131428036Y-51525499D01*
X131428038Y-51525500D01*
X131428039Y-51525500D01*
X131571962Y-51525500D01*
X131571962Y-51525499D01*
X131679121Y-51494035D01*
X131710050Y-51484954D01*
X131710050Y-51484953D01*
X131710053Y-51484953D01*
X131831128Y-51407143D01*
X131925377Y-51298373D01*
X131985165Y-51167457D01*
X132005647Y-51025000D01*
X131985165Y-50882543D01*
X131925377Y-50751627D01*
X131925375Y-50751625D01*
X131925374Y-50751622D01*
X131885584Y-50705702D01*
X131856559Y-50642146D01*
X131866503Y-50572988D01*
X131912258Y-50520184D01*
X131979297Y-50500500D01*
X135973628Y-50500500D01*
X136040667Y-50520185D01*
X136086422Y-50572989D01*
X136096366Y-50642147D01*
X136067341Y-50705703D01*
X136025143Y-50737293D01*
X136019114Y-50740046D01*
X135898039Y-50817856D01*
X135803789Y-50926626D01*
X135803788Y-50926628D01*
X135744000Y-51057543D01*
X135723519Y-51200000D01*
X135744000Y-51342456D01*
X135791309Y-51446046D01*
X135803789Y-51473373D01*
X135898038Y-51582143D01*
X136019113Y-51659953D01*
X136019116Y-51659954D01*
X136019115Y-51659954D01*
X136157202Y-51700499D01*
X136157204Y-51700500D01*
X136157205Y-51700500D01*
X136301128Y-51700500D01*
X136301128Y-51700499D01*
X136439219Y-51659953D01*
X136560294Y-51582143D01*
X136654543Y-51473373D01*
X136714331Y-51342457D01*
X136734813Y-51200000D01*
X136714331Y-51057543D01*
X136654543Y-50926627D01*
X136560294Y-50817857D01*
X136439219Y-50740047D01*
X136439218Y-50740046D01*
X136439217Y-50740046D01*
X136433189Y-50737293D01*
X136380387Y-50691536D01*
X136360704Y-50624496D01*
X136380390Y-50557458D01*
X136433196Y-50511704D01*
X136484704Y-50500500D01*
X137952794Y-50500500D01*
X138019833Y-50520185D01*
X138065588Y-50572989D01*
X138075532Y-50642147D01*
X138046507Y-50705703D01*
X138004309Y-50737293D01*
X137998280Y-50740046D01*
X137877205Y-50817856D01*
X137782955Y-50926626D01*
X137782954Y-50926628D01*
X137723166Y-51057543D01*
X137702685Y-51200000D01*
X137723166Y-51342456D01*
X137770475Y-51446046D01*
X137782955Y-51473373D01*
X137877204Y-51582143D01*
X137998279Y-51659953D01*
X137998282Y-51659954D01*
X137998281Y-51659954D01*
X138136368Y-51700499D01*
X138136370Y-51700500D01*
X138136371Y-51700500D01*
X138280294Y-51700500D01*
X138280294Y-51700499D01*
X138418385Y-51659953D01*
X138539460Y-51582143D01*
X138627967Y-51480000D01*
X139994353Y-51480000D01*
X140014834Y-51622456D01*
X140072854Y-51749500D01*
X140074623Y-51753373D01*
X140168872Y-51862143D01*
X140289947Y-51939953D01*
X140289950Y-51939954D01*
X140289949Y-51939954D01*
X140428036Y-51980499D01*
X140428038Y-51980500D01*
X140428039Y-51980500D01*
X140571962Y-51980500D01*
X140571962Y-51980499D01*
X140710053Y-51939953D01*
X140831128Y-51862143D01*
X140925377Y-51753373D01*
X140985165Y-51622457D01*
X141005647Y-51480000D01*
X140985165Y-51337543D01*
X140925377Y-51206627D01*
X140831128Y-51097857D01*
X140710053Y-51020047D01*
X140710051Y-51020046D01*
X140710049Y-51020045D01*
X140710050Y-51020045D01*
X140571963Y-50979500D01*
X140571961Y-50979500D01*
X140428039Y-50979500D01*
X140428036Y-50979500D01*
X140289949Y-51020045D01*
X140168873Y-51097856D01*
X140074623Y-51206626D01*
X140074622Y-51206628D01*
X140014834Y-51337543D01*
X139994353Y-51480000D01*
X138627967Y-51480000D01*
X138633709Y-51473373D01*
X138693497Y-51342457D01*
X138713979Y-51200000D01*
X138693497Y-51057543D01*
X138633709Y-50926627D01*
X138539460Y-50817857D01*
X138418385Y-50740047D01*
X138418384Y-50740046D01*
X138418383Y-50740046D01*
X138412355Y-50737293D01*
X138359553Y-50691536D01*
X138339870Y-50624496D01*
X138359556Y-50557458D01*
X138412362Y-50511704D01*
X138463870Y-50500500D01*
X170049204Y-50500500D01*
X170116243Y-50520185D01*
X170161998Y-50572989D01*
X170171942Y-50642147D01*
X170142917Y-50705703D01*
X170132742Y-50716137D01*
X170109020Y-50737761D01*
X169974943Y-50915308D01*
X169974938Y-50915316D01*
X169875775Y-51114461D01*
X169875769Y-51114476D01*
X169814885Y-51328462D01*
X169814884Y-51328464D01*
X169794357Y-51549999D01*
X169794357Y-51550000D01*
X169814884Y-51771535D01*
X169814885Y-51771537D01*
X169875769Y-51985523D01*
X169875775Y-51985538D01*
X169974938Y-52184683D01*
X169974943Y-52184691D01*
X170109020Y-52362238D01*
X170273437Y-52512123D01*
X170273439Y-52512125D01*
X170462595Y-52629245D01*
X170462596Y-52629245D01*
X170462599Y-52629247D01*
X170670060Y-52709618D01*
X170888757Y-52750500D01*
X170888759Y-52750500D01*
X171111241Y-52750500D01*
X171111243Y-52750500D01*
X171329940Y-52709618D01*
X171537401Y-52629247D01*
X171726562Y-52512124D01*
X171890981Y-52362236D01*
X172025058Y-52184689D01*
X172124229Y-51985528D01*
X172185115Y-51771536D01*
X172205643Y-51550000D01*
X172201708Y-51507539D01*
X172185115Y-51328464D01*
X172185114Y-51328462D01*
X172176552Y-51298371D01*
X172124229Y-51114472D01*
X172124224Y-51114461D01*
X172025061Y-50915316D01*
X172025056Y-50915308D01*
X171890979Y-50737761D01*
X171867258Y-50716137D01*
X171830976Y-50656426D01*
X171832737Y-50586578D01*
X171871981Y-50528771D01*
X171936247Y-50501356D01*
X171950796Y-50500500D01*
X176549204Y-50500500D01*
X176616243Y-50520185D01*
X176661998Y-50572989D01*
X176671942Y-50642147D01*
X176642917Y-50705703D01*
X176632742Y-50716137D01*
X176609020Y-50737761D01*
X176474943Y-50915308D01*
X176474938Y-50915316D01*
X176375775Y-51114461D01*
X176375769Y-51114476D01*
X176314885Y-51328462D01*
X176314884Y-51328464D01*
X176294357Y-51549999D01*
X176294357Y-51550000D01*
X176314884Y-51771535D01*
X176314885Y-51771537D01*
X176375769Y-51985523D01*
X176375775Y-51985538D01*
X176474938Y-52184683D01*
X176474943Y-52184691D01*
X176609020Y-52362238D01*
X176773437Y-52512123D01*
X176773439Y-52512125D01*
X176962595Y-52629245D01*
X176962596Y-52629245D01*
X176962599Y-52629247D01*
X177170060Y-52709618D01*
X177388757Y-52750500D01*
X177388759Y-52750500D01*
X177611241Y-52750500D01*
X177611243Y-52750500D01*
X177829940Y-52709618D01*
X178037401Y-52629247D01*
X178226562Y-52512124D01*
X178390981Y-52362236D01*
X178525058Y-52184689D01*
X178624229Y-51985528D01*
X178685115Y-51771536D01*
X178705643Y-51550000D01*
X178701708Y-51507539D01*
X178685115Y-51328464D01*
X178685114Y-51328462D01*
X178676552Y-51298371D01*
X178624229Y-51114472D01*
X178624224Y-51114461D01*
X178525061Y-50915316D01*
X178525056Y-50915308D01*
X178390979Y-50737761D01*
X178367258Y-50716137D01*
X178330976Y-50656426D01*
X178332737Y-50586578D01*
X178371981Y-50528771D01*
X178436247Y-50501356D01*
X178450796Y-50500500D01*
X179749204Y-50500500D01*
X179816243Y-50520185D01*
X179861998Y-50572989D01*
X179871942Y-50642147D01*
X179842917Y-50705703D01*
X179832742Y-50716137D01*
X179809020Y-50737761D01*
X179674943Y-50915308D01*
X179674938Y-50915316D01*
X179575775Y-51114461D01*
X179575769Y-51114476D01*
X179514885Y-51328462D01*
X179514884Y-51328464D01*
X179494357Y-51549999D01*
X179494357Y-51550000D01*
X179514884Y-51771535D01*
X179514885Y-51771537D01*
X179575769Y-51985523D01*
X179575775Y-51985538D01*
X179674938Y-52184683D01*
X179674943Y-52184691D01*
X179809020Y-52362238D01*
X179973437Y-52512123D01*
X179973439Y-52512125D01*
X180162595Y-52629245D01*
X180162596Y-52629245D01*
X180162599Y-52629247D01*
X180370060Y-52709618D01*
X180588757Y-52750500D01*
X180588759Y-52750500D01*
X180811241Y-52750500D01*
X180811243Y-52750500D01*
X181029940Y-52709618D01*
X181237401Y-52629247D01*
X181426562Y-52512124D01*
X181590981Y-52362236D01*
X181725058Y-52184689D01*
X181824229Y-51985528D01*
X181885115Y-51771536D01*
X181905643Y-51550000D01*
X181901708Y-51507539D01*
X181885115Y-51328464D01*
X181885114Y-51328462D01*
X181876552Y-51298371D01*
X181824229Y-51114472D01*
X181824224Y-51114461D01*
X181725061Y-50915316D01*
X181725056Y-50915308D01*
X181590979Y-50737761D01*
X181567258Y-50716137D01*
X181530976Y-50656426D01*
X181532737Y-50586578D01*
X181571981Y-50528771D01*
X181636247Y-50501356D01*
X181650796Y-50500500D01*
X186249204Y-50500500D01*
X186316243Y-50520185D01*
X186361998Y-50572989D01*
X186371942Y-50642147D01*
X186342917Y-50705703D01*
X186332742Y-50716137D01*
X186309020Y-50737761D01*
X186174943Y-50915308D01*
X186174938Y-50915316D01*
X186075775Y-51114461D01*
X186075769Y-51114476D01*
X186014885Y-51328462D01*
X186014884Y-51328464D01*
X185994357Y-51549999D01*
X185994357Y-51550000D01*
X186014884Y-51771535D01*
X186014885Y-51771537D01*
X186075769Y-51985523D01*
X186075775Y-51985538D01*
X186174938Y-52184683D01*
X186174943Y-52184691D01*
X186309020Y-52362238D01*
X186473437Y-52512123D01*
X186473439Y-52512125D01*
X186662595Y-52629245D01*
X186662596Y-52629245D01*
X186662599Y-52629247D01*
X186870060Y-52709618D01*
X187088757Y-52750500D01*
X187088759Y-52750500D01*
X187311241Y-52750500D01*
X187311243Y-52750500D01*
X187529940Y-52709618D01*
X187737401Y-52629247D01*
X187926562Y-52512124D01*
X188090981Y-52362236D01*
X188225058Y-52184689D01*
X188324229Y-51985528D01*
X188385115Y-51771536D01*
X188405643Y-51550000D01*
X188401708Y-51507539D01*
X188385115Y-51328464D01*
X188385114Y-51328462D01*
X188376552Y-51298371D01*
X188324229Y-51114472D01*
X188324224Y-51114461D01*
X188225061Y-50915316D01*
X188225056Y-50915308D01*
X188090979Y-50737761D01*
X188067258Y-50716137D01*
X188030976Y-50656426D01*
X188032737Y-50586578D01*
X188071981Y-50528771D01*
X188136247Y-50501356D01*
X188150796Y-50500500D01*
X194434108Y-50500500D01*
X194495933Y-50500500D01*
X194504043Y-50500765D01*
X194752895Y-50517075D01*
X194768953Y-50519190D01*
X194961338Y-50557458D01*
X195009535Y-50567045D01*
X195025202Y-50571243D01*
X195182081Y-50624496D01*
X195257481Y-50650091D01*
X195272458Y-50656294D01*
X195393808Y-50716137D01*
X195492460Y-50764787D01*
X195506508Y-50772897D01*
X195710464Y-50909177D01*
X195723325Y-50919045D01*
X195792260Y-50979500D01*
X195907749Y-51080781D01*
X195919218Y-51092250D01*
X195929162Y-51103589D01*
X196069441Y-51263547D01*
X196080951Y-51276671D01*
X196090825Y-51289539D01*
X196227102Y-51493492D01*
X196235212Y-51507539D01*
X196343702Y-51727534D01*
X196349909Y-51742520D01*
X196428756Y-51974797D01*
X196432954Y-51990464D01*
X196480807Y-52231035D01*
X196482925Y-52247116D01*
X196499235Y-52495956D01*
X196499500Y-52504066D01*
X196499500Y-88095933D01*
X196499235Y-88104043D01*
X196482925Y-88352883D01*
X196480807Y-88368964D01*
X196432954Y-88609535D01*
X196428756Y-88625202D01*
X196349909Y-88857479D01*
X196343702Y-88872465D01*
X196235212Y-89092460D01*
X196227102Y-89106507D01*
X196090825Y-89310460D01*
X196080951Y-89323328D01*
X195919218Y-89507749D01*
X195907749Y-89519218D01*
X195723328Y-89680951D01*
X195710460Y-89690825D01*
X195506507Y-89827102D01*
X195492460Y-89835212D01*
X195272465Y-89943702D01*
X195257479Y-89949909D01*
X195025202Y-90028756D01*
X195009535Y-90032954D01*
X194768964Y-90080807D01*
X194752883Y-90082925D01*
X194504073Y-90099233D01*
X194495898Y-90099498D01*
X99574239Y-90049538D01*
X99573657Y-90049500D01*
X99565892Y-90049500D01*
X99504074Y-90049500D01*
X99495964Y-90049235D01*
X99247115Y-90032925D01*
X99231037Y-90030807D01*
X99158696Y-90016418D01*
X98990463Y-89982954D01*
X98974797Y-89978756D01*
X98742520Y-89899909D01*
X98727534Y-89893702D01*
X98507539Y-89785212D01*
X98493492Y-89777102D01*
X98289539Y-89640825D01*
X98276671Y-89630951D01*
X98092250Y-89469218D01*
X98080781Y-89457749D01*
X97919048Y-89273328D01*
X97909174Y-89260460D01*
X97772897Y-89056507D01*
X97764787Y-89042460D01*
X97728615Y-88969111D01*
X97656294Y-88822458D01*
X97650090Y-88807479D01*
X97571243Y-88575202D01*
X97567045Y-88559535D01*
X97556407Y-88506054D01*
X97519190Y-88318953D01*
X97517075Y-88302895D01*
X97500765Y-88054043D01*
X97500500Y-88045933D01*
X97500500Y-86628711D01*
X98949500Y-86628711D01*
X98949500Y-86871288D01*
X98977093Y-87080888D01*
X98981162Y-87111789D01*
X98989487Y-87142857D01*
X99043947Y-87346104D01*
X99124280Y-87540045D01*
X99136776Y-87570212D01*
X99258064Y-87780289D01*
X99258066Y-87780292D01*
X99258067Y-87780293D01*
X99405733Y-87972736D01*
X99405739Y-87972743D01*
X99577256Y-88144260D01*
X99577262Y-88144265D01*
X99769711Y-88291936D01*
X99979788Y-88413224D01*
X100203900Y-88506054D01*
X100438211Y-88568838D01*
X100618586Y-88592584D01*
X100678711Y-88600500D01*
X100678712Y-88600500D01*
X100921289Y-88600500D01*
X100969388Y-88594167D01*
X101161789Y-88568838D01*
X101396100Y-88506054D01*
X101425213Y-88493995D01*
X119179499Y-88493995D01*
X119206418Y-88629322D01*
X119206421Y-88629332D01*
X119259221Y-88756804D01*
X119259228Y-88756817D01*
X119335885Y-88871541D01*
X119335888Y-88871545D01*
X119433454Y-88969111D01*
X119433458Y-88969114D01*
X119548182Y-89045771D01*
X119548195Y-89045778D01*
X119660897Y-89092460D01*
X119675672Y-89098580D01*
X119675676Y-89098580D01*
X119675677Y-89098581D01*
X119811004Y-89125500D01*
X119811007Y-89125500D01*
X119948995Y-89125500D01*
X120040041Y-89107389D01*
X120084328Y-89098580D01*
X120185902Y-89056507D01*
X120211804Y-89045778D01*
X120211804Y-89045777D01*
X120211811Y-89045775D01*
X120326542Y-88969114D01*
X120424114Y-88871542D01*
X120500775Y-88756811D01*
X120553580Y-88629328D01*
X120578101Y-88506054D01*
X120580500Y-88493995D01*
X127819499Y-88493995D01*
X127846418Y-88629322D01*
X127846421Y-88629332D01*
X127899221Y-88756804D01*
X127899228Y-88756817D01*
X127975885Y-88871541D01*
X127975888Y-88871545D01*
X128073454Y-88969111D01*
X128073458Y-88969114D01*
X128188182Y-89045771D01*
X128188195Y-89045778D01*
X128300897Y-89092460D01*
X128315672Y-89098580D01*
X128315676Y-89098580D01*
X128315677Y-89098581D01*
X128451004Y-89125500D01*
X128451007Y-89125500D01*
X128588995Y-89125500D01*
X128680041Y-89107389D01*
X128724328Y-89098580D01*
X128825902Y-89056507D01*
X128851804Y-89045778D01*
X128851804Y-89045777D01*
X128851811Y-89045775D01*
X128966542Y-88969114D01*
X129064114Y-88871542D01*
X129140775Y-88756811D01*
X129193580Y-88629328D01*
X129218101Y-88506054D01*
X129220500Y-88493995D01*
X129220500Y-88000000D01*
X132594353Y-88000000D01*
X132614834Y-88142456D01*
X132615661Y-88144266D01*
X132674623Y-88273373D01*
X132768872Y-88382143D01*
X132889947Y-88459953D01*
X132889950Y-88459954D01*
X132889949Y-88459954D01*
X132997107Y-88491417D01*
X133024633Y-88499500D01*
X133028036Y-88500499D01*
X133028038Y-88500500D01*
X133028039Y-88500500D01*
X133171962Y-88500500D01*
X133171962Y-88500499D01*
X133310053Y-88459953D01*
X133431128Y-88382143D01*
X133525377Y-88273373D01*
X133585165Y-88142457D01*
X133605647Y-88000000D01*
X133585165Y-87857543D01*
X133525377Y-87726627D01*
X133431128Y-87617857D01*
X133310053Y-87540047D01*
X133310051Y-87540046D01*
X133310049Y-87540045D01*
X133310050Y-87540045D01*
X133171963Y-87499500D01*
X133171961Y-87499500D01*
X133028039Y-87499500D01*
X133028036Y-87499500D01*
X132889949Y-87540045D01*
X132768873Y-87617856D01*
X132674623Y-87726626D01*
X132674622Y-87726628D01*
X132614834Y-87857543D01*
X132594353Y-88000000D01*
X129220500Y-88000000D01*
X129220500Y-87556004D01*
X129193581Y-87420677D01*
X129193580Y-87420676D01*
X129193580Y-87420672D01*
X129162693Y-87346104D01*
X129140778Y-87293195D01*
X129140771Y-87293182D01*
X129064114Y-87178458D01*
X129064111Y-87178454D01*
X128966545Y-87080888D01*
X128966541Y-87080885D01*
X128851817Y-87004228D01*
X128851804Y-87004221D01*
X128724332Y-86951421D01*
X128724322Y-86951418D01*
X128588995Y-86924500D01*
X128588993Y-86924500D01*
X128451007Y-86924500D01*
X128451005Y-86924500D01*
X128315677Y-86951418D01*
X128315667Y-86951421D01*
X128188195Y-87004221D01*
X128188182Y-87004228D01*
X128073458Y-87080885D01*
X128073454Y-87080888D01*
X127975888Y-87178454D01*
X127975885Y-87178458D01*
X127899228Y-87293182D01*
X127899221Y-87293195D01*
X127846421Y-87420667D01*
X127846418Y-87420677D01*
X127819500Y-87556004D01*
X127819500Y-87556007D01*
X127819500Y-88493993D01*
X127819500Y-88493995D01*
X127819499Y-88493995D01*
X120580500Y-88493995D01*
X120580500Y-87556004D01*
X120553581Y-87420677D01*
X120553580Y-87420676D01*
X120553580Y-87420672D01*
X120522693Y-87346104D01*
X120500778Y-87293195D01*
X120500771Y-87293182D01*
X120424114Y-87178458D01*
X120424111Y-87178454D01*
X120326545Y-87080888D01*
X120326541Y-87080885D01*
X120211817Y-87004228D01*
X120211804Y-87004221D01*
X120084332Y-86951421D01*
X120084322Y-86951418D01*
X119948995Y-86924500D01*
X119948993Y-86924500D01*
X119811007Y-86924500D01*
X119811005Y-86924500D01*
X119675677Y-86951418D01*
X119675667Y-86951421D01*
X119548195Y-87004221D01*
X119548182Y-87004228D01*
X119433458Y-87080885D01*
X119433454Y-87080888D01*
X119335888Y-87178454D01*
X119335885Y-87178458D01*
X119259228Y-87293182D01*
X119259221Y-87293195D01*
X119206421Y-87420667D01*
X119206418Y-87420677D01*
X119179500Y-87556004D01*
X119179500Y-87556007D01*
X119179500Y-88493993D01*
X119179500Y-88493995D01*
X119179499Y-88493995D01*
X101425213Y-88493995D01*
X101620212Y-88413224D01*
X101830289Y-88291936D01*
X102022738Y-88144265D01*
X102194265Y-87972738D01*
X102341936Y-87780289D01*
X102463224Y-87570212D01*
X102556054Y-87346100D01*
X102581804Y-87250000D01*
X115119353Y-87250000D01*
X115139834Y-87392456D01*
X115188720Y-87499500D01*
X115199623Y-87523373D01*
X115293872Y-87632143D01*
X115414947Y-87709953D01*
X115414950Y-87709954D01*
X115414949Y-87709954D01*
X115553036Y-87750499D01*
X115553038Y-87750500D01*
X115553039Y-87750500D01*
X115696962Y-87750500D01*
X115696962Y-87750499D01*
X115835053Y-87709953D01*
X115956128Y-87632143D01*
X116050377Y-87523373D01*
X116110165Y-87392457D01*
X116130647Y-87250000D01*
X116110165Y-87107543D01*
X116050377Y-86976627D01*
X115956128Y-86867857D01*
X115835053Y-86790047D01*
X115835051Y-86790046D01*
X115835049Y-86790045D01*
X115835050Y-86790045D01*
X115696963Y-86749500D01*
X115696961Y-86749500D01*
X115553039Y-86749500D01*
X115553036Y-86749500D01*
X115414949Y-86790045D01*
X115293873Y-86867856D01*
X115199623Y-86976626D01*
X115199622Y-86976628D01*
X115139834Y-87107543D01*
X115119353Y-87250000D01*
X102581804Y-87250000D01*
X102618838Y-87111789D01*
X102650500Y-86871288D01*
X102650500Y-86628712D01*
X102618838Y-86388211D01*
X102556054Y-86153900D01*
X102463224Y-85929788D01*
X102341936Y-85719711D01*
X102274743Y-85632143D01*
X102194266Y-85527263D01*
X102194260Y-85527256D01*
X102022743Y-85355739D01*
X102022736Y-85355733D01*
X101884941Y-85250000D01*
X115119353Y-85250000D01*
X115139834Y-85392456D01*
X115159242Y-85434953D01*
X115199623Y-85523373D01*
X115293872Y-85632143D01*
X115414947Y-85709953D01*
X115414950Y-85709954D01*
X115414949Y-85709954D01*
X115553036Y-85750499D01*
X115553038Y-85750500D01*
X115553039Y-85750500D01*
X115696962Y-85750500D01*
X115696962Y-85750499D01*
X115835053Y-85709953D01*
X115956128Y-85632143D01*
X116050377Y-85523373D01*
X116110165Y-85392457D01*
X116130647Y-85250000D01*
X116110165Y-85107543D01*
X116050377Y-84976627D01*
X115956128Y-84867857D01*
X115835053Y-84790047D01*
X115835051Y-84790046D01*
X115835049Y-84790045D01*
X115835050Y-84790045D01*
X115696963Y-84749500D01*
X115696961Y-84749500D01*
X115553039Y-84749500D01*
X115553036Y-84749500D01*
X115414949Y-84790045D01*
X115293873Y-84867856D01*
X115199623Y-84976626D01*
X115199622Y-84976628D01*
X115139834Y-85107543D01*
X115119353Y-85250000D01*
X101884941Y-85250000D01*
X101830293Y-85208067D01*
X101830292Y-85208066D01*
X101830289Y-85208064D01*
X101656182Y-85107543D01*
X101620214Y-85086777D01*
X101620205Y-85086773D01*
X101396104Y-84993947D01*
X101161785Y-84931161D01*
X100921289Y-84899500D01*
X100921288Y-84899500D01*
X100678712Y-84899500D01*
X100678711Y-84899500D01*
X100438214Y-84931161D01*
X100203895Y-84993947D01*
X99979794Y-85086773D01*
X99979785Y-85086777D01*
X99769706Y-85208067D01*
X99577263Y-85355733D01*
X99577256Y-85355739D01*
X99405739Y-85527256D01*
X99405733Y-85527263D01*
X99258067Y-85719706D01*
X99136777Y-85929785D01*
X99136773Y-85929794D01*
X99043947Y-86153895D01*
X98981161Y-86388214D01*
X98949500Y-86628711D01*
X97500500Y-86628711D01*
X97500500Y-84463995D01*
X119179499Y-84463995D01*
X119206418Y-84599322D01*
X119206421Y-84599332D01*
X119259221Y-84726804D01*
X119259228Y-84726817D01*
X119335885Y-84841541D01*
X119335888Y-84841545D01*
X119433454Y-84939111D01*
X119433458Y-84939114D01*
X119548182Y-85015771D01*
X119548195Y-85015778D01*
X119675667Y-85068578D01*
X119675672Y-85068580D01*
X119675676Y-85068580D01*
X119675677Y-85068581D01*
X119811004Y-85095500D01*
X119811007Y-85095500D01*
X119948995Y-85095500D01*
X120040041Y-85077389D01*
X120084328Y-85068580D01*
X120211811Y-85015775D01*
X120326542Y-84939114D01*
X120424114Y-84841542D01*
X120500775Y-84726811D01*
X120532384Y-84650500D01*
X120555911Y-84593701D01*
X120557718Y-84594449D01*
X120591044Y-84543565D01*
X120654847Y-84515089D01*
X120723918Y-84525629D01*
X120776325Y-84571838D01*
X120778822Y-84575974D01*
X120791944Y-84598702D01*
X120849485Y-84698365D01*
X120956635Y-84805515D01*
X121087865Y-84881281D01*
X121234234Y-84920500D01*
X121234236Y-84920500D01*
X121385764Y-84920500D01*
X121385766Y-84920500D01*
X121532135Y-84881281D01*
X121663365Y-84805515D01*
X121770515Y-84698365D01*
X121846281Y-84567135D01*
X121885500Y-84420766D01*
X121885500Y-84269234D01*
X126514500Y-84269234D01*
X126514500Y-84420765D01*
X126553719Y-84567136D01*
X126591602Y-84632750D01*
X126629485Y-84698365D01*
X126736635Y-84805515D01*
X126867865Y-84881281D01*
X127014234Y-84920500D01*
X127014236Y-84920500D01*
X127165764Y-84920500D01*
X127165766Y-84920500D01*
X127312135Y-84881281D01*
X127443365Y-84805515D01*
X127550515Y-84698365D01*
X127621177Y-84575974D01*
X127671744Y-84527759D01*
X127740351Y-84514536D01*
X127805216Y-84540504D01*
X127843322Y-84594018D01*
X127844089Y-84593701D01*
X127845469Y-84597033D01*
X127845744Y-84597419D01*
X127846160Y-84598702D01*
X127899221Y-84726804D01*
X127899228Y-84726817D01*
X127975885Y-84841541D01*
X127975888Y-84841545D01*
X128073454Y-84939111D01*
X128073458Y-84939114D01*
X128188182Y-85015771D01*
X128188195Y-85015778D01*
X128315667Y-85068578D01*
X128315672Y-85068580D01*
X128315676Y-85068580D01*
X128315677Y-85068581D01*
X128451004Y-85095500D01*
X128451007Y-85095500D01*
X128588995Y-85095500D01*
X128680041Y-85077389D01*
X128724328Y-85068580D01*
X128851811Y-85015775D01*
X128912835Y-84975000D01*
X153244353Y-84975000D01*
X153264834Y-85117456D01*
X153324622Y-85248371D01*
X153324623Y-85248373D01*
X153418872Y-85357143D01*
X153539947Y-85434953D01*
X153539950Y-85434954D01*
X153539949Y-85434954D01*
X153678036Y-85475499D01*
X153678038Y-85475500D01*
X153678039Y-85475500D01*
X153821962Y-85475500D01*
X153821962Y-85475499D01*
X153960053Y-85434953D01*
X154081128Y-85357143D01*
X154175377Y-85248373D01*
X154235165Y-85117457D01*
X154255647Y-84975000D01*
X157344353Y-84975000D01*
X157364834Y-85117456D01*
X157424622Y-85248371D01*
X157424623Y-85248373D01*
X157518872Y-85357143D01*
X157639947Y-85434953D01*
X157639950Y-85434954D01*
X157639949Y-85434954D01*
X157778036Y-85475499D01*
X157778038Y-85475500D01*
X157778039Y-85475500D01*
X157921962Y-85475500D01*
X157921962Y-85475499D01*
X158060053Y-85434953D01*
X158181128Y-85357143D01*
X158275377Y-85248373D01*
X158335165Y-85117457D01*
X158355647Y-84975000D01*
X158335165Y-84832543D01*
X158275377Y-84701627D01*
X158181128Y-84592857D01*
X158060053Y-84515047D01*
X158060051Y-84515046D01*
X158060049Y-84515045D01*
X158060050Y-84515045D01*
X157921963Y-84474500D01*
X157921961Y-84474500D01*
X157778039Y-84474500D01*
X157778036Y-84474500D01*
X157639949Y-84515045D01*
X157518873Y-84592856D01*
X157424623Y-84701626D01*
X157424622Y-84701628D01*
X157364834Y-84832543D01*
X157344353Y-84975000D01*
X154255647Y-84975000D01*
X154235165Y-84832543D01*
X154175377Y-84701627D01*
X154081128Y-84592857D01*
X153960053Y-84515047D01*
X153960051Y-84515046D01*
X153960049Y-84515045D01*
X153960050Y-84515045D01*
X153821963Y-84474500D01*
X153821961Y-84474500D01*
X153678039Y-84474500D01*
X153678036Y-84474500D01*
X153539949Y-84515045D01*
X153418873Y-84592856D01*
X153324623Y-84701626D01*
X153324622Y-84701628D01*
X153264834Y-84832543D01*
X153244353Y-84975000D01*
X128912835Y-84975000D01*
X128966542Y-84939114D01*
X129064114Y-84841542D01*
X129140775Y-84726811D01*
X129193580Y-84599328D01*
X129220500Y-84463993D01*
X129220500Y-83250000D01*
X149619353Y-83250000D01*
X149639834Y-83392456D01*
X149699622Y-83523371D01*
X149699623Y-83523373D01*
X149793872Y-83632143D01*
X149914947Y-83709953D01*
X149914950Y-83709954D01*
X149914949Y-83709954D01*
X150053036Y-83750499D01*
X150053038Y-83750500D01*
X150053039Y-83750500D01*
X150196962Y-83750500D01*
X150196962Y-83750499D01*
X150335053Y-83709953D01*
X150456128Y-83632143D01*
X150550377Y-83523373D01*
X150610165Y-83392457D01*
X150630647Y-83250000D01*
X150610165Y-83107543D01*
X150550377Y-82976627D01*
X150456128Y-82867857D01*
X150335053Y-82790047D01*
X150335051Y-82790046D01*
X150335049Y-82790045D01*
X150335050Y-82790045D01*
X150196963Y-82749500D01*
X150196961Y-82749500D01*
X150053039Y-82749500D01*
X150053036Y-82749500D01*
X149914949Y-82790045D01*
X149793873Y-82867856D01*
X149699623Y-82976626D01*
X149699622Y-82976628D01*
X149639834Y-83107543D01*
X149619353Y-83250000D01*
X129220500Y-83250000D01*
X129220500Y-83226007D01*
X129220500Y-83226004D01*
X129193581Y-83090677D01*
X129193580Y-83090676D01*
X129193580Y-83090672D01*
X129146342Y-82976628D01*
X129140778Y-82963195D01*
X129140771Y-82963182D01*
X129064114Y-82848458D01*
X129064111Y-82848454D01*
X128966545Y-82750888D01*
X128966541Y-82750885D01*
X128890387Y-82700000D01*
X145044353Y-82700000D01*
X145064834Y-82842456D01*
X145119969Y-82963182D01*
X145124623Y-82973373D01*
X145218872Y-83082143D01*
X145339947Y-83159953D01*
X145339950Y-83159954D01*
X145339949Y-83159954D01*
X145478036Y-83200499D01*
X145478038Y-83200500D01*
X145478039Y-83200500D01*
X145621962Y-83200500D01*
X145621962Y-83200499D01*
X145760053Y-83159953D01*
X145881128Y-83082143D01*
X145975377Y-82973373D01*
X146035165Y-82842457D01*
X146055647Y-82700000D01*
X146035165Y-82557543D01*
X145975377Y-82426627D01*
X145881128Y-82317857D01*
X145760053Y-82240047D01*
X145760051Y-82240046D01*
X145760049Y-82240045D01*
X145760050Y-82240045D01*
X145621963Y-82199500D01*
X145621961Y-82199500D01*
X145478039Y-82199500D01*
X145478036Y-82199500D01*
X145339949Y-82240045D01*
X145218873Y-82317856D01*
X145124623Y-82426626D01*
X145124622Y-82426628D01*
X145064834Y-82557543D01*
X145044353Y-82700000D01*
X128890387Y-82700000D01*
X128851817Y-82674228D01*
X128851804Y-82674221D01*
X128724332Y-82621421D01*
X128724322Y-82621418D01*
X128588995Y-82594500D01*
X128588993Y-82594500D01*
X128451007Y-82594500D01*
X128451005Y-82594500D01*
X128315677Y-82621418D01*
X128315667Y-82621421D01*
X128188195Y-82674221D01*
X128188182Y-82674228D01*
X128073458Y-82750885D01*
X128073454Y-82750888D01*
X127975888Y-82848454D01*
X127975885Y-82848458D01*
X127899228Y-82963182D01*
X127899221Y-82963195D01*
X127846421Y-83090667D01*
X127846418Y-83090677D01*
X127819500Y-83226004D01*
X127819500Y-83994755D01*
X127799815Y-84061794D01*
X127747011Y-84107549D01*
X127677853Y-84117493D01*
X127614297Y-84088468D01*
X127588113Y-84056756D01*
X127575731Y-84035310D01*
X127550515Y-83991635D01*
X127443365Y-83884485D01*
X127377750Y-83846602D01*
X127312136Y-83808719D01*
X127238950Y-83789109D01*
X127165766Y-83769500D01*
X127014234Y-83769500D01*
X126867863Y-83808719D01*
X126736635Y-83884485D01*
X126736632Y-83884487D01*
X126629487Y-83991632D01*
X126629485Y-83991635D01*
X126553719Y-84122863D01*
X126514500Y-84269234D01*
X121885500Y-84269234D01*
X121846281Y-84122865D01*
X121843179Y-84117493D01*
X121811021Y-84061794D01*
X121770515Y-83991635D01*
X121663365Y-83884485D01*
X121597750Y-83846602D01*
X121532136Y-83808719D01*
X121458950Y-83789109D01*
X121385766Y-83769500D01*
X121234234Y-83769500D01*
X121087863Y-83808719D01*
X120956635Y-83884485D01*
X120956632Y-83884487D01*
X120849487Y-83991632D01*
X120849485Y-83991635D01*
X120811887Y-84056756D01*
X120761319Y-84104971D01*
X120692712Y-84118193D01*
X120627847Y-84092225D01*
X120587319Y-84035310D01*
X120580500Y-83994755D01*
X120580500Y-83226004D01*
X120553581Y-83090677D01*
X120553580Y-83090676D01*
X120553580Y-83090672D01*
X120506342Y-82976628D01*
X120500778Y-82963195D01*
X120500771Y-82963182D01*
X120424114Y-82848458D01*
X120424111Y-82848454D01*
X120326545Y-82750888D01*
X120326541Y-82750885D01*
X120211817Y-82674228D01*
X120211804Y-82674221D01*
X120084332Y-82621421D01*
X120084322Y-82621418D01*
X119948995Y-82594500D01*
X119948993Y-82594500D01*
X119811007Y-82594500D01*
X119811005Y-82594500D01*
X119675677Y-82621418D01*
X119675667Y-82621421D01*
X119548195Y-82674221D01*
X119548182Y-82674228D01*
X119433458Y-82750885D01*
X119433454Y-82750888D01*
X119335888Y-82848454D01*
X119335885Y-82848458D01*
X119259228Y-82963182D01*
X119259221Y-82963195D01*
X119206421Y-83090667D01*
X119206418Y-83090677D01*
X119179500Y-83226004D01*
X119179500Y-83226007D01*
X119179500Y-84463993D01*
X119179500Y-84463995D01*
X119179499Y-84463995D01*
X97500500Y-84463995D01*
X97500500Y-81500000D01*
X115169353Y-81500000D01*
X115189834Y-81642456D01*
X115228275Y-81726628D01*
X115249623Y-81773373D01*
X115343872Y-81882143D01*
X115464947Y-81959953D01*
X115464950Y-81959954D01*
X115464949Y-81959954D01*
X115572107Y-81991417D01*
X115601336Y-82000000D01*
X115603036Y-82000499D01*
X115603038Y-82000500D01*
X115603039Y-82000500D01*
X115746962Y-82000500D01*
X115746962Y-82000499D01*
X115748661Y-82000000D01*
X121294353Y-82000000D01*
X121314834Y-82142456D01*
X121359402Y-82240045D01*
X121374623Y-82273373D01*
X121468872Y-82382143D01*
X121589947Y-82459953D01*
X121589950Y-82459954D01*
X121589949Y-82459954D01*
X121728036Y-82500499D01*
X121728038Y-82500500D01*
X121728039Y-82500500D01*
X121871962Y-82500500D01*
X121871962Y-82500499D01*
X122010050Y-82459954D01*
X122010051Y-82459954D01*
X122071936Y-82420184D01*
X122138974Y-82400500D01*
X126211026Y-82400500D01*
X126278064Y-82420184D01*
X126339949Y-82459954D01*
X126478036Y-82500499D01*
X126478038Y-82500500D01*
X126478039Y-82500500D01*
X126621962Y-82500500D01*
X126621962Y-82500499D01*
X126760053Y-82459953D01*
X126881128Y-82382143D01*
X126975377Y-82273373D01*
X127035165Y-82142457D01*
X127055647Y-82000000D01*
X127048458Y-81950000D01*
X154294353Y-81950000D01*
X154314834Y-82092456D01*
X154337669Y-82142456D01*
X154374623Y-82223373D01*
X154468872Y-82332143D01*
X154589947Y-82409953D01*
X154589950Y-82409954D01*
X154589949Y-82409954D01*
X154728036Y-82450499D01*
X154728038Y-82450500D01*
X154728039Y-82450500D01*
X154871962Y-82450500D01*
X154871962Y-82450499D01*
X155010053Y-82409953D01*
X155131128Y-82332143D01*
X155225377Y-82223373D01*
X155285165Y-82092457D01*
X155305647Y-81950000D01*
X155285165Y-81807543D01*
X155225377Y-81676627D01*
X155131128Y-81567857D01*
X155010053Y-81490047D01*
X155010051Y-81490046D01*
X155010049Y-81490045D01*
X155010050Y-81490045D01*
X154871963Y-81449500D01*
X154871961Y-81449500D01*
X154728039Y-81449500D01*
X154728036Y-81449500D01*
X154589949Y-81490045D01*
X154468873Y-81567856D01*
X154374623Y-81676626D01*
X154374622Y-81676628D01*
X154314834Y-81807543D01*
X154294353Y-81950000D01*
X127048458Y-81950000D01*
X127035165Y-81857543D01*
X126975377Y-81726627D01*
X126881128Y-81617857D01*
X126760053Y-81540047D01*
X126760051Y-81540046D01*
X126760049Y-81540045D01*
X126760050Y-81540045D01*
X126621963Y-81499500D01*
X126621961Y-81499500D01*
X126478039Y-81499500D01*
X126478036Y-81499500D01*
X126339950Y-81540045D01*
X126339948Y-81540045D01*
X126278064Y-81579816D01*
X126211026Y-81599500D01*
X122138974Y-81599500D01*
X122071936Y-81579816D01*
X122010050Y-81540045D01*
X121871963Y-81499500D01*
X121871961Y-81499500D01*
X121728039Y-81499500D01*
X121728036Y-81499500D01*
X121589949Y-81540045D01*
X121468873Y-81617856D01*
X121374623Y-81726626D01*
X121374622Y-81726628D01*
X121314834Y-81857543D01*
X121294353Y-82000000D01*
X115748661Y-82000000D01*
X115885053Y-81959953D01*
X116006128Y-81882143D01*
X116100377Y-81773373D01*
X116160165Y-81642457D01*
X116180647Y-81500000D01*
X116160165Y-81357543D01*
X116100377Y-81226627D01*
X116006128Y-81117857D01*
X115885053Y-81040047D01*
X115885051Y-81040046D01*
X115885049Y-81040045D01*
X115885050Y-81040045D01*
X115746963Y-80999500D01*
X115746961Y-80999500D01*
X115603039Y-80999500D01*
X115603036Y-80999500D01*
X115464949Y-81040045D01*
X115343873Y-81117856D01*
X115249623Y-81226626D01*
X115249622Y-81226628D01*
X115189834Y-81357543D01*
X115169353Y-81500000D01*
X97500500Y-81500000D01*
X97500500Y-80500000D01*
X124194353Y-80500000D01*
X124214834Y-80642456D01*
X124244559Y-80707543D01*
X124274623Y-80773373D01*
X124368872Y-80882143D01*
X124489947Y-80959953D01*
X124489950Y-80959954D01*
X124489949Y-80959954D01*
X124597107Y-80991417D01*
X124624633Y-80999500D01*
X124628036Y-81000499D01*
X124628038Y-81000500D01*
X124628039Y-81000500D01*
X124771962Y-81000500D01*
X124771962Y-81000499D01*
X124910053Y-80959953D01*
X125031128Y-80882143D01*
X125058980Y-80850000D01*
X139969353Y-80850000D01*
X139989834Y-80992456D01*
X140019455Y-81057316D01*
X140049623Y-81123373D01*
X140143872Y-81232143D01*
X140264947Y-81309953D01*
X140264950Y-81309954D01*
X140264949Y-81309954D01*
X140403036Y-81350499D01*
X140403038Y-81350500D01*
X140403039Y-81350500D01*
X140546962Y-81350500D01*
X140546962Y-81350499D01*
X140685053Y-81309953D01*
X140806128Y-81232143D01*
X140900377Y-81123373D01*
X140960165Y-80992457D01*
X140980647Y-80850000D01*
X140960165Y-80707543D01*
X140933886Y-80650000D01*
X147744353Y-80650000D01*
X147764834Y-80792456D01*
X147824622Y-80923371D01*
X147824623Y-80923373D01*
X147918872Y-81032143D01*
X148039947Y-81109953D01*
X148039950Y-81109954D01*
X148039949Y-81109954D01*
X148178036Y-81150499D01*
X148178038Y-81150500D01*
X148178039Y-81150500D01*
X148321962Y-81150500D01*
X148321962Y-81150499D01*
X148460053Y-81109953D01*
X148553342Y-81050000D01*
X156594353Y-81050000D01*
X156614834Y-81192456D01*
X156667356Y-81307461D01*
X156674623Y-81323373D01*
X156768872Y-81432143D01*
X156889947Y-81509953D01*
X156889950Y-81509954D01*
X156889949Y-81509954D01*
X157028036Y-81550499D01*
X157028038Y-81550500D01*
X157028039Y-81550500D01*
X157171962Y-81550500D01*
X157171962Y-81550499D01*
X157310053Y-81509953D01*
X157431128Y-81432143D01*
X157525377Y-81323373D01*
X157585165Y-81192457D01*
X157605647Y-81050000D01*
X157585165Y-80907543D01*
X157525377Y-80776627D01*
X157431128Y-80667857D01*
X157310053Y-80590047D01*
X157310051Y-80590046D01*
X157310049Y-80590045D01*
X157310050Y-80590045D01*
X157171963Y-80549500D01*
X157171961Y-80549500D01*
X157028039Y-80549500D01*
X157028036Y-80549500D01*
X156889949Y-80590045D01*
X156768873Y-80667856D01*
X156674623Y-80776626D01*
X156674622Y-80776628D01*
X156614834Y-80907543D01*
X156594353Y-81050000D01*
X148553342Y-81050000D01*
X148581128Y-81032143D01*
X148675377Y-80923373D01*
X148735165Y-80792457D01*
X148755647Y-80650000D01*
X148735165Y-80507543D01*
X148675377Y-80376627D01*
X148581128Y-80267857D01*
X148460053Y-80190047D01*
X148460051Y-80190046D01*
X148460049Y-80190045D01*
X148460050Y-80190045D01*
X148321963Y-80149500D01*
X148321961Y-80149500D01*
X148178039Y-80149500D01*
X148178036Y-80149500D01*
X148039949Y-80190045D01*
X147918873Y-80267856D01*
X147824623Y-80376626D01*
X147824622Y-80376628D01*
X147764834Y-80507543D01*
X147744353Y-80650000D01*
X140933886Y-80650000D01*
X140900377Y-80576627D01*
X140806128Y-80467857D01*
X140685053Y-80390047D01*
X140685051Y-80390046D01*
X140685049Y-80390045D01*
X140685050Y-80390045D01*
X140546963Y-80349500D01*
X140546961Y-80349500D01*
X140403039Y-80349500D01*
X140403036Y-80349500D01*
X140264949Y-80390045D01*
X140143873Y-80467856D01*
X140049623Y-80576626D01*
X140049622Y-80576628D01*
X139989834Y-80707543D01*
X139969353Y-80850000D01*
X125058980Y-80850000D01*
X125125377Y-80773373D01*
X125185165Y-80642457D01*
X125205647Y-80500000D01*
X125185165Y-80357543D01*
X125125377Y-80226627D01*
X125031128Y-80117857D01*
X124910053Y-80040047D01*
X124910051Y-80040046D01*
X124910049Y-80040045D01*
X124910050Y-80040045D01*
X124771963Y-79999500D01*
X124771961Y-79999500D01*
X124628039Y-79999500D01*
X124628036Y-79999500D01*
X124489949Y-80040045D01*
X124368873Y-80117856D01*
X124274623Y-80226626D01*
X124274622Y-80226628D01*
X124214834Y-80357543D01*
X124194353Y-80500000D01*
X97500500Y-80500000D01*
X97500500Y-79050000D01*
X143044353Y-79050000D01*
X143064834Y-79192456D01*
X143124622Y-79323371D01*
X143124625Y-79323377D01*
X143163983Y-79368798D01*
X143193008Y-79432353D01*
X143183064Y-79501512D01*
X143163983Y-79531202D01*
X143124625Y-79576622D01*
X143124622Y-79576628D01*
X143064834Y-79707543D01*
X143044353Y-79850000D01*
X143064834Y-79992456D01*
X143122103Y-80117856D01*
X143124623Y-80123373D01*
X143218872Y-80232143D01*
X143339947Y-80309953D01*
X143339950Y-80309954D01*
X143339949Y-80309954D01*
X143447107Y-80341417D01*
X143474633Y-80349500D01*
X143478036Y-80350499D01*
X143478038Y-80350500D01*
X143478039Y-80350500D01*
X143621962Y-80350500D01*
X143621962Y-80350499D01*
X143760053Y-80309953D01*
X143881128Y-80232143D01*
X143975377Y-80123373D01*
X144035165Y-79992457D01*
X144055647Y-79850000D01*
X144035165Y-79707543D01*
X143975377Y-79576627D01*
X143975375Y-79576625D01*
X143975374Y-79576622D01*
X143936017Y-79531203D01*
X143906991Y-79467648D01*
X143916934Y-79398489D01*
X143936017Y-79368797D01*
X143975374Y-79323377D01*
X143975374Y-79323375D01*
X143975377Y-79323373D01*
X143986051Y-79300000D01*
X147194353Y-79300000D01*
X147214834Y-79442456D01*
X147255364Y-79531202D01*
X147274623Y-79573373D01*
X147368872Y-79682143D01*
X147489947Y-79759953D01*
X147489950Y-79759954D01*
X147489949Y-79759954D01*
X147628036Y-79800499D01*
X147628038Y-79800500D01*
X147628039Y-79800500D01*
X147771962Y-79800500D01*
X147771962Y-79800499D01*
X147910053Y-79759953D01*
X148031128Y-79682143D01*
X148125377Y-79573373D01*
X148185165Y-79442457D01*
X148205647Y-79300000D01*
X151444353Y-79300000D01*
X151464834Y-79442456D01*
X151505364Y-79531202D01*
X151524623Y-79573373D01*
X151618872Y-79682143D01*
X151739947Y-79759953D01*
X151739950Y-79759954D01*
X151739949Y-79759954D01*
X151878036Y-79800499D01*
X151878038Y-79800500D01*
X151878039Y-79800500D01*
X152021962Y-79800500D01*
X152021962Y-79800499D01*
X152160053Y-79759953D01*
X152281128Y-79682143D01*
X152375377Y-79573373D01*
X152431720Y-79450000D01*
X154794353Y-79450000D01*
X154814834Y-79592456D01*
X154874622Y-79723371D01*
X154874623Y-79723373D01*
X154968872Y-79832143D01*
X155089947Y-79909953D01*
X155089950Y-79909954D01*
X155089949Y-79909954D01*
X155228036Y-79950499D01*
X155228038Y-79950500D01*
X155228039Y-79950500D01*
X155371962Y-79950500D01*
X155371962Y-79950499D01*
X155510053Y-79909953D01*
X155631128Y-79832143D01*
X155725377Y-79723373D01*
X155785165Y-79592457D01*
X155791269Y-79550000D01*
X158819353Y-79550000D01*
X158839834Y-79692456D01*
X158870660Y-79759954D01*
X158899623Y-79823373D01*
X158993872Y-79932143D01*
X159114947Y-80009953D01*
X159114950Y-80009954D01*
X159114949Y-80009954D01*
X159253036Y-80050499D01*
X159253038Y-80050500D01*
X159253039Y-80050500D01*
X159396962Y-80050500D01*
X159396962Y-80050499D01*
X159535053Y-80009953D01*
X159656128Y-79932143D01*
X159750377Y-79823373D01*
X159810165Y-79692457D01*
X159830647Y-79550000D01*
X159810165Y-79407543D01*
X159750377Y-79276627D01*
X159656128Y-79167857D01*
X159535053Y-79090047D01*
X159535051Y-79090046D01*
X159535049Y-79090045D01*
X159535050Y-79090045D01*
X159514830Y-79084108D01*
X163249500Y-79084108D01*
X163249500Y-89065891D01*
X163283608Y-89193187D01*
X163316554Y-89250250D01*
X163349500Y-89307314D01*
X163442686Y-89400500D01*
X163556814Y-89466392D01*
X163684108Y-89500500D01*
X163684110Y-89500500D01*
X165365890Y-89500500D01*
X165365892Y-89500500D01*
X165493186Y-89466392D01*
X165607314Y-89400500D01*
X165700500Y-89307314D01*
X165766392Y-89193186D01*
X165800500Y-89065892D01*
X165800500Y-87525000D01*
X170794353Y-87525000D01*
X170814834Y-87667456D01*
X170852759Y-87750499D01*
X170874623Y-87798373D01*
X170968872Y-87907143D01*
X171089947Y-87984953D01*
X171089950Y-87984954D01*
X171089949Y-87984954D01*
X171228036Y-88025499D01*
X171228038Y-88025500D01*
X171228039Y-88025500D01*
X171371962Y-88025500D01*
X171371962Y-88025499D01*
X171510053Y-87984953D01*
X171631128Y-87907143D01*
X171725377Y-87798373D01*
X171785165Y-87667457D01*
X171805647Y-87525000D01*
X171785165Y-87382543D01*
X171725377Y-87251627D01*
X171631128Y-87142857D01*
X171510053Y-87065047D01*
X171510051Y-87065046D01*
X171510049Y-87065045D01*
X171510050Y-87065045D01*
X171371963Y-87024500D01*
X171371961Y-87024500D01*
X171228039Y-87024500D01*
X171228036Y-87024500D01*
X171089949Y-87065045D01*
X170968873Y-87142856D01*
X170874623Y-87251626D01*
X170874622Y-87251628D01*
X170814834Y-87382543D01*
X170794353Y-87525000D01*
X165800500Y-87525000D01*
X165800500Y-85925000D01*
X167544353Y-85925000D01*
X167564834Y-86067456D01*
X167624622Y-86198371D01*
X167624623Y-86198373D01*
X167718872Y-86307143D01*
X167839947Y-86384953D01*
X167839950Y-86384954D01*
X167839949Y-86384954D01*
X167978036Y-86425499D01*
X167978038Y-86425500D01*
X167978039Y-86425500D01*
X168121962Y-86425500D01*
X168121962Y-86425499D01*
X168260053Y-86384953D01*
X168381128Y-86307143D01*
X168475377Y-86198373D01*
X168535165Y-86067457D01*
X168555647Y-85925000D01*
X168535165Y-85782543D01*
X168475377Y-85651627D01*
X168381128Y-85542857D01*
X168260053Y-85465047D01*
X168260051Y-85465046D01*
X168260049Y-85465045D01*
X168260050Y-85465045D01*
X168121963Y-85424500D01*
X168121961Y-85424500D01*
X167978039Y-85424500D01*
X167978036Y-85424500D01*
X167839949Y-85465045D01*
X167718873Y-85542856D01*
X167624623Y-85651626D01*
X167624622Y-85651628D01*
X167564834Y-85782543D01*
X167544353Y-85925000D01*
X165800500Y-85925000D01*
X165800500Y-84150000D01*
X168494353Y-84150000D01*
X168514834Y-84292456D01*
X168573431Y-84420764D01*
X168574623Y-84423373D01*
X168668872Y-84532143D01*
X168789947Y-84609953D01*
X168789950Y-84609954D01*
X168789949Y-84609954D01*
X168928036Y-84650499D01*
X168928038Y-84650500D01*
X168928039Y-84650500D01*
X169071962Y-84650500D01*
X169071962Y-84650499D01*
X169210053Y-84609953D01*
X169331128Y-84532143D01*
X169425377Y-84423373D01*
X169485165Y-84292457D01*
X169505647Y-84150000D01*
X169485165Y-84007543D01*
X169425377Y-83876627D01*
X169331128Y-83767857D01*
X169210053Y-83690047D01*
X169210051Y-83690046D01*
X169210049Y-83690045D01*
X169210050Y-83690045D01*
X169071963Y-83649500D01*
X169071961Y-83649500D01*
X168928039Y-83649500D01*
X168928036Y-83649500D01*
X168789949Y-83690045D01*
X168668873Y-83767856D01*
X168574623Y-83876626D01*
X168574622Y-83876628D01*
X168514834Y-84007543D01*
X168494353Y-84150000D01*
X165800500Y-84150000D01*
X165800500Y-81374500D01*
X165820185Y-81307461D01*
X165872989Y-81261706D01*
X165924500Y-81250500D01*
X166065890Y-81250500D01*
X166065892Y-81250500D01*
X166193186Y-81216392D01*
X166307314Y-81150500D01*
X166400500Y-81057314D01*
X166466392Y-80943186D01*
X166500500Y-80815892D01*
X166500500Y-79084108D01*
X167749500Y-79084108D01*
X167749500Y-80815891D01*
X167783608Y-80943187D01*
X167793288Y-80959953D01*
X167849500Y-81057314D01*
X167942686Y-81150500D01*
X168056814Y-81216392D01*
X168184108Y-81250500D01*
X172125500Y-81250500D01*
X172192539Y-81270185D01*
X172238294Y-81322989D01*
X172249500Y-81374500D01*
X172249500Y-89065891D01*
X172283608Y-89193187D01*
X172316554Y-89250250D01*
X172349500Y-89307314D01*
X172442686Y-89400500D01*
X172556814Y-89466392D01*
X172684108Y-89500500D01*
X172684110Y-89500500D01*
X173815890Y-89500500D01*
X173815892Y-89500500D01*
X173943186Y-89466392D01*
X174057314Y-89400500D01*
X174150500Y-89307314D01*
X174216392Y-89193186D01*
X174250500Y-89065892D01*
X174250500Y-86628711D01*
X191099500Y-86628711D01*
X191099500Y-86871288D01*
X191127093Y-87080888D01*
X191131162Y-87111789D01*
X191139487Y-87142857D01*
X191193947Y-87346104D01*
X191274280Y-87540045D01*
X191286776Y-87570212D01*
X191408064Y-87780289D01*
X191408066Y-87780292D01*
X191408067Y-87780293D01*
X191555733Y-87972736D01*
X191555739Y-87972743D01*
X191727256Y-88144260D01*
X191727262Y-88144265D01*
X191919711Y-88291936D01*
X192129788Y-88413224D01*
X192353900Y-88506054D01*
X192588211Y-88568838D01*
X192768586Y-88592584D01*
X192828711Y-88600500D01*
X192828712Y-88600500D01*
X193071289Y-88600500D01*
X193119388Y-88594167D01*
X193311789Y-88568838D01*
X193546100Y-88506054D01*
X193770212Y-88413224D01*
X193980289Y-88291936D01*
X194172738Y-88144265D01*
X194344265Y-87972738D01*
X194491936Y-87780289D01*
X194613224Y-87570212D01*
X194706054Y-87346100D01*
X194768838Y-87111789D01*
X194800500Y-86871288D01*
X194800500Y-86628712D01*
X194768838Y-86388211D01*
X194706054Y-86153900D01*
X194613224Y-85929788D01*
X194491936Y-85719711D01*
X194424743Y-85632143D01*
X194344266Y-85527263D01*
X194344260Y-85527256D01*
X194172743Y-85355739D01*
X194172736Y-85355733D01*
X193980293Y-85208067D01*
X193980292Y-85208066D01*
X193980289Y-85208064D01*
X193806182Y-85107543D01*
X193770214Y-85086777D01*
X193770205Y-85086773D01*
X193546104Y-84993947D01*
X193311785Y-84931161D01*
X193071289Y-84899500D01*
X193071288Y-84899500D01*
X192828712Y-84899500D01*
X192828711Y-84899500D01*
X192588214Y-84931161D01*
X192353895Y-84993947D01*
X192129794Y-85086773D01*
X192129785Y-85086777D01*
X191919706Y-85208067D01*
X191727263Y-85355733D01*
X191727256Y-85355739D01*
X191555739Y-85527256D01*
X191555733Y-85527263D01*
X191408067Y-85719706D01*
X191286777Y-85929785D01*
X191286773Y-85929794D01*
X191193947Y-86153895D01*
X191131161Y-86388214D01*
X191099500Y-86628711D01*
X174250500Y-86628711D01*
X174250500Y-79084108D01*
X174216392Y-78956814D01*
X174150500Y-78842686D01*
X174057314Y-78749500D01*
X174000250Y-78716554D01*
X173943187Y-78683608D01*
X173879539Y-78666554D01*
X173815892Y-78649500D01*
X168315892Y-78649500D01*
X168184108Y-78649500D01*
X168056812Y-78683608D01*
X167942686Y-78749500D01*
X167942683Y-78749502D01*
X167849502Y-78842683D01*
X167849500Y-78842686D01*
X167783608Y-78956812D01*
X167749500Y-79084108D01*
X166500500Y-79084108D01*
X166466392Y-78956814D01*
X166400500Y-78842686D01*
X166307314Y-78749500D01*
X166250250Y-78716554D01*
X166193187Y-78683608D01*
X166129539Y-78666554D01*
X166065892Y-78649500D01*
X163815892Y-78649500D01*
X163684108Y-78649500D01*
X163556812Y-78683608D01*
X163442686Y-78749500D01*
X163442683Y-78749502D01*
X163349502Y-78842683D01*
X163349500Y-78842686D01*
X163283608Y-78956812D01*
X163249500Y-79084108D01*
X159514830Y-79084108D01*
X159396963Y-79049500D01*
X159396961Y-79049500D01*
X159253039Y-79049500D01*
X159253036Y-79049500D01*
X159114949Y-79090045D01*
X158993873Y-79167856D01*
X158899623Y-79276626D01*
X158899622Y-79276628D01*
X158839834Y-79407543D01*
X158819353Y-79550000D01*
X155791269Y-79550000D01*
X155805647Y-79450000D01*
X155785165Y-79307543D01*
X155725377Y-79176627D01*
X155725375Y-79176625D01*
X155725374Y-79176622D01*
X155630787Y-79067462D01*
X155601762Y-79003906D01*
X155600500Y-78986260D01*
X155600500Y-78550000D01*
X156594353Y-78550000D01*
X156614834Y-78692456D01*
X156653275Y-78776628D01*
X156674623Y-78823373D01*
X156768872Y-78932143D01*
X156889947Y-79009953D01*
X156889950Y-79009954D01*
X156889949Y-79009954D01*
X156946737Y-79026628D01*
X157026336Y-79050000D01*
X157028036Y-79050499D01*
X157028038Y-79050500D01*
X157028039Y-79050500D01*
X157171962Y-79050500D01*
X157171962Y-79050499D01*
X157310053Y-79009953D01*
X157431128Y-78932143D01*
X157525377Y-78823373D01*
X157585165Y-78692457D01*
X157605611Y-78550247D01*
X194099500Y-78550247D01*
X194099500Y-80289752D01*
X194111131Y-80348229D01*
X194111132Y-80348230D01*
X194155447Y-80414552D01*
X194221769Y-80458867D01*
X194221770Y-80458868D01*
X194280247Y-80470499D01*
X194280250Y-80470500D01*
X194280252Y-80470500D01*
X196019750Y-80470500D01*
X196019751Y-80470499D01*
X196034568Y-80467552D01*
X196078229Y-80458868D01*
X196078229Y-80458867D01*
X196078231Y-80458867D01*
X196144552Y-80414552D01*
X196188867Y-80348231D01*
X196188867Y-80348229D01*
X196188868Y-80348229D01*
X196200499Y-80289752D01*
X196200500Y-80289750D01*
X196200500Y-78550249D01*
X196200499Y-78550247D01*
X196188868Y-78491770D01*
X196188867Y-78491769D01*
X196144552Y-78425447D01*
X196078230Y-78381132D01*
X196078229Y-78381131D01*
X196019752Y-78369500D01*
X196019748Y-78369500D01*
X194280252Y-78369500D01*
X194280247Y-78369500D01*
X194221770Y-78381131D01*
X194221769Y-78381132D01*
X194155447Y-78425447D01*
X194111132Y-78491769D01*
X194111131Y-78491770D01*
X194099500Y-78550247D01*
X157605611Y-78550247D01*
X157605647Y-78550000D01*
X157585165Y-78407543D01*
X157525377Y-78276627D01*
X157431128Y-78167857D01*
X157310053Y-78090047D01*
X157310051Y-78090046D01*
X157310049Y-78090045D01*
X157310050Y-78090045D01*
X157171963Y-78049500D01*
X157171961Y-78049500D01*
X157028039Y-78049500D01*
X157028036Y-78049500D01*
X156889949Y-78090045D01*
X156768873Y-78167856D01*
X156674623Y-78276626D01*
X156674622Y-78276628D01*
X156614834Y-78407543D01*
X156594353Y-78550000D01*
X155600500Y-78550000D01*
X155600500Y-77300000D01*
X156644353Y-77300000D01*
X156664834Y-77442456D01*
X156711461Y-77544552D01*
X156724623Y-77573373D01*
X156818872Y-77682143D01*
X156939947Y-77759953D01*
X156939950Y-77759954D01*
X156939949Y-77759954D01*
X157078036Y-77800499D01*
X157078038Y-77800500D01*
X157078039Y-77800500D01*
X157221962Y-77800500D01*
X157221962Y-77800499D01*
X157360053Y-77759953D01*
X157481128Y-77682143D01*
X157575377Y-77573373D01*
X157635165Y-77442457D01*
X157655647Y-77300000D01*
X157635165Y-77157543D01*
X157586051Y-77050000D01*
X165794353Y-77050000D01*
X165814834Y-77192456D01*
X165874622Y-77323371D01*
X165874623Y-77323373D01*
X165968872Y-77432143D01*
X166089947Y-77509953D01*
X166089950Y-77509954D01*
X166089949Y-77509954D01*
X166228036Y-77550499D01*
X166228038Y-77550500D01*
X166228039Y-77550500D01*
X166371962Y-77550500D01*
X166371962Y-77550499D01*
X166510053Y-77509953D01*
X166631128Y-77432143D01*
X166725377Y-77323373D01*
X166785165Y-77192457D01*
X166791269Y-77150000D01*
X167994353Y-77150000D01*
X168014834Y-77292456D01*
X168028953Y-77323371D01*
X168074623Y-77423373D01*
X168168872Y-77532143D01*
X168289947Y-77609953D01*
X168289950Y-77609954D01*
X168289949Y-77609954D01*
X168428036Y-77650499D01*
X168428038Y-77650500D01*
X168428039Y-77650500D01*
X168571962Y-77650500D01*
X168571962Y-77650499D01*
X168710053Y-77609953D01*
X168831128Y-77532143D01*
X168925377Y-77423373D01*
X168985165Y-77292457D01*
X169005647Y-77150000D01*
X168985165Y-77007543D01*
X168926917Y-76880000D01*
X194094417Y-76880000D01*
X194114699Y-77085932D01*
X194114700Y-77085934D01*
X194174768Y-77283954D01*
X194272315Y-77466450D01*
X194306969Y-77508677D01*
X194403589Y-77626410D01*
X194471501Y-77682143D01*
X194563550Y-77757685D01*
X194746046Y-77855232D01*
X194944066Y-77915300D01*
X194944065Y-77915300D01*
X194962529Y-77917118D01*
X195150000Y-77935583D01*
X195355934Y-77915300D01*
X195553954Y-77855232D01*
X195736450Y-77757685D01*
X195896410Y-77626410D01*
X196027685Y-77466450D01*
X196125232Y-77283954D01*
X196185300Y-77085934D01*
X196205583Y-76880000D01*
X196185300Y-76674066D01*
X196125232Y-76476046D01*
X196027685Y-76293550D01*
X195938563Y-76184954D01*
X195896410Y-76133589D01*
X195736452Y-76002317D01*
X195736453Y-76002317D01*
X195736450Y-76002315D01*
X195553954Y-75904768D01*
X195355934Y-75844700D01*
X195355932Y-75844699D01*
X195355934Y-75844699D01*
X195150000Y-75824417D01*
X194944067Y-75844699D01*
X194746043Y-75904769D01*
X194635898Y-75963643D01*
X194563550Y-76002315D01*
X194563548Y-76002316D01*
X194563547Y-76002317D01*
X194403589Y-76133589D01*
X194272317Y-76293547D01*
X194174769Y-76476043D01*
X194114699Y-76674067D01*
X194094417Y-76880000D01*
X168926917Y-76880000D01*
X168925377Y-76876627D01*
X168831128Y-76767857D01*
X168710053Y-76690047D01*
X168710051Y-76690046D01*
X168710049Y-76690045D01*
X168710050Y-76690045D01*
X168571963Y-76649500D01*
X168571961Y-76649500D01*
X168428039Y-76649500D01*
X168428036Y-76649500D01*
X168289949Y-76690045D01*
X168168873Y-76767856D01*
X168074623Y-76876626D01*
X168074622Y-76876628D01*
X168014834Y-77007543D01*
X167994353Y-77150000D01*
X166791269Y-77150000D01*
X166805647Y-77050000D01*
X166785165Y-76907543D01*
X166725377Y-76776627D01*
X166631128Y-76667857D01*
X166510053Y-76590047D01*
X166510051Y-76590046D01*
X166510049Y-76590045D01*
X166510050Y-76590045D01*
X166371963Y-76549500D01*
X166371961Y-76549500D01*
X166228039Y-76549500D01*
X166228036Y-76549500D01*
X166089949Y-76590045D01*
X165968873Y-76667856D01*
X165874623Y-76776626D01*
X165874622Y-76776628D01*
X165814834Y-76907543D01*
X165794353Y-77050000D01*
X157586051Y-77050000D01*
X157575377Y-77026627D01*
X157481128Y-76917857D01*
X157360053Y-76840047D01*
X157360051Y-76840046D01*
X157360049Y-76840045D01*
X157360050Y-76840045D01*
X157221963Y-76799500D01*
X157221961Y-76799500D01*
X157078039Y-76799500D01*
X157078036Y-76799500D01*
X156939949Y-76840045D01*
X156818873Y-76917856D01*
X156724623Y-77026626D01*
X156724622Y-77026628D01*
X156664834Y-77157543D01*
X156644353Y-77300000D01*
X155600500Y-77300000D01*
X155600500Y-75833801D01*
X155620185Y-75766762D01*
X155657458Y-75729487D01*
X155731128Y-75682143D01*
X155825377Y-75573373D01*
X155885165Y-75442457D01*
X155905647Y-75300000D01*
X155885165Y-75157543D01*
X155825377Y-75026627D01*
X155731128Y-74917857D01*
X155610053Y-74840047D01*
X155610051Y-74840046D01*
X155610049Y-74840045D01*
X155610050Y-74840045D01*
X155471963Y-74799500D01*
X155471961Y-74799500D01*
X155328039Y-74799500D01*
X155328036Y-74799500D01*
X155189949Y-74840045D01*
X155068873Y-74917856D01*
X155068872Y-74917856D01*
X155068872Y-74917857D01*
X155056290Y-74932377D01*
X154974623Y-75026626D01*
X154974622Y-75026628D01*
X154914834Y-75157543D01*
X154894353Y-75300000D01*
X154914834Y-75442456D01*
X154932959Y-75482143D01*
X154974623Y-75573373D01*
X154974627Y-75573378D01*
X154979418Y-75580833D01*
X154976364Y-75582795D01*
X154998235Y-75630663D01*
X154999500Y-75648332D01*
X154999500Y-78986260D01*
X154979815Y-79053299D01*
X154969213Y-79067462D01*
X154874625Y-79176622D01*
X154874622Y-79176628D01*
X154814834Y-79307543D01*
X154794353Y-79450000D01*
X152431720Y-79450000D01*
X152435165Y-79442457D01*
X152455647Y-79300000D01*
X152435165Y-79157543D01*
X152375377Y-79026627D01*
X152281128Y-78917857D01*
X152160053Y-78840047D01*
X152160051Y-78840046D01*
X152160049Y-78840045D01*
X152160050Y-78840045D01*
X152021963Y-78799500D01*
X152021961Y-78799500D01*
X151878039Y-78799500D01*
X151878036Y-78799500D01*
X151739949Y-78840045D01*
X151618873Y-78917856D01*
X151524623Y-79026626D01*
X151524622Y-79026628D01*
X151464834Y-79157543D01*
X151444353Y-79300000D01*
X148205647Y-79300000D01*
X148185165Y-79157543D01*
X148125377Y-79026627D01*
X148031128Y-78917857D01*
X147910053Y-78840047D01*
X147910051Y-78840046D01*
X147910049Y-78840045D01*
X147910050Y-78840045D01*
X147771963Y-78799500D01*
X147771961Y-78799500D01*
X147628039Y-78799500D01*
X147628036Y-78799500D01*
X147489949Y-78840045D01*
X147368873Y-78917856D01*
X147274623Y-79026626D01*
X147274622Y-79026628D01*
X147214834Y-79157543D01*
X147194353Y-79300000D01*
X143986051Y-79300000D01*
X144035165Y-79192457D01*
X144055647Y-79050000D01*
X144035165Y-78907543D01*
X143975377Y-78776627D01*
X143881128Y-78667857D01*
X143760053Y-78590047D01*
X143760051Y-78590046D01*
X143760049Y-78590045D01*
X143760050Y-78590045D01*
X143621963Y-78549500D01*
X143621961Y-78549500D01*
X143478039Y-78549500D01*
X143478036Y-78549500D01*
X143339949Y-78590045D01*
X143218873Y-78667856D01*
X143124623Y-78776626D01*
X143124622Y-78776628D01*
X143064834Y-78907543D01*
X143044353Y-79050000D01*
X97500500Y-79050000D01*
X97500500Y-75380247D01*
X102999500Y-75380247D01*
X102999500Y-77419752D01*
X103011131Y-77478229D01*
X103011132Y-77478230D01*
X103055447Y-77544552D01*
X103121769Y-77588867D01*
X103121770Y-77588868D01*
X103180247Y-77600499D01*
X103180250Y-77600500D01*
X103180252Y-77600500D01*
X105219750Y-77600500D01*
X105219751Y-77600499D01*
X105234568Y-77597552D01*
X105278229Y-77588868D01*
X105278229Y-77588867D01*
X105278231Y-77588867D01*
X105344552Y-77544552D01*
X105388867Y-77478231D01*
X105388867Y-77478229D01*
X105388868Y-77478229D01*
X105394483Y-77450000D01*
X143044353Y-77450000D01*
X143064834Y-77592456D01*
X143124622Y-77723371D01*
X143124623Y-77723373D01*
X143218872Y-77832143D01*
X143339947Y-77909953D01*
X143339950Y-77909954D01*
X143339949Y-77909954D01*
X143478036Y-77950499D01*
X143478038Y-77950500D01*
X143478039Y-77950500D01*
X143621962Y-77950500D01*
X143621962Y-77950499D01*
X143760053Y-77909953D01*
X143881128Y-77832143D01*
X143975377Y-77723373D01*
X144035165Y-77592457D01*
X144055647Y-77450000D01*
X144035165Y-77307543D01*
X143975377Y-77176627D01*
X143881128Y-77067857D01*
X143760053Y-76990047D01*
X143760051Y-76990046D01*
X143760049Y-76990045D01*
X143760050Y-76990045D01*
X143621963Y-76949500D01*
X143621961Y-76949500D01*
X143478039Y-76949500D01*
X143478036Y-76949500D01*
X143339949Y-76990045D01*
X143218873Y-77067856D01*
X143124623Y-77176626D01*
X143124622Y-77176628D01*
X143064834Y-77307543D01*
X143044353Y-77450000D01*
X105394483Y-77450000D01*
X105400499Y-77419752D01*
X105400500Y-77419750D01*
X105400500Y-76650000D01*
X139969353Y-76650000D01*
X139989834Y-76792456D01*
X140047103Y-76917856D01*
X140049623Y-76923373D01*
X140143872Y-77032143D01*
X140264947Y-77109953D01*
X140264950Y-77109954D01*
X140264949Y-77109954D01*
X140372107Y-77141417D01*
X140401336Y-77150000D01*
X140403036Y-77150499D01*
X140403038Y-77150500D01*
X140403039Y-77150500D01*
X140546962Y-77150500D01*
X140546962Y-77150499D01*
X140685053Y-77109953D01*
X140806128Y-77032143D01*
X140900377Y-76923373D01*
X140960165Y-76792457D01*
X140980647Y-76650000D01*
X140966269Y-76550000D01*
X149444353Y-76550000D01*
X149464834Y-76692456D01*
X149510504Y-76792457D01*
X149524623Y-76823373D01*
X149618872Y-76932143D01*
X149739947Y-77009953D01*
X149739950Y-77009954D01*
X149739949Y-77009954D01*
X149796737Y-77026628D01*
X149876336Y-77050000D01*
X149878036Y-77050499D01*
X149878038Y-77050500D01*
X149878039Y-77050500D01*
X150021962Y-77050500D01*
X150021962Y-77050499D01*
X150160053Y-77009953D01*
X150281128Y-76932143D01*
X150375377Y-76823373D01*
X150435165Y-76692457D01*
X150455647Y-76550000D01*
X150435165Y-76407543D01*
X150375377Y-76276627D01*
X150281128Y-76167857D01*
X150160053Y-76090047D01*
X150160051Y-76090046D01*
X150160049Y-76090045D01*
X150160050Y-76090045D01*
X150021963Y-76049500D01*
X150021961Y-76049500D01*
X149878039Y-76049500D01*
X149878036Y-76049500D01*
X149739949Y-76090045D01*
X149618873Y-76167856D01*
X149524623Y-76276626D01*
X149524622Y-76276628D01*
X149464834Y-76407543D01*
X149444353Y-76550000D01*
X140966269Y-76550000D01*
X140960165Y-76507543D01*
X140900377Y-76376627D01*
X140806128Y-76267857D01*
X140685053Y-76190047D01*
X140685051Y-76190046D01*
X140685049Y-76190045D01*
X140685050Y-76190045D01*
X140546963Y-76149500D01*
X140546961Y-76149500D01*
X140403039Y-76149500D01*
X140403036Y-76149500D01*
X140264949Y-76190045D01*
X140143873Y-76267856D01*
X140049623Y-76376626D01*
X140049622Y-76376628D01*
X139989834Y-76507543D01*
X139969353Y-76650000D01*
X105400500Y-76650000D01*
X105400500Y-75725000D01*
X124194353Y-75725000D01*
X124214834Y-75867456D01*
X124231875Y-75904769D01*
X124274623Y-75998373D01*
X124368872Y-76107143D01*
X124489947Y-76184953D01*
X124489950Y-76184954D01*
X124489949Y-76184954D01*
X124628036Y-76225499D01*
X124628038Y-76225500D01*
X124628039Y-76225500D01*
X124771962Y-76225500D01*
X124771962Y-76225499D01*
X124910053Y-76184953D01*
X125031128Y-76107143D01*
X125125377Y-75998373D01*
X125185165Y-75867457D01*
X125202053Y-75750000D01*
X151544353Y-75750000D01*
X151564834Y-75892456D01*
X151613205Y-75998371D01*
X151624623Y-76023373D01*
X151718872Y-76132143D01*
X151839947Y-76209953D01*
X151839950Y-76209954D01*
X151839949Y-76209954D01*
X151978036Y-76250499D01*
X151978038Y-76250500D01*
X151978039Y-76250500D01*
X152121962Y-76250500D01*
X152121962Y-76250499D01*
X152260053Y-76209953D01*
X152381128Y-76132143D01*
X152475377Y-76023373D01*
X152535165Y-75892457D01*
X152555647Y-75750000D01*
X152535165Y-75607543D01*
X152475377Y-75476627D01*
X152381128Y-75367857D01*
X152260053Y-75290047D01*
X152260051Y-75290046D01*
X152260049Y-75290045D01*
X152260050Y-75290045D01*
X152121963Y-75249500D01*
X152121961Y-75249500D01*
X151978039Y-75249500D01*
X151978036Y-75249500D01*
X151839949Y-75290045D01*
X151718873Y-75367856D01*
X151624623Y-75476626D01*
X151624622Y-75476628D01*
X151564834Y-75607543D01*
X151544353Y-75750000D01*
X125202053Y-75750000D01*
X125205647Y-75725000D01*
X125185165Y-75582543D01*
X125125377Y-75451627D01*
X125031128Y-75342857D01*
X124910053Y-75265047D01*
X124910051Y-75265046D01*
X124910049Y-75265045D01*
X124910050Y-75265045D01*
X124771963Y-75224500D01*
X124771961Y-75224500D01*
X124628039Y-75224500D01*
X124628036Y-75224500D01*
X124489949Y-75265045D01*
X124368873Y-75342856D01*
X124274623Y-75451626D01*
X124274622Y-75451628D01*
X124214834Y-75582543D01*
X124194353Y-75725000D01*
X105400500Y-75725000D01*
X105400500Y-75380249D01*
X105400499Y-75380247D01*
X105388868Y-75321770D01*
X105388867Y-75321769D01*
X105344552Y-75255447D01*
X105278230Y-75211132D01*
X105278229Y-75211131D01*
X105219752Y-75199500D01*
X105219748Y-75199500D01*
X103180252Y-75199500D01*
X103180247Y-75199500D01*
X103121770Y-75211131D01*
X103121769Y-75211132D01*
X103055447Y-75255447D01*
X103011132Y-75321769D01*
X103011131Y-75321770D01*
X102999500Y-75380247D01*
X97500500Y-75380247D01*
X97500500Y-74750000D01*
X118056853Y-74750000D01*
X118077334Y-74892456D01*
X118137122Y-75023371D01*
X118137123Y-75023373D01*
X118231372Y-75132143D01*
X118352447Y-75209953D01*
X118352450Y-75209954D01*
X118352449Y-75209954D01*
X118459607Y-75241417D01*
X118487133Y-75249500D01*
X118490536Y-75250499D01*
X118490538Y-75250500D01*
X118490539Y-75250500D01*
X118634462Y-75250500D01*
X118634462Y-75250499D01*
X118746230Y-75217682D01*
X118772550Y-75209954D01*
X118772550Y-75209953D01*
X118772553Y-75209953D01*
X118893628Y-75132143D01*
X118921480Y-75100000D01*
X145044353Y-75100000D01*
X145064834Y-75242456D01*
X145122103Y-75367856D01*
X145124623Y-75373373D01*
X145218872Y-75482143D01*
X145339947Y-75559953D01*
X145339950Y-75559954D01*
X145339949Y-75559954D01*
X145478036Y-75600499D01*
X145478038Y-75600500D01*
X145478039Y-75600500D01*
X145621962Y-75600500D01*
X145621962Y-75600499D01*
X145760053Y-75559953D01*
X145881128Y-75482143D01*
X145975377Y-75373373D01*
X146035165Y-75242457D01*
X146055647Y-75100000D01*
X146035165Y-74957543D01*
X145975377Y-74826627D01*
X145881128Y-74717857D01*
X145760053Y-74640047D01*
X145760051Y-74640046D01*
X145760049Y-74640045D01*
X145760050Y-74640045D01*
X145623666Y-74600000D01*
X148894353Y-74600000D01*
X148914834Y-74742456D01*
X148953275Y-74826628D01*
X148974623Y-74873373D01*
X149068872Y-74982143D01*
X149189947Y-75059953D01*
X149189950Y-75059954D01*
X149189949Y-75059954D01*
X149280052Y-75086410D01*
X149326336Y-75100000D01*
X149328036Y-75100499D01*
X149328038Y-75100500D01*
X149328039Y-75100500D01*
X149471962Y-75100500D01*
X149471962Y-75100499D01*
X149610053Y-75059953D01*
X149731128Y-74982143D01*
X149825377Y-74873373D01*
X149885165Y-74742457D01*
X149905647Y-74600000D01*
X149885165Y-74457543D01*
X149858886Y-74400000D01*
X150644353Y-74400000D01*
X150664834Y-74542456D01*
X150710504Y-74642457D01*
X150724623Y-74673373D01*
X150818872Y-74782143D01*
X150939947Y-74859953D01*
X150939950Y-74859954D01*
X150939949Y-74859954D01*
X151078036Y-74900499D01*
X151078038Y-74900500D01*
X151078039Y-74900500D01*
X151221962Y-74900500D01*
X151221962Y-74900499D01*
X151360053Y-74859953D01*
X151481128Y-74782143D01*
X151575377Y-74673373D01*
X151635165Y-74542457D01*
X151655647Y-74400000D01*
X151635165Y-74257543D01*
X151575377Y-74126627D01*
X151508980Y-74050000D01*
X153189353Y-74050000D01*
X153209834Y-74192456D01*
X153254402Y-74290045D01*
X153269623Y-74323373D01*
X153363872Y-74432143D01*
X153484947Y-74509953D01*
X153523162Y-74521173D01*
X153581940Y-74558947D01*
X153610966Y-74622502D01*
X153601023Y-74691661D01*
X153555269Y-74744466D01*
X153555268Y-74744466D01*
X153518874Y-74767855D01*
X153518872Y-74767856D01*
X153518872Y-74767857D01*
X153506493Y-74782143D01*
X153424623Y-74876626D01*
X153424622Y-74876628D01*
X153364834Y-75007543D01*
X153344353Y-75150000D01*
X153364834Y-75292456D01*
X153424622Y-75423371D01*
X153424623Y-75423373D01*
X153518872Y-75532143D01*
X153639947Y-75609953D01*
X153639950Y-75609954D01*
X153639949Y-75609954D01*
X153747107Y-75641417D01*
X153770655Y-75648332D01*
X153778036Y-75650499D01*
X153778038Y-75650500D01*
X153778039Y-75650500D01*
X153921962Y-75650500D01*
X153921962Y-75650499D01*
X154060053Y-75609953D01*
X154181128Y-75532143D01*
X154275377Y-75423373D01*
X154335165Y-75292457D01*
X154355647Y-75150000D01*
X154335165Y-75007543D01*
X154275377Y-74876627D01*
X154181128Y-74767857D01*
X154084452Y-74705727D01*
X154060050Y-74690045D01*
X154021836Y-74678825D01*
X153963058Y-74641051D01*
X153934033Y-74577495D01*
X153943977Y-74508337D01*
X153989732Y-74455533D01*
X153989731Y-74455533D01*
X154026128Y-74432143D01*
X154120377Y-74323373D01*
X154180165Y-74192457D01*
X154193458Y-74100000D01*
X154444353Y-74100000D01*
X154464834Y-74242456D01*
X154518494Y-74359953D01*
X154524623Y-74373373D01*
X154618872Y-74482143D01*
X154739947Y-74559953D01*
X154739950Y-74559954D01*
X154739949Y-74559954D01*
X154799690Y-74577495D01*
X154876336Y-74600000D01*
X154878036Y-74600499D01*
X154878038Y-74600500D01*
X154878039Y-74600500D01*
X155021962Y-74600500D01*
X155021962Y-74600499D01*
X155160053Y-74559953D01*
X155281128Y-74482143D01*
X155375377Y-74373373D01*
X155390618Y-74340000D01*
X194094417Y-74340000D01*
X194114699Y-74545932D01*
X194131252Y-74600499D01*
X194174768Y-74743954D01*
X194272315Y-74926450D01*
X194272317Y-74926452D01*
X194403589Y-75086410D01*
X194459316Y-75132143D01*
X194563550Y-75217685D01*
X194746046Y-75315232D01*
X194944066Y-75375300D01*
X194944065Y-75375300D01*
X194962529Y-75377118D01*
X195150000Y-75395583D01*
X195355934Y-75375300D01*
X195553954Y-75315232D01*
X195736450Y-75217685D01*
X195896410Y-75086410D01*
X196027685Y-74926450D01*
X196125232Y-74743954D01*
X196185300Y-74545934D01*
X196205583Y-74340000D01*
X196185300Y-74134066D01*
X196125232Y-73936046D01*
X196027685Y-73753550D01*
X195934536Y-73640047D01*
X195896410Y-73593589D01*
X195736452Y-73462317D01*
X195736453Y-73462317D01*
X195736450Y-73462315D01*
X195553954Y-73364768D01*
X195355934Y-73304700D01*
X195355932Y-73304699D01*
X195355934Y-73304699D01*
X195150000Y-73284417D01*
X194944067Y-73304699D01*
X194746043Y-73364769D01*
X194635898Y-73423643D01*
X194563550Y-73462315D01*
X194563548Y-73462316D01*
X194563547Y-73462317D01*
X194403589Y-73593589D01*
X194301607Y-73717857D01*
X194272315Y-73753550D01*
X194242167Y-73809953D01*
X194174769Y-73936043D01*
X194114699Y-74134067D01*
X194094417Y-74340000D01*
X155390618Y-74340000D01*
X155435165Y-74242457D01*
X155455647Y-74100000D01*
X155435165Y-73957543D01*
X155375377Y-73826627D01*
X155281128Y-73717857D01*
X155160053Y-73640047D01*
X155160051Y-73640046D01*
X155160049Y-73640045D01*
X155160050Y-73640045D01*
X155021963Y-73599500D01*
X155021961Y-73599500D01*
X154878039Y-73599500D01*
X154878036Y-73599500D01*
X154739949Y-73640045D01*
X154618873Y-73717856D01*
X154524623Y-73826626D01*
X154524622Y-73826628D01*
X154464834Y-73957543D01*
X154444353Y-74100000D01*
X154193458Y-74100000D01*
X154200647Y-74050000D01*
X154180165Y-73907543D01*
X154120377Y-73776627D01*
X154026128Y-73667857D01*
X153905053Y-73590047D01*
X153905051Y-73590046D01*
X153905049Y-73590045D01*
X153905050Y-73590045D01*
X153766963Y-73549500D01*
X153766961Y-73549500D01*
X153623039Y-73549500D01*
X153623036Y-73549500D01*
X153484949Y-73590045D01*
X153363873Y-73667856D01*
X153269623Y-73776626D01*
X153269622Y-73776628D01*
X153209834Y-73907543D01*
X153189353Y-74050000D01*
X151508980Y-74050000D01*
X151481128Y-74017857D01*
X151360053Y-73940047D01*
X151360051Y-73940046D01*
X151360049Y-73940045D01*
X151360050Y-73940045D01*
X151221963Y-73899500D01*
X151221961Y-73899500D01*
X151078039Y-73899500D01*
X151078036Y-73899500D01*
X150939949Y-73940045D01*
X150818873Y-74017856D01*
X150724623Y-74126626D01*
X150724622Y-74126628D01*
X150664834Y-74257543D01*
X150644353Y-74400000D01*
X149858886Y-74400000D01*
X149825377Y-74326627D01*
X149731128Y-74217857D01*
X149610053Y-74140047D01*
X149610051Y-74140046D01*
X149610049Y-74140045D01*
X149610050Y-74140045D01*
X149471963Y-74099500D01*
X149471961Y-74099500D01*
X149328039Y-74099500D01*
X149328036Y-74099500D01*
X149189949Y-74140045D01*
X149068873Y-74217856D01*
X148974623Y-74326626D01*
X148974622Y-74326628D01*
X148914834Y-74457543D01*
X148894353Y-74600000D01*
X145623666Y-74600000D01*
X145621963Y-74599500D01*
X145621961Y-74599500D01*
X145478039Y-74599500D01*
X145478036Y-74599500D01*
X145339949Y-74640045D01*
X145218873Y-74717856D01*
X145124623Y-74826626D01*
X145124622Y-74826628D01*
X145064834Y-74957543D01*
X145044353Y-75100000D01*
X118921480Y-75100000D01*
X118987877Y-75023373D01*
X119047665Y-74892457D01*
X119068147Y-74750000D01*
X119047665Y-74607543D01*
X118998551Y-74500000D01*
X141744353Y-74500000D01*
X141764834Y-74642456D01*
X141811421Y-74744466D01*
X141824623Y-74773373D01*
X141918872Y-74882143D01*
X142039947Y-74959953D01*
X142039950Y-74959954D01*
X142039949Y-74959954D01*
X142178036Y-75000499D01*
X142178038Y-75000500D01*
X142178039Y-75000500D01*
X142321962Y-75000500D01*
X142321962Y-75000499D01*
X142460053Y-74959953D01*
X142581128Y-74882143D01*
X142675377Y-74773373D01*
X142735165Y-74642457D01*
X142755647Y-74500000D01*
X142735165Y-74357543D01*
X142675377Y-74226627D01*
X142581128Y-74117857D01*
X142460053Y-74040047D01*
X142460051Y-74040046D01*
X142460049Y-74040045D01*
X142460050Y-74040045D01*
X142321963Y-73999500D01*
X142321961Y-73999500D01*
X142178039Y-73999500D01*
X142178036Y-73999500D01*
X142039949Y-74040045D01*
X141918873Y-74117856D01*
X141824623Y-74226626D01*
X141824622Y-74226628D01*
X141764834Y-74357543D01*
X141744353Y-74500000D01*
X118998551Y-74500000D01*
X118987877Y-74476627D01*
X118893628Y-74367857D01*
X118772553Y-74290047D01*
X118772551Y-74290046D01*
X118772549Y-74290045D01*
X118772550Y-74290045D01*
X118634463Y-74249500D01*
X118634461Y-74249500D01*
X118490539Y-74249500D01*
X118490536Y-74249500D01*
X118352449Y-74290045D01*
X118231373Y-74367856D01*
X118137123Y-74476626D01*
X118137122Y-74476628D01*
X118077334Y-74607543D01*
X118056853Y-74750000D01*
X97500500Y-74750000D01*
X97500500Y-73900000D01*
X144294353Y-73900000D01*
X144314834Y-74042456D01*
X144353275Y-74126628D01*
X144374623Y-74173373D01*
X144468872Y-74282143D01*
X144589947Y-74359953D01*
X144589950Y-74359954D01*
X144589949Y-74359954D01*
X144697107Y-74391417D01*
X144726336Y-74400000D01*
X144728036Y-74400499D01*
X144728038Y-74400500D01*
X144728039Y-74400500D01*
X144871962Y-74400500D01*
X144871962Y-74400499D01*
X145010053Y-74359953D01*
X145131128Y-74282143D01*
X145225377Y-74173373D01*
X145285165Y-74042457D01*
X145305647Y-73900000D01*
X145285165Y-73757543D01*
X145225377Y-73626627D01*
X145131128Y-73517857D01*
X145010053Y-73440047D01*
X145010051Y-73440046D01*
X145010049Y-73440045D01*
X145010050Y-73440045D01*
X144871963Y-73399500D01*
X144871961Y-73399500D01*
X144728039Y-73399500D01*
X144728036Y-73399500D01*
X144589949Y-73440045D01*
X144468873Y-73517856D01*
X144374623Y-73626626D01*
X144374622Y-73626628D01*
X144314834Y-73757543D01*
X144294353Y-73900000D01*
X97500500Y-73900000D01*
X97500500Y-71399999D01*
X102994357Y-71399999D01*
X102994357Y-71400000D01*
X103014884Y-71621535D01*
X103014885Y-71621537D01*
X103075769Y-71835523D01*
X103075775Y-71835538D01*
X103174938Y-72034683D01*
X103174943Y-72034691D01*
X103309020Y-72212238D01*
X103473437Y-72362123D01*
X103473439Y-72362125D01*
X103662595Y-72479245D01*
X103662596Y-72479245D01*
X103662599Y-72479247D01*
X103870060Y-72559618D01*
X104088757Y-72600500D01*
X104088759Y-72600500D01*
X104311241Y-72600500D01*
X104311243Y-72600500D01*
X104529940Y-72559618D01*
X104737401Y-72479247D01*
X104926562Y-72362124D01*
X105090981Y-72212236D01*
X105225058Y-72034689D01*
X105242331Y-72000000D01*
X116506853Y-72000000D01*
X116527334Y-72142456D01*
X116571903Y-72240047D01*
X116587123Y-72273373D01*
X116681372Y-72382143D01*
X116802447Y-72459953D01*
X116802450Y-72459954D01*
X116802449Y-72459954D01*
X116940536Y-72500499D01*
X116940538Y-72500500D01*
X116940539Y-72500500D01*
X117084462Y-72500500D01*
X117084462Y-72500499D01*
X117222553Y-72459953D01*
X117343628Y-72382143D01*
X117437877Y-72273373D01*
X117497665Y-72142457D01*
X117518147Y-72000000D01*
X121881853Y-72000000D01*
X121902334Y-72142456D01*
X121946903Y-72240047D01*
X121962123Y-72273373D01*
X122056372Y-72382143D01*
X122177447Y-72459953D01*
X122177450Y-72459954D01*
X122177449Y-72459954D01*
X122315536Y-72500499D01*
X122315538Y-72500500D01*
X122315539Y-72500500D01*
X122459462Y-72500500D01*
X122459462Y-72500499D01*
X122597553Y-72459953D01*
X122718628Y-72382143D01*
X122794137Y-72295000D01*
X146839353Y-72295000D01*
X146859834Y-72437456D01*
X146888626Y-72500500D01*
X146919623Y-72568373D01*
X147013872Y-72677143D01*
X147134947Y-72754953D01*
X147134950Y-72754954D01*
X147134949Y-72754954D01*
X147273036Y-72795499D01*
X147273038Y-72795500D01*
X147273039Y-72795500D01*
X147416962Y-72795500D01*
X147416962Y-72795499D01*
X147555053Y-72754953D01*
X147640562Y-72700000D01*
X148494353Y-72700000D01*
X148514834Y-72842456D01*
X148541918Y-72901760D01*
X148574623Y-72973373D01*
X148668872Y-73082143D01*
X148789947Y-73159953D01*
X148789950Y-73159954D01*
X148789949Y-73159954D01*
X148928036Y-73200499D01*
X148928038Y-73200500D01*
X148928039Y-73200500D01*
X149071962Y-73200500D01*
X149071962Y-73200499D01*
X149210053Y-73159953D01*
X149210061Y-73159947D01*
X149213918Y-73158187D01*
X149218137Y-73157580D01*
X149218563Y-73157455D01*
X149218580Y-73157516D01*
X149283075Y-73148238D01*
X149346633Y-73177257D01*
X149384413Y-73236032D01*
X149388177Y-73288623D01*
X149379353Y-73349999D01*
X149399834Y-73492456D01*
X149425886Y-73549500D01*
X149459623Y-73623373D01*
X149553872Y-73732143D01*
X149674947Y-73809953D01*
X149674950Y-73809954D01*
X149674949Y-73809954D01*
X149813036Y-73850499D01*
X149813038Y-73850500D01*
X149813039Y-73850500D01*
X149956962Y-73850500D01*
X149956962Y-73850499D01*
X150095053Y-73809953D01*
X150216128Y-73732143D01*
X150310377Y-73623373D01*
X150370165Y-73492457D01*
X150390647Y-73350000D01*
X150370165Y-73207543D01*
X150310377Y-73076627D01*
X150216128Y-72967857D01*
X150095053Y-72890047D01*
X150095051Y-72890046D01*
X150095049Y-72890045D01*
X150095050Y-72890045D01*
X149956963Y-72849500D01*
X149956961Y-72849500D01*
X149813039Y-72849500D01*
X149813036Y-72849500D01*
X149674948Y-72890045D01*
X149671070Y-72891817D01*
X149666850Y-72892423D01*
X149666437Y-72892545D01*
X149666419Y-72892485D01*
X149601911Y-72901760D01*
X149538356Y-72872734D01*
X149500582Y-72813955D01*
X149496822Y-72761377D01*
X149505647Y-72700000D01*
X149485165Y-72557543D01*
X149425377Y-72426627D01*
X149425375Y-72426625D01*
X149425374Y-72426622D01*
X149339362Y-72327359D01*
X149310337Y-72263804D01*
X149320281Y-72194645D01*
X149366034Y-72141843D01*
X149381128Y-72132143D01*
X149475377Y-72023373D01*
X149535165Y-71892457D01*
X149548458Y-71800000D01*
X194094417Y-71800000D01*
X194114699Y-72005932D01*
X194123423Y-72034691D01*
X194174768Y-72203954D01*
X194272315Y-72386450D01*
X194272317Y-72386452D01*
X194403589Y-72546410D01*
X194469499Y-72600500D01*
X194563550Y-72677685D01*
X194746046Y-72775232D01*
X194944066Y-72835300D01*
X194944065Y-72835300D01*
X194962529Y-72837118D01*
X195150000Y-72855583D01*
X195355934Y-72835300D01*
X195553954Y-72775232D01*
X195736450Y-72677685D01*
X195896410Y-72546410D01*
X196027685Y-72386450D01*
X196125232Y-72203954D01*
X196185300Y-72005934D01*
X196205583Y-71800000D01*
X196185300Y-71594066D01*
X196125232Y-71396046D01*
X196027685Y-71213550D01*
X195953679Y-71123373D01*
X195896410Y-71053589D01*
X195770184Y-70950000D01*
X195736450Y-70922315D01*
X195553954Y-70824768D01*
X195355934Y-70764700D01*
X195355932Y-70764699D01*
X195355934Y-70764699D01*
X195150000Y-70744417D01*
X194944067Y-70764699D01*
X194768692Y-70817898D01*
X194750652Y-70823371D01*
X194746043Y-70824769D01*
X194635898Y-70883643D01*
X194563550Y-70922315D01*
X194563548Y-70922316D01*
X194563547Y-70922317D01*
X194403589Y-71053589D01*
X194272317Y-71213547D01*
X194272315Y-71213550D01*
X194262377Y-71232143D01*
X194174769Y-71396043D01*
X194114699Y-71594067D01*
X194094417Y-71800000D01*
X149548458Y-71800000D01*
X149555647Y-71750000D01*
X149535165Y-71607543D01*
X149475377Y-71476627D01*
X149381128Y-71367857D01*
X149260053Y-71290047D01*
X149260051Y-71290046D01*
X149260049Y-71290045D01*
X149260050Y-71290045D01*
X149121963Y-71249500D01*
X149121961Y-71249500D01*
X148978039Y-71249500D01*
X148978036Y-71249500D01*
X148839949Y-71290045D01*
X148718873Y-71367856D01*
X148624623Y-71476626D01*
X148624622Y-71476628D01*
X148564834Y-71607543D01*
X148544353Y-71750000D01*
X148564834Y-71892456D01*
X148624622Y-72023371D01*
X148624625Y-72023377D01*
X148710637Y-72122640D01*
X148739662Y-72186195D01*
X148729718Y-72255354D01*
X148683966Y-72308156D01*
X148668873Y-72317855D01*
X148574623Y-72426626D01*
X148574622Y-72426628D01*
X148514834Y-72557543D01*
X148494353Y-72700000D01*
X147640562Y-72700000D01*
X147676128Y-72677143D01*
X147770377Y-72568373D01*
X147830165Y-72437457D01*
X147850647Y-72295000D01*
X147830165Y-72152543D01*
X147770377Y-72021627D01*
X147676128Y-71912857D01*
X147555053Y-71835047D01*
X147555051Y-71835046D01*
X147555049Y-71835045D01*
X147555050Y-71835045D01*
X147416963Y-71794500D01*
X147416961Y-71794500D01*
X147273039Y-71794500D01*
X147273036Y-71794500D01*
X147134949Y-71835045D01*
X147013873Y-71912856D01*
X146919623Y-72021626D01*
X146919622Y-72021628D01*
X146859834Y-72152543D01*
X146839353Y-72295000D01*
X122794137Y-72295000D01*
X122812877Y-72273373D01*
X122872665Y-72142457D01*
X122893147Y-72000000D01*
X122872665Y-71857543D01*
X122812877Y-71726627D01*
X122718628Y-71617857D01*
X122597553Y-71540047D01*
X122597551Y-71540046D01*
X122597549Y-71540045D01*
X122597550Y-71540045D01*
X122459463Y-71499500D01*
X122459461Y-71499500D01*
X122315539Y-71499500D01*
X122315536Y-71499500D01*
X122177449Y-71540045D01*
X122056373Y-71617856D01*
X121962123Y-71726626D01*
X121962122Y-71726628D01*
X121902334Y-71857543D01*
X121881853Y-72000000D01*
X117518147Y-72000000D01*
X117497665Y-71857543D01*
X117437877Y-71726627D01*
X117343628Y-71617857D01*
X117222553Y-71540047D01*
X117222551Y-71540046D01*
X117222549Y-71540045D01*
X117222550Y-71540045D01*
X117084463Y-71499500D01*
X117084461Y-71499500D01*
X116940539Y-71499500D01*
X116940536Y-71499500D01*
X116802449Y-71540045D01*
X116681373Y-71617856D01*
X116587123Y-71726626D01*
X116587122Y-71726628D01*
X116527334Y-71857543D01*
X116506853Y-72000000D01*
X105242331Y-72000000D01*
X105324229Y-71835528D01*
X105385115Y-71621536D01*
X105405643Y-71400000D01*
X105402664Y-71367856D01*
X105385115Y-71178464D01*
X105385114Y-71178462D01*
X105369439Y-71123371D01*
X105324229Y-70964472D01*
X105308131Y-70932143D01*
X105225061Y-70765316D01*
X105225056Y-70765308D01*
X105090979Y-70587761D01*
X105049557Y-70550000D01*
X149379353Y-70550000D01*
X149399834Y-70692456D01*
X149459622Y-70823371D01*
X149459623Y-70823373D01*
X149553872Y-70932143D01*
X149674947Y-71009953D01*
X149674950Y-71009954D01*
X149674949Y-71009954D01*
X149813036Y-71050499D01*
X149813038Y-71050500D01*
X149813039Y-71050500D01*
X149956962Y-71050500D01*
X149956962Y-71050499D01*
X150095053Y-71009953D01*
X150216128Y-70932143D01*
X150287305Y-70850000D01*
X153189353Y-70850000D01*
X153209834Y-70992456D01*
X153255504Y-71092457D01*
X153269623Y-71123373D01*
X153363872Y-71232143D01*
X153484947Y-71309953D01*
X153484950Y-71309954D01*
X153484949Y-71309954D01*
X153623036Y-71350499D01*
X153623038Y-71350500D01*
X153623039Y-71350500D01*
X153766962Y-71350500D01*
X153766962Y-71350499D01*
X153905053Y-71309953D01*
X154026128Y-71232143D01*
X154120377Y-71123373D01*
X154180165Y-70992457D01*
X154186269Y-70950000D01*
X155594353Y-70950000D01*
X155614834Y-71092456D01*
X155670137Y-71213550D01*
X155674623Y-71223373D01*
X155768872Y-71332143D01*
X155889947Y-71409953D01*
X155889950Y-71409954D01*
X155889949Y-71409954D01*
X156028036Y-71450499D01*
X156028038Y-71450500D01*
X156028039Y-71450500D01*
X156171962Y-71450500D01*
X156171962Y-71450499D01*
X156310053Y-71409953D01*
X156431128Y-71332143D01*
X156525377Y-71223373D01*
X156585165Y-71092457D01*
X156605647Y-70950000D01*
X156585165Y-70807543D01*
X156525377Y-70676627D01*
X156431128Y-70567857D01*
X156310053Y-70490047D01*
X156310051Y-70490046D01*
X156310049Y-70490045D01*
X156310050Y-70490045D01*
X156171963Y-70449500D01*
X156171961Y-70449500D01*
X156028039Y-70449500D01*
X156028036Y-70449500D01*
X155889949Y-70490045D01*
X155768873Y-70567856D01*
X155674623Y-70676626D01*
X155674622Y-70676628D01*
X155614834Y-70807543D01*
X155594353Y-70950000D01*
X154186269Y-70950000D01*
X154200647Y-70850000D01*
X154180165Y-70707543D01*
X154120377Y-70576627D01*
X154026128Y-70467857D01*
X153905053Y-70390047D01*
X153905051Y-70390046D01*
X153905049Y-70390045D01*
X153905050Y-70390045D01*
X153766963Y-70349500D01*
X153766961Y-70349500D01*
X153623039Y-70349500D01*
X153623036Y-70349500D01*
X153484949Y-70390045D01*
X153363873Y-70467856D01*
X153269623Y-70576626D01*
X153269622Y-70576628D01*
X153209834Y-70707543D01*
X153189353Y-70850000D01*
X150287305Y-70850000D01*
X150310377Y-70823373D01*
X150370165Y-70692457D01*
X150390647Y-70550000D01*
X150370165Y-70407543D01*
X150310377Y-70276627D01*
X150216128Y-70167857D01*
X150095053Y-70090047D01*
X150095051Y-70090046D01*
X150095049Y-70090045D01*
X150095050Y-70090045D01*
X149956963Y-70049500D01*
X149956961Y-70049500D01*
X149813039Y-70049500D01*
X149813036Y-70049500D01*
X149674949Y-70090045D01*
X149553873Y-70167856D01*
X149459623Y-70276626D01*
X149459622Y-70276628D01*
X149399834Y-70407543D01*
X149379353Y-70550000D01*
X105049557Y-70550000D01*
X104926562Y-70437876D01*
X104926560Y-70437874D01*
X104737404Y-70320754D01*
X104737398Y-70320752D01*
X104529940Y-70240382D01*
X104311243Y-70199500D01*
X104088757Y-70199500D01*
X103870060Y-70240382D01*
X103738864Y-70291207D01*
X103662601Y-70320752D01*
X103662595Y-70320754D01*
X103473439Y-70437874D01*
X103473437Y-70437876D01*
X103309020Y-70587761D01*
X103174943Y-70765308D01*
X103174938Y-70765316D01*
X103075775Y-70964461D01*
X103075769Y-70964476D01*
X103014885Y-71178462D01*
X103014884Y-71178464D01*
X102994357Y-71399999D01*
X97500500Y-71399999D01*
X97500500Y-69260000D01*
X194094417Y-69260000D01*
X194114699Y-69465932D01*
X194114700Y-69465934D01*
X194174768Y-69663954D01*
X194272315Y-69846450D01*
X194272317Y-69846452D01*
X194403589Y-70006410D01*
X194500209Y-70085702D01*
X194563550Y-70137685D01*
X194746046Y-70235232D01*
X194944066Y-70295300D01*
X194944065Y-70295300D01*
X194962529Y-70297118D01*
X195150000Y-70315583D01*
X195355934Y-70295300D01*
X195553954Y-70235232D01*
X195736450Y-70137685D01*
X195896410Y-70006410D01*
X196027685Y-69846450D01*
X196125232Y-69663954D01*
X196185300Y-69465934D01*
X196205583Y-69260000D01*
X196185300Y-69054066D01*
X196125232Y-68856046D01*
X196027685Y-68673550D01*
X195975702Y-68610209D01*
X195896410Y-68513589D01*
X195736452Y-68382317D01*
X195736453Y-68382317D01*
X195736450Y-68382315D01*
X195553954Y-68284768D01*
X195355934Y-68224700D01*
X195355932Y-68224699D01*
X195355934Y-68224699D01*
X195150000Y-68204417D01*
X194944067Y-68224699D01*
X194746043Y-68284769D01*
X194635898Y-68343643D01*
X194563550Y-68382315D01*
X194563548Y-68382316D01*
X194563547Y-68382317D01*
X194403589Y-68513589D01*
X194272317Y-68673547D01*
X194174769Y-68856043D01*
X194114699Y-69054067D01*
X194094417Y-69260000D01*
X97500500Y-69260000D01*
X97500500Y-67100000D01*
X115494353Y-67100000D01*
X115514834Y-67242456D01*
X115544060Y-67306450D01*
X115574623Y-67373373D01*
X115668872Y-67482143D01*
X115789947Y-67559953D01*
X115789950Y-67559954D01*
X115789949Y-67559954D01*
X115928036Y-67600499D01*
X115928038Y-67600500D01*
X115928039Y-67600500D01*
X116071962Y-67600500D01*
X116071962Y-67600499D01*
X116210053Y-67559953D01*
X116331128Y-67482143D01*
X116425377Y-67373373D01*
X116485165Y-67242457D01*
X116505647Y-67100000D01*
X116485165Y-66957543D01*
X116425377Y-66826627D01*
X116332985Y-66720000D01*
X194094417Y-66720000D01*
X194114699Y-66925932D01*
X194114700Y-66925934D01*
X194174768Y-67123954D01*
X194272315Y-67306450D01*
X194272317Y-67306452D01*
X194403589Y-67466410D01*
X194500209Y-67545702D01*
X194563550Y-67597685D01*
X194746046Y-67695232D01*
X194944066Y-67755300D01*
X194944065Y-67755300D01*
X194962529Y-67757118D01*
X195150000Y-67775583D01*
X195355934Y-67755300D01*
X195553954Y-67695232D01*
X195736450Y-67597685D01*
X195896410Y-67466410D01*
X196027685Y-67306450D01*
X196125232Y-67123954D01*
X196185300Y-66925934D01*
X196205583Y-66720000D01*
X196185300Y-66514066D01*
X196125232Y-66316046D01*
X196027685Y-66133550D01*
X195975702Y-66070209D01*
X195896410Y-65973589D01*
X195736452Y-65842317D01*
X195736453Y-65842317D01*
X195736450Y-65842315D01*
X195553954Y-65744768D01*
X195355934Y-65684700D01*
X195355932Y-65684699D01*
X195355934Y-65684699D01*
X195150000Y-65664417D01*
X194944067Y-65684699D01*
X194746043Y-65744769D01*
X194635898Y-65803643D01*
X194563550Y-65842315D01*
X194563548Y-65842316D01*
X194563547Y-65842317D01*
X194403589Y-65973589D01*
X194272317Y-66133547D01*
X194174769Y-66316043D01*
X194114699Y-66514067D01*
X194094417Y-66720000D01*
X116332985Y-66720000D01*
X116331128Y-66717857D01*
X116210053Y-66640047D01*
X116210051Y-66640046D01*
X116210049Y-66640045D01*
X116210050Y-66640045D01*
X116071963Y-66599500D01*
X116071961Y-66599500D01*
X115928039Y-66599500D01*
X115928036Y-66599500D01*
X115789949Y-66640045D01*
X115668873Y-66717856D01*
X115574623Y-66826626D01*
X115574622Y-66826628D01*
X115514834Y-66957543D01*
X115494353Y-67100000D01*
X97500500Y-67100000D01*
X97500500Y-65450000D01*
X139994353Y-65450000D01*
X140014834Y-65592456D01*
X140047698Y-65664417D01*
X140074623Y-65723373D01*
X140168872Y-65832143D01*
X140289947Y-65909953D01*
X140289950Y-65909954D01*
X140289949Y-65909954D01*
X140428036Y-65950499D01*
X140428038Y-65950500D01*
X140428039Y-65950500D01*
X140571962Y-65950500D01*
X140571962Y-65950499D01*
X140710053Y-65909953D01*
X140831128Y-65832143D01*
X140925377Y-65723373D01*
X140985165Y-65592457D01*
X141005647Y-65450000D01*
X140985165Y-65307543D01*
X140925377Y-65176627D01*
X140831128Y-65067857D01*
X140710053Y-64990047D01*
X140710051Y-64990046D01*
X140710049Y-64990045D01*
X140710050Y-64990045D01*
X140571963Y-64949500D01*
X140571961Y-64949500D01*
X140428039Y-64949500D01*
X140428036Y-64949500D01*
X140289949Y-64990045D01*
X140168873Y-65067856D01*
X140074623Y-65176626D01*
X140074622Y-65176628D01*
X140014834Y-65307543D01*
X139994353Y-65450000D01*
X97500500Y-65450000D01*
X97500500Y-64180000D01*
X139994353Y-64180000D01*
X140014834Y-64322456D01*
X140074622Y-64453371D01*
X140074623Y-64453373D01*
X140168872Y-64562143D01*
X140289947Y-64639953D01*
X140289950Y-64639954D01*
X140289949Y-64639954D01*
X140428036Y-64680499D01*
X140428038Y-64680500D01*
X140428039Y-64680500D01*
X140571962Y-64680500D01*
X140571962Y-64680499D01*
X140710053Y-64639953D01*
X140831128Y-64562143D01*
X140925377Y-64453373D01*
X140985165Y-64322457D01*
X141002771Y-64200000D01*
X161544353Y-64200000D01*
X161564834Y-64342456D01*
X161615488Y-64453371D01*
X161624623Y-64473373D01*
X161718872Y-64582143D01*
X161839947Y-64659953D01*
X161839950Y-64659954D01*
X161839949Y-64659954D01*
X161978036Y-64700499D01*
X161978038Y-64700500D01*
X161978039Y-64700500D01*
X162121962Y-64700500D01*
X162121962Y-64700499D01*
X162260053Y-64659953D01*
X162381128Y-64582143D01*
X162475377Y-64473373D01*
X162535165Y-64342457D01*
X162555647Y-64200000D01*
X162535165Y-64057543D01*
X162475377Y-63926627D01*
X162381128Y-63817857D01*
X162260053Y-63740047D01*
X162260051Y-63740046D01*
X162260049Y-63740045D01*
X162260050Y-63740045D01*
X162121963Y-63699500D01*
X162121961Y-63699500D01*
X161978039Y-63699500D01*
X161978036Y-63699500D01*
X161839949Y-63740045D01*
X161718873Y-63817856D01*
X161624623Y-63926626D01*
X161624622Y-63926628D01*
X161564834Y-64057543D01*
X161544353Y-64200000D01*
X141002771Y-64200000D01*
X141005647Y-64180000D01*
X140985165Y-64037543D01*
X140925377Y-63906627D01*
X140831128Y-63797857D01*
X140710053Y-63720047D01*
X140710051Y-63720046D01*
X140710049Y-63720045D01*
X140710050Y-63720045D01*
X140571963Y-63679500D01*
X140571961Y-63679500D01*
X140428039Y-63679500D01*
X140428036Y-63679500D01*
X140289949Y-63720045D01*
X140168873Y-63797856D01*
X140074623Y-63906626D01*
X140074622Y-63906628D01*
X140014834Y-64037543D01*
X139994353Y-64180000D01*
X97500500Y-64180000D01*
X97500500Y-62895000D01*
X194044417Y-62895000D01*
X194064699Y-63100932D01*
X194064700Y-63100934D01*
X194124768Y-63298954D01*
X194222315Y-63481450D01*
X194222317Y-63481452D01*
X194353589Y-63641410D01*
X194400003Y-63679500D01*
X194513550Y-63772685D01*
X194696046Y-63870232D01*
X194894066Y-63930300D01*
X194894065Y-63930300D01*
X194912529Y-63932118D01*
X195100000Y-63950583D01*
X195305934Y-63930300D01*
X195503954Y-63870232D01*
X195686450Y-63772685D01*
X195846410Y-63641410D01*
X195977685Y-63481450D01*
X196075232Y-63298954D01*
X196135300Y-63100934D01*
X196155583Y-62895000D01*
X196135300Y-62689066D01*
X196075232Y-62491046D01*
X195977685Y-62308550D01*
X195925702Y-62245209D01*
X195846410Y-62148589D01*
X195686452Y-62017317D01*
X195686453Y-62017317D01*
X195686450Y-62017315D01*
X195503954Y-61919768D01*
X195305934Y-61859700D01*
X195305932Y-61859699D01*
X195305934Y-61859699D01*
X195100000Y-61839417D01*
X194894067Y-61859699D01*
X194696043Y-61919769D01*
X194585898Y-61978643D01*
X194513550Y-62017315D01*
X194513548Y-62017316D01*
X194513547Y-62017317D01*
X194353589Y-62148589D01*
X194222317Y-62308547D01*
X194124769Y-62491043D01*
X194064699Y-62689067D01*
X194044417Y-62895000D01*
X97500500Y-62895000D01*
X97500500Y-61550000D01*
X159144353Y-61550000D01*
X159164834Y-61692456D01*
X159224622Y-61823371D01*
X159224623Y-61823373D01*
X159318872Y-61932143D01*
X159439947Y-62009953D01*
X159439950Y-62009954D01*
X159439949Y-62009954D01*
X159578036Y-62050499D01*
X159578038Y-62050500D01*
X159578039Y-62050500D01*
X159721962Y-62050500D01*
X159721962Y-62050499D01*
X159860053Y-62009953D01*
X159981128Y-61932143D01*
X160075377Y-61823373D01*
X160135165Y-61692457D01*
X160155647Y-61550000D01*
X160135165Y-61407543D01*
X160075377Y-61276627D01*
X159981128Y-61167857D01*
X159860053Y-61090047D01*
X159860052Y-61090046D01*
X159860051Y-61090046D01*
X159854023Y-61087293D01*
X159801221Y-61041536D01*
X159789257Y-61000789D01*
X159745970Y-61038296D01*
X159694462Y-61049500D01*
X159578036Y-61049500D01*
X159439949Y-61090045D01*
X159318873Y-61167856D01*
X159224623Y-61276626D01*
X159224622Y-61276628D01*
X159164834Y-61407543D01*
X159144353Y-61550000D01*
X97500500Y-61550000D01*
X97500500Y-58750000D01*
X105819353Y-58750000D01*
X105839834Y-58892456D01*
X105870660Y-58959954D01*
X105899623Y-59023373D01*
X105993872Y-59132143D01*
X106114947Y-59209953D01*
X106114950Y-59209954D01*
X106114949Y-59209954D01*
X106253036Y-59250499D01*
X106253038Y-59250500D01*
X106253039Y-59250500D01*
X106396962Y-59250500D01*
X106396962Y-59250499D01*
X106535053Y-59209953D01*
X106656128Y-59132143D01*
X106750377Y-59023373D01*
X106810165Y-58892457D01*
X106830647Y-58750000D01*
X115469353Y-58750000D01*
X115489834Y-58892456D01*
X115520660Y-58959954D01*
X115549623Y-59023373D01*
X115643872Y-59132143D01*
X115764947Y-59209953D01*
X115764950Y-59209954D01*
X115764949Y-59209954D01*
X115903036Y-59250499D01*
X115903038Y-59250500D01*
X115903039Y-59250500D01*
X116046962Y-59250500D01*
X116046962Y-59250499D01*
X116185053Y-59209953D01*
X116306128Y-59132143D01*
X116400377Y-59023373D01*
X116460165Y-58892457D01*
X116480647Y-58750000D01*
X116460165Y-58607543D01*
X116411051Y-58500000D01*
X145844353Y-58500000D01*
X145864834Y-58642456D01*
X145890886Y-58699500D01*
X145924623Y-58773373D01*
X146018872Y-58882143D01*
X146139947Y-58959953D01*
X146139950Y-58959954D01*
X146139949Y-58959954D01*
X146278036Y-59000499D01*
X146278038Y-59000500D01*
X146429933Y-59000500D01*
X146496972Y-59020185D01*
X146542727Y-59072989D01*
X146552671Y-59142147D01*
X146544353Y-59200000D01*
X146552671Y-59257853D01*
X146542727Y-59327012D01*
X146496972Y-59379816D01*
X146429933Y-59399500D01*
X146278036Y-59399500D01*
X146139949Y-59440045D01*
X146018873Y-59517856D01*
X145924623Y-59626626D01*
X145924622Y-59626628D01*
X145864834Y-59757543D01*
X145844353Y-59900000D01*
X145864834Y-60042456D01*
X145890886Y-60099500D01*
X145924623Y-60173373D01*
X146018872Y-60282143D01*
X146139947Y-60359953D01*
X146139950Y-60359954D01*
X146139949Y-60359954D01*
X146278036Y-60400499D01*
X146278038Y-60400500D01*
X146429933Y-60400500D01*
X146496972Y-60420185D01*
X146542727Y-60472989D01*
X146552671Y-60542147D01*
X146544353Y-60600000D01*
X146564834Y-60742456D01*
X146595660Y-60809954D01*
X146624623Y-60873373D01*
X146718872Y-60982143D01*
X146839947Y-61059953D01*
X146839950Y-61059954D01*
X146839949Y-61059954D01*
X146978036Y-61100499D01*
X146978038Y-61100500D01*
X146978039Y-61100500D01*
X147121962Y-61100500D01*
X147121962Y-61100499D01*
X147260053Y-61059953D01*
X147381128Y-60982143D01*
X147475377Y-60873373D01*
X147535165Y-60742457D01*
X147555647Y-60600000D01*
X147547329Y-60542146D01*
X147557273Y-60472988D01*
X147603028Y-60420184D01*
X147670067Y-60400500D01*
X147829933Y-60400500D01*
X147896972Y-60420185D01*
X147942727Y-60472989D01*
X147952671Y-60542147D01*
X147944353Y-60600000D01*
X147964834Y-60742456D01*
X147995660Y-60809954D01*
X148024623Y-60873373D01*
X148118872Y-60982143D01*
X148239947Y-61059953D01*
X148239950Y-61059954D01*
X148239949Y-61059954D01*
X148378036Y-61100499D01*
X148378038Y-61100500D01*
X148378039Y-61100500D01*
X148521962Y-61100500D01*
X148521962Y-61100499D01*
X148660053Y-61059953D01*
X148781128Y-60982143D01*
X148875377Y-60873373D01*
X148935165Y-60742457D01*
X148955647Y-60600000D01*
X148947329Y-60542146D01*
X148957273Y-60472988D01*
X149003028Y-60420184D01*
X149070067Y-60400500D01*
X149221962Y-60400500D01*
X149221962Y-60400499D01*
X149360053Y-60359953D01*
X149375540Y-60350000D01*
X159444353Y-60350000D01*
X159464834Y-60492456D01*
X159482959Y-60532143D01*
X159524623Y-60623373D01*
X159618872Y-60732143D01*
X159739947Y-60809953D01*
X159739949Y-60809953D01*
X159745977Y-60812707D01*
X159798779Y-60858464D01*
X159810742Y-60899210D01*
X159854030Y-60861704D01*
X159905538Y-60850500D01*
X160021962Y-60850500D01*
X160021962Y-60850499D01*
X160160053Y-60809953D01*
X160281128Y-60732143D01*
X160375377Y-60623373D01*
X160435165Y-60492457D01*
X160455647Y-60350000D01*
X160435165Y-60207543D01*
X160408886Y-60150000D01*
X160944353Y-60150000D01*
X160964834Y-60292456D01*
X160995660Y-60359954D01*
X161024623Y-60423373D01*
X161118872Y-60532143D01*
X161239947Y-60609953D01*
X161239950Y-60609954D01*
X161239949Y-60609954D01*
X161378036Y-60650499D01*
X161378038Y-60650500D01*
X161378039Y-60650500D01*
X161521962Y-60650500D01*
X161521962Y-60650499D01*
X161660053Y-60609953D01*
X161675540Y-60600000D01*
X166544353Y-60600000D01*
X166564834Y-60742456D01*
X166595660Y-60809954D01*
X166624623Y-60873373D01*
X166718872Y-60982143D01*
X166839947Y-61059953D01*
X166839950Y-61059954D01*
X166839949Y-61059954D01*
X166978036Y-61100499D01*
X166978038Y-61100500D01*
X166978039Y-61100500D01*
X167121962Y-61100500D01*
X167121962Y-61100499D01*
X167260053Y-61059953D01*
X167381128Y-60982143D01*
X167475377Y-60873373D01*
X167535165Y-60742457D01*
X167555647Y-60600000D01*
X167535165Y-60457543D01*
X167475377Y-60326627D01*
X167381128Y-60217857D01*
X167260053Y-60140047D01*
X167260051Y-60140046D01*
X167260049Y-60140045D01*
X167260050Y-60140045D01*
X167121963Y-60099500D01*
X167121961Y-60099500D01*
X166978039Y-60099500D01*
X166978036Y-60099500D01*
X166839949Y-60140045D01*
X166718873Y-60217856D01*
X166624623Y-60326626D01*
X166624622Y-60326628D01*
X166564834Y-60457543D01*
X166544353Y-60600000D01*
X161675540Y-60600000D01*
X161781128Y-60532143D01*
X161875377Y-60423373D01*
X161935165Y-60292457D01*
X161955647Y-60150000D01*
X161935165Y-60007543D01*
X161875377Y-59876627D01*
X161781128Y-59767857D01*
X161660053Y-59690047D01*
X161660051Y-59690046D01*
X161660049Y-59690045D01*
X161660050Y-59690045D01*
X161521963Y-59649500D01*
X161521961Y-59649500D01*
X161378039Y-59649500D01*
X161378036Y-59649500D01*
X161239949Y-59690045D01*
X161118873Y-59767856D01*
X161024623Y-59876626D01*
X161024622Y-59876628D01*
X160964834Y-60007543D01*
X160944353Y-60150000D01*
X160408886Y-60150000D01*
X160375377Y-60076627D01*
X160281128Y-59967857D01*
X160160053Y-59890047D01*
X160160051Y-59890046D01*
X160160049Y-59890045D01*
X160160050Y-59890045D01*
X160021963Y-59849500D01*
X160021961Y-59849500D01*
X159878039Y-59849500D01*
X159878036Y-59849500D01*
X159739949Y-59890045D01*
X159618873Y-59967856D01*
X159524623Y-60076626D01*
X159524622Y-60076628D01*
X159464834Y-60207543D01*
X159444353Y-60350000D01*
X149375540Y-60350000D01*
X149481128Y-60282143D01*
X149575377Y-60173373D01*
X149635165Y-60042457D01*
X149655647Y-59900000D01*
X149635165Y-59757543D01*
X149575377Y-59626627D01*
X149481128Y-59517857D01*
X149360053Y-59440047D01*
X149360051Y-59440046D01*
X149360049Y-59440045D01*
X149360050Y-59440045D01*
X149221963Y-59399500D01*
X149221961Y-59399500D01*
X149078039Y-59399500D01*
X149070067Y-59399500D01*
X149003028Y-59379815D01*
X148957273Y-59327011D01*
X148947329Y-59257853D01*
X148948386Y-59250499D01*
X148955647Y-59200000D01*
X148947329Y-59142146D01*
X148953389Y-59100000D01*
X157494353Y-59100000D01*
X157514834Y-59242456D01*
X157548482Y-59316133D01*
X157574623Y-59373373D01*
X157668872Y-59482143D01*
X157789947Y-59559953D01*
X157789950Y-59559954D01*
X157789949Y-59559954D01*
X157928036Y-59600499D01*
X157928038Y-59600500D01*
X157928039Y-59600500D01*
X158071962Y-59600500D01*
X158071962Y-59600499D01*
X158210053Y-59559953D01*
X158326298Y-59485247D01*
X194049500Y-59485247D01*
X194049500Y-61224752D01*
X194061131Y-61283229D01*
X194061132Y-61283230D01*
X194105447Y-61349552D01*
X194171769Y-61393867D01*
X194171770Y-61393868D01*
X194230247Y-61405499D01*
X194230250Y-61405500D01*
X194230252Y-61405500D01*
X195969750Y-61405500D01*
X195969751Y-61405499D01*
X195984568Y-61402552D01*
X196028229Y-61393868D01*
X196028229Y-61393867D01*
X196028231Y-61393867D01*
X196094552Y-61349552D01*
X196138867Y-61283231D01*
X196138867Y-61283229D01*
X196138868Y-61283229D01*
X196150499Y-61224752D01*
X196150500Y-61224750D01*
X196150500Y-59485249D01*
X196150499Y-59485247D01*
X196138868Y-59426770D01*
X196138867Y-59426769D01*
X196094552Y-59360447D01*
X196028230Y-59316132D01*
X196028229Y-59316131D01*
X195969752Y-59304500D01*
X195969748Y-59304500D01*
X194230252Y-59304500D01*
X194230247Y-59304500D01*
X194171770Y-59316131D01*
X194171769Y-59316132D01*
X194105447Y-59360447D01*
X194061132Y-59426769D01*
X194061131Y-59426770D01*
X194049500Y-59485247D01*
X158326298Y-59485247D01*
X158331128Y-59482143D01*
X158425377Y-59373373D01*
X158485165Y-59242457D01*
X158505647Y-59100000D01*
X158485165Y-58957543D01*
X158425377Y-58826627D01*
X158331128Y-58717857D01*
X158210053Y-58640047D01*
X158210051Y-58640046D01*
X158210049Y-58640045D01*
X158210050Y-58640045D01*
X158071963Y-58599500D01*
X158071961Y-58599500D01*
X157928039Y-58599500D01*
X157928036Y-58599500D01*
X157789949Y-58640045D01*
X157668873Y-58717856D01*
X157574623Y-58826626D01*
X157574622Y-58826628D01*
X157514834Y-58957543D01*
X157494353Y-59100000D01*
X148953389Y-59100000D01*
X148957273Y-59072988D01*
X149003028Y-59020184D01*
X149070067Y-59000500D01*
X149221962Y-59000500D01*
X149221962Y-59000499D01*
X149360053Y-58959953D01*
X149481128Y-58882143D01*
X149575377Y-58773373D01*
X149635165Y-58642457D01*
X149655647Y-58500000D01*
X149635165Y-58357543D01*
X149575377Y-58226627D01*
X149481128Y-58117857D01*
X149360053Y-58040047D01*
X149360051Y-58040046D01*
X149360049Y-58040045D01*
X149360050Y-58040045D01*
X149221963Y-57999500D01*
X149221961Y-57999500D01*
X149078039Y-57999500D01*
X149070067Y-57999500D01*
X149003028Y-57979815D01*
X148957273Y-57927011D01*
X148947329Y-57857853D01*
X148951334Y-57830000D01*
X157494353Y-57830000D01*
X157514834Y-57972456D01*
X157560922Y-58073373D01*
X157574623Y-58103373D01*
X157668872Y-58212143D01*
X157789947Y-58289953D01*
X157789950Y-58289954D01*
X157789949Y-58289954D01*
X157928036Y-58330499D01*
X157928038Y-58330500D01*
X157928039Y-58330500D01*
X158071962Y-58330500D01*
X158071962Y-58330499D01*
X158210053Y-58289953D01*
X158331128Y-58212143D01*
X158425377Y-58103373D01*
X158485165Y-57972457D01*
X158505647Y-57830000D01*
X158485165Y-57687543D01*
X158425377Y-57556627D01*
X158331128Y-57447857D01*
X158210053Y-57370047D01*
X158210051Y-57370046D01*
X158210049Y-57370045D01*
X158210050Y-57370045D01*
X158071963Y-57329500D01*
X158071961Y-57329500D01*
X157928039Y-57329500D01*
X157928036Y-57329500D01*
X157789949Y-57370045D01*
X157668873Y-57447856D01*
X157574623Y-57556626D01*
X157574622Y-57556628D01*
X157514834Y-57687543D01*
X157494353Y-57830000D01*
X148951334Y-57830000D01*
X148955647Y-57800000D01*
X148935165Y-57657543D01*
X148875377Y-57526627D01*
X148781128Y-57417857D01*
X148660053Y-57340047D01*
X148660051Y-57340046D01*
X148660049Y-57340045D01*
X148660050Y-57340045D01*
X148521963Y-57299500D01*
X148521961Y-57299500D01*
X148378039Y-57299500D01*
X148378036Y-57299500D01*
X148239949Y-57340045D01*
X148118873Y-57417856D01*
X148024623Y-57526626D01*
X148024622Y-57526628D01*
X147964834Y-57657543D01*
X147944353Y-57799999D01*
X147952671Y-57857853D01*
X147942727Y-57927012D01*
X147896972Y-57979816D01*
X147829933Y-57999500D01*
X147670067Y-57999500D01*
X147603028Y-57979815D01*
X147557273Y-57927011D01*
X147547329Y-57857853D01*
X147555647Y-57800000D01*
X147535165Y-57657543D01*
X147475377Y-57526627D01*
X147381128Y-57417857D01*
X147260053Y-57340047D01*
X147260051Y-57340046D01*
X147260049Y-57340045D01*
X147260050Y-57340045D01*
X147121963Y-57299500D01*
X147121961Y-57299500D01*
X146978039Y-57299500D01*
X146978036Y-57299500D01*
X146839949Y-57340045D01*
X146718873Y-57417856D01*
X146624623Y-57526626D01*
X146624622Y-57526628D01*
X146564834Y-57657543D01*
X146544353Y-57799999D01*
X146552671Y-57857853D01*
X146542727Y-57927012D01*
X146496972Y-57979816D01*
X146429933Y-57999500D01*
X146278036Y-57999500D01*
X146139949Y-58040045D01*
X146018873Y-58117856D01*
X145924623Y-58226626D01*
X145924622Y-58226628D01*
X145864834Y-58357543D01*
X145844353Y-58500000D01*
X116411051Y-58500000D01*
X116400377Y-58476627D01*
X116306128Y-58367857D01*
X116185053Y-58290047D01*
X116185051Y-58290046D01*
X116185049Y-58290045D01*
X116185050Y-58290045D01*
X116046963Y-58249500D01*
X116046961Y-58249500D01*
X115903039Y-58249500D01*
X115903036Y-58249500D01*
X115764949Y-58290045D01*
X115643873Y-58367856D01*
X115549623Y-58476626D01*
X115549622Y-58476628D01*
X115489834Y-58607543D01*
X115469353Y-58750000D01*
X106830647Y-58750000D01*
X106810165Y-58607543D01*
X106750377Y-58476627D01*
X106656128Y-58367857D01*
X106535053Y-58290047D01*
X106535051Y-58290046D01*
X106535049Y-58290045D01*
X106535050Y-58290045D01*
X106396963Y-58249500D01*
X106396961Y-58249500D01*
X106253039Y-58249500D01*
X106253036Y-58249500D01*
X106114949Y-58290045D01*
X105993873Y-58367856D01*
X105899623Y-58476626D01*
X105899622Y-58476628D01*
X105839834Y-58607543D01*
X105819353Y-58750000D01*
X97500500Y-58750000D01*
X97500500Y-56049999D01*
X104944357Y-56049999D01*
X104944357Y-56050000D01*
X104964884Y-56271535D01*
X104964885Y-56271537D01*
X105025769Y-56485523D01*
X105025775Y-56485538D01*
X105124938Y-56684683D01*
X105124943Y-56684691D01*
X105259020Y-56862238D01*
X105423437Y-57012123D01*
X105423439Y-57012125D01*
X105612595Y-57129245D01*
X105612596Y-57129245D01*
X105612599Y-57129247D01*
X105820060Y-57209618D01*
X106038757Y-57250500D01*
X106038759Y-57250500D01*
X106261241Y-57250500D01*
X106261243Y-57250500D01*
X106479940Y-57209618D01*
X106687401Y-57129247D01*
X106876562Y-57012124D01*
X107040981Y-56862236D01*
X107175058Y-56684689D01*
X107274229Y-56485528D01*
X107335115Y-56271536D01*
X107355643Y-56050000D01*
X107355643Y-56049999D01*
X111444357Y-56049999D01*
X111444357Y-56050000D01*
X111464884Y-56271535D01*
X111464885Y-56271537D01*
X111525769Y-56485523D01*
X111525775Y-56485538D01*
X111624938Y-56684683D01*
X111624943Y-56684691D01*
X111759020Y-56862238D01*
X111923437Y-57012123D01*
X111923439Y-57012125D01*
X112112595Y-57129245D01*
X112112596Y-57129245D01*
X112112599Y-57129247D01*
X112320060Y-57209618D01*
X112538757Y-57250500D01*
X112538759Y-57250500D01*
X112761241Y-57250500D01*
X112761243Y-57250500D01*
X112979940Y-57209618D01*
X113187401Y-57129247D01*
X113376562Y-57012124D01*
X113540981Y-56862236D01*
X113675058Y-56684689D01*
X113774229Y-56485528D01*
X113835115Y-56271536D01*
X113855643Y-56050000D01*
X113855643Y-56049999D01*
X114594357Y-56049999D01*
X114594357Y-56050000D01*
X114614884Y-56271535D01*
X114614885Y-56271537D01*
X114675769Y-56485523D01*
X114675775Y-56485538D01*
X114774938Y-56684683D01*
X114774943Y-56684691D01*
X114909020Y-56862238D01*
X115073437Y-57012123D01*
X115073439Y-57012125D01*
X115262595Y-57129245D01*
X115262596Y-57129245D01*
X115262599Y-57129247D01*
X115470060Y-57209618D01*
X115688757Y-57250500D01*
X115688759Y-57250500D01*
X115911241Y-57250500D01*
X115911243Y-57250500D01*
X116129940Y-57209618D01*
X116337401Y-57129247D01*
X116526562Y-57012124D01*
X116690981Y-56862236D01*
X116825058Y-56684689D01*
X116924229Y-56485528D01*
X116985115Y-56271536D01*
X117005643Y-56050000D01*
X117005643Y-56049999D01*
X121094357Y-56049999D01*
X121094357Y-56050000D01*
X121114884Y-56271535D01*
X121114885Y-56271537D01*
X121175769Y-56485523D01*
X121175775Y-56485538D01*
X121274938Y-56684683D01*
X121274943Y-56684691D01*
X121409020Y-56862238D01*
X121573437Y-57012123D01*
X121573439Y-57012125D01*
X121762595Y-57129245D01*
X121762596Y-57129245D01*
X121762599Y-57129247D01*
X121970060Y-57209618D01*
X122188757Y-57250500D01*
X122188759Y-57250500D01*
X122411241Y-57250500D01*
X122411243Y-57250500D01*
X122629940Y-57209618D01*
X122837401Y-57129247D01*
X123026562Y-57012124D01*
X123190981Y-56862236D01*
X123325058Y-56684689D01*
X123387146Y-56560000D01*
X157494353Y-56560000D01*
X157514834Y-56702456D01*
X157574622Y-56833371D01*
X157574623Y-56833373D01*
X157668872Y-56942143D01*
X157789947Y-57019953D01*
X157789950Y-57019954D01*
X157789949Y-57019954D01*
X157928036Y-57060499D01*
X157928038Y-57060500D01*
X157928039Y-57060500D01*
X158071962Y-57060500D01*
X158071962Y-57060499D01*
X158210053Y-57019953D01*
X158331128Y-56942143D01*
X158425377Y-56833373D01*
X158485165Y-56702457D01*
X158505647Y-56560000D01*
X158485165Y-56417543D01*
X158425377Y-56286627D01*
X158331128Y-56177857D01*
X158210053Y-56100047D01*
X158210051Y-56100046D01*
X158210049Y-56100045D01*
X158210050Y-56100045D01*
X158209897Y-56100000D01*
X159744353Y-56100000D01*
X159764834Y-56242456D01*
X159785007Y-56286627D01*
X159824623Y-56373373D01*
X159918872Y-56482143D01*
X160039947Y-56559953D01*
X160039950Y-56559954D01*
X160039949Y-56559954D01*
X160178036Y-56600499D01*
X160178038Y-56600500D01*
X160178039Y-56600500D01*
X160321962Y-56600500D01*
X160321962Y-56600499D01*
X160460053Y-56559953D01*
X160581128Y-56482143D01*
X160675377Y-56373373D01*
X160735165Y-56242457D01*
X160755647Y-56100000D01*
X160748458Y-56049999D01*
X169794357Y-56049999D01*
X169794357Y-56050000D01*
X169814884Y-56271535D01*
X169814885Y-56271537D01*
X169875769Y-56485523D01*
X169875775Y-56485538D01*
X169974938Y-56684683D01*
X169974943Y-56684691D01*
X170109020Y-56862238D01*
X170273437Y-57012123D01*
X170273439Y-57012125D01*
X170462595Y-57129245D01*
X170462596Y-57129245D01*
X170462599Y-57129247D01*
X170670060Y-57209618D01*
X170888757Y-57250500D01*
X170888759Y-57250500D01*
X171111241Y-57250500D01*
X171111243Y-57250500D01*
X171329940Y-57209618D01*
X171537401Y-57129247D01*
X171726562Y-57012124D01*
X171890981Y-56862236D01*
X172025058Y-56684689D01*
X172124229Y-56485528D01*
X172185115Y-56271536D01*
X172205643Y-56050000D01*
X172205643Y-56049999D01*
X176294357Y-56049999D01*
X176294357Y-56050000D01*
X176314884Y-56271535D01*
X176314885Y-56271537D01*
X176375769Y-56485523D01*
X176375775Y-56485538D01*
X176474938Y-56684683D01*
X176474943Y-56684691D01*
X176609020Y-56862238D01*
X176773437Y-57012123D01*
X176773439Y-57012125D01*
X176962595Y-57129245D01*
X176962596Y-57129245D01*
X176962599Y-57129247D01*
X177170060Y-57209618D01*
X177388757Y-57250500D01*
X177388759Y-57250500D01*
X177611241Y-57250500D01*
X177611243Y-57250500D01*
X177829940Y-57209618D01*
X178037401Y-57129247D01*
X178226562Y-57012124D01*
X178390981Y-56862236D01*
X178525058Y-56684689D01*
X178624229Y-56485528D01*
X178685115Y-56271536D01*
X178705643Y-56050000D01*
X178705643Y-56049999D01*
X179494357Y-56049999D01*
X179494357Y-56050000D01*
X179514884Y-56271535D01*
X179514885Y-56271537D01*
X179575769Y-56485523D01*
X179575775Y-56485538D01*
X179674938Y-56684683D01*
X179674943Y-56684691D01*
X179809020Y-56862238D01*
X179973437Y-57012123D01*
X179973439Y-57012125D01*
X180162595Y-57129245D01*
X180162596Y-57129245D01*
X180162599Y-57129247D01*
X180370060Y-57209618D01*
X180588757Y-57250500D01*
X180588759Y-57250500D01*
X180811241Y-57250500D01*
X180811243Y-57250500D01*
X181029940Y-57209618D01*
X181237401Y-57129247D01*
X181426562Y-57012124D01*
X181590981Y-56862236D01*
X181725058Y-56684689D01*
X181824229Y-56485528D01*
X181885115Y-56271536D01*
X181905643Y-56050000D01*
X181905643Y-56049999D01*
X185994357Y-56049999D01*
X185994357Y-56050000D01*
X186014884Y-56271535D01*
X186014885Y-56271537D01*
X186075769Y-56485523D01*
X186075775Y-56485538D01*
X186174938Y-56684683D01*
X186174943Y-56684691D01*
X186309020Y-56862238D01*
X186473437Y-57012123D01*
X186473439Y-57012125D01*
X186662595Y-57129245D01*
X186662596Y-57129245D01*
X186662599Y-57129247D01*
X186870060Y-57209618D01*
X187088757Y-57250500D01*
X187088759Y-57250500D01*
X187311241Y-57250500D01*
X187311243Y-57250500D01*
X187529940Y-57209618D01*
X187737401Y-57129247D01*
X187926562Y-57012124D01*
X188090981Y-56862236D01*
X188225058Y-56684689D01*
X188324229Y-56485528D01*
X188385115Y-56271536D01*
X188405643Y-56050000D01*
X188385115Y-55828464D01*
X188324229Y-55614472D01*
X188316774Y-55599500D01*
X188225061Y-55415316D01*
X188225056Y-55415308D01*
X188090979Y-55237761D01*
X187926562Y-55087876D01*
X187926560Y-55087874D01*
X187737404Y-54970754D01*
X187737398Y-54970752D01*
X187529940Y-54890382D01*
X187311243Y-54849500D01*
X187088757Y-54849500D01*
X186870060Y-54890382D01*
X186738864Y-54941207D01*
X186662601Y-54970752D01*
X186662595Y-54970754D01*
X186473439Y-55087874D01*
X186473437Y-55087876D01*
X186309020Y-55237761D01*
X186174943Y-55415308D01*
X186174938Y-55415316D01*
X186075775Y-55614461D01*
X186075769Y-55614476D01*
X186014885Y-55828462D01*
X186014884Y-55828464D01*
X185994357Y-56049999D01*
X181905643Y-56049999D01*
X181885115Y-55828464D01*
X181824229Y-55614472D01*
X181816774Y-55599500D01*
X181725061Y-55415316D01*
X181725056Y-55415308D01*
X181590979Y-55237761D01*
X181426562Y-55087876D01*
X181426560Y-55087874D01*
X181237404Y-54970754D01*
X181237398Y-54970752D01*
X181029940Y-54890382D01*
X180811243Y-54849500D01*
X180588757Y-54849500D01*
X180370060Y-54890382D01*
X180238864Y-54941207D01*
X180162601Y-54970752D01*
X180162595Y-54970754D01*
X179973439Y-55087874D01*
X179973437Y-55087876D01*
X179809020Y-55237761D01*
X179674943Y-55415308D01*
X179674938Y-55415316D01*
X179575775Y-55614461D01*
X179575769Y-55614476D01*
X179514885Y-55828462D01*
X179514884Y-55828464D01*
X179494357Y-56049999D01*
X178705643Y-56049999D01*
X178685115Y-55828464D01*
X178624229Y-55614472D01*
X178616774Y-55599500D01*
X178525061Y-55415316D01*
X178525056Y-55415308D01*
X178390979Y-55237761D01*
X178226562Y-55087876D01*
X178226560Y-55087874D01*
X178037404Y-54970754D01*
X178037398Y-54970752D01*
X177829940Y-54890382D01*
X177611243Y-54849500D01*
X177388757Y-54849500D01*
X177170060Y-54890382D01*
X177038864Y-54941207D01*
X176962601Y-54970752D01*
X176962595Y-54970754D01*
X176773439Y-55087874D01*
X176773437Y-55087876D01*
X176609020Y-55237761D01*
X176474943Y-55415308D01*
X176474938Y-55415316D01*
X176375775Y-55614461D01*
X176375769Y-55614476D01*
X176314885Y-55828462D01*
X176314884Y-55828464D01*
X176294357Y-56049999D01*
X172205643Y-56049999D01*
X172185115Y-55828464D01*
X172124229Y-55614472D01*
X172116774Y-55599500D01*
X172025061Y-55415316D01*
X172025056Y-55415308D01*
X171890979Y-55237761D01*
X171726562Y-55087876D01*
X171726560Y-55087874D01*
X171537404Y-54970754D01*
X171537398Y-54970752D01*
X171329940Y-54890382D01*
X171111243Y-54849500D01*
X170888757Y-54849500D01*
X170670060Y-54890382D01*
X170538864Y-54941207D01*
X170462601Y-54970752D01*
X170462595Y-54970754D01*
X170273439Y-55087874D01*
X170273437Y-55087876D01*
X170109020Y-55237761D01*
X169974943Y-55415308D01*
X169974938Y-55415316D01*
X169875775Y-55614461D01*
X169875769Y-55614476D01*
X169814885Y-55828462D01*
X169814884Y-55828464D01*
X169794357Y-56049999D01*
X160748458Y-56049999D01*
X160735165Y-55957543D01*
X160675377Y-55826627D01*
X160581128Y-55717857D01*
X160460053Y-55640047D01*
X160460051Y-55640046D01*
X160460049Y-55640045D01*
X160460050Y-55640045D01*
X160321963Y-55599500D01*
X160321961Y-55599500D01*
X160178039Y-55599500D01*
X160178036Y-55599500D01*
X160039949Y-55640045D01*
X159918873Y-55717856D01*
X159824623Y-55826626D01*
X159824622Y-55826628D01*
X159764834Y-55957543D01*
X159744353Y-56100000D01*
X158209897Y-56100000D01*
X158071963Y-56059500D01*
X158071961Y-56059500D01*
X157928039Y-56059500D01*
X157928036Y-56059500D01*
X157789949Y-56100045D01*
X157668873Y-56177856D01*
X157574623Y-56286626D01*
X157574622Y-56286628D01*
X157514834Y-56417543D01*
X157494353Y-56560000D01*
X123387146Y-56560000D01*
X123424229Y-56485528D01*
X123485115Y-56271536D01*
X123505643Y-56050000D01*
X123485115Y-55828464D01*
X123424229Y-55614472D01*
X123416774Y-55599500D01*
X123325061Y-55415316D01*
X123325056Y-55415308D01*
X123190979Y-55237761D01*
X123026562Y-55087876D01*
X123026560Y-55087874D01*
X122837404Y-54970754D01*
X122837398Y-54970752D01*
X122654767Y-54900000D01*
X159244353Y-54900000D01*
X159264834Y-55042456D01*
X159300093Y-55119661D01*
X159324623Y-55173373D01*
X159418872Y-55282143D01*
X159539947Y-55359953D01*
X159539950Y-55359954D01*
X159539949Y-55359954D01*
X159678036Y-55400499D01*
X159678038Y-55400500D01*
X159678039Y-55400500D01*
X159821962Y-55400500D01*
X159821962Y-55400499D01*
X159960053Y-55359953D01*
X160081128Y-55282143D01*
X160175377Y-55173373D01*
X160175784Y-55172479D01*
X160176427Y-55171738D01*
X160180171Y-55165913D01*
X160181008Y-55166450D01*
X160221533Y-55119674D01*
X160288571Y-55099983D01*
X160355612Y-55119661D01*
X160401372Y-55172461D01*
X160401376Y-55172470D01*
X160401789Y-55173374D01*
X160424623Y-55223373D01*
X160518872Y-55332143D01*
X160639947Y-55409953D01*
X160639950Y-55409954D01*
X160639949Y-55409954D01*
X160778036Y-55450499D01*
X160778038Y-55450500D01*
X160778039Y-55450500D01*
X160921962Y-55450500D01*
X160921962Y-55450499D01*
X161041805Y-55415311D01*
X161060050Y-55409954D01*
X161060050Y-55409953D01*
X161060053Y-55409953D01*
X161181128Y-55332143D01*
X161275377Y-55223373D01*
X161335165Y-55092457D01*
X161355647Y-54950000D01*
X161335165Y-54807543D01*
X161275377Y-54676627D01*
X161181128Y-54567857D01*
X161060053Y-54490047D01*
X161060051Y-54490046D01*
X161060049Y-54490045D01*
X161060050Y-54490045D01*
X160921963Y-54449500D01*
X160921961Y-54449500D01*
X160778039Y-54449500D01*
X160778036Y-54449500D01*
X160639949Y-54490045D01*
X160518873Y-54567856D01*
X160424623Y-54676626D01*
X160424620Y-54676631D01*
X160424209Y-54677532D01*
X160423561Y-54678279D01*
X160419829Y-54684087D01*
X160418993Y-54683550D01*
X160378452Y-54730334D01*
X160311412Y-54750016D01*
X160244373Y-54730329D01*
X160198623Y-54677528D01*
X160175377Y-54626628D01*
X160175376Y-54626626D01*
X160081128Y-54517857D01*
X159960053Y-54440047D01*
X159960051Y-54440046D01*
X159960049Y-54440045D01*
X159960050Y-54440045D01*
X159821963Y-54399500D01*
X159821961Y-54399500D01*
X159678039Y-54399500D01*
X159678036Y-54399500D01*
X159539949Y-54440045D01*
X159418873Y-54517856D01*
X159324623Y-54626626D01*
X159324622Y-54626628D01*
X159264834Y-54757543D01*
X159244353Y-54900000D01*
X122654767Y-54900000D01*
X122629940Y-54890382D01*
X122411243Y-54849500D01*
X122188757Y-54849500D01*
X121970060Y-54890382D01*
X121838864Y-54941207D01*
X121762601Y-54970752D01*
X121762595Y-54970754D01*
X121573439Y-55087874D01*
X121573437Y-55087876D01*
X121409020Y-55237761D01*
X121274943Y-55415308D01*
X121274938Y-55415316D01*
X121175775Y-55614461D01*
X121175769Y-55614476D01*
X121114885Y-55828462D01*
X121114884Y-55828464D01*
X121094357Y-56049999D01*
X117005643Y-56049999D01*
X116985115Y-55828464D01*
X116924229Y-55614472D01*
X116916774Y-55599500D01*
X116825061Y-55415316D01*
X116825056Y-55415308D01*
X116690979Y-55237761D01*
X116526562Y-55087876D01*
X116526560Y-55087874D01*
X116337404Y-54970754D01*
X116337398Y-54970752D01*
X116129940Y-54890382D01*
X115911243Y-54849500D01*
X115688757Y-54849500D01*
X115470060Y-54890382D01*
X115338864Y-54941207D01*
X115262601Y-54970752D01*
X115262595Y-54970754D01*
X115073439Y-55087874D01*
X115073437Y-55087876D01*
X114909020Y-55237761D01*
X114774943Y-55415308D01*
X114774938Y-55415316D01*
X114675775Y-55614461D01*
X114675769Y-55614476D01*
X114614885Y-55828462D01*
X114614884Y-55828464D01*
X114594357Y-56049999D01*
X113855643Y-56049999D01*
X113835115Y-55828464D01*
X113774229Y-55614472D01*
X113766774Y-55599500D01*
X113675061Y-55415316D01*
X113675056Y-55415308D01*
X113540979Y-55237761D01*
X113376562Y-55087876D01*
X113376560Y-55087874D01*
X113187404Y-54970754D01*
X113187398Y-54970752D01*
X112979940Y-54890382D01*
X112761243Y-54849500D01*
X112538757Y-54849500D01*
X112320060Y-54890382D01*
X112188864Y-54941207D01*
X112112601Y-54970752D01*
X112112595Y-54970754D01*
X111923439Y-55087874D01*
X111923437Y-55087876D01*
X111759020Y-55237761D01*
X111624943Y-55415308D01*
X111624938Y-55415316D01*
X111525775Y-55614461D01*
X111525769Y-55614476D01*
X111464885Y-55828462D01*
X111464884Y-55828464D01*
X111444357Y-56049999D01*
X107355643Y-56049999D01*
X107335115Y-55828464D01*
X107274229Y-55614472D01*
X107266774Y-55599500D01*
X107175061Y-55415316D01*
X107175056Y-55415308D01*
X107040979Y-55237761D01*
X106876562Y-55087876D01*
X106876560Y-55087874D01*
X106687404Y-54970754D01*
X106687398Y-54970752D01*
X106479940Y-54890382D01*
X106261243Y-54849500D01*
X106038757Y-54849500D01*
X105820060Y-54890382D01*
X105688864Y-54941207D01*
X105612601Y-54970752D01*
X105612595Y-54970754D01*
X105423439Y-55087874D01*
X105423437Y-55087876D01*
X105259020Y-55237761D01*
X105124943Y-55415308D01*
X105124938Y-55415316D01*
X105025775Y-55614461D01*
X105025769Y-55614476D01*
X104964885Y-55828462D01*
X104964884Y-55828464D01*
X104944357Y-56049999D01*
X97500500Y-56049999D01*
X97500500Y-53878711D01*
X98949500Y-53878711D01*
X98949500Y-54121288D01*
X98981161Y-54361785D01*
X99043947Y-54596104D01*
X99131528Y-54807543D01*
X99136776Y-54820212D01*
X99258064Y-55030289D01*
X99258066Y-55030292D01*
X99258067Y-55030293D01*
X99405733Y-55222736D01*
X99405739Y-55222743D01*
X99577256Y-55394260D01*
X99577263Y-55394266D01*
X99597707Y-55409953D01*
X99769711Y-55541936D01*
X99979788Y-55663224D01*
X100203900Y-55756054D01*
X100438211Y-55818838D01*
X100618586Y-55842584D01*
X100678711Y-55850500D01*
X100678712Y-55850500D01*
X100921289Y-55850500D01*
X100969388Y-55844167D01*
X101161789Y-55818838D01*
X101396100Y-55756054D01*
X101620212Y-55663224D01*
X101830289Y-55541936D01*
X102022738Y-55394265D01*
X102194265Y-55222738D01*
X102341936Y-55030289D01*
X102463224Y-54820212D01*
X102556054Y-54596100D01*
X102618838Y-54361789D01*
X102650500Y-54121288D01*
X102650500Y-54020000D01*
X139994353Y-54020000D01*
X140014834Y-54162456D01*
X140023825Y-54182143D01*
X140074623Y-54293373D01*
X140168872Y-54402143D01*
X140289947Y-54479953D01*
X140289950Y-54479954D01*
X140289949Y-54479954D01*
X140397107Y-54511417D01*
X140419034Y-54517856D01*
X140428036Y-54520499D01*
X140428038Y-54520500D01*
X140428039Y-54520500D01*
X140571962Y-54520500D01*
X140571962Y-54520499D01*
X140710053Y-54479953D01*
X140831128Y-54402143D01*
X140925377Y-54293373D01*
X140985165Y-54162457D01*
X141005647Y-54020000D01*
X140985165Y-53877543D01*
X140949752Y-53800000D01*
X155444353Y-53800000D01*
X155464834Y-53942456D01*
X155500248Y-54020000D01*
X155524623Y-54073373D01*
X155618872Y-54182143D01*
X155739947Y-54259953D01*
X155739950Y-54259954D01*
X155739949Y-54259954D01*
X155878036Y-54300499D01*
X155878038Y-54300500D01*
X155878039Y-54300500D01*
X156021962Y-54300500D01*
X156021962Y-54300499D01*
X156160053Y-54259953D01*
X156281128Y-54182143D01*
X156375377Y-54073373D01*
X156435165Y-53942457D01*
X156444330Y-53878711D01*
X191099500Y-53878711D01*
X191099500Y-54121288D01*
X191131161Y-54361785D01*
X191193947Y-54596104D01*
X191281528Y-54807543D01*
X191286776Y-54820212D01*
X191408064Y-55030289D01*
X191408066Y-55030292D01*
X191408067Y-55030293D01*
X191555733Y-55222736D01*
X191555739Y-55222743D01*
X191727256Y-55394260D01*
X191727263Y-55394266D01*
X191747707Y-55409953D01*
X191919711Y-55541936D01*
X192129788Y-55663224D01*
X192353900Y-55756054D01*
X192588211Y-55818838D01*
X192768586Y-55842584D01*
X192828711Y-55850500D01*
X192828712Y-55850500D01*
X193071289Y-55850500D01*
X193119388Y-55844167D01*
X193311789Y-55818838D01*
X193546100Y-55756054D01*
X193770212Y-55663224D01*
X193980289Y-55541936D01*
X194172738Y-55394265D01*
X194344265Y-55222738D01*
X194491936Y-55030289D01*
X194613224Y-54820212D01*
X194706054Y-54596100D01*
X194768838Y-54361789D01*
X194800500Y-54121288D01*
X194800500Y-53878712D01*
X194768838Y-53638211D01*
X194706054Y-53403900D01*
X194613224Y-53179788D01*
X194491936Y-52969711D01*
X194344265Y-52777262D01*
X194344260Y-52777256D01*
X194172743Y-52605739D01*
X194172736Y-52605733D01*
X193980293Y-52458067D01*
X193980292Y-52458066D01*
X193980289Y-52458064D01*
X193770212Y-52336776D01*
X193770205Y-52336773D01*
X193546104Y-52243947D01*
X193311785Y-52181161D01*
X193071289Y-52149500D01*
X193071288Y-52149500D01*
X192828712Y-52149500D01*
X192828711Y-52149500D01*
X192588214Y-52181161D01*
X192353895Y-52243947D01*
X192129794Y-52336773D01*
X192129785Y-52336777D01*
X191919706Y-52458067D01*
X191727263Y-52605733D01*
X191727256Y-52605739D01*
X191555739Y-52777256D01*
X191555733Y-52777263D01*
X191408067Y-52969706D01*
X191286777Y-53179785D01*
X191286773Y-53179794D01*
X191193947Y-53403895D01*
X191131161Y-53638214D01*
X191099500Y-53878711D01*
X156444330Y-53878711D01*
X156455647Y-53800000D01*
X156435165Y-53657543D01*
X156375377Y-53526627D01*
X156281128Y-53417857D01*
X156160053Y-53340047D01*
X156160051Y-53340046D01*
X156160049Y-53340045D01*
X156160050Y-53340045D01*
X156021963Y-53299500D01*
X156021961Y-53299500D01*
X155878039Y-53299500D01*
X155878036Y-53299500D01*
X155739949Y-53340045D01*
X155618873Y-53417856D01*
X155524623Y-53526626D01*
X155524622Y-53526628D01*
X155464834Y-53657543D01*
X155444353Y-53800000D01*
X140949752Y-53800000D01*
X140925377Y-53746627D01*
X140831128Y-53637857D01*
X140710053Y-53560047D01*
X140710051Y-53560046D01*
X140710049Y-53560045D01*
X140710050Y-53560045D01*
X140571963Y-53519500D01*
X140571961Y-53519500D01*
X140428039Y-53519500D01*
X140428036Y-53519500D01*
X140289949Y-53560045D01*
X140168873Y-53637856D01*
X140074623Y-53746626D01*
X140074622Y-53746628D01*
X140014834Y-53877543D01*
X139994353Y-54020000D01*
X102650500Y-54020000D01*
X102650500Y-53878712D01*
X102618838Y-53638211D01*
X102556054Y-53403900D01*
X102463224Y-53179788D01*
X102341936Y-52969711D01*
X102194265Y-52777262D01*
X102194260Y-52777256D01*
X102022743Y-52605739D01*
X102022736Y-52605733D01*
X101830293Y-52458067D01*
X101830292Y-52458066D01*
X101830289Y-52458064D01*
X101620212Y-52336776D01*
X101620205Y-52336773D01*
X101396104Y-52243947D01*
X101161785Y-52181161D01*
X100921289Y-52149500D01*
X100921288Y-52149500D01*
X100678712Y-52149500D01*
X100678711Y-52149500D01*
X100438214Y-52181161D01*
X100203895Y-52243947D01*
X99979794Y-52336773D01*
X99979785Y-52336777D01*
X99769706Y-52458067D01*
X99577263Y-52605733D01*
X99577256Y-52605739D01*
X99405739Y-52777256D01*
X99405733Y-52777263D01*
X99258067Y-52969706D01*
X99136777Y-53179785D01*
X99136773Y-53179794D01*
X99043947Y-53403895D01*
X98981161Y-53638214D01*
X98949500Y-53878711D01*
X97500500Y-53878711D01*
X97500500Y-52504066D01*
X97500765Y-52495956D01*
X97503248Y-52458067D01*
X97517075Y-52247102D01*
X97519190Y-52231048D01*
X97567045Y-51990462D01*
X97571243Y-51974797D01*
X97607544Y-51867857D01*
X97650093Y-51742512D01*
X97656291Y-51727547D01*
X97764790Y-51507533D01*
X97772893Y-51493498D01*
X97909182Y-51289527D01*
X97919039Y-51276681D01*
X98080786Y-51092244D01*
X98092244Y-51080786D01*
X98276681Y-50919039D01*
X98289527Y-50909182D01*
X98493498Y-50772893D01*
X98507533Y-50764790D01*
X98727547Y-50656291D01*
X98742512Y-50650093D01*
X98906762Y-50594337D01*
X98974797Y-50571243D01*
X98990464Y-50567045D01*
X99000509Y-50565047D01*
X99231048Y-50519190D01*
X99247102Y-50517075D01*
X99495957Y-50500765D01*
X99504067Y-50500500D01*
X99565892Y-50500500D01*
X105199204Y-50500500D01*
X105266243Y-50520185D01*
G37*
G04 #@! TD.AperFunction*
M02*
