G04 #@! TF.GenerationSoftware,KiCad,Pcbnew,8.0.5*
G04 #@! TF.CreationDate,2024-11-13T12:29:25-06:00*
G04 #@! TF.ProjectId,APG_Sensor_Test_Board,4150475f-5365-46e7-936f-725f54657374,rev?*
G04 #@! TF.SameCoordinates,Original*
G04 #@! TF.FileFunction,Soldermask,Top*
G04 #@! TF.FilePolarity,Negative*
%FSLAX46Y46*%
G04 Gerber Fmt 4.6, Leading zero omitted, Abs format (unit mm)*
G04 Created by KiCad (PCBNEW 8.0.5) date 2024-11-13 12:29:25*
%MOMM*%
%LPD*%
G01*
G04 APERTURE LIST*
G04 Aperture macros list*
%AMRoundRect*
0 Rectangle with rounded corners*
0 $1 Rounding radius*
0 $2 $3 $4 $5 $6 $7 $8 $9 X,Y pos of 4 corners*
0 Add a 4 corners polygon primitive as box body*
4,1,4,$2,$3,$4,$5,$6,$7,$8,$9,$2,$3,0*
0 Add four circle primitives for the rounded corners*
1,1,$1+$1,$2,$3*
1,1,$1+$1,$4,$5*
1,1,$1+$1,$6,$7*
1,1,$1+$1,$8,$9*
0 Add four rect primitives between the rounded corners*
20,1,$1+$1,$2,$3,$4,$5,0*
20,1,$1+$1,$4,$5,$6,$7,0*
20,1,$1+$1,$6,$7,$8,$9,0*
20,1,$1+$1,$8,$9,$2,$3,0*%
G04 Aperture macros list end*
%ADD10RoundRect,0.150000X-0.150000X0.650000X-0.150000X-0.650000X0.150000X-0.650000X0.150000X0.650000X0*%
%ADD11RoundRect,0.200000X0.200000X0.275000X-0.200000X0.275000X-0.200000X-0.275000X0.200000X-0.275000X0*%
%ADD12RoundRect,0.062500X0.062500X-0.237500X0.062500X0.237500X-0.062500X0.237500X-0.062500X-0.237500X0*%
%ADD13C,3.200000*%
%ADD14RoundRect,0.150000X-0.325000X-0.150000X0.325000X-0.150000X0.325000X0.150000X-0.325000X0.150000X0*%
%ADD15RoundRect,0.150000X-0.150000X-0.325000X0.150000X-0.325000X0.150000X0.325000X-0.150000X0.325000X0*%
%ADD16R,1.700000X1.700000*%
%ADD17O,1.700000X1.700000*%
%ADD18RoundRect,0.200000X-0.200000X-0.275000X0.200000X-0.275000X0.200000X0.275000X-0.200000X0.275000X0*%
%ADD19C,0.650000*%
%ADD20RoundRect,0.150000X-0.150000X-0.425000X0.150000X-0.425000X0.150000X0.425000X-0.150000X0.425000X0*%
%ADD21RoundRect,0.075000X-0.075000X-0.500000X0.075000X-0.500000X0.075000X0.500000X-0.075000X0.500000X0*%
%ADD22O,1.000000X2.100000*%
%ADD23O,1.000000X1.800000*%
%ADD24RoundRect,0.225000X0.225000X0.250000X-0.225000X0.250000X-0.225000X-0.250000X0.225000X-0.250000X0*%
%ADD25RoundRect,0.200000X-0.275000X0.200000X-0.275000X-0.200000X0.275000X-0.200000X0.275000X0.200000X0*%
%ADD26RoundRect,0.225000X-0.250000X0.225000X-0.250000X-0.225000X0.250000X-0.225000X0.250000X0.225000X0*%
%ADD27R,0.550000X0.950000*%
%ADD28RoundRect,0.250000X0.262500X0.450000X-0.262500X0.450000X-0.262500X-0.450000X0.262500X-0.450000X0*%
%ADD29RoundRect,0.150000X-0.512500X-0.150000X0.512500X-0.150000X0.512500X0.150000X-0.512500X0.150000X0*%
%ADD30RoundRect,0.200000X0.275000X-0.200000X0.275000X0.200000X-0.275000X0.200000X-0.275000X-0.200000X0*%
%ADD31RoundRect,0.225000X0.250000X-0.225000X0.250000X0.225000X-0.250000X0.225000X-0.250000X-0.225000X0*%
%ADD32RoundRect,0.243750X0.243750X0.456250X-0.243750X0.456250X-0.243750X-0.456250X0.243750X-0.456250X0*%
%ADD33RoundRect,0.125000X0.175000X0.125000X-0.175000X0.125000X-0.175000X-0.125000X0.175000X-0.125000X0*%
%ADD34RoundRect,0.225000X-0.225000X-0.250000X0.225000X-0.250000X0.225000X0.250000X-0.225000X0.250000X0*%
%ADD35C,2.000000*%
%ADD36R,2.000000X2.000000*%
%ADD37C,1.000000*%
%ADD38R,0.675000X0.254000*%
%ADD39R,0.254000X0.675000*%
%ADD40RoundRect,0.250000X-0.650000X1.000000X-0.650000X-1.000000X0.650000X-1.000000X0.650000X1.000000X0*%
%ADD41R,1.500000X0.900000*%
%ADD42R,0.900000X1.500000*%
%ADD43C,0.600000*%
%ADD44R,3.900000X3.900000*%
G04 APERTURE END LIST*
D10*
X165205000Y-54950000D03*
X163935000Y-54950000D03*
X162665000Y-54950000D03*
X161395000Y-54950000D03*
X161395000Y-62150000D03*
X162665000Y-62150000D03*
X163935000Y-62150000D03*
X165205000Y-62150000D03*
D11*
X165450000Y-77275000D03*
X163800000Y-77275000D03*
D12*
X124200000Y-79900000D03*
X124700000Y-79900000D03*
X125200000Y-79900000D03*
X125200000Y-78600000D03*
X124700000Y-78600000D03*
X124200000Y-78600000D03*
D13*
X192950000Y-54000000D03*
D14*
X144550000Y-76650000D03*
X144550000Y-77450000D03*
X144550000Y-78250000D03*
X144550000Y-79050000D03*
X144550000Y-79850000D03*
X144550000Y-80650000D03*
D15*
X145550000Y-80650000D03*
D14*
X146550000Y-80650000D03*
X146550000Y-79850000D03*
X146550000Y-79050000D03*
X146550000Y-78250000D03*
X146550000Y-77450000D03*
X146550000Y-76650000D03*
D15*
X145550000Y-76650000D03*
D16*
X125875000Y-51850000D03*
D17*
X128415000Y-51850000D03*
D18*
X163100000Y-71800000D03*
X164750000Y-71800000D03*
D19*
X121310000Y-84345000D03*
X127090000Y-84345000D03*
D20*
X121000000Y-83270000D03*
X121800000Y-83270000D03*
D21*
X122950000Y-83270000D03*
X123950000Y-83270000D03*
X124450000Y-83270000D03*
X125450000Y-83270000D03*
D20*
X126600000Y-83270000D03*
X127400000Y-83270000D03*
X127400000Y-83270000D03*
X126600000Y-83270000D03*
D21*
X125950000Y-83270000D03*
X124950000Y-83270000D03*
X123450000Y-83270000D03*
X122450000Y-83270000D03*
D20*
X121800000Y-83270000D03*
X121000000Y-83270000D03*
D22*
X119880000Y-83845000D03*
D23*
X119880000Y-88025000D03*
D22*
X128520000Y-83845000D03*
D23*
X128520000Y-88025000D03*
D11*
X171100000Y-71800000D03*
X169450000Y-71800000D03*
D18*
X143900000Y-82700000D03*
X145550000Y-82700000D03*
D24*
X142025000Y-76650000D03*
X140475000Y-76650000D03*
D25*
X171300000Y-85875000D03*
X171300000Y-87525000D03*
D11*
X122212500Y-58750000D03*
X120562500Y-58750000D03*
X166855000Y-52750000D03*
X165205000Y-52750000D03*
D24*
X117525000Y-58750000D03*
X115975000Y-58750000D03*
D11*
X168700000Y-63650000D03*
X167050000Y-63650000D03*
D26*
X138208332Y-51200000D03*
X138208332Y-52750000D03*
D25*
X160850000Y-73875000D03*
X160850000Y-75525000D03*
D27*
X166500000Y-84150000D03*
X167750000Y-84150000D03*
X169000000Y-84150000D03*
X170250000Y-84150000D03*
X170250000Y-82000000D03*
X169000000Y-82000000D03*
X167750000Y-82000000D03*
X166500000Y-82000000D03*
D28*
X120612500Y-80750000D03*
X118787500Y-80750000D03*
D25*
X116000000Y-67100000D03*
X116000000Y-68750000D03*
D11*
X157775000Y-74100000D03*
X156125000Y-74100000D03*
D29*
X118562500Y-73800000D03*
X118562500Y-74750000D03*
X118562500Y-75700000D03*
X120837500Y-75700000D03*
X120837500Y-73800000D03*
D11*
X117275000Y-87250000D03*
X115625000Y-87250000D03*
D26*
X153750000Y-83425000D03*
X153750000Y-84975000D03*
D30*
X169650000Y-87525000D03*
X169650000Y-85875000D03*
D25*
X134250000Y-51100000D03*
X134250000Y-52750000D03*
D31*
X167050000Y-62150000D03*
X167050000Y-60600000D03*
D24*
X118562500Y-72000000D03*
X117012500Y-72000000D03*
D11*
X104925000Y-62900000D03*
X103275000Y-62900000D03*
D30*
X160850000Y-78575000D03*
X160850000Y-76925000D03*
X166500000Y-89075000D03*
X166500000Y-87425000D03*
D11*
X187225000Y-58650000D03*
X185575000Y-58650000D03*
D32*
X101687500Y-62900000D03*
X99812500Y-62900000D03*
D13*
X100800000Y-54000000D03*
D25*
X167875000Y-72650000D03*
X167875000Y-74300000D03*
D11*
X151775000Y-83250000D03*
X150125000Y-83250000D03*
D33*
X114250000Y-68800000D03*
X114250000Y-67800000D03*
X112950000Y-68300000D03*
D34*
X157775000Y-79550000D03*
X159325000Y-79550000D03*
D35*
X112650000Y-56050000D03*
X106150000Y-56050000D03*
X112650000Y-51550000D03*
X106150000Y-51550000D03*
D24*
X182525000Y-58650000D03*
X180975000Y-58650000D03*
D35*
X180700000Y-51550000D03*
X187200000Y-51550000D03*
X180700000Y-56050000D03*
X187200000Y-56050000D03*
D36*
X104200000Y-76400000D03*
D35*
X104200000Y-71400000D03*
D32*
X101687500Y-65550000D03*
X99812500Y-65550000D03*
D24*
X117225000Y-82250000D03*
X115675000Y-82250000D03*
D18*
X128502500Y-55290000D03*
X130152500Y-55290000D03*
D30*
X131500000Y-52675000D03*
X131500000Y-51025000D03*
D26*
X124700000Y-75725000D03*
X124700000Y-77275000D03*
D30*
X104200000Y-83025000D03*
X104200000Y-81375000D03*
D24*
X107875000Y-58750000D03*
X106325000Y-58750000D03*
D11*
X177375000Y-58650000D03*
X175725000Y-58650000D03*
D25*
X166325000Y-72650000D03*
X166325000Y-74300000D03*
D37*
X120837500Y-70000000D03*
D24*
X142025000Y-80850000D03*
X140475000Y-80850000D03*
D11*
X104925000Y-65550000D03*
X103275000Y-65550000D03*
D30*
X155800000Y-84987500D03*
X155800000Y-83337500D03*
D11*
X117275000Y-85250000D03*
X115625000Y-85250000D03*
D24*
X117225000Y-80750000D03*
X115675000Y-80750000D03*
D11*
X112562500Y-58750000D03*
X110912500Y-58750000D03*
D13*
X100800000Y-86750000D03*
X192950000Y-86750000D03*
D11*
X167150000Y-75775000D03*
X165500000Y-75775000D03*
D37*
X112950000Y-78500000D03*
D38*
X152887500Y-81050000D03*
D39*
X153800000Y-81187500D03*
X154300000Y-81187500D03*
X154800000Y-81187500D03*
X155300000Y-81187500D03*
D38*
X156212500Y-81050000D03*
X156212500Y-80550000D03*
X156212500Y-80050000D03*
X156212500Y-79550000D03*
X156212500Y-79050000D03*
X156212500Y-78550000D03*
X156212500Y-78050000D03*
X156212500Y-77550000D03*
X156212500Y-77050000D03*
X156212500Y-76550000D03*
D39*
X155300000Y-76412500D03*
X154800000Y-76412500D03*
X154300000Y-76412500D03*
X153800000Y-76412500D03*
D38*
X152887500Y-76550000D03*
X152887500Y-77050000D03*
X152887500Y-77550000D03*
X152887500Y-78050000D03*
X152887500Y-78550000D03*
X152887500Y-79050000D03*
X152887500Y-79550000D03*
X152887500Y-80050000D03*
X152887500Y-80550000D03*
D35*
X171000000Y-51550000D03*
X177500000Y-51550000D03*
X171000000Y-56050000D03*
X177500000Y-56050000D03*
D11*
X104875000Y-60150000D03*
X103225000Y-60150000D03*
D24*
X172725000Y-58650000D03*
X171175000Y-58650000D03*
D35*
X122300000Y-56050000D03*
X115800000Y-56050000D03*
X122300000Y-51550000D03*
X115800000Y-51550000D03*
D26*
X157850000Y-83425000D03*
X157850000Y-84975000D03*
D16*
X195100000Y-60355000D03*
D17*
X195100000Y-62895000D03*
D16*
X195150000Y-79420000D03*
D17*
X195150000Y-76880000D03*
X195150000Y-74340000D03*
X195150000Y-71800000D03*
X195150000Y-69260000D03*
X195150000Y-66720000D03*
D18*
X140462500Y-78750000D03*
X142112500Y-78750000D03*
D26*
X136229166Y-51200000D03*
X136229166Y-52750000D03*
D40*
X115700000Y-74500000D03*
X115700000Y-78500000D03*
D32*
X101650000Y-60150000D03*
X99775000Y-60150000D03*
D34*
X166500000Y-85925000D03*
X168050000Y-85925000D03*
X120837500Y-72000000D03*
X122387500Y-72000000D03*
D41*
X140500000Y-51480000D03*
X140500000Y-52750000D03*
X140500000Y-54020000D03*
X140500000Y-55290000D03*
X140500000Y-56560000D03*
X140500000Y-57830000D03*
X140500000Y-59100000D03*
X140500000Y-60370000D03*
X140500000Y-61640000D03*
X140500000Y-62910000D03*
X140500000Y-64180000D03*
X140500000Y-65450000D03*
X140500000Y-66720000D03*
X140500000Y-67990000D03*
D42*
X142265000Y-69240000D03*
X143535000Y-69240000D03*
X144805000Y-69240000D03*
X146075000Y-69240000D03*
X147345000Y-69240000D03*
X148615000Y-69240000D03*
X149885000Y-69240000D03*
X151155000Y-69240000D03*
X152425000Y-69240000D03*
X153695000Y-69240000D03*
X154965000Y-69240000D03*
X156235000Y-69240000D03*
D41*
X158000000Y-67990000D03*
X158000000Y-66720000D03*
X158000000Y-65450000D03*
X158000000Y-64180000D03*
X158000000Y-62910000D03*
X158000000Y-61640000D03*
X158000000Y-60370000D03*
X158000000Y-59100000D03*
X158000000Y-57830000D03*
X158000000Y-56560000D03*
X158000000Y-55290000D03*
X158000000Y-54020000D03*
X158000000Y-52750000D03*
X158000000Y-51480000D03*
D43*
X146350000Y-58500000D03*
X146350000Y-59900000D03*
X147050000Y-57800000D03*
X147050000Y-59200000D03*
X147050000Y-60600000D03*
X147750000Y-58500000D03*
D44*
X147750000Y-59200000D03*
D43*
X147750000Y-59900000D03*
X148450000Y-57800000D03*
X148450000Y-59200000D03*
X148450000Y-60600000D03*
X149150000Y-58500000D03*
X149150000Y-59900000D03*
M02*
