G04 #@! TF.GenerationSoftware,KiCad,Pcbnew,8.0.5*
G04 #@! TF.CreationDate,2024-11-13T12:29:25-06:00*
G04 #@! TF.ProjectId,APG_Sensor_Test_Board,4150475f-5365-46e7-936f-725f54657374,rev?*
G04 #@! TF.SameCoordinates,Original*
G04 #@! TF.FileFunction,Copper,L1,Top*
G04 #@! TF.FilePolarity,Positive*
%FSLAX46Y46*%
G04 Gerber Fmt 4.6, Leading zero omitted, Abs format (unit mm)*
G04 Created by KiCad (PCBNEW 8.0.5) date 2024-11-13 12:29:25*
%MOMM*%
%LPD*%
G01*
G04 APERTURE LIST*
G04 Aperture macros list*
%AMRoundRect*
0 Rectangle with rounded corners*
0 $1 Rounding radius*
0 $2 $3 $4 $5 $6 $7 $8 $9 X,Y pos of 4 corners*
0 Add a 4 corners polygon primitive as box body*
4,1,4,$2,$3,$4,$5,$6,$7,$8,$9,$2,$3,0*
0 Add four circle primitives for the rounded corners*
1,1,$1+$1,$2,$3*
1,1,$1+$1,$4,$5*
1,1,$1+$1,$6,$7*
1,1,$1+$1,$8,$9*
0 Add four rect primitives between the rounded corners*
20,1,$1+$1,$2,$3,$4,$5,0*
20,1,$1+$1,$4,$5,$6,$7,0*
20,1,$1+$1,$6,$7,$8,$9,0*
20,1,$1+$1,$8,$9,$2,$3,0*%
G04 Aperture macros list end*
G04 #@! TA.AperFunction,SMDPad,CuDef*
%ADD10RoundRect,0.150000X-0.150000X0.650000X-0.150000X-0.650000X0.150000X-0.650000X0.150000X0.650000X0*%
G04 #@! TD*
G04 #@! TA.AperFunction,SMDPad,CuDef*
%ADD11RoundRect,0.200000X0.200000X0.275000X-0.200000X0.275000X-0.200000X-0.275000X0.200000X-0.275000X0*%
G04 #@! TD*
G04 #@! TA.AperFunction,SMDPad,CuDef*
%ADD12RoundRect,0.062500X0.062500X-0.237500X0.062500X0.237500X-0.062500X0.237500X-0.062500X-0.237500X0*%
G04 #@! TD*
G04 #@! TA.AperFunction,SMDPad,CuDef*
%ADD13RoundRect,0.150000X-0.325000X-0.150000X0.325000X-0.150000X0.325000X0.150000X-0.325000X0.150000X0*%
G04 #@! TD*
G04 #@! TA.AperFunction,SMDPad,CuDef*
%ADD14RoundRect,0.150000X-0.150000X-0.325000X0.150000X-0.325000X0.150000X0.325000X-0.150000X0.325000X0*%
G04 #@! TD*
G04 #@! TA.AperFunction,ComponentPad*
%ADD15R,1.700000X1.700000*%
G04 #@! TD*
G04 #@! TA.AperFunction,ComponentPad*
%ADD16O,1.700000X1.700000*%
G04 #@! TD*
G04 #@! TA.AperFunction,SMDPad,CuDef*
%ADD17RoundRect,0.200000X-0.200000X-0.275000X0.200000X-0.275000X0.200000X0.275000X-0.200000X0.275000X0*%
G04 #@! TD*
G04 #@! TA.AperFunction,SMDPad,CuDef*
%ADD18RoundRect,0.150000X-0.150000X-0.425000X0.150000X-0.425000X0.150000X0.425000X-0.150000X0.425000X0*%
G04 #@! TD*
G04 #@! TA.AperFunction,SMDPad,CuDef*
%ADD19RoundRect,0.075000X-0.075000X-0.500000X0.075000X-0.500000X0.075000X0.500000X-0.075000X0.500000X0*%
G04 #@! TD*
G04 #@! TA.AperFunction,ComponentPad*
%ADD20O,1.000000X2.100000*%
G04 #@! TD*
G04 #@! TA.AperFunction,ComponentPad*
%ADD21O,1.000000X1.800000*%
G04 #@! TD*
G04 #@! TA.AperFunction,SMDPad,CuDef*
%ADD22RoundRect,0.225000X0.225000X0.250000X-0.225000X0.250000X-0.225000X-0.250000X0.225000X-0.250000X0*%
G04 #@! TD*
G04 #@! TA.AperFunction,SMDPad,CuDef*
%ADD23RoundRect,0.200000X-0.275000X0.200000X-0.275000X-0.200000X0.275000X-0.200000X0.275000X0.200000X0*%
G04 #@! TD*
G04 #@! TA.AperFunction,SMDPad,CuDef*
%ADD24RoundRect,0.225000X-0.250000X0.225000X-0.250000X-0.225000X0.250000X-0.225000X0.250000X0.225000X0*%
G04 #@! TD*
G04 #@! TA.AperFunction,SMDPad,CuDef*
%ADD25R,0.550000X0.950000*%
G04 #@! TD*
G04 #@! TA.AperFunction,SMDPad,CuDef*
%ADD26RoundRect,0.250000X0.262500X0.450000X-0.262500X0.450000X-0.262500X-0.450000X0.262500X-0.450000X0*%
G04 #@! TD*
G04 #@! TA.AperFunction,SMDPad,CuDef*
%ADD27RoundRect,0.150000X-0.512500X-0.150000X0.512500X-0.150000X0.512500X0.150000X-0.512500X0.150000X0*%
G04 #@! TD*
G04 #@! TA.AperFunction,SMDPad,CuDef*
%ADD28RoundRect,0.200000X0.275000X-0.200000X0.275000X0.200000X-0.275000X0.200000X-0.275000X-0.200000X0*%
G04 #@! TD*
G04 #@! TA.AperFunction,SMDPad,CuDef*
%ADD29RoundRect,0.225000X0.250000X-0.225000X0.250000X0.225000X-0.250000X0.225000X-0.250000X-0.225000X0*%
G04 #@! TD*
G04 #@! TA.AperFunction,SMDPad,CuDef*
%ADD30RoundRect,0.243750X0.243750X0.456250X-0.243750X0.456250X-0.243750X-0.456250X0.243750X-0.456250X0*%
G04 #@! TD*
G04 #@! TA.AperFunction,SMDPad,CuDef*
%ADD31RoundRect,0.125000X0.175000X0.125000X-0.175000X0.125000X-0.175000X-0.125000X0.175000X-0.125000X0*%
G04 #@! TD*
G04 #@! TA.AperFunction,SMDPad,CuDef*
%ADD32RoundRect,0.225000X-0.225000X-0.250000X0.225000X-0.250000X0.225000X0.250000X-0.225000X0.250000X0*%
G04 #@! TD*
G04 #@! TA.AperFunction,ComponentPad*
%ADD33C,2.000000*%
G04 #@! TD*
G04 #@! TA.AperFunction,ComponentPad*
%ADD34R,2.000000X2.000000*%
G04 #@! TD*
G04 #@! TA.AperFunction,SMDPad,CuDef*
%ADD35C,1.000000*%
G04 #@! TD*
G04 #@! TA.AperFunction,SMDPad,CuDef*
%ADD36R,0.675000X0.254000*%
G04 #@! TD*
G04 #@! TA.AperFunction,SMDPad,CuDef*
%ADD37R,0.254000X0.675000*%
G04 #@! TD*
G04 #@! TA.AperFunction,SMDPad,CuDef*
%ADD38RoundRect,0.250000X-0.650000X1.000000X-0.650000X-1.000000X0.650000X-1.000000X0.650000X1.000000X0*%
G04 #@! TD*
G04 #@! TA.AperFunction,SMDPad,CuDef*
%ADD39R,1.500000X0.900000*%
G04 #@! TD*
G04 #@! TA.AperFunction,SMDPad,CuDef*
%ADD40R,0.900000X1.500000*%
G04 #@! TD*
G04 #@! TA.AperFunction,HeatsinkPad*
%ADD41C,0.600000*%
G04 #@! TD*
G04 #@! TA.AperFunction,SMDPad,CuDef*
%ADD42R,3.900000X3.900000*%
G04 #@! TD*
G04 #@! TA.AperFunction,ViaPad*
%ADD43C,0.600000*%
G04 #@! TD*
G04 #@! TA.AperFunction,Conductor*
%ADD44C,0.200000*%
G04 #@! TD*
G04 #@! TA.AperFunction,Conductor*
%ADD45C,0.300000*%
G04 #@! TD*
G04 #@! TA.AperFunction,Conductor*
%ADD46C,0.400000*%
G04 #@! TD*
G04 APERTURE END LIST*
D10*
X165205000Y-54950000D03*
X163935000Y-54950000D03*
X162665000Y-54950000D03*
X161395000Y-54950000D03*
X161395000Y-62150000D03*
X162665000Y-62150000D03*
X163935000Y-62150000D03*
X165205000Y-62150000D03*
D11*
X165450000Y-77275000D03*
X163800000Y-77275000D03*
D12*
X124200000Y-79900000D03*
X124700000Y-79900000D03*
X125200000Y-79900000D03*
X125200000Y-78600000D03*
X124700000Y-78600000D03*
X124200000Y-78600000D03*
D13*
X144550000Y-76650000D03*
X144550000Y-77450000D03*
X144550000Y-78250000D03*
X144550000Y-79050000D03*
X144550000Y-79850000D03*
X144550000Y-80650000D03*
D14*
X145550000Y-80650000D03*
D13*
X146550000Y-80650000D03*
X146550000Y-79850000D03*
X146550000Y-79050000D03*
X146550000Y-78250000D03*
X146550000Y-77450000D03*
X146550000Y-76650000D03*
D14*
X145550000Y-76650000D03*
D15*
X125875000Y-51850000D03*
D16*
X128415000Y-51850000D03*
D17*
X163100000Y-71800000D03*
X164750000Y-71800000D03*
D18*
X121000000Y-83270000D03*
X121800000Y-83270000D03*
D19*
X122950000Y-83270000D03*
X123950000Y-83270000D03*
X124450000Y-83270000D03*
X125450000Y-83270000D03*
D18*
X126600000Y-83270000D03*
X127400000Y-83270000D03*
X127400000Y-83270000D03*
X126600000Y-83270000D03*
D19*
X125950000Y-83270000D03*
X124950000Y-83270000D03*
X123450000Y-83270000D03*
X122450000Y-83270000D03*
D18*
X121800000Y-83270000D03*
X121000000Y-83270000D03*
D20*
X119880000Y-83845000D03*
D21*
X119880000Y-88025000D03*
D20*
X128520000Y-83845000D03*
D21*
X128520000Y-88025000D03*
D11*
X171100000Y-71800000D03*
X169450000Y-71800000D03*
D17*
X143900000Y-82700000D03*
X145550000Y-82700000D03*
D22*
X142025000Y-76650000D03*
X140475000Y-76650000D03*
D23*
X171300000Y-85875000D03*
X171300000Y-87525000D03*
D11*
X122212500Y-58750000D03*
X120562500Y-58750000D03*
X166855000Y-52750000D03*
X165205000Y-52750000D03*
D22*
X117525000Y-58750000D03*
X115975000Y-58750000D03*
D11*
X168700000Y-63650000D03*
X167050000Y-63650000D03*
D24*
X138208332Y-51200000D03*
X138208332Y-52750000D03*
D23*
X160850000Y-73875000D03*
X160850000Y-75525000D03*
D25*
X166500000Y-84150000D03*
X167750000Y-84150000D03*
X169000000Y-84150000D03*
X170250000Y-84150000D03*
X170250000Y-82000000D03*
X169000000Y-82000000D03*
X167750000Y-82000000D03*
X166500000Y-82000000D03*
D26*
X120612500Y-80750000D03*
X118787500Y-80750000D03*
D23*
X116000000Y-67100000D03*
X116000000Y-68750000D03*
D11*
X157775000Y-74100000D03*
X156125000Y-74100000D03*
D27*
X118562500Y-73800000D03*
X118562500Y-74750000D03*
X118562500Y-75700000D03*
X120837500Y-75700000D03*
X120837500Y-73800000D03*
D11*
X117275000Y-87250000D03*
X115625000Y-87250000D03*
D24*
X153750000Y-83425000D03*
X153750000Y-84975000D03*
D28*
X169650000Y-87525000D03*
X169650000Y-85875000D03*
D23*
X134250000Y-51100000D03*
X134250000Y-52750000D03*
D29*
X167050000Y-62150000D03*
X167050000Y-60600000D03*
D22*
X118562500Y-72000000D03*
X117012500Y-72000000D03*
D11*
X104925000Y-62900000D03*
X103275000Y-62900000D03*
D28*
X160850000Y-78575000D03*
X160850000Y-76925000D03*
X166500000Y-89075000D03*
X166500000Y-87425000D03*
D11*
X187225000Y-58650000D03*
X185575000Y-58650000D03*
D30*
X101687500Y-62900000D03*
X99812500Y-62900000D03*
D23*
X167875000Y-72650000D03*
X167875000Y-74300000D03*
D11*
X151775000Y-83250000D03*
X150125000Y-83250000D03*
D31*
X114250000Y-68800000D03*
X114250000Y-67800000D03*
X112950000Y-68300000D03*
D32*
X157775000Y-79550000D03*
X159325000Y-79550000D03*
D33*
X112650000Y-56050000D03*
X106150000Y-56050000D03*
X112650000Y-51550000D03*
X106150000Y-51550000D03*
D22*
X182525000Y-58650000D03*
X180975000Y-58650000D03*
D33*
X180700000Y-51550000D03*
X187200000Y-51550000D03*
X180700000Y-56050000D03*
X187200000Y-56050000D03*
D34*
X104200000Y-76400000D03*
D33*
X104200000Y-71400000D03*
D30*
X101687500Y-65550000D03*
X99812500Y-65550000D03*
D22*
X117225000Y-82250000D03*
X115675000Y-82250000D03*
D17*
X128502500Y-55290000D03*
X130152500Y-55290000D03*
D28*
X131500000Y-52675000D03*
X131500000Y-51025000D03*
D24*
X124700000Y-75725000D03*
X124700000Y-77275000D03*
D28*
X104200000Y-83025000D03*
X104200000Y-81375000D03*
D22*
X107875000Y-58750000D03*
X106325000Y-58750000D03*
D11*
X177375000Y-58650000D03*
X175725000Y-58650000D03*
D23*
X166325000Y-72650000D03*
X166325000Y-74300000D03*
D35*
X120837500Y-70000000D03*
D22*
X142025000Y-80850000D03*
X140475000Y-80850000D03*
D11*
X104925000Y-65550000D03*
X103275000Y-65550000D03*
D28*
X155800000Y-84987500D03*
X155800000Y-83337500D03*
D11*
X117275000Y-85250000D03*
X115625000Y-85250000D03*
D22*
X117225000Y-80750000D03*
X115675000Y-80750000D03*
D11*
X112562500Y-58750000D03*
X110912500Y-58750000D03*
X167150000Y-75775000D03*
X165500000Y-75775000D03*
D35*
X112950000Y-78500000D03*
D36*
X152887500Y-81050000D03*
D37*
X153800000Y-81187500D03*
X154300000Y-81187500D03*
X154800000Y-81187500D03*
X155300000Y-81187500D03*
D36*
X156212500Y-81050000D03*
X156212500Y-80550000D03*
X156212500Y-80050000D03*
X156212500Y-79550000D03*
X156212500Y-79050000D03*
X156212500Y-78550000D03*
X156212500Y-78050000D03*
X156212500Y-77550000D03*
X156212500Y-77050000D03*
X156212500Y-76550000D03*
D37*
X155300000Y-76412500D03*
X154800000Y-76412500D03*
X154300000Y-76412500D03*
X153800000Y-76412500D03*
D36*
X152887500Y-76550000D03*
X152887500Y-77050000D03*
X152887500Y-77550000D03*
X152887500Y-78050000D03*
X152887500Y-78550000D03*
X152887500Y-79050000D03*
X152887500Y-79550000D03*
X152887500Y-80050000D03*
X152887500Y-80550000D03*
D33*
X171000000Y-51550000D03*
X177500000Y-51550000D03*
X171000000Y-56050000D03*
X177500000Y-56050000D03*
D11*
X104875000Y-60150000D03*
X103225000Y-60150000D03*
D22*
X172725000Y-58650000D03*
X171175000Y-58650000D03*
D33*
X122300000Y-56050000D03*
X115800000Y-56050000D03*
X122300000Y-51550000D03*
X115800000Y-51550000D03*
D24*
X157850000Y-83425000D03*
X157850000Y-84975000D03*
D15*
X195100000Y-60355000D03*
D16*
X195100000Y-62895000D03*
D15*
X195150000Y-79420000D03*
D16*
X195150000Y-76880000D03*
X195150000Y-74340000D03*
X195150000Y-71800000D03*
X195150000Y-69260000D03*
X195150000Y-66720000D03*
D17*
X140462500Y-78750000D03*
X142112500Y-78750000D03*
D24*
X136229166Y-51200000D03*
X136229166Y-52750000D03*
D38*
X115700000Y-74500000D03*
X115700000Y-78500000D03*
D30*
X101650000Y-60150000D03*
X99775000Y-60150000D03*
D32*
X166500000Y-85925000D03*
X168050000Y-85925000D03*
X120837500Y-72000000D03*
X122387500Y-72000000D03*
D39*
X140500000Y-51480000D03*
X140500000Y-52750000D03*
X140500000Y-54020000D03*
X140500000Y-55290000D03*
X140500000Y-56560000D03*
X140500000Y-57830000D03*
X140500000Y-59100000D03*
X140500000Y-60370000D03*
X140500000Y-61640000D03*
X140500000Y-62910000D03*
X140500000Y-64180000D03*
X140500000Y-65450000D03*
X140500000Y-66720000D03*
X140500000Y-67990000D03*
D40*
X142265000Y-69240000D03*
X143535000Y-69240000D03*
X144805000Y-69240000D03*
X146075000Y-69240000D03*
X147345000Y-69240000D03*
X148615000Y-69240000D03*
X149885000Y-69240000D03*
X151155000Y-69240000D03*
X152425000Y-69240000D03*
X153695000Y-69240000D03*
X154965000Y-69240000D03*
X156235000Y-69240000D03*
D39*
X158000000Y-67990000D03*
X158000000Y-66720000D03*
X158000000Y-65450000D03*
X158000000Y-64180000D03*
X158000000Y-62910000D03*
X158000000Y-61640000D03*
X158000000Y-60370000D03*
X158000000Y-59100000D03*
X158000000Y-57830000D03*
X158000000Y-56560000D03*
X158000000Y-55290000D03*
X158000000Y-54020000D03*
X158000000Y-52750000D03*
X158000000Y-51480000D03*
D41*
X146350000Y-58500000D03*
X146350000Y-59900000D03*
X147050000Y-57800000D03*
X147050000Y-59200000D03*
X147050000Y-60600000D03*
X147750000Y-58500000D03*
D42*
X147750000Y-59200000D03*
D41*
X147750000Y-59900000D03*
X148450000Y-57800000D03*
X148450000Y-59200000D03*
X148450000Y-60600000D03*
X149150000Y-58500000D03*
X149150000Y-59900000D03*
D43*
X106325000Y-58750000D03*
X124700000Y-75725000D03*
X159325000Y-79550000D03*
X153750000Y-84975000D03*
X131500000Y-51025000D03*
X124700000Y-80500000D03*
X138208332Y-51200000D03*
X171300000Y-87525000D03*
X156000000Y-52250000D03*
X117012500Y-72000000D03*
X140500000Y-51480000D03*
X151950000Y-79300000D03*
X122387500Y-72000000D03*
X140475000Y-76650000D03*
X115975000Y-58750000D03*
X143550000Y-79050000D03*
X143550000Y-77450000D03*
X140475000Y-80850000D03*
X115625000Y-85250000D03*
X116000000Y-67100000D03*
X167050000Y-60600000D03*
X118562500Y-74750000D03*
X168050000Y-85925000D03*
X115625000Y-87250000D03*
X133100000Y-88000000D03*
X169000000Y-84150000D03*
X160850000Y-54950000D03*
X115675000Y-81500000D03*
X143550000Y-79850000D03*
X157850000Y-84975000D03*
X136229166Y-51200000D03*
X140500000Y-54020000D03*
X155950000Y-53800000D03*
X155300000Y-79450000D03*
X155400000Y-75300000D03*
X187225000Y-58650000D03*
X104200000Y-83025000D03*
X163100000Y-71800000D03*
X112562500Y-58750000D03*
X166500000Y-89075000D03*
X99775000Y-60150000D03*
X99812500Y-65550000D03*
X120837500Y-73000000D03*
X122212500Y-58750000D03*
X171100000Y-71800000D03*
X155800000Y-84987500D03*
X134250000Y-51100000D03*
X168700000Y-63650000D03*
X177375000Y-58650000D03*
X140462500Y-78750000D03*
X99812500Y-62900000D03*
X121800000Y-82000000D03*
X126550000Y-82000000D03*
X159650000Y-61550000D03*
X158000000Y-59100000D03*
X159950000Y-60350000D03*
X140500000Y-64180000D03*
X158000000Y-57830000D03*
X158000000Y-56560000D03*
X160250000Y-56100000D03*
X161500000Y-52750000D03*
X159750000Y-54900000D03*
X168500000Y-77150000D03*
X166300000Y-77050000D03*
X154950000Y-74100000D03*
X153850000Y-75150000D03*
X156100000Y-70950000D03*
X149950000Y-76550000D03*
X151150000Y-74400000D03*
X153695000Y-70850000D03*
X153695000Y-74050000D03*
X152050000Y-75750000D03*
X149400000Y-74600000D03*
X149885000Y-73350000D03*
X149885000Y-70550000D03*
X157150000Y-77300000D03*
X157100000Y-81050000D03*
X149050000Y-71750000D03*
X157100000Y-78550000D03*
X147345000Y-72295000D03*
X149000000Y-72700000D03*
X145550000Y-82700000D03*
X145550000Y-75100000D03*
X144800000Y-73900000D03*
X148250000Y-80650000D03*
X147700000Y-79300000D03*
X142250000Y-74500000D03*
X161450000Y-60150000D03*
X162050000Y-64200000D03*
X154800000Y-81950000D03*
X150125000Y-83250000D03*
X140500000Y-65450000D03*
D44*
X171175000Y-58650000D02*
X171175000Y-56225000D01*
X152887500Y-79050000D02*
X152200000Y-79050000D01*
X144550000Y-79850000D02*
X143550000Y-79850000D01*
X116000000Y-67100000D02*
X115412500Y-67100000D01*
X153750000Y-85150000D02*
X153750000Y-84975000D01*
X115412500Y-67100000D02*
X114712500Y-67800000D01*
X153452000Y-79550000D02*
X152887500Y-79550000D01*
X120455000Y-83270000D02*
X119880000Y-83845000D01*
X115675000Y-80750000D02*
X115675000Y-81500000D01*
X152200000Y-79550000D02*
X151950000Y-79300000D01*
X156770000Y-51480000D02*
X156000000Y-52250000D01*
X153800000Y-81187500D02*
X153800000Y-79898000D01*
X124700000Y-79900000D02*
X124700000Y-80500000D01*
X157850000Y-85150000D02*
X157850000Y-84975000D01*
X158000000Y-51480000D02*
X156770000Y-51480000D01*
X140300000Y-80850000D02*
X140475000Y-80850000D01*
X152887500Y-79550000D02*
X152200000Y-79550000D01*
X153800000Y-79898000D02*
X153452000Y-79550000D01*
X115625000Y-85150000D02*
X115625000Y-85250000D01*
X171175000Y-56225000D02*
X171000000Y-56050000D01*
X121000000Y-83270000D02*
X120455000Y-83270000D01*
X144550000Y-79050000D02*
X143550000Y-79050000D01*
X140300000Y-76650000D02*
X140475000Y-76650000D01*
X127945000Y-83270000D02*
X128520000Y-83845000D01*
X180975000Y-56325000D02*
X180700000Y-56050000D01*
X144550000Y-77450000D02*
X143550000Y-77450000D01*
X127400000Y-83270000D02*
X127945000Y-83270000D01*
X180975000Y-58650000D02*
X180975000Y-56325000D01*
X115675000Y-81500000D02*
X115675000Y-82250000D01*
X152200000Y-79050000D02*
X151950000Y-79300000D01*
X114700000Y-67800000D02*
X114350000Y-67800000D01*
X161395000Y-54950000D02*
X160850000Y-54950000D01*
X115400000Y-67100000D02*
X116000000Y-67100000D01*
X104200000Y-81375000D02*
X104200000Y-76400000D01*
X174250000Y-51550000D02*
X177500000Y-51550000D01*
X174250000Y-58650000D02*
X174250000Y-51550000D01*
X172900000Y-58650000D02*
X174250000Y-58650000D01*
X171000000Y-51550000D02*
X174250000Y-51550000D01*
X140500000Y-54020000D02*
X140500000Y-53920000D01*
X174250000Y-58650000D02*
X175637500Y-58650000D01*
X184100000Y-51550000D02*
X187200000Y-51550000D01*
X184100000Y-58650000D02*
X184100000Y-51550000D01*
X155950000Y-67600000D02*
X156240000Y-67890000D01*
X182700000Y-58650000D02*
X184100000Y-58650000D01*
X180700000Y-51550000D02*
X184100000Y-51550000D01*
X184100000Y-58650000D02*
X185487500Y-58650000D01*
X156240000Y-67890000D02*
X158000000Y-67890000D01*
X155950000Y-53800000D02*
X155950000Y-67600000D01*
X140500000Y-52750000D02*
X134250000Y-52750000D01*
X155300000Y-81187500D02*
X155300000Y-79450000D01*
X155300000Y-79450000D02*
X155700000Y-79050000D01*
X160850000Y-79900000D02*
X157850000Y-82900000D01*
X159425000Y-73875000D02*
X159200000Y-74100000D01*
X157450000Y-75300000D02*
X157775000Y-74975000D01*
X154300000Y-81601471D02*
X153750000Y-82151471D01*
X155300000Y-81600000D02*
X155800000Y-82100000D01*
X160850000Y-73875000D02*
X159425000Y-73875000D01*
X157850000Y-83250000D02*
X151862500Y-83250000D01*
X157775000Y-74975000D02*
X157775000Y-74100000D01*
X152200000Y-81300000D02*
X153051471Y-82151471D01*
X157850000Y-82900000D02*
X157850000Y-83425000D01*
X155800000Y-82100000D02*
X155800000Y-83250000D01*
X152200000Y-80673000D02*
X152200000Y-81300000D01*
X155400000Y-75300000D02*
X157450000Y-75300000D01*
X160850000Y-78675000D02*
X160850000Y-79900000D01*
X153750000Y-82151471D02*
X153750000Y-83250000D01*
X155700000Y-79050000D02*
X156212500Y-79050000D01*
X152887500Y-80550000D02*
X152323000Y-80550000D01*
X154300000Y-81187500D02*
X154300000Y-81601471D01*
X155300000Y-81187500D02*
X155300000Y-81600000D01*
X152323000Y-80550000D02*
X152200000Y-80673000D01*
X159200000Y-74100000D02*
X157775000Y-74100000D01*
X153051471Y-82151471D02*
X153750000Y-82151471D01*
X157775000Y-79550000D02*
X156212500Y-79550000D01*
X142500000Y-82700000D02*
X142025000Y-82225000D01*
X142025000Y-82225000D02*
X142025000Y-80850000D01*
X142200000Y-76650000D02*
X142200000Y-80850000D01*
X143900000Y-82700000D02*
X142500000Y-82700000D01*
X144550000Y-76650000D02*
X142200000Y-76650000D01*
X142400000Y-80650000D02*
X144550000Y-80650000D01*
X142200000Y-80850000D02*
X142400000Y-80650000D01*
X169650000Y-87525000D02*
X166600000Y-87525000D01*
X166500000Y-84150000D02*
X166500000Y-85925000D01*
X167750000Y-84150000D02*
X166500000Y-84150000D01*
X166600000Y-87525000D02*
X166500000Y-87425000D01*
X166500000Y-87425000D02*
X166500000Y-85925000D01*
X167050000Y-63650000D02*
X167050000Y-62150000D01*
X162665000Y-54950000D02*
X162665000Y-57515000D01*
X165205000Y-62150000D02*
X167050000Y-62150000D01*
X165205000Y-62150000D02*
X163935000Y-62150000D01*
X163950000Y-62165000D02*
X163935000Y-62150000D01*
X166855000Y-55865000D02*
X163935000Y-58785000D01*
X162665000Y-57515000D02*
X163935000Y-58785000D01*
X166855000Y-52750000D02*
X166855000Y-55865000D01*
X163935000Y-58785000D02*
X163935000Y-62150000D01*
X119050000Y-58750000D02*
X119050000Y-56050000D01*
X119050000Y-58750000D02*
X120475000Y-58750000D01*
X119050000Y-56050000D02*
X122300000Y-56050000D01*
X117700000Y-58750000D02*
X119050000Y-58750000D01*
X115800000Y-56050000D02*
X119050000Y-56050000D01*
X124080000Y-57830000D02*
X140500000Y-57830000D01*
X122300000Y-56050000D02*
X124080000Y-57830000D01*
X108050000Y-58750000D02*
X109400000Y-58750000D01*
X123100000Y-54400000D02*
X125260000Y-56560000D01*
X109400000Y-58750000D02*
X109400000Y-56050000D01*
X106150000Y-56050000D02*
X109400000Y-56050000D01*
X125260000Y-56560000D02*
X140500000Y-56560000D01*
X109400000Y-56050000D02*
X112650000Y-56050000D01*
X112650000Y-56050000D02*
X114300000Y-54400000D01*
X109400000Y-58750000D02*
X110825000Y-58750000D01*
X114300000Y-54400000D02*
X123100000Y-54400000D01*
D45*
X116950000Y-78500000D02*
X117225000Y-78775000D01*
X112950000Y-78500000D02*
X115700000Y-78500000D01*
X115700000Y-78500000D02*
X116950000Y-78500000D01*
X117225000Y-80750000D02*
X117225000Y-82250000D01*
X118787500Y-80750000D02*
X117225000Y-80750000D01*
X117225000Y-78775000D02*
X117225000Y-80750000D01*
D44*
X120837500Y-72000000D02*
X120837500Y-70000000D01*
D45*
X120837500Y-72000000D02*
X120837500Y-73800000D01*
D44*
X113050000Y-68300000D02*
X107300000Y-68300000D01*
X107300000Y-68300000D02*
X104200000Y-71400000D01*
X101300000Y-60150000D02*
X103225000Y-60150000D01*
X103275000Y-62900000D02*
X101337500Y-62900000D01*
D46*
X126550000Y-82000000D02*
X126600000Y-82050000D01*
D45*
X121700000Y-81900000D02*
X121800000Y-82000000D01*
D46*
X121800000Y-83270000D02*
X121800000Y-82000000D01*
D45*
X121700000Y-81250000D02*
X121700000Y-81900000D01*
X121200000Y-80750000D02*
X121700000Y-81250000D01*
X120612500Y-80750000D02*
X121200000Y-80750000D01*
D46*
X126600000Y-82050000D02*
X126600000Y-83270000D01*
D45*
X128415000Y-51850000D02*
X128415000Y-55290000D01*
D44*
X158000000Y-61640000D02*
X159560000Y-61640000D01*
X159560000Y-61640000D02*
X159650000Y-61550000D01*
X158000000Y-60370000D02*
X159930000Y-60370000D01*
X159930000Y-60370000D02*
X159950000Y-60350000D01*
X158000000Y-55290000D02*
X158950000Y-55290000D01*
X158950000Y-55290000D02*
X159760000Y-56100000D01*
X159760000Y-56100000D02*
X160250000Y-56100000D01*
X125200000Y-80151471D02*
X125300000Y-80251471D01*
X124100000Y-84400000D02*
X124800000Y-84400000D01*
X138964999Y-67580000D02*
X125938200Y-67580000D01*
X125475000Y-77874999D02*
X125475000Y-74676471D01*
X124925000Y-81123529D02*
X124925000Y-82382499D01*
X124925000Y-68593200D02*
X125938200Y-67580000D01*
X124925000Y-82382499D02*
X124950000Y-82407499D01*
X139374999Y-67990000D02*
X140500000Y-67990000D01*
X124950000Y-83270000D02*
X124950000Y-82364314D01*
X123950000Y-83255000D02*
X123950000Y-84250000D01*
X124950000Y-82407499D02*
X124950000Y-83270000D01*
X125475000Y-74676471D02*
X124948529Y-74150000D01*
X125200000Y-78600000D02*
X125200000Y-78149999D01*
X124800000Y-84400000D02*
X124950000Y-84250000D01*
X125200000Y-79900000D02*
X125200000Y-80151471D01*
X125300000Y-80748529D02*
X124925000Y-81123529D01*
X124925000Y-74150000D02*
X124925000Y-68593200D01*
X123950000Y-84250000D02*
X124100000Y-84400000D01*
X124950000Y-84250000D02*
X124950000Y-83255000D01*
X124948529Y-74150000D02*
X124925000Y-74150000D01*
X138964999Y-67580000D02*
X139374999Y-67990000D01*
X125200000Y-79900000D02*
X125200000Y-78600000D01*
X123914000Y-83255000D02*
X123950000Y-83291000D01*
X125300000Y-80251471D02*
X125300000Y-80748529D01*
X125200000Y-78149999D02*
X125475000Y-77874999D01*
X122700000Y-85250000D02*
X122950000Y-85000000D01*
X117275000Y-85250000D02*
X122700000Y-85250000D01*
X122950000Y-85000000D02*
X122950000Y-83270000D01*
X125125000Y-86825000D02*
X125950000Y-86000000D01*
X117850000Y-87250000D02*
X118275000Y-86825000D01*
X125950000Y-86000000D02*
X125950000Y-83270000D01*
X117362500Y-87250000D02*
X117850000Y-87250000D01*
X118275000Y-86825000D02*
X125125000Y-86825000D01*
X124400000Y-82380000D02*
X124450000Y-82430000D01*
X123480000Y-82380000D02*
X124400000Y-82380000D01*
X124100000Y-80251471D02*
X124100000Y-80748529D01*
X124200000Y-79900000D02*
X124200000Y-78600000D01*
X124200000Y-80151471D02*
X124100000Y-80251471D01*
X138964999Y-67130000D02*
X125751800Y-67130000D01*
X124451471Y-74150000D02*
X124475000Y-74150000D01*
X124475000Y-68406800D02*
X125751800Y-67130000D01*
X124200000Y-78149999D02*
X123925000Y-77874999D01*
X124450000Y-82407499D02*
X124450000Y-83270000D01*
X124200000Y-79900000D02*
X124200000Y-80151471D01*
X123450000Y-82410000D02*
X123480000Y-82380000D01*
X123925000Y-77874999D02*
X123925000Y-74676471D01*
X124200000Y-78600000D02*
X124200000Y-78149999D01*
X124475000Y-74150000D02*
X124475000Y-68406800D01*
X123450000Y-83255000D02*
X123450000Y-82410000D01*
X138964999Y-67130000D02*
X139374999Y-66720000D01*
X124450000Y-82430000D02*
X124450000Y-83255000D01*
X123925000Y-74676471D02*
X124451471Y-74150000D01*
X124475000Y-81123529D02*
X124475000Y-82382499D01*
X139374999Y-66720000D02*
X140500000Y-66720000D01*
X124100000Y-80748529D02*
X124475000Y-81123529D01*
X124475000Y-82382499D02*
X124450000Y-82407499D01*
D45*
X131500000Y-55290000D02*
X140500000Y-55290000D01*
X130240000Y-55290000D02*
X131500000Y-55290000D01*
X131500000Y-52762500D02*
X131500000Y-55290000D01*
D44*
X161500000Y-52750000D02*
X165205000Y-52750000D01*
X158000000Y-52750000D02*
X161500000Y-52750000D01*
X165205000Y-54950000D02*
X165205000Y-52750000D01*
X158170000Y-53850000D02*
X159750000Y-53850000D01*
X163850000Y-53850000D02*
X163935000Y-53935000D01*
X163935000Y-53935000D02*
X163935000Y-54950000D01*
X159750000Y-53850000D02*
X163850000Y-53850000D01*
X159750000Y-54900000D02*
X159750000Y-53850000D01*
X158000000Y-54020000D02*
X158170000Y-53850000D01*
X168500000Y-77150000D02*
X168475000Y-77175000D01*
X167875000Y-75775000D02*
X167875000Y-74300000D01*
X167875000Y-75775000D02*
X167875000Y-77175000D01*
X167500000Y-81750000D02*
X167750000Y-82000000D01*
X167025000Y-75775000D02*
X167875000Y-75775000D01*
X168475000Y-77175000D02*
X167875000Y-77175000D01*
X167500000Y-77550000D02*
X167500000Y-81750000D01*
X167875000Y-77175000D02*
X167500000Y-77550000D01*
X165450000Y-77275000D02*
X166025000Y-77275000D01*
X166500000Y-82000000D02*
X166750000Y-81750000D01*
X166300000Y-77050000D02*
X166275000Y-77025000D01*
X166325000Y-76975000D02*
X166325000Y-74300000D01*
X166750000Y-81750000D02*
X166750000Y-77500000D01*
X166275000Y-77025000D02*
X166325000Y-76975000D01*
X166750000Y-77500000D02*
X166300000Y-77050000D01*
X166025000Y-77275000D02*
X166275000Y-77025000D01*
X162275000Y-76925000D02*
X162625000Y-77275000D01*
X156212500Y-76550000D02*
X159275000Y-76550000D01*
X159650000Y-76925000D02*
X160850000Y-76925000D01*
X162625000Y-77275000D02*
X163800000Y-77275000D01*
X160850000Y-76925000D02*
X162275000Y-76925000D01*
X159275000Y-76550000D02*
X159650000Y-76925000D01*
X160850000Y-75525000D02*
X162775000Y-75525000D01*
X157192686Y-76123000D02*
X155589500Y-76123000D01*
X162775000Y-75525000D02*
X163025000Y-75775000D01*
X155589500Y-76123000D02*
X155300000Y-76412500D01*
X157192686Y-76123000D02*
X157790686Y-75525000D01*
X163025000Y-75775000D02*
X165500000Y-75775000D01*
X157790686Y-75525000D02*
X160850000Y-75525000D01*
X171300000Y-82050000D02*
X171300000Y-84300000D01*
X169650000Y-85875000D02*
X170300000Y-85875000D01*
X170250000Y-84150000D02*
X171150000Y-84150000D01*
X170250000Y-82000000D02*
X171250000Y-82000000D01*
X171150000Y-84150000D02*
X171300000Y-84300000D01*
X171250000Y-82000000D02*
X171300000Y-82050000D01*
X170300000Y-85875000D02*
X171300000Y-85875000D01*
X171300000Y-84300000D02*
X171300000Y-85875000D01*
X138190000Y-62910000D02*
X140500000Y-62910000D01*
X114250000Y-68800000D02*
X115950000Y-68800000D01*
X116000000Y-68750000D02*
X118800000Y-65950000D01*
X118800000Y-65950000D02*
X135150000Y-65950000D01*
X115950000Y-68800000D02*
X116000000Y-68750000D01*
X135150000Y-65950000D02*
X138190000Y-62910000D01*
X123648529Y-59100000D02*
X140500000Y-59100000D01*
X104875000Y-60150000D02*
X122598529Y-60150000D01*
X122598529Y-60150000D02*
X123648529Y-59100000D01*
X140500000Y-60370000D02*
X132380000Y-60370000D01*
X129850000Y-62900000D02*
X104925000Y-62900000D01*
X132380000Y-60370000D02*
X129850000Y-62900000D01*
X104925000Y-65550000D02*
X128700000Y-65550000D01*
X128700000Y-65550000D02*
X132610000Y-61640000D01*
X132610000Y-61640000D02*
X140500000Y-61640000D01*
X154965000Y-69240000D02*
X154965000Y-71000000D01*
X154965000Y-71000000D02*
X154965000Y-74085000D01*
X154965000Y-74085000D02*
X154950000Y-74100000D01*
X154950000Y-74100000D02*
X156125000Y-74100000D01*
X156050000Y-71000000D02*
X156100000Y-70950000D01*
X154300000Y-75600000D02*
X153850000Y-75150000D01*
X154965000Y-71000000D02*
X156050000Y-71000000D01*
X154300000Y-76412500D02*
X154300000Y-75600000D01*
X149050000Y-77450000D02*
X146550000Y-77450000D01*
X149950000Y-76550000D02*
X149050000Y-77450000D01*
X152887500Y-76550000D02*
X149950000Y-76550000D01*
X151155000Y-74395000D02*
X151150000Y-74400000D01*
X151155000Y-69240000D02*
X151155000Y-74395000D01*
X153695000Y-73995000D02*
X154800000Y-75100000D01*
X147900000Y-76650000D02*
X146550000Y-76650000D01*
X153695000Y-69240000D02*
X153695000Y-70850000D01*
X152050000Y-75750000D02*
X148800000Y-75750000D01*
X154800000Y-75100000D02*
X154800000Y-76412500D01*
X153695000Y-70850000D02*
X153695000Y-73995000D01*
X148800000Y-75750000D02*
X147900000Y-76650000D01*
X149350000Y-75037500D02*
X149350000Y-74650000D01*
X145550000Y-76650000D02*
X145550000Y-76050000D01*
X146562500Y-75037500D02*
X149350000Y-75037500D01*
X145550000Y-76050000D02*
X146562500Y-75037500D01*
X149350000Y-74650000D02*
X149400000Y-74600000D01*
X152425000Y-75037500D02*
X152425000Y-69240000D01*
X149350000Y-75037500D02*
X152425000Y-75037500D01*
X153800000Y-76412500D02*
X152425000Y-75037500D01*
X156900000Y-77050000D02*
X157150000Y-77300000D01*
X156212500Y-77050000D02*
X156900000Y-77050000D01*
X149885000Y-70550000D02*
X149885000Y-73335000D01*
X149885000Y-73335000D02*
X149900000Y-73350000D01*
X149885000Y-69240000D02*
X149885000Y-70550000D01*
X148615000Y-71165000D02*
X148615000Y-69240000D01*
X156212500Y-81050000D02*
X157100000Y-81050000D01*
X149050000Y-71600000D02*
X148615000Y-71165000D01*
X149050000Y-71750000D02*
X149050000Y-71600000D01*
X147750000Y-72700000D02*
X149000000Y-72700000D01*
X147345000Y-69240000D02*
X147345000Y-72295000D01*
X147345000Y-72295000D02*
X147750000Y-72700000D01*
X156212500Y-78550000D02*
X157100000Y-78550000D01*
X145550000Y-80650000D02*
X145550000Y-82700000D01*
X146075000Y-74575000D02*
X145550000Y-75100000D01*
X146075000Y-69240000D02*
X146075000Y-74575000D01*
X146550000Y-80650000D02*
X148250000Y-80650000D01*
X144805000Y-69240000D02*
X144805000Y-73895000D01*
X144805000Y-73895000D02*
X144800000Y-73900000D01*
X147150000Y-79850000D02*
X147700000Y-79300000D01*
X142265000Y-74485000D02*
X142250000Y-74500000D01*
X146550000Y-79850000D02*
X147150000Y-79850000D01*
X142265000Y-69240000D02*
X142265000Y-74485000D01*
X158000000Y-62910000D02*
X158040000Y-62950000D01*
X158000000Y-62910000D02*
X159190000Y-62910000D01*
X159950000Y-62150000D02*
X161395000Y-62150000D01*
X161395000Y-62150000D02*
X161395000Y-60205000D01*
X161395000Y-60205000D02*
X161450000Y-60150000D01*
X159190000Y-62910000D02*
X159950000Y-62150000D01*
X162070000Y-64180000D02*
X162120000Y-64180000D01*
X158000000Y-64180000D02*
X162030000Y-64180000D01*
X162120000Y-64180000D02*
X162665000Y-63635000D01*
X162030000Y-64180000D02*
X162050000Y-64200000D01*
X162665000Y-63635000D02*
X162665000Y-62150000D01*
X162050000Y-64200000D02*
X162070000Y-64180000D01*
X167875000Y-69525000D02*
X163800000Y-65450000D01*
X163800000Y-65450000D02*
X158000000Y-65450000D01*
X167875000Y-71850000D02*
X167875000Y-72650000D01*
X167925000Y-71800000D02*
X167875000Y-71850000D01*
X167875000Y-72650000D02*
X167875000Y-69525000D01*
X167925000Y-71800000D02*
X169450000Y-71800000D01*
X166325000Y-70175000D02*
X162870000Y-66720000D01*
X162870000Y-66720000D02*
X158000000Y-66720000D01*
X164750000Y-71800000D02*
X166275000Y-71800000D01*
X166325000Y-72650000D02*
X166325000Y-70175000D01*
X166325000Y-71850000D02*
X166325000Y-72650000D01*
X166275000Y-71800000D02*
X166325000Y-71850000D01*
D45*
X118562500Y-73800000D02*
X118562500Y-72000000D01*
X118562500Y-75700000D02*
X117900001Y-75700000D01*
X117450000Y-74250001D02*
X117900001Y-73800000D01*
X117450000Y-74500000D02*
X117450000Y-74250001D01*
X117900001Y-73800000D02*
X118562500Y-73800000D01*
X117450000Y-75249999D02*
X117450000Y-74500000D01*
X117900001Y-75700000D02*
X117450000Y-75249999D01*
X115700000Y-74500000D02*
X117450000Y-74500000D01*
D44*
X150125000Y-83250000D02*
X150037500Y-83250000D01*
X154800000Y-81187500D02*
X154800000Y-81950000D01*
X124700000Y-78600000D02*
X124700000Y-77275000D01*
X101337500Y-65550000D02*
X103275000Y-65550000D01*
M02*
