G04 #@! TF.GenerationSoftware,KiCad,Pcbnew,8.0.5*
G04 #@! TF.CreationDate,2024-11-13T12:29:25-06:00*
G04 #@! TF.ProjectId,APG_Sensor_Test_Board,4150475f-5365-46e7-936f-725f54657374,rev?*
G04 #@! TF.SameCoordinates,Original*
G04 #@! TF.FileFunction,Copper,L2,Inr*
G04 #@! TF.FilePolarity,Positive*
%FSLAX46Y46*%
G04 Gerber Fmt 4.6, Leading zero omitted, Abs format (unit mm)*
G04 Created by KiCad (PCBNEW 8.0.5) date 2024-11-13 12:29:25*
%MOMM*%
%LPD*%
G01*
G04 APERTURE LIST*
G04 #@! TA.AperFunction,ComponentPad*
%ADD10R,1.700000X1.700000*%
G04 #@! TD*
G04 #@! TA.AperFunction,ComponentPad*
%ADD11O,1.700000X1.700000*%
G04 #@! TD*
G04 #@! TA.AperFunction,ComponentPad*
%ADD12O,1.000000X2.100000*%
G04 #@! TD*
G04 #@! TA.AperFunction,ComponentPad*
%ADD13O,1.000000X1.800000*%
G04 #@! TD*
G04 #@! TA.AperFunction,ComponentPad*
%ADD14C,2.000000*%
G04 #@! TD*
G04 #@! TA.AperFunction,ComponentPad*
%ADD15R,2.000000X2.000000*%
G04 #@! TD*
G04 #@! TA.AperFunction,HeatsinkPad*
%ADD16C,0.600000*%
G04 #@! TD*
G04 #@! TA.AperFunction,ViaPad*
%ADD17C,0.600000*%
G04 #@! TD*
G04 APERTURE END LIST*
D10*
X125875000Y-51850000D03*
D11*
X128415000Y-51850000D03*
D12*
X119880000Y-83845000D03*
D13*
X119880000Y-88025000D03*
D12*
X128520000Y-83845000D03*
D13*
X128520000Y-88025000D03*
D14*
X112650000Y-56050000D03*
X106150000Y-56050000D03*
X112650000Y-51550000D03*
X106150000Y-51550000D03*
X180700000Y-51550000D03*
X187200000Y-51550000D03*
X180700000Y-56050000D03*
X187200000Y-56050000D03*
D15*
X104200000Y-76400000D03*
D14*
X104200000Y-71400000D03*
X171000000Y-51550000D03*
X177500000Y-51550000D03*
X171000000Y-56050000D03*
X177500000Y-56050000D03*
X122300000Y-56050000D03*
X115800000Y-56050000D03*
X122300000Y-51550000D03*
X115800000Y-51550000D03*
D10*
X195100000Y-60355000D03*
D11*
X195100000Y-62895000D03*
D10*
X195150000Y-79420000D03*
D11*
X195150000Y-76880000D03*
X195150000Y-74340000D03*
X195150000Y-71800000D03*
X195150000Y-69260000D03*
X195150000Y-66720000D03*
D16*
X146350000Y-58500000D03*
X146350000Y-59900000D03*
X147050000Y-57800000D03*
X147050000Y-59200000D03*
X147050000Y-60600000D03*
X147750000Y-58500000D03*
X147750000Y-59900000D03*
X148450000Y-57800000D03*
X148450000Y-59200000D03*
X148450000Y-60600000D03*
X149150000Y-58500000D03*
X149150000Y-59900000D03*
D17*
X106325000Y-58750000D03*
X124700000Y-75725000D03*
X159325000Y-79550000D03*
X153750000Y-84975000D03*
X131500000Y-51025000D03*
X124700000Y-80500000D03*
X138208332Y-51200000D03*
X171300000Y-87525000D03*
X156000000Y-52250000D03*
X117012500Y-72000000D03*
X140500000Y-51480000D03*
X151950000Y-79300000D03*
X122387500Y-72000000D03*
X140475000Y-76650000D03*
X115975000Y-58750000D03*
X143550000Y-79050000D03*
X143550000Y-77450000D03*
X140475000Y-80850000D03*
X115625000Y-85250000D03*
X116000000Y-67100000D03*
X167050000Y-60600000D03*
X118562500Y-74750000D03*
X168050000Y-85925000D03*
X115625000Y-87250000D03*
X133100000Y-88000000D03*
X169000000Y-84150000D03*
X160850000Y-54950000D03*
X115675000Y-81500000D03*
X143550000Y-79850000D03*
X157850000Y-84975000D03*
X136229166Y-51200000D03*
X140500000Y-54020000D03*
X155950000Y-53800000D03*
X155300000Y-79450000D03*
X155400000Y-75300000D03*
X187225000Y-58650000D03*
X104200000Y-83025000D03*
X163100000Y-71800000D03*
X112562500Y-58750000D03*
X166500000Y-89075000D03*
X99775000Y-60150000D03*
X99812500Y-65550000D03*
X120837500Y-73000000D03*
X122212500Y-58750000D03*
X171100000Y-71800000D03*
X155800000Y-84987500D03*
X134250000Y-51100000D03*
X168700000Y-63650000D03*
X177375000Y-58650000D03*
X140462500Y-78750000D03*
X99812500Y-62900000D03*
X121800000Y-82000000D03*
X126550000Y-82000000D03*
X159650000Y-61550000D03*
X158000000Y-59100000D03*
X159950000Y-60350000D03*
X140500000Y-64180000D03*
X158000000Y-57830000D03*
X158000000Y-56560000D03*
X160250000Y-56100000D03*
X161500000Y-52750000D03*
X159750000Y-54900000D03*
X168500000Y-77150000D03*
X166300000Y-77050000D03*
X154950000Y-74100000D03*
X153850000Y-75150000D03*
X156100000Y-70950000D03*
X149950000Y-76550000D03*
X151150000Y-74400000D03*
X153695000Y-70850000D03*
X153695000Y-74050000D03*
X152050000Y-75750000D03*
X149400000Y-74600000D03*
X149885000Y-73350000D03*
X149885000Y-70550000D03*
X157150000Y-77300000D03*
X157100000Y-81050000D03*
X149050000Y-71750000D03*
X157100000Y-78550000D03*
X147345000Y-72295000D03*
X149000000Y-72700000D03*
X145550000Y-82700000D03*
X145550000Y-75100000D03*
X144800000Y-73900000D03*
X148250000Y-80650000D03*
X147700000Y-79300000D03*
X142250000Y-74500000D03*
X161450000Y-60150000D03*
X162050000Y-64200000D03*
X154800000Y-81950000D03*
X150125000Y-83250000D03*
X140500000Y-65450000D03*
G04 #@! TA.AperFunction,Conductor*
G36*
X104881820Y-50520185D02*
G01*
X104927575Y-50572989D01*
X104937519Y-50642147D01*
X104918590Y-50692321D01*
X104826267Y-50833632D01*
X104726412Y-51061282D01*
X104665387Y-51302261D01*
X104665385Y-51302270D01*
X104644859Y-51549994D01*
X104644859Y-51550005D01*
X104665385Y-51797729D01*
X104665387Y-51797738D01*
X104726412Y-52038717D01*
X104826266Y-52266364D01*
X104926564Y-52419882D01*
X105626212Y-51720233D01*
X105637482Y-51762292D01*
X105709890Y-51887708D01*
X105812292Y-51990110D01*
X105937708Y-52062518D01*
X105979765Y-52073787D01*
X105279942Y-52773609D01*
X105326768Y-52810055D01*
X105326770Y-52810056D01*
X105545385Y-52928364D01*
X105545396Y-52928369D01*
X105780506Y-53009083D01*
X106025707Y-53050000D01*
X106274293Y-53050000D01*
X106519493Y-53009083D01*
X106754603Y-52928369D01*
X106754614Y-52928364D01*
X106973228Y-52810057D01*
X106973231Y-52810055D01*
X107020056Y-52773609D01*
X106320234Y-52073787D01*
X106362292Y-52062518D01*
X106487708Y-51990110D01*
X106590110Y-51887708D01*
X106662518Y-51762292D01*
X106673787Y-51720235D01*
X107373434Y-52419882D01*
X107473731Y-52266369D01*
X107573587Y-52038717D01*
X107634612Y-51797738D01*
X107634614Y-51797729D01*
X107655141Y-51550005D01*
X107655141Y-51549994D01*
X107634614Y-51302270D01*
X107634612Y-51302261D01*
X107573587Y-51061282D01*
X107473732Y-50833632D01*
X107381410Y-50692321D01*
X107361222Y-50625431D01*
X107380403Y-50558246D01*
X107432862Y-50512096D01*
X107485219Y-50500500D01*
X111314781Y-50500500D01*
X111381820Y-50520185D01*
X111427575Y-50572989D01*
X111437519Y-50642147D01*
X111418590Y-50692321D01*
X111326267Y-50833632D01*
X111226412Y-51061282D01*
X111165387Y-51302261D01*
X111165385Y-51302270D01*
X111144859Y-51549994D01*
X111144859Y-51550005D01*
X111165385Y-51797729D01*
X111165387Y-51797738D01*
X111226412Y-52038717D01*
X111326266Y-52266364D01*
X111426564Y-52419882D01*
X112126212Y-51720233D01*
X112137482Y-51762292D01*
X112209890Y-51887708D01*
X112312292Y-51990110D01*
X112437708Y-52062518D01*
X112479765Y-52073787D01*
X111779942Y-52773609D01*
X111826768Y-52810055D01*
X111826770Y-52810056D01*
X112045385Y-52928364D01*
X112045396Y-52928369D01*
X112280506Y-53009083D01*
X112525707Y-53050000D01*
X112774293Y-53050000D01*
X113019493Y-53009083D01*
X113254603Y-52928369D01*
X113254614Y-52928364D01*
X113473228Y-52810057D01*
X113473231Y-52810055D01*
X113520056Y-52773609D01*
X112820234Y-52073787D01*
X112862292Y-52062518D01*
X112987708Y-51990110D01*
X113090110Y-51887708D01*
X113162518Y-51762292D01*
X113173787Y-51720235D01*
X113873434Y-52419882D01*
X113973731Y-52266369D01*
X114073588Y-52038716D01*
X114104794Y-51915489D01*
X114140334Y-51855333D01*
X114202754Y-51823941D01*
X114272237Y-51831279D01*
X114326723Y-51875018D01*
X114345206Y-51915489D01*
X114376411Y-52038716D01*
X114476266Y-52266364D01*
X114576564Y-52419882D01*
X115276212Y-51720233D01*
X115287482Y-51762292D01*
X115359890Y-51887708D01*
X115462292Y-51990110D01*
X115587708Y-52062518D01*
X115629765Y-52073787D01*
X114929942Y-52773609D01*
X114976768Y-52810055D01*
X114976770Y-52810056D01*
X115195385Y-52928364D01*
X115195396Y-52928369D01*
X115430506Y-53009083D01*
X115675707Y-53050000D01*
X115924293Y-53050000D01*
X116169493Y-53009083D01*
X116404603Y-52928369D01*
X116404614Y-52928364D01*
X116623228Y-52810057D01*
X116623231Y-52810055D01*
X116670056Y-52773609D01*
X115970234Y-52073787D01*
X116012292Y-52062518D01*
X116137708Y-51990110D01*
X116240110Y-51887708D01*
X116312518Y-51762292D01*
X116323787Y-51720235D01*
X117023434Y-52419882D01*
X117123731Y-52266369D01*
X117223587Y-52038717D01*
X117284612Y-51797738D01*
X117284614Y-51797729D01*
X117305141Y-51550005D01*
X117305141Y-51549994D01*
X117284614Y-51302270D01*
X117284612Y-51302261D01*
X117223587Y-51061282D01*
X117123732Y-50833632D01*
X117031410Y-50692321D01*
X117011222Y-50625431D01*
X117030403Y-50558246D01*
X117082862Y-50512096D01*
X117135219Y-50500500D01*
X120964781Y-50500500D01*
X121031820Y-50520185D01*
X121077575Y-50572989D01*
X121087519Y-50642147D01*
X121068590Y-50692321D01*
X120976267Y-50833632D01*
X120876412Y-51061282D01*
X120815387Y-51302261D01*
X120815385Y-51302270D01*
X120794859Y-51549994D01*
X120794859Y-51550005D01*
X120815385Y-51797729D01*
X120815387Y-51797738D01*
X120876412Y-52038717D01*
X120976266Y-52266364D01*
X121076564Y-52419882D01*
X121776212Y-51720233D01*
X121787482Y-51762292D01*
X121859890Y-51887708D01*
X121962292Y-51990110D01*
X122087708Y-52062518D01*
X122129765Y-52073787D01*
X121429942Y-52773609D01*
X121476768Y-52810055D01*
X121476770Y-52810056D01*
X121695385Y-52928364D01*
X121695396Y-52928369D01*
X121930506Y-53009083D01*
X122175707Y-53050000D01*
X122424293Y-53050000D01*
X122669493Y-53009083D01*
X122904603Y-52928369D01*
X122904614Y-52928364D01*
X123123228Y-52810057D01*
X123123231Y-52810055D01*
X123170056Y-52773609D01*
X122470234Y-52073787D01*
X122512292Y-52062518D01*
X122637708Y-51990110D01*
X122740110Y-51887708D01*
X122812518Y-51762292D01*
X122823787Y-51720235D01*
X123523434Y-52419882D01*
X123623731Y-52266369D01*
X123723587Y-52038717D01*
X123784612Y-51797738D01*
X123784614Y-51797729D01*
X123805141Y-51550005D01*
X123805141Y-51549994D01*
X123784614Y-51302270D01*
X123784612Y-51302261D01*
X123723587Y-51061282D01*
X123623732Y-50833632D01*
X123531410Y-50692321D01*
X123511222Y-50625431D01*
X123530403Y-50558246D01*
X123582862Y-50512096D01*
X123635219Y-50500500D01*
X124526623Y-50500500D01*
X124593662Y-50520185D01*
X124639417Y-50572989D01*
X124649361Y-50642147D01*
X124625889Y-50698812D01*
X124581647Y-50757910D01*
X124581645Y-50757913D01*
X124531403Y-50892620D01*
X124531401Y-50892627D01*
X124525000Y-50952155D01*
X124525000Y-51600000D01*
X125441988Y-51600000D01*
X125409075Y-51657007D01*
X125375000Y-51784174D01*
X125375000Y-51915826D01*
X125409075Y-52042993D01*
X125441988Y-52100000D01*
X124525000Y-52100000D01*
X124525000Y-52747844D01*
X124531401Y-52807372D01*
X124531403Y-52807379D01*
X124581645Y-52942086D01*
X124581649Y-52942093D01*
X124667809Y-53057187D01*
X124667812Y-53057190D01*
X124782906Y-53143350D01*
X124782913Y-53143354D01*
X124917620Y-53193596D01*
X124917627Y-53193598D01*
X124977155Y-53199999D01*
X124977172Y-53200000D01*
X125625000Y-53200000D01*
X125625000Y-52283012D01*
X125682007Y-52315925D01*
X125809174Y-52350000D01*
X125940826Y-52350000D01*
X126067993Y-52315925D01*
X126125000Y-52283012D01*
X126125000Y-53200000D01*
X126772828Y-53200000D01*
X126772844Y-53199999D01*
X126832372Y-53193598D01*
X126832379Y-53193596D01*
X126967086Y-53143354D01*
X126967093Y-53143350D01*
X127082187Y-53057190D01*
X127082190Y-53057187D01*
X127168350Y-52942093D01*
X127168354Y-52942086D01*
X127218596Y-52807379D01*
X127218598Y-52807372D01*
X127224999Y-52747844D01*
X127225000Y-52747827D01*
X127225000Y-52347186D01*
X127244685Y-52280147D01*
X127297489Y-52234392D01*
X127366647Y-52224448D01*
X127430203Y-52253473D01*
X127458356Y-52288729D01*
X127537315Y-52436450D01*
X127537317Y-52436452D01*
X127668589Y-52596410D01*
X127708602Y-52629247D01*
X127828550Y-52727685D01*
X128011046Y-52825232D01*
X128209066Y-52885300D01*
X128209065Y-52885300D01*
X128227529Y-52887118D01*
X128415000Y-52905583D01*
X128620934Y-52885300D01*
X128818954Y-52825232D01*
X128959702Y-52750000D01*
X160994353Y-52750000D01*
X161014834Y-52892456D01*
X161037500Y-52942086D01*
X161074623Y-53023373D01*
X161168872Y-53132143D01*
X161289947Y-53209953D01*
X161289950Y-53209954D01*
X161289949Y-53209954D01*
X161428036Y-53250499D01*
X161428038Y-53250500D01*
X161428039Y-53250500D01*
X161571962Y-53250500D01*
X161571962Y-53250499D01*
X161710053Y-53209953D01*
X161831128Y-53132143D01*
X161925377Y-53023373D01*
X161985165Y-52892457D01*
X162005647Y-52750000D01*
X161985165Y-52607543D01*
X161925377Y-52476627D01*
X161831128Y-52367857D01*
X161710053Y-52290047D01*
X161710051Y-52290046D01*
X161710049Y-52290045D01*
X161710050Y-52290045D01*
X161571963Y-52249500D01*
X161571961Y-52249500D01*
X161428039Y-52249500D01*
X161428036Y-52249500D01*
X161289949Y-52290045D01*
X161168873Y-52367856D01*
X161074623Y-52476626D01*
X161074622Y-52476628D01*
X161014834Y-52607543D01*
X160994353Y-52750000D01*
X128959702Y-52750000D01*
X129001450Y-52727685D01*
X129161410Y-52596410D01*
X129292685Y-52436450D01*
X129390232Y-52253954D01*
X129450300Y-52055934D01*
X129470583Y-51850000D01*
X129450300Y-51644066D01*
X129390232Y-51446046D01*
X129292685Y-51263550D01*
X129227820Y-51184511D01*
X129161410Y-51103589D01*
X129001452Y-50972317D01*
X129001453Y-50972317D01*
X129001450Y-50972315D01*
X128818954Y-50874768D01*
X128620934Y-50814700D01*
X128620932Y-50814699D01*
X128620934Y-50814699D01*
X128415000Y-50794417D01*
X128209067Y-50814699D01*
X128011043Y-50874769D01*
X127900898Y-50933643D01*
X127828550Y-50972315D01*
X127828548Y-50972316D01*
X127828547Y-50972317D01*
X127668589Y-51103589D01*
X127547907Y-51250643D01*
X127537315Y-51263550D01*
X127465887Y-51397181D01*
X127458358Y-51411267D01*
X127409395Y-51461111D01*
X127341257Y-51476571D01*
X127275578Y-51452739D01*
X127233209Y-51397181D01*
X127225000Y-51352813D01*
X127225000Y-50952172D01*
X127224999Y-50952155D01*
X127218598Y-50892627D01*
X127218596Y-50892620D01*
X127168354Y-50757913D01*
X127168352Y-50757910D01*
X127124111Y-50698812D01*
X127099693Y-50633348D01*
X127114544Y-50565074D01*
X127163949Y-50515669D01*
X127223377Y-50500500D01*
X133837259Y-50500500D01*
X133904298Y-50520185D01*
X133950053Y-50572989D01*
X133959997Y-50642147D01*
X133930972Y-50705703D01*
X133919233Y-50717440D01*
X133824623Y-50826626D01*
X133824622Y-50826628D01*
X133764834Y-50957543D01*
X133744353Y-51100000D01*
X133764834Y-51242456D01*
X133808335Y-51337708D01*
X133824623Y-51373373D01*
X133918872Y-51482143D01*
X134039947Y-51559953D01*
X134039950Y-51559954D01*
X134039949Y-51559954D01*
X134147107Y-51591417D01*
X134176336Y-51600000D01*
X134178036Y-51600499D01*
X134178038Y-51600500D01*
X134178039Y-51600500D01*
X134321962Y-51600500D01*
X134321962Y-51600499D01*
X134460053Y-51559953D01*
X134581128Y-51482143D01*
X134675377Y-51373373D01*
X134735165Y-51242457D01*
X134755647Y-51100000D01*
X134735165Y-50957543D01*
X134675377Y-50826627D01*
X134581128Y-50717857D01*
X134581126Y-50717855D01*
X134575320Y-50711155D01*
X134576401Y-50710218D01*
X134543764Y-50659435D01*
X134543764Y-50589566D01*
X134581538Y-50530787D01*
X134645093Y-50501762D01*
X134662741Y-50500500D01*
X170049204Y-50500500D01*
X170116243Y-50520185D01*
X170161998Y-50572989D01*
X170171942Y-50642147D01*
X170142917Y-50705703D01*
X170132742Y-50716137D01*
X170109020Y-50737761D01*
X169974943Y-50915308D01*
X169974938Y-50915316D01*
X169875775Y-51114461D01*
X169875769Y-51114476D01*
X169814885Y-51328462D01*
X169814884Y-51328464D01*
X169794357Y-51549999D01*
X169794357Y-51550000D01*
X169814884Y-51771535D01*
X169814885Y-51771537D01*
X169875769Y-51985523D01*
X169875775Y-51985538D01*
X169974938Y-52184683D01*
X169974943Y-52184691D01*
X170109020Y-52362238D01*
X170273437Y-52512123D01*
X170273439Y-52512125D01*
X170462595Y-52629245D01*
X170462596Y-52629245D01*
X170462599Y-52629247D01*
X170670060Y-52709618D01*
X170888757Y-52750500D01*
X170888759Y-52750500D01*
X171111241Y-52750500D01*
X171111243Y-52750500D01*
X171329940Y-52709618D01*
X171537401Y-52629247D01*
X171726562Y-52512124D01*
X171890981Y-52362236D01*
X172025058Y-52184689D01*
X172124229Y-51985528D01*
X172185115Y-51771536D01*
X172205643Y-51550000D01*
X172205642Y-51549994D01*
X172185115Y-51328464D01*
X172185114Y-51328462D01*
X172177659Y-51302261D01*
X172124229Y-51114472D01*
X172124224Y-51114461D01*
X172025061Y-50915316D01*
X172025056Y-50915308D01*
X171890979Y-50737761D01*
X171867258Y-50716137D01*
X171830976Y-50656426D01*
X171832737Y-50586578D01*
X171871981Y-50528771D01*
X171936247Y-50501356D01*
X171950796Y-50500500D01*
X176549204Y-50500500D01*
X176616243Y-50520185D01*
X176661998Y-50572989D01*
X176671942Y-50642147D01*
X176642917Y-50705703D01*
X176632742Y-50716137D01*
X176609020Y-50737761D01*
X176474943Y-50915308D01*
X176474938Y-50915316D01*
X176375775Y-51114461D01*
X176375769Y-51114476D01*
X176314885Y-51328462D01*
X176314884Y-51328464D01*
X176294357Y-51549999D01*
X176294357Y-51550000D01*
X176314884Y-51771535D01*
X176314885Y-51771537D01*
X176375769Y-51985523D01*
X176375775Y-51985538D01*
X176474938Y-52184683D01*
X176474943Y-52184691D01*
X176609020Y-52362238D01*
X176773437Y-52512123D01*
X176773439Y-52512125D01*
X176962595Y-52629245D01*
X176962596Y-52629245D01*
X176962599Y-52629247D01*
X177170060Y-52709618D01*
X177388757Y-52750500D01*
X177388759Y-52750500D01*
X177611241Y-52750500D01*
X177611243Y-52750500D01*
X177829940Y-52709618D01*
X178037401Y-52629247D01*
X178226562Y-52512124D01*
X178390981Y-52362236D01*
X178525058Y-52184689D01*
X178624229Y-51985528D01*
X178685115Y-51771536D01*
X178705643Y-51550000D01*
X178705642Y-51549994D01*
X178685115Y-51328464D01*
X178685114Y-51328462D01*
X178677659Y-51302261D01*
X178624229Y-51114472D01*
X178624224Y-51114461D01*
X178525061Y-50915316D01*
X178525056Y-50915308D01*
X178390979Y-50737761D01*
X178367258Y-50716137D01*
X178330976Y-50656426D01*
X178332737Y-50586578D01*
X178371981Y-50528771D01*
X178436247Y-50501356D01*
X178450796Y-50500500D01*
X179749204Y-50500500D01*
X179816243Y-50520185D01*
X179861998Y-50572989D01*
X179871942Y-50642147D01*
X179842917Y-50705703D01*
X179832742Y-50716137D01*
X179809020Y-50737761D01*
X179674943Y-50915308D01*
X179674938Y-50915316D01*
X179575775Y-51114461D01*
X179575769Y-51114476D01*
X179514885Y-51328462D01*
X179514884Y-51328464D01*
X179494357Y-51549999D01*
X179494357Y-51550000D01*
X179514884Y-51771535D01*
X179514885Y-51771537D01*
X179575769Y-51985523D01*
X179575775Y-51985538D01*
X179674938Y-52184683D01*
X179674943Y-52184691D01*
X179809020Y-52362238D01*
X179973437Y-52512123D01*
X179973439Y-52512125D01*
X180162595Y-52629245D01*
X180162596Y-52629245D01*
X180162599Y-52629247D01*
X180370060Y-52709618D01*
X180588757Y-52750500D01*
X180588759Y-52750500D01*
X180811241Y-52750500D01*
X180811243Y-52750500D01*
X181029940Y-52709618D01*
X181237401Y-52629247D01*
X181426562Y-52512124D01*
X181590981Y-52362236D01*
X181725058Y-52184689D01*
X181824229Y-51985528D01*
X181885115Y-51771536D01*
X181905643Y-51550000D01*
X181905642Y-51549994D01*
X181885115Y-51328464D01*
X181885114Y-51328462D01*
X181877659Y-51302261D01*
X181824229Y-51114472D01*
X181824224Y-51114461D01*
X181725061Y-50915316D01*
X181725056Y-50915308D01*
X181590979Y-50737761D01*
X181567258Y-50716137D01*
X181530976Y-50656426D01*
X181532737Y-50586578D01*
X181571981Y-50528771D01*
X181636247Y-50501356D01*
X181650796Y-50500500D01*
X186249204Y-50500500D01*
X186316243Y-50520185D01*
X186361998Y-50572989D01*
X186371942Y-50642147D01*
X186342917Y-50705703D01*
X186332742Y-50716137D01*
X186309020Y-50737761D01*
X186174943Y-50915308D01*
X186174938Y-50915316D01*
X186075775Y-51114461D01*
X186075769Y-51114476D01*
X186014885Y-51328462D01*
X186014884Y-51328464D01*
X185994357Y-51549999D01*
X185994357Y-51550000D01*
X186014884Y-51771535D01*
X186014885Y-51771537D01*
X186075769Y-51985523D01*
X186075775Y-51985538D01*
X186174938Y-52184683D01*
X186174943Y-52184691D01*
X186309020Y-52362238D01*
X186473437Y-52512123D01*
X186473439Y-52512125D01*
X186662595Y-52629245D01*
X186662596Y-52629245D01*
X186662599Y-52629247D01*
X186870060Y-52709618D01*
X187088757Y-52750500D01*
X187088759Y-52750500D01*
X187311241Y-52750500D01*
X187311243Y-52750500D01*
X187529940Y-52709618D01*
X187737401Y-52629247D01*
X187926562Y-52512124D01*
X188090981Y-52362236D01*
X188225058Y-52184689D01*
X188324229Y-51985528D01*
X188385115Y-51771536D01*
X188405643Y-51550000D01*
X188405642Y-51549994D01*
X188385115Y-51328464D01*
X188385114Y-51328462D01*
X188377659Y-51302261D01*
X188324229Y-51114472D01*
X188324224Y-51114461D01*
X188225061Y-50915316D01*
X188225056Y-50915308D01*
X188090979Y-50737761D01*
X188067258Y-50716137D01*
X188030976Y-50656426D01*
X188032737Y-50586578D01*
X188071981Y-50528771D01*
X188136247Y-50501356D01*
X188150796Y-50500500D01*
X194434108Y-50500500D01*
X194495933Y-50500500D01*
X194504043Y-50500765D01*
X194752895Y-50517075D01*
X194768953Y-50519190D01*
X194965300Y-50558246D01*
X195009535Y-50567045D01*
X195025202Y-50571243D01*
X195184836Y-50625431D01*
X195257481Y-50650091D01*
X195272458Y-50656294D01*
X195437657Y-50737761D01*
X195492460Y-50764787D01*
X195506508Y-50772897D01*
X195710464Y-50909177D01*
X195723325Y-50919045D01*
X195815636Y-51000000D01*
X195907749Y-51080781D01*
X195919218Y-51092250D01*
X196069441Y-51263547D01*
X196080951Y-51276671D01*
X196090824Y-51289537D01*
X196099332Y-51302270D01*
X196227102Y-51493492D01*
X196235212Y-51507539D01*
X196343702Y-51727534D01*
X196349909Y-51742520D01*
X196428756Y-51974797D01*
X196432954Y-51990464D01*
X196480807Y-52231035D01*
X196482925Y-52247116D01*
X196499235Y-52495956D01*
X196499500Y-52504066D01*
X196499500Y-88095933D01*
X196499235Y-88104043D01*
X196482925Y-88352883D01*
X196480807Y-88368964D01*
X196432954Y-88609535D01*
X196428756Y-88625202D01*
X196349909Y-88857479D01*
X196343702Y-88872465D01*
X196235212Y-89092460D01*
X196227102Y-89106507D01*
X196090825Y-89310460D01*
X196080951Y-89323328D01*
X195919218Y-89507749D01*
X195907749Y-89519218D01*
X195723328Y-89680951D01*
X195710460Y-89690825D01*
X195506507Y-89827102D01*
X195492460Y-89835212D01*
X195272465Y-89943702D01*
X195257479Y-89949909D01*
X195025202Y-90028756D01*
X195009535Y-90032954D01*
X194768964Y-90080807D01*
X194752883Y-90082925D01*
X194504073Y-90099233D01*
X194495898Y-90099498D01*
X99574239Y-90049538D01*
X99573657Y-90049500D01*
X99565892Y-90049500D01*
X99504074Y-90049500D01*
X99495964Y-90049235D01*
X99247115Y-90032925D01*
X99231037Y-90030807D01*
X99158696Y-90016418D01*
X98990463Y-89982954D01*
X98974797Y-89978756D01*
X98742520Y-89899909D01*
X98727534Y-89893702D01*
X98507539Y-89785212D01*
X98493492Y-89777102D01*
X98289539Y-89640825D01*
X98276671Y-89630951D01*
X98092250Y-89469218D01*
X98080781Y-89457749D01*
X97919048Y-89273328D01*
X97909174Y-89260460D01*
X97880440Y-89217457D01*
X97779167Y-89065891D01*
X97772897Y-89056507D01*
X97764787Y-89042460D01*
X97712370Y-88936169D01*
X97656294Y-88822458D01*
X97650090Y-88807479D01*
X97571243Y-88575202D01*
X97567045Y-88559535D01*
X97556407Y-88506054D01*
X97519190Y-88318953D01*
X97517075Y-88302895D01*
X97500765Y-88054043D01*
X97500500Y-88045933D01*
X97500500Y-86628711D01*
X98949500Y-86628711D01*
X98949500Y-86871288D01*
X98981161Y-87111785D01*
X99043947Y-87346104D01*
X99118673Y-87526508D01*
X99136776Y-87570212D01*
X99258064Y-87780289D01*
X99258066Y-87780292D01*
X99258067Y-87780293D01*
X99405733Y-87972736D01*
X99405739Y-87972743D01*
X99577256Y-88144260D01*
X99577262Y-88144265D01*
X99769711Y-88291936D01*
X99979788Y-88413224D01*
X100203900Y-88506054D01*
X100438211Y-88568838D01*
X100618586Y-88592584D01*
X100678711Y-88600500D01*
X100678712Y-88600500D01*
X100921289Y-88600500D01*
X100969388Y-88594167D01*
X101161789Y-88568838D01*
X101396100Y-88506054D01*
X101620212Y-88413224D01*
X101830289Y-88291936D01*
X102022738Y-88144265D01*
X102194265Y-87972738D01*
X102341936Y-87780289D01*
X102463224Y-87570212D01*
X102481328Y-87526504D01*
X118880000Y-87526504D01*
X118880000Y-87775000D01*
X119580000Y-87775000D01*
X119580000Y-88275000D01*
X118880000Y-88275000D01*
X118880000Y-88523495D01*
X118918427Y-88716681D01*
X118918430Y-88716693D01*
X118993807Y-88898671D01*
X118993814Y-88898684D01*
X119103248Y-89062462D01*
X119103251Y-89062466D01*
X119242533Y-89201748D01*
X119242537Y-89201751D01*
X119406315Y-89311185D01*
X119406328Y-89311192D01*
X119588308Y-89386569D01*
X119630000Y-89394862D01*
X119630000Y-88591988D01*
X119639940Y-88609205D01*
X119695795Y-88665060D01*
X119764204Y-88704556D01*
X119840504Y-88725000D01*
X119919496Y-88725000D01*
X119995796Y-88704556D01*
X120064205Y-88665060D01*
X120120060Y-88609205D01*
X120130000Y-88591988D01*
X120130000Y-89394862D01*
X120171690Y-89386569D01*
X120171692Y-89386569D01*
X120353671Y-89311192D01*
X120353684Y-89311185D01*
X120517462Y-89201751D01*
X120517466Y-89201748D01*
X120656748Y-89062466D01*
X120656751Y-89062462D01*
X120766185Y-88898684D01*
X120766192Y-88898671D01*
X120841569Y-88716693D01*
X120841572Y-88716681D01*
X120879999Y-88523495D01*
X120880000Y-88523492D01*
X120880000Y-88275000D01*
X120180000Y-88275000D01*
X120180000Y-87775000D01*
X120880000Y-87775000D01*
X120880000Y-87526508D01*
X120879999Y-87526504D01*
X127520000Y-87526504D01*
X127520000Y-87775000D01*
X128220000Y-87775000D01*
X128220000Y-88275000D01*
X127520000Y-88275000D01*
X127520000Y-88523495D01*
X127558427Y-88716681D01*
X127558430Y-88716693D01*
X127633807Y-88898671D01*
X127633814Y-88898684D01*
X127743248Y-89062462D01*
X127743251Y-89062466D01*
X127882533Y-89201748D01*
X127882537Y-89201751D01*
X128046315Y-89311185D01*
X128046328Y-89311192D01*
X128228308Y-89386569D01*
X128270000Y-89394862D01*
X128270000Y-88591988D01*
X128279940Y-88609205D01*
X128335795Y-88665060D01*
X128404204Y-88704556D01*
X128480504Y-88725000D01*
X128559496Y-88725000D01*
X128635796Y-88704556D01*
X128704205Y-88665060D01*
X128760060Y-88609205D01*
X128770000Y-88591988D01*
X128770000Y-89394862D01*
X128811690Y-89386569D01*
X128811692Y-89386569D01*
X128993671Y-89311192D01*
X128993684Y-89311185D01*
X129157462Y-89201751D01*
X129157466Y-89201748D01*
X129296748Y-89062466D01*
X129296751Y-89062462D01*
X129406185Y-88898684D01*
X129406192Y-88898671D01*
X129481569Y-88716693D01*
X129481572Y-88716681D01*
X129519999Y-88523495D01*
X129520000Y-88523492D01*
X129520000Y-88275000D01*
X128820000Y-88275000D01*
X128820000Y-87775000D01*
X129520000Y-87775000D01*
X129520000Y-87526508D01*
X129519999Y-87526504D01*
X129481572Y-87333318D01*
X129481569Y-87333306D01*
X129406192Y-87151328D01*
X129406185Y-87151315D01*
X129296751Y-86987537D01*
X129296748Y-86987533D01*
X129157466Y-86848251D01*
X129157462Y-86848248D01*
X128993684Y-86738814D01*
X128993671Y-86738807D01*
X128811691Y-86663429D01*
X128811683Y-86663427D01*
X128770000Y-86655135D01*
X128770000Y-87458011D01*
X128760060Y-87440795D01*
X128704205Y-87384940D01*
X128635796Y-87345444D01*
X128559496Y-87325000D01*
X128480504Y-87325000D01*
X128404204Y-87345444D01*
X128335795Y-87384940D01*
X128279940Y-87440795D01*
X128270000Y-87458011D01*
X128270000Y-86655136D01*
X128269999Y-86655135D01*
X128228316Y-86663427D01*
X128228308Y-86663429D01*
X128046328Y-86738807D01*
X128046315Y-86738814D01*
X127882537Y-86848248D01*
X127882533Y-86848251D01*
X127743251Y-86987533D01*
X127743248Y-86987537D01*
X127633814Y-87151315D01*
X127633807Y-87151328D01*
X127558430Y-87333306D01*
X127558427Y-87333318D01*
X127520000Y-87526504D01*
X120879999Y-87526504D01*
X120841572Y-87333318D01*
X120841569Y-87333306D01*
X120766192Y-87151328D01*
X120766185Y-87151315D01*
X120656751Y-86987537D01*
X120656748Y-86987533D01*
X120517466Y-86848251D01*
X120517462Y-86848248D01*
X120353684Y-86738814D01*
X120353671Y-86738807D01*
X120171691Y-86663429D01*
X120171683Y-86663427D01*
X120130000Y-86655135D01*
X120130000Y-87458011D01*
X120120060Y-87440795D01*
X120064205Y-87384940D01*
X119995796Y-87345444D01*
X119919496Y-87325000D01*
X119840504Y-87325000D01*
X119764204Y-87345444D01*
X119695795Y-87384940D01*
X119639940Y-87440795D01*
X119630000Y-87458011D01*
X119630000Y-86655136D01*
X119629999Y-86655135D01*
X119588316Y-86663427D01*
X119588308Y-86663429D01*
X119406328Y-86738807D01*
X119406315Y-86738814D01*
X119242537Y-86848248D01*
X119242533Y-86848251D01*
X119103251Y-86987533D01*
X119103248Y-86987537D01*
X118993814Y-87151315D01*
X118993807Y-87151328D01*
X118918430Y-87333306D01*
X118918427Y-87333318D01*
X118880000Y-87526504D01*
X102481328Y-87526504D01*
X102556054Y-87346100D01*
X102618838Y-87111789D01*
X102650500Y-86871288D01*
X102650500Y-86628712D01*
X102618838Y-86388211D01*
X102556054Y-86153900D01*
X102463224Y-85929788D01*
X102341936Y-85719711D01*
X102194265Y-85527262D01*
X102194260Y-85527256D01*
X102022743Y-85355739D01*
X102022736Y-85355733D01*
X101830293Y-85208067D01*
X101830292Y-85208066D01*
X101830289Y-85208064D01*
X101620212Y-85086776D01*
X101620205Y-85086773D01*
X101396104Y-84993947D01*
X101161785Y-84931161D01*
X100921289Y-84899500D01*
X100921288Y-84899500D01*
X100678712Y-84899500D01*
X100678711Y-84899500D01*
X100438214Y-84931161D01*
X100203895Y-84993947D01*
X99979794Y-85086773D01*
X99979785Y-85086777D01*
X99769706Y-85208067D01*
X99577263Y-85355733D01*
X99577256Y-85355739D01*
X99405739Y-85527256D01*
X99405733Y-85527263D01*
X99258067Y-85719706D01*
X99136777Y-85929785D01*
X99136773Y-85929794D01*
X99043947Y-86153895D01*
X98981161Y-86388214D01*
X98949500Y-86628711D01*
X97500500Y-86628711D01*
X97500500Y-83025000D01*
X103694353Y-83025000D01*
X103714834Y-83167456D01*
X103755045Y-83255504D01*
X103774623Y-83298373D01*
X103868872Y-83407143D01*
X103989947Y-83484953D01*
X103989950Y-83484954D01*
X103989949Y-83484954D01*
X104097107Y-83516417D01*
X104120788Y-83523371D01*
X104128036Y-83525499D01*
X104128038Y-83525500D01*
X104128039Y-83525500D01*
X104271962Y-83525500D01*
X104271962Y-83525499D01*
X104410053Y-83484953D01*
X104531128Y-83407143D01*
X104625377Y-83298373D01*
X104671900Y-83196504D01*
X118880000Y-83196504D01*
X118880000Y-83595000D01*
X119580000Y-83595000D01*
X119580000Y-84095000D01*
X118880000Y-84095000D01*
X118880000Y-84493495D01*
X118918427Y-84686681D01*
X118918430Y-84686693D01*
X118993807Y-84868671D01*
X118993814Y-84868684D01*
X119103248Y-85032462D01*
X119103251Y-85032466D01*
X119242533Y-85171748D01*
X119242537Y-85171751D01*
X119406315Y-85281185D01*
X119406328Y-85281192D01*
X119588308Y-85356569D01*
X119630000Y-85364862D01*
X119630000Y-84561988D01*
X119639940Y-84579205D01*
X119695795Y-84635060D01*
X119764204Y-84674556D01*
X119840504Y-84695000D01*
X119919496Y-84695000D01*
X119995796Y-84674556D01*
X120064205Y-84635060D01*
X120120060Y-84579205D01*
X120130000Y-84561988D01*
X120130000Y-85364862D01*
X120171690Y-85356569D01*
X120171692Y-85356569D01*
X120353671Y-85281192D01*
X120353684Y-85281185D01*
X120517462Y-85171751D01*
X120517466Y-85171748D01*
X120656748Y-85032466D01*
X120656751Y-85032462D01*
X120766185Y-84868684D01*
X120766186Y-84868682D01*
X120770129Y-84859163D01*
X120813968Y-84804757D01*
X120880261Y-84782689D01*
X120947961Y-84799965D01*
X120953400Y-84803647D01*
X120956634Y-84805514D01*
X120956635Y-84805515D01*
X121087865Y-84881281D01*
X121234234Y-84920500D01*
X121234236Y-84920500D01*
X121385764Y-84920500D01*
X121385766Y-84920500D01*
X121532135Y-84881281D01*
X121663365Y-84805515D01*
X121770515Y-84698365D01*
X121846281Y-84567135D01*
X121885500Y-84420766D01*
X121885500Y-84269234D01*
X126514500Y-84269234D01*
X126514500Y-84420765D01*
X126553719Y-84567136D01*
X126591602Y-84632750D01*
X126629485Y-84698365D01*
X126736635Y-84805515D01*
X126867865Y-84881281D01*
X127014234Y-84920500D01*
X127014236Y-84920500D01*
X127165764Y-84920500D01*
X127165766Y-84920500D01*
X127312135Y-84881281D01*
X127443365Y-84805515D01*
X127443366Y-84805513D01*
X127450403Y-84801451D01*
X127451676Y-84803656D01*
X127504956Y-84783043D01*
X127573405Y-84797063D01*
X127623407Y-84845864D01*
X127629867Y-84859157D01*
X127633809Y-84868674D01*
X127633814Y-84868684D01*
X127743248Y-85032462D01*
X127743251Y-85032466D01*
X127882533Y-85171748D01*
X127882537Y-85171751D01*
X128046315Y-85281185D01*
X128046328Y-85281192D01*
X128228308Y-85356569D01*
X128270000Y-85364862D01*
X128270000Y-84561988D01*
X128279940Y-84579205D01*
X128335795Y-84635060D01*
X128404204Y-84674556D01*
X128480504Y-84695000D01*
X128559496Y-84695000D01*
X128635796Y-84674556D01*
X128704205Y-84635060D01*
X128760060Y-84579205D01*
X128770000Y-84561988D01*
X128770000Y-85364862D01*
X128811690Y-85356569D01*
X128811692Y-85356569D01*
X128993671Y-85281192D01*
X128993684Y-85281185D01*
X129157462Y-85171751D01*
X129157466Y-85171748D01*
X129296748Y-85032466D01*
X129296751Y-85032462D01*
X129326794Y-84987500D01*
X155294353Y-84987500D01*
X155314834Y-85129956D01*
X155350507Y-85208067D01*
X155374623Y-85260873D01*
X155468872Y-85369643D01*
X155589947Y-85447453D01*
X155589950Y-85447454D01*
X155589949Y-85447454D01*
X155728036Y-85487999D01*
X155728038Y-85488000D01*
X155728039Y-85488000D01*
X155871962Y-85488000D01*
X155871962Y-85487999D01*
X156010053Y-85447453D01*
X156131128Y-85369643D01*
X156225377Y-85260873D01*
X156285165Y-85129957D01*
X156305647Y-84987500D01*
X156285165Y-84845043D01*
X156225377Y-84714127D01*
X156131128Y-84605357D01*
X156010053Y-84527547D01*
X156010051Y-84527546D01*
X156010049Y-84527545D01*
X156010050Y-84527545D01*
X155871963Y-84487000D01*
X155871961Y-84487000D01*
X155728039Y-84487000D01*
X155728036Y-84487000D01*
X155589949Y-84527545D01*
X155468873Y-84605356D01*
X155374623Y-84714126D01*
X155374622Y-84714128D01*
X155314834Y-84845043D01*
X155294353Y-84987500D01*
X129326794Y-84987500D01*
X129406185Y-84868684D01*
X129406192Y-84868671D01*
X129481569Y-84686693D01*
X129481572Y-84686681D01*
X129519999Y-84493495D01*
X129520000Y-84493492D01*
X129520000Y-84095000D01*
X128820000Y-84095000D01*
X128820000Y-83595000D01*
X129520000Y-83595000D01*
X129520000Y-83250000D01*
X149619353Y-83250000D01*
X149639834Y-83392456D01*
X149682077Y-83484953D01*
X149699623Y-83523373D01*
X149793872Y-83632143D01*
X149914947Y-83709953D01*
X149914950Y-83709954D01*
X149914949Y-83709954D01*
X150053036Y-83750499D01*
X150053038Y-83750500D01*
X150053039Y-83750500D01*
X150196962Y-83750500D01*
X150196962Y-83750499D01*
X150304121Y-83719035D01*
X150335050Y-83709954D01*
X150335050Y-83709953D01*
X150335053Y-83709953D01*
X150456128Y-83632143D01*
X150550377Y-83523373D01*
X150610165Y-83392457D01*
X150630647Y-83250000D01*
X150610165Y-83107543D01*
X150550377Y-82976627D01*
X150456128Y-82867857D01*
X150335053Y-82790047D01*
X150335051Y-82790046D01*
X150335049Y-82790045D01*
X150335050Y-82790045D01*
X150196963Y-82749500D01*
X150196961Y-82749500D01*
X150053039Y-82749500D01*
X150053036Y-82749500D01*
X149914949Y-82790045D01*
X149793873Y-82867856D01*
X149699623Y-82976626D01*
X149699622Y-82976628D01*
X149639834Y-83107543D01*
X149619353Y-83250000D01*
X129520000Y-83250000D01*
X129520000Y-83196508D01*
X129519999Y-83196504D01*
X129481572Y-83003318D01*
X129481569Y-83003306D01*
X129406192Y-82821328D01*
X129406185Y-82821315D01*
X129325124Y-82700000D01*
X145044353Y-82700000D01*
X145064834Y-82842456D01*
X145124622Y-82973371D01*
X145124623Y-82973373D01*
X145218872Y-83082143D01*
X145339947Y-83159953D01*
X145339950Y-83159954D01*
X145339949Y-83159954D01*
X145447107Y-83191417D01*
X145464443Y-83196508D01*
X145478036Y-83200499D01*
X145478038Y-83200500D01*
X145478039Y-83200500D01*
X145621962Y-83200500D01*
X145621962Y-83200499D01*
X145760053Y-83159953D01*
X145881128Y-83082143D01*
X145975377Y-82973373D01*
X146035165Y-82842457D01*
X146055647Y-82700000D01*
X146035165Y-82557543D01*
X145975377Y-82426627D01*
X145881128Y-82317857D01*
X145760053Y-82240047D01*
X145760051Y-82240046D01*
X145760049Y-82240045D01*
X145760050Y-82240045D01*
X145621963Y-82199500D01*
X145621961Y-82199500D01*
X145478039Y-82199500D01*
X145478036Y-82199500D01*
X145339949Y-82240045D01*
X145218873Y-82317856D01*
X145124623Y-82426626D01*
X145124622Y-82426628D01*
X145064834Y-82557543D01*
X145044353Y-82700000D01*
X129325124Y-82700000D01*
X129296751Y-82657537D01*
X129296748Y-82657533D01*
X129157466Y-82518251D01*
X129157462Y-82518248D01*
X128993684Y-82408814D01*
X128993671Y-82408807D01*
X128811691Y-82333429D01*
X128811683Y-82333427D01*
X128770000Y-82325135D01*
X128770000Y-83128011D01*
X128760060Y-83110795D01*
X128704205Y-83054940D01*
X128635796Y-83015444D01*
X128559496Y-82995000D01*
X128480504Y-82995000D01*
X128404204Y-83015444D01*
X128335795Y-83054940D01*
X128279940Y-83110795D01*
X128270000Y-83128011D01*
X128270000Y-82325136D01*
X128269999Y-82325135D01*
X128228316Y-82333427D01*
X128228308Y-82333429D01*
X128046328Y-82408807D01*
X128046315Y-82408814D01*
X127882537Y-82518248D01*
X127882533Y-82518251D01*
X127743251Y-82657533D01*
X127743248Y-82657537D01*
X127633814Y-82821315D01*
X127633807Y-82821328D01*
X127558430Y-83003306D01*
X127558427Y-83003318D01*
X127520000Y-83196504D01*
X127520000Y-83713955D01*
X127500315Y-83780994D01*
X127447511Y-83826749D01*
X127378353Y-83836693D01*
X127334000Y-83821342D01*
X127312138Y-83808720D01*
X127312135Y-83808719D01*
X127165766Y-83769500D01*
X127014234Y-83769500D01*
X126867863Y-83808719D01*
X126736635Y-83884485D01*
X126736632Y-83884487D01*
X126629487Y-83991632D01*
X126629485Y-83991635D01*
X126553719Y-84122863D01*
X126514500Y-84269234D01*
X121885500Y-84269234D01*
X121846281Y-84122865D01*
X121770515Y-83991635D01*
X121663365Y-83884485D01*
X121553999Y-83821342D01*
X121532136Y-83808719D01*
X121458950Y-83789109D01*
X121385766Y-83769500D01*
X121234234Y-83769500D01*
X121087865Y-83808719D01*
X121087864Y-83808719D01*
X121087862Y-83808720D01*
X121087861Y-83808720D01*
X121066000Y-83821342D01*
X120998099Y-83837815D01*
X120932073Y-83814962D01*
X120888882Y-83760041D01*
X120880000Y-83713955D01*
X120880000Y-83196508D01*
X120879999Y-83196504D01*
X120841572Y-83003318D01*
X120841569Y-83003306D01*
X120766192Y-82821328D01*
X120766185Y-82821315D01*
X120656751Y-82657537D01*
X120656748Y-82657533D01*
X120517466Y-82518251D01*
X120517462Y-82518248D01*
X120353684Y-82408814D01*
X120353671Y-82408807D01*
X120171691Y-82333429D01*
X120171683Y-82333427D01*
X120130000Y-82325135D01*
X120130000Y-83128011D01*
X120120060Y-83110795D01*
X120064205Y-83054940D01*
X119995796Y-83015444D01*
X119919496Y-82995000D01*
X119840504Y-82995000D01*
X119764204Y-83015444D01*
X119695795Y-83054940D01*
X119639940Y-83110795D01*
X119630000Y-83128011D01*
X119630000Y-82325136D01*
X119629999Y-82325135D01*
X119588316Y-82333427D01*
X119588308Y-82333429D01*
X119406328Y-82408807D01*
X119406315Y-82408814D01*
X119242537Y-82518248D01*
X119242533Y-82518251D01*
X119103251Y-82657533D01*
X119103248Y-82657537D01*
X118993814Y-82821315D01*
X118993807Y-82821328D01*
X118918430Y-83003306D01*
X118918427Y-83003318D01*
X118880000Y-83196504D01*
X104671900Y-83196504D01*
X104685165Y-83167457D01*
X104705647Y-83025000D01*
X104685165Y-82882543D01*
X104625377Y-82751627D01*
X104531128Y-82642857D01*
X104410053Y-82565047D01*
X104410051Y-82565046D01*
X104410049Y-82565045D01*
X104410050Y-82565045D01*
X104271963Y-82524500D01*
X104271961Y-82524500D01*
X104128039Y-82524500D01*
X104128036Y-82524500D01*
X103989949Y-82565045D01*
X103868873Y-82642856D01*
X103774623Y-82751626D01*
X103774622Y-82751628D01*
X103714834Y-82882543D01*
X103694353Y-83025000D01*
X97500500Y-83025000D01*
X97500500Y-82000000D01*
X121294353Y-82000000D01*
X121314834Y-82142456D01*
X121359402Y-82240045D01*
X121374623Y-82273373D01*
X121468872Y-82382143D01*
X121589947Y-82459953D01*
X121589950Y-82459954D01*
X121589949Y-82459954D01*
X121728036Y-82500499D01*
X121728038Y-82500500D01*
X121728039Y-82500500D01*
X121871962Y-82500500D01*
X121871962Y-82500499D01*
X122010053Y-82459953D01*
X122131128Y-82382143D01*
X122225377Y-82273373D01*
X122285165Y-82142457D01*
X122305647Y-82000000D01*
X126044353Y-82000000D01*
X126064834Y-82142456D01*
X126109402Y-82240045D01*
X126124623Y-82273373D01*
X126218872Y-82382143D01*
X126339947Y-82459953D01*
X126339950Y-82459954D01*
X126339949Y-82459954D01*
X126478036Y-82500499D01*
X126478038Y-82500500D01*
X126478039Y-82500500D01*
X126621962Y-82500500D01*
X126621962Y-82500499D01*
X126760053Y-82459953D01*
X126881128Y-82382143D01*
X126975377Y-82273373D01*
X127035165Y-82142457D01*
X127055647Y-82000000D01*
X127048458Y-81950000D01*
X154294353Y-81950000D01*
X154314834Y-82092456D01*
X154337669Y-82142456D01*
X154374623Y-82223373D01*
X154468872Y-82332143D01*
X154589947Y-82409953D01*
X154589950Y-82409954D01*
X154589949Y-82409954D01*
X154728036Y-82450499D01*
X154728038Y-82450500D01*
X154728039Y-82450500D01*
X154871962Y-82450500D01*
X154871962Y-82450499D01*
X155010053Y-82409953D01*
X155131128Y-82332143D01*
X155225377Y-82223373D01*
X155285165Y-82092457D01*
X155305647Y-81950000D01*
X155285165Y-81807543D01*
X155225377Y-81676627D01*
X155131128Y-81567857D01*
X155010053Y-81490047D01*
X155010051Y-81490046D01*
X155010049Y-81490045D01*
X155010050Y-81490045D01*
X154871963Y-81449500D01*
X154871961Y-81449500D01*
X154728039Y-81449500D01*
X154728036Y-81449500D01*
X154589949Y-81490045D01*
X154468873Y-81567856D01*
X154374623Y-81676626D01*
X154374622Y-81676628D01*
X154314834Y-81807543D01*
X154294353Y-81950000D01*
X127048458Y-81950000D01*
X127035165Y-81857543D01*
X126975377Y-81726627D01*
X126881128Y-81617857D01*
X126760053Y-81540047D01*
X126760051Y-81540046D01*
X126760049Y-81540045D01*
X126760050Y-81540045D01*
X126621963Y-81499500D01*
X126621961Y-81499500D01*
X126478039Y-81499500D01*
X126478036Y-81499500D01*
X126339949Y-81540045D01*
X126218873Y-81617856D01*
X126124623Y-81726626D01*
X126124622Y-81726628D01*
X126064834Y-81857543D01*
X126044353Y-82000000D01*
X122305647Y-82000000D01*
X122285165Y-81857543D01*
X122225377Y-81726627D01*
X122131128Y-81617857D01*
X122010053Y-81540047D01*
X122010051Y-81540046D01*
X122010049Y-81540045D01*
X122010050Y-81540045D01*
X121871963Y-81499500D01*
X121871961Y-81499500D01*
X121728039Y-81499500D01*
X121728036Y-81499500D01*
X121589949Y-81540045D01*
X121468873Y-81617856D01*
X121374623Y-81726626D01*
X121374622Y-81726628D01*
X121314834Y-81857543D01*
X121294353Y-82000000D01*
X97500500Y-82000000D01*
X97500500Y-80650000D01*
X147744353Y-80650000D01*
X147764834Y-80792456D01*
X147824622Y-80923371D01*
X147824623Y-80923373D01*
X147918872Y-81032143D01*
X148039947Y-81109953D01*
X148039950Y-81109954D01*
X148039949Y-81109954D01*
X148178036Y-81150499D01*
X148178038Y-81150500D01*
X148178039Y-81150500D01*
X148321962Y-81150500D01*
X148321962Y-81150499D01*
X148460053Y-81109953D01*
X148553342Y-81050000D01*
X156594353Y-81050000D01*
X156614834Y-81192456D01*
X156667356Y-81307461D01*
X156674623Y-81323373D01*
X156768872Y-81432143D01*
X156889947Y-81509953D01*
X156889950Y-81509954D01*
X156889949Y-81509954D01*
X157028036Y-81550499D01*
X157028038Y-81550500D01*
X157028039Y-81550500D01*
X157171962Y-81550500D01*
X157171962Y-81550499D01*
X157310053Y-81509953D01*
X157431128Y-81432143D01*
X157525377Y-81323373D01*
X157585165Y-81192457D01*
X157605647Y-81050000D01*
X157585165Y-80907543D01*
X157525377Y-80776627D01*
X157431128Y-80667857D01*
X157310053Y-80590047D01*
X157310051Y-80590046D01*
X157310049Y-80590045D01*
X157310050Y-80590045D01*
X157171963Y-80549500D01*
X157171961Y-80549500D01*
X157028039Y-80549500D01*
X157028036Y-80549500D01*
X156889949Y-80590045D01*
X156768873Y-80667856D01*
X156674623Y-80776626D01*
X156674622Y-80776628D01*
X156614834Y-80907543D01*
X156594353Y-81050000D01*
X148553342Y-81050000D01*
X148581128Y-81032143D01*
X148675377Y-80923373D01*
X148735165Y-80792457D01*
X148755647Y-80650000D01*
X148735165Y-80507543D01*
X148675377Y-80376627D01*
X148581128Y-80267857D01*
X148460053Y-80190047D01*
X148460051Y-80190046D01*
X148460049Y-80190045D01*
X148460050Y-80190045D01*
X148321963Y-80149500D01*
X148321961Y-80149500D01*
X148178039Y-80149500D01*
X148178036Y-80149500D01*
X148039949Y-80190045D01*
X147918873Y-80267856D01*
X147824623Y-80376626D01*
X147824622Y-80376628D01*
X147764834Y-80507543D01*
X147744353Y-80650000D01*
X97500500Y-80650000D01*
X97500500Y-79300000D01*
X147194353Y-79300000D01*
X147214834Y-79442456D01*
X147274622Y-79573371D01*
X147274623Y-79573373D01*
X147368872Y-79682143D01*
X147489947Y-79759953D01*
X147489950Y-79759954D01*
X147489949Y-79759954D01*
X147628036Y-79800499D01*
X147628038Y-79800500D01*
X147628039Y-79800500D01*
X147771962Y-79800500D01*
X147771962Y-79800499D01*
X147910053Y-79759953D01*
X148031128Y-79682143D01*
X148125377Y-79573373D01*
X148181720Y-79450000D01*
X154794353Y-79450000D01*
X154814834Y-79592456D01*
X154874622Y-79723371D01*
X154874623Y-79723373D01*
X154968872Y-79832143D01*
X155089947Y-79909953D01*
X155089950Y-79909954D01*
X155089949Y-79909954D01*
X155228036Y-79950499D01*
X155228038Y-79950500D01*
X155228039Y-79950500D01*
X155371962Y-79950500D01*
X155371962Y-79950499D01*
X155510053Y-79909953D01*
X155631128Y-79832143D01*
X155725377Y-79723373D01*
X155785165Y-79592457D01*
X155805647Y-79450000D01*
X155785165Y-79307543D01*
X155725377Y-79176627D01*
X155645209Y-79084108D01*
X163249500Y-79084108D01*
X163249500Y-89065892D01*
X163256502Y-89092024D01*
X163283608Y-89193187D01*
X163285611Y-89196656D01*
X163349500Y-89307314D01*
X163442686Y-89400500D01*
X163556814Y-89466392D01*
X163684108Y-89500500D01*
X163684110Y-89500500D01*
X165365890Y-89500500D01*
X165365892Y-89500500D01*
X165493186Y-89466392D01*
X165607314Y-89400500D01*
X165700500Y-89307314D01*
X165766392Y-89193186D01*
X165769331Y-89182215D01*
X165805692Y-89122556D01*
X165868538Y-89092024D01*
X165937914Y-89100316D01*
X165991793Y-89144799D01*
X166011844Y-89196656D01*
X166014835Y-89217457D01*
X166057308Y-89310460D01*
X166074623Y-89348373D01*
X166168872Y-89457143D01*
X166289947Y-89534953D01*
X166289950Y-89534954D01*
X166289949Y-89534954D01*
X166428036Y-89575499D01*
X166428038Y-89575500D01*
X166428039Y-89575500D01*
X166571962Y-89575500D01*
X166571962Y-89575499D01*
X166710053Y-89534953D01*
X166831128Y-89457143D01*
X166925377Y-89348373D01*
X166985165Y-89217457D01*
X167005647Y-89075000D01*
X166985165Y-88932543D01*
X166925377Y-88801627D01*
X166831128Y-88692857D01*
X166710053Y-88615047D01*
X166710051Y-88615046D01*
X166710049Y-88615045D01*
X166710050Y-88615045D01*
X166571963Y-88574500D01*
X166571961Y-88574500D01*
X166428039Y-88574500D01*
X166428036Y-88574500D01*
X166289949Y-88615045D01*
X166168873Y-88692856D01*
X166074623Y-88801626D01*
X166074622Y-88801628D01*
X166037294Y-88883365D01*
X165991539Y-88936169D01*
X165924500Y-88955853D01*
X165857460Y-88936168D01*
X165811705Y-88883364D01*
X165800500Y-88831853D01*
X165800500Y-81374500D01*
X165820185Y-81307461D01*
X165872989Y-81261706D01*
X165924500Y-81250500D01*
X166065890Y-81250500D01*
X166065892Y-81250500D01*
X166193186Y-81216392D01*
X166307314Y-81150500D01*
X166400500Y-81057314D01*
X166466392Y-80943186D01*
X166500500Y-80815892D01*
X166500500Y-79084108D01*
X167749500Y-79084108D01*
X167749500Y-80815891D01*
X167783608Y-80943187D01*
X167816554Y-81000250D01*
X167849500Y-81057314D01*
X167942686Y-81150500D01*
X168056814Y-81216392D01*
X168184108Y-81250500D01*
X172125500Y-81250500D01*
X172192539Y-81270185D01*
X172238294Y-81322989D01*
X172249500Y-81374500D01*
X172249500Y-88934108D01*
X172249500Y-89065892D01*
X172256502Y-89092024D01*
X172283608Y-89193187D01*
X172285611Y-89196656D01*
X172349500Y-89307314D01*
X172442686Y-89400500D01*
X172556814Y-89466392D01*
X172684108Y-89500500D01*
X172684110Y-89500500D01*
X173815890Y-89500500D01*
X173815892Y-89500500D01*
X173943186Y-89466392D01*
X174057314Y-89400500D01*
X174150500Y-89307314D01*
X174216392Y-89193186D01*
X174250500Y-89065892D01*
X174250500Y-86628711D01*
X191099500Y-86628711D01*
X191099500Y-86871288D01*
X191131161Y-87111785D01*
X191193947Y-87346104D01*
X191268673Y-87526508D01*
X191286776Y-87570212D01*
X191408064Y-87780289D01*
X191408066Y-87780292D01*
X191408067Y-87780293D01*
X191555733Y-87972736D01*
X191555739Y-87972743D01*
X191727256Y-88144260D01*
X191727262Y-88144265D01*
X191919711Y-88291936D01*
X192129788Y-88413224D01*
X192353900Y-88506054D01*
X192588211Y-88568838D01*
X192768586Y-88592584D01*
X192828711Y-88600500D01*
X192828712Y-88600500D01*
X193071289Y-88600500D01*
X193119388Y-88594167D01*
X193311789Y-88568838D01*
X193546100Y-88506054D01*
X193770212Y-88413224D01*
X193980289Y-88291936D01*
X194172738Y-88144265D01*
X194344265Y-87972738D01*
X194491936Y-87780289D01*
X194613224Y-87570212D01*
X194706054Y-87346100D01*
X194768838Y-87111789D01*
X194800500Y-86871288D01*
X194800500Y-86628712D01*
X194768838Y-86388211D01*
X194706054Y-86153900D01*
X194613224Y-85929788D01*
X194491936Y-85719711D01*
X194344265Y-85527262D01*
X194344260Y-85527256D01*
X194172743Y-85355739D01*
X194172736Y-85355733D01*
X193980293Y-85208067D01*
X193980292Y-85208066D01*
X193980289Y-85208064D01*
X193770212Y-85086776D01*
X193770205Y-85086773D01*
X193546104Y-84993947D01*
X193311785Y-84931161D01*
X193071289Y-84899500D01*
X193071288Y-84899500D01*
X192828712Y-84899500D01*
X192828711Y-84899500D01*
X192588214Y-84931161D01*
X192353895Y-84993947D01*
X192129794Y-85086773D01*
X192129785Y-85086777D01*
X191919706Y-85208067D01*
X191727263Y-85355733D01*
X191727256Y-85355739D01*
X191555739Y-85527256D01*
X191555733Y-85527263D01*
X191408067Y-85719706D01*
X191286777Y-85929785D01*
X191286773Y-85929794D01*
X191193947Y-86153895D01*
X191131161Y-86388214D01*
X191099500Y-86628711D01*
X174250500Y-86628711D01*
X174250500Y-79084108D01*
X174216392Y-78956814D01*
X174150500Y-78842686D01*
X174057314Y-78749500D01*
X174000250Y-78716554D01*
X173943187Y-78683608D01*
X173879539Y-78666554D01*
X173815892Y-78649500D01*
X168315892Y-78649500D01*
X168184108Y-78649500D01*
X168056812Y-78683608D01*
X167942686Y-78749500D01*
X167942683Y-78749502D01*
X167849502Y-78842683D01*
X167849500Y-78842686D01*
X167783608Y-78956812D01*
X167749500Y-79084108D01*
X166500500Y-79084108D01*
X166466392Y-78956814D01*
X166400500Y-78842686D01*
X166307314Y-78749500D01*
X166250250Y-78716554D01*
X166193187Y-78683608D01*
X166129539Y-78666554D01*
X166065892Y-78649500D01*
X163815892Y-78649500D01*
X163684108Y-78649500D01*
X163556812Y-78683608D01*
X163442686Y-78749500D01*
X163442683Y-78749502D01*
X163349502Y-78842683D01*
X163349500Y-78842686D01*
X163283608Y-78956812D01*
X163258505Y-79050499D01*
X163249500Y-79084108D01*
X155645209Y-79084108D01*
X155631128Y-79067857D01*
X155510053Y-78990047D01*
X155510051Y-78990046D01*
X155510049Y-78990045D01*
X155510050Y-78990045D01*
X155371963Y-78949500D01*
X155371961Y-78949500D01*
X155228039Y-78949500D01*
X155228036Y-78949500D01*
X155089949Y-78990045D01*
X154968873Y-79067856D01*
X154874623Y-79176626D01*
X154874622Y-79176628D01*
X154814834Y-79307543D01*
X154794353Y-79450000D01*
X148181720Y-79450000D01*
X148185165Y-79442457D01*
X148205647Y-79300000D01*
X148185165Y-79157543D01*
X148125377Y-79026627D01*
X148031128Y-78917857D01*
X147910053Y-78840047D01*
X147910051Y-78840046D01*
X147910049Y-78840045D01*
X147910050Y-78840045D01*
X147771963Y-78799500D01*
X147771961Y-78799500D01*
X147628039Y-78799500D01*
X147628036Y-78799500D01*
X147489949Y-78840045D01*
X147368873Y-78917856D01*
X147274623Y-79026626D01*
X147274622Y-79026628D01*
X147214834Y-79157543D01*
X147194353Y-79300000D01*
X97500500Y-79300000D01*
X97500500Y-78750000D01*
X139956853Y-78750000D01*
X139977334Y-78892456D01*
X139995459Y-78932143D01*
X140037123Y-79023373D01*
X140131372Y-79132143D01*
X140252447Y-79209953D01*
X140252450Y-79209954D01*
X140252449Y-79209954D01*
X140390536Y-79250499D01*
X140390538Y-79250500D01*
X140390539Y-79250500D01*
X140534462Y-79250500D01*
X140534462Y-79250499D01*
X140672553Y-79209953D01*
X140793628Y-79132143D01*
X140887877Y-79023373D01*
X140947665Y-78892457D01*
X140968147Y-78750000D01*
X140947665Y-78607543D01*
X140921386Y-78550000D01*
X156594353Y-78550000D01*
X156614834Y-78692456D01*
X156640886Y-78749500D01*
X156674623Y-78823373D01*
X156768872Y-78932143D01*
X156889947Y-79009953D01*
X156889950Y-79009954D01*
X156889949Y-79009954D01*
X157028036Y-79050499D01*
X157028038Y-79050500D01*
X157028039Y-79050500D01*
X157171962Y-79050500D01*
X157171962Y-79050499D01*
X157310053Y-79009953D01*
X157431128Y-78932143D01*
X157525377Y-78823373D01*
X157585165Y-78692457D01*
X157605611Y-78550247D01*
X194099500Y-78550247D01*
X194099500Y-80289752D01*
X194111131Y-80348229D01*
X194111132Y-80348230D01*
X194155447Y-80414552D01*
X194221769Y-80458867D01*
X194221770Y-80458868D01*
X194280247Y-80470499D01*
X194280250Y-80470500D01*
X194280252Y-80470500D01*
X196019750Y-80470500D01*
X196019751Y-80470499D01*
X196034568Y-80467552D01*
X196078229Y-80458868D01*
X196078229Y-80458867D01*
X196078231Y-80458867D01*
X196144552Y-80414552D01*
X196188867Y-80348231D01*
X196188867Y-80348229D01*
X196188868Y-80348229D01*
X196200499Y-80289752D01*
X196200500Y-80289750D01*
X196200500Y-78550249D01*
X196200499Y-78550247D01*
X196188868Y-78491770D01*
X196188867Y-78491769D01*
X196144552Y-78425447D01*
X196078230Y-78381132D01*
X196078229Y-78381131D01*
X196019752Y-78369500D01*
X196019748Y-78369500D01*
X194280252Y-78369500D01*
X194280247Y-78369500D01*
X194221770Y-78381131D01*
X194221769Y-78381132D01*
X194155447Y-78425447D01*
X194111132Y-78491769D01*
X194111131Y-78491770D01*
X194099500Y-78550247D01*
X157605611Y-78550247D01*
X157605647Y-78550000D01*
X157585165Y-78407543D01*
X157525377Y-78276627D01*
X157431128Y-78167857D01*
X157310053Y-78090047D01*
X157310051Y-78090046D01*
X157310049Y-78090045D01*
X157310050Y-78090045D01*
X157171963Y-78049500D01*
X157171961Y-78049500D01*
X157028039Y-78049500D01*
X157028036Y-78049500D01*
X156889949Y-78090045D01*
X156768873Y-78167856D01*
X156674623Y-78276626D01*
X156674622Y-78276628D01*
X156614834Y-78407543D01*
X156594353Y-78550000D01*
X140921386Y-78550000D01*
X140887877Y-78476627D01*
X140793628Y-78367857D01*
X140672553Y-78290047D01*
X140672551Y-78290046D01*
X140672549Y-78290045D01*
X140672550Y-78290045D01*
X140534463Y-78249500D01*
X140534461Y-78249500D01*
X140390539Y-78249500D01*
X140390536Y-78249500D01*
X140252449Y-78290045D01*
X140131373Y-78367856D01*
X140037123Y-78476626D01*
X140037122Y-78476628D01*
X139977334Y-78607543D01*
X139956853Y-78750000D01*
X97500500Y-78750000D01*
X97500500Y-75380247D01*
X102999500Y-75380247D01*
X102999500Y-77419752D01*
X103011131Y-77478229D01*
X103011132Y-77478230D01*
X103055447Y-77544552D01*
X103121769Y-77588867D01*
X103121770Y-77588868D01*
X103180247Y-77600499D01*
X103180250Y-77600500D01*
X103180252Y-77600500D01*
X105219750Y-77600500D01*
X105219751Y-77600499D01*
X105234568Y-77597552D01*
X105278229Y-77588868D01*
X105278229Y-77588867D01*
X105278231Y-77588867D01*
X105344552Y-77544552D01*
X105388867Y-77478231D01*
X105388867Y-77478229D01*
X105388868Y-77478229D01*
X105400499Y-77419752D01*
X105400500Y-77419750D01*
X105400500Y-77300000D01*
X156644353Y-77300000D01*
X156664834Y-77442456D01*
X156711461Y-77544552D01*
X156724623Y-77573373D01*
X156818872Y-77682143D01*
X156939947Y-77759953D01*
X156939950Y-77759954D01*
X156939949Y-77759954D01*
X157078036Y-77800499D01*
X157078038Y-77800500D01*
X157078039Y-77800500D01*
X157221962Y-77800500D01*
X157221962Y-77800499D01*
X157360053Y-77759953D01*
X157481128Y-77682143D01*
X157575377Y-77573373D01*
X157635165Y-77442457D01*
X157655647Y-77300000D01*
X157635165Y-77157543D01*
X157586051Y-77050000D01*
X165794353Y-77050000D01*
X165814834Y-77192456D01*
X165860504Y-77292457D01*
X165874623Y-77323373D01*
X165968872Y-77432143D01*
X166089947Y-77509953D01*
X166089950Y-77509954D01*
X166089949Y-77509954D01*
X166228036Y-77550499D01*
X166228038Y-77550500D01*
X166228039Y-77550500D01*
X166371962Y-77550500D01*
X166371962Y-77550499D01*
X166510053Y-77509953D01*
X166631128Y-77432143D01*
X166725377Y-77323373D01*
X166785165Y-77192457D01*
X166791269Y-77150000D01*
X167994353Y-77150000D01*
X168014834Y-77292456D01*
X168028953Y-77323371D01*
X168074623Y-77423373D01*
X168168872Y-77532143D01*
X168289947Y-77609953D01*
X168289950Y-77609954D01*
X168289949Y-77609954D01*
X168428036Y-77650499D01*
X168428038Y-77650500D01*
X168428039Y-77650500D01*
X168571962Y-77650500D01*
X168571962Y-77650499D01*
X168710053Y-77609953D01*
X168831128Y-77532143D01*
X168925377Y-77423373D01*
X168985165Y-77292457D01*
X169005647Y-77150000D01*
X168985165Y-77007543D01*
X168926917Y-76880000D01*
X194094417Y-76880000D01*
X194114699Y-77085932D01*
X194114700Y-77085934D01*
X194174768Y-77283954D01*
X194272315Y-77466450D01*
X194306969Y-77508677D01*
X194403589Y-77626410D01*
X194471501Y-77682143D01*
X194563550Y-77757685D01*
X194746046Y-77855232D01*
X194944066Y-77915300D01*
X194944065Y-77915300D01*
X194962529Y-77917118D01*
X195150000Y-77935583D01*
X195355934Y-77915300D01*
X195553954Y-77855232D01*
X195736450Y-77757685D01*
X195896410Y-77626410D01*
X196027685Y-77466450D01*
X196125232Y-77283954D01*
X196185300Y-77085934D01*
X196205583Y-76880000D01*
X196185300Y-76674066D01*
X196125232Y-76476046D01*
X196027685Y-76293550D01*
X195959079Y-76209953D01*
X195896410Y-76133589D01*
X195736452Y-76002317D01*
X195736453Y-76002317D01*
X195736450Y-76002315D01*
X195553954Y-75904768D01*
X195355934Y-75844700D01*
X195355932Y-75844699D01*
X195355934Y-75844699D01*
X195150000Y-75824417D01*
X194944067Y-75844699D01*
X194746043Y-75904769D01*
X194635898Y-75963643D01*
X194563550Y-76002315D01*
X194563548Y-76002316D01*
X194563547Y-76002317D01*
X194403589Y-76133589D01*
X194272317Y-76293547D01*
X194174769Y-76476043D01*
X194114699Y-76674067D01*
X194094417Y-76880000D01*
X168926917Y-76880000D01*
X168925377Y-76876627D01*
X168831128Y-76767857D01*
X168710053Y-76690047D01*
X168710051Y-76690046D01*
X168710049Y-76690045D01*
X168710050Y-76690045D01*
X168571963Y-76649500D01*
X168571961Y-76649500D01*
X168428039Y-76649500D01*
X168428036Y-76649500D01*
X168289949Y-76690045D01*
X168168873Y-76767856D01*
X168074623Y-76876626D01*
X168074622Y-76876628D01*
X168014834Y-77007543D01*
X167994353Y-77150000D01*
X166791269Y-77150000D01*
X166805647Y-77050000D01*
X166785165Y-76907543D01*
X166725377Y-76776627D01*
X166631128Y-76667857D01*
X166510053Y-76590047D01*
X166510051Y-76590046D01*
X166510049Y-76590045D01*
X166510050Y-76590045D01*
X166371963Y-76549500D01*
X166371961Y-76549500D01*
X166228039Y-76549500D01*
X166228036Y-76549500D01*
X166089949Y-76590045D01*
X165968873Y-76667856D01*
X165874623Y-76776626D01*
X165874622Y-76776628D01*
X165814834Y-76907543D01*
X165794353Y-77050000D01*
X157586051Y-77050000D01*
X157575377Y-77026627D01*
X157481128Y-76917857D01*
X157360053Y-76840047D01*
X157360051Y-76840046D01*
X157360049Y-76840045D01*
X157360050Y-76840045D01*
X157221963Y-76799500D01*
X157221961Y-76799500D01*
X157078039Y-76799500D01*
X157078036Y-76799500D01*
X156939949Y-76840045D01*
X156818873Y-76917856D01*
X156724623Y-77026626D01*
X156724622Y-77026628D01*
X156664834Y-77157543D01*
X156644353Y-77300000D01*
X105400500Y-77300000D01*
X105400500Y-76550000D01*
X149444353Y-76550000D01*
X149464834Y-76692456D01*
X149503275Y-76776628D01*
X149524623Y-76823373D01*
X149618872Y-76932143D01*
X149739947Y-77009953D01*
X149739950Y-77009954D01*
X149739949Y-77009954D01*
X149796737Y-77026628D01*
X149876336Y-77050000D01*
X149878036Y-77050499D01*
X149878038Y-77050500D01*
X149878039Y-77050500D01*
X150021962Y-77050500D01*
X150021962Y-77050499D01*
X150160053Y-77009953D01*
X150281128Y-76932143D01*
X150375377Y-76823373D01*
X150435165Y-76692457D01*
X150455647Y-76550000D01*
X150435165Y-76407543D01*
X150375377Y-76276627D01*
X150281128Y-76167857D01*
X150160053Y-76090047D01*
X150160051Y-76090046D01*
X150160049Y-76090045D01*
X150160050Y-76090045D01*
X150021963Y-76049500D01*
X150021961Y-76049500D01*
X149878039Y-76049500D01*
X149878036Y-76049500D01*
X149739949Y-76090045D01*
X149618873Y-76167856D01*
X149524623Y-76276626D01*
X149524622Y-76276628D01*
X149464834Y-76407543D01*
X149444353Y-76550000D01*
X105400500Y-76550000D01*
X105400500Y-75750000D01*
X151544353Y-75750000D01*
X151564834Y-75892456D01*
X151615006Y-76002315D01*
X151624623Y-76023373D01*
X151718872Y-76132143D01*
X151839947Y-76209953D01*
X151839950Y-76209954D01*
X151839949Y-76209954D01*
X151978036Y-76250499D01*
X151978038Y-76250500D01*
X151978039Y-76250500D01*
X152121962Y-76250500D01*
X152121962Y-76250499D01*
X152260053Y-76209953D01*
X152381128Y-76132143D01*
X152475377Y-76023373D01*
X152535165Y-75892457D01*
X152555647Y-75750000D01*
X152535165Y-75607543D01*
X152475377Y-75476627D01*
X152381128Y-75367857D01*
X152260053Y-75290047D01*
X152260051Y-75290046D01*
X152260049Y-75290045D01*
X152260050Y-75290045D01*
X152121963Y-75249500D01*
X152121961Y-75249500D01*
X151978039Y-75249500D01*
X151978036Y-75249500D01*
X151839949Y-75290045D01*
X151718873Y-75367856D01*
X151624623Y-75476626D01*
X151624622Y-75476628D01*
X151564834Y-75607543D01*
X151544353Y-75750000D01*
X105400500Y-75750000D01*
X105400500Y-75380249D01*
X105400499Y-75380247D01*
X105388868Y-75321770D01*
X105388867Y-75321769D01*
X105344552Y-75255447D01*
X105278230Y-75211132D01*
X105278229Y-75211131D01*
X105219752Y-75199500D01*
X105219748Y-75199500D01*
X103180252Y-75199500D01*
X103180247Y-75199500D01*
X103121770Y-75211131D01*
X103121769Y-75211132D01*
X103055447Y-75255447D01*
X103011132Y-75321769D01*
X103011131Y-75321770D01*
X102999500Y-75380247D01*
X97500500Y-75380247D01*
X97500500Y-75100000D01*
X145044353Y-75100000D01*
X145064834Y-75242456D01*
X145101056Y-75321769D01*
X145124623Y-75373373D01*
X145218872Y-75482143D01*
X145339947Y-75559953D01*
X145339950Y-75559954D01*
X145339949Y-75559954D01*
X145478036Y-75600499D01*
X145478038Y-75600500D01*
X145478039Y-75600500D01*
X145621962Y-75600500D01*
X145621962Y-75600499D01*
X145760053Y-75559953D01*
X145881128Y-75482143D01*
X145975377Y-75373373D01*
X146035165Y-75242457D01*
X146055647Y-75100000D01*
X146035165Y-74957543D01*
X145975377Y-74826627D01*
X145881128Y-74717857D01*
X145760053Y-74640047D01*
X145760051Y-74640046D01*
X145760049Y-74640045D01*
X145760050Y-74640045D01*
X145623666Y-74600000D01*
X148894353Y-74600000D01*
X148914834Y-74742456D01*
X148953275Y-74826628D01*
X148974623Y-74873373D01*
X149068872Y-74982143D01*
X149189947Y-75059953D01*
X149189950Y-75059954D01*
X149189949Y-75059954D01*
X149280052Y-75086410D01*
X149326336Y-75100000D01*
X149328036Y-75100499D01*
X149328038Y-75100500D01*
X149328039Y-75100500D01*
X149471962Y-75100500D01*
X149471962Y-75100499D01*
X149610053Y-75059953D01*
X149731128Y-74982143D01*
X149825377Y-74873373D01*
X149885165Y-74742457D01*
X149905647Y-74600000D01*
X149885165Y-74457543D01*
X149858886Y-74400000D01*
X150644353Y-74400000D01*
X150664834Y-74542456D01*
X150710504Y-74642457D01*
X150724623Y-74673373D01*
X150818872Y-74782143D01*
X150939947Y-74859953D01*
X150939950Y-74859954D01*
X150939949Y-74859954D01*
X151078036Y-74900499D01*
X151078038Y-74900500D01*
X151078039Y-74900500D01*
X151221962Y-74900500D01*
X151221962Y-74900499D01*
X151360053Y-74859953D01*
X151481128Y-74782143D01*
X151575377Y-74673373D01*
X151635165Y-74542457D01*
X151655647Y-74400000D01*
X151635165Y-74257543D01*
X151575377Y-74126627D01*
X151508980Y-74050000D01*
X153189353Y-74050000D01*
X153209834Y-74192456D01*
X153269622Y-74323371D01*
X153269623Y-74323373D01*
X153363872Y-74432143D01*
X153484947Y-74509953D01*
X153523162Y-74521173D01*
X153581940Y-74558947D01*
X153610966Y-74622502D01*
X153601023Y-74691661D01*
X153555269Y-74744466D01*
X153555268Y-74744466D01*
X153518874Y-74767855D01*
X153518872Y-74767856D01*
X153518872Y-74767857D01*
X153506493Y-74782143D01*
X153424623Y-74876626D01*
X153424622Y-74876628D01*
X153364834Y-75007543D01*
X153344353Y-75150000D01*
X153364834Y-75292456D01*
X153424622Y-75423371D01*
X153424623Y-75423373D01*
X153518872Y-75532143D01*
X153639947Y-75609953D01*
X153639950Y-75609954D01*
X153639949Y-75609954D01*
X153778036Y-75650499D01*
X153778038Y-75650500D01*
X153778039Y-75650500D01*
X153921962Y-75650500D01*
X153921962Y-75650499D01*
X154060053Y-75609953D01*
X154181128Y-75532143D01*
X154275377Y-75423373D01*
X154331720Y-75300000D01*
X154894353Y-75300000D01*
X154914834Y-75442456D01*
X154968494Y-75559953D01*
X154974623Y-75573373D01*
X155068872Y-75682143D01*
X155189947Y-75759953D01*
X155189950Y-75759954D01*
X155189949Y-75759954D01*
X155328036Y-75800499D01*
X155328038Y-75800500D01*
X155328039Y-75800500D01*
X155471962Y-75800500D01*
X155471962Y-75800499D01*
X155610053Y-75759953D01*
X155731128Y-75682143D01*
X155825377Y-75573373D01*
X155885165Y-75442457D01*
X155905647Y-75300000D01*
X155885165Y-75157543D01*
X155825377Y-75026627D01*
X155731128Y-74917857D01*
X155610053Y-74840047D01*
X155610051Y-74840046D01*
X155610049Y-74840045D01*
X155610050Y-74840045D01*
X155471963Y-74799500D01*
X155471961Y-74799500D01*
X155328039Y-74799500D01*
X155328036Y-74799500D01*
X155189949Y-74840045D01*
X155068873Y-74917856D01*
X155068872Y-74917856D01*
X155068872Y-74917857D01*
X155056290Y-74932377D01*
X154974623Y-75026626D01*
X154974622Y-75026628D01*
X154914834Y-75157543D01*
X154894353Y-75300000D01*
X154331720Y-75300000D01*
X154335165Y-75292457D01*
X154355647Y-75150000D01*
X154335165Y-75007543D01*
X154275377Y-74876627D01*
X154181128Y-74767857D01*
X154084452Y-74705727D01*
X154060050Y-74690045D01*
X154021836Y-74678825D01*
X153963058Y-74641051D01*
X153934033Y-74577495D01*
X153943977Y-74508337D01*
X153989732Y-74455533D01*
X153989731Y-74455533D01*
X154026128Y-74432143D01*
X154120377Y-74323373D01*
X154180165Y-74192457D01*
X154193458Y-74100000D01*
X154444353Y-74100000D01*
X154464834Y-74242456D01*
X154518494Y-74359953D01*
X154524623Y-74373373D01*
X154618872Y-74482143D01*
X154739947Y-74559953D01*
X154739950Y-74559954D01*
X154739949Y-74559954D01*
X154799690Y-74577495D01*
X154876336Y-74600000D01*
X154878036Y-74600499D01*
X154878038Y-74600500D01*
X154878039Y-74600500D01*
X155021962Y-74600500D01*
X155021962Y-74600499D01*
X155160053Y-74559953D01*
X155281128Y-74482143D01*
X155375377Y-74373373D01*
X155390618Y-74340000D01*
X194094417Y-74340000D01*
X194114699Y-74545932D01*
X194131252Y-74600499D01*
X194174768Y-74743954D01*
X194272315Y-74926450D01*
X194272317Y-74926452D01*
X194403589Y-75086410D01*
X194481075Y-75150000D01*
X194563550Y-75217685D01*
X194746046Y-75315232D01*
X194944066Y-75375300D01*
X194944065Y-75375300D01*
X194962529Y-75377118D01*
X195150000Y-75395583D01*
X195355934Y-75375300D01*
X195553954Y-75315232D01*
X195736450Y-75217685D01*
X195896410Y-75086410D01*
X196027685Y-74926450D01*
X196125232Y-74743954D01*
X196185300Y-74545934D01*
X196205583Y-74340000D01*
X196185300Y-74134066D01*
X196125232Y-73936046D01*
X196027685Y-73753550D01*
X195934536Y-73640047D01*
X195896410Y-73593589D01*
X195736452Y-73462317D01*
X195736453Y-73462317D01*
X195736450Y-73462315D01*
X195553954Y-73364768D01*
X195355934Y-73304700D01*
X195355932Y-73304699D01*
X195355934Y-73304699D01*
X195150000Y-73284417D01*
X194944067Y-73304699D01*
X194746043Y-73364769D01*
X194635898Y-73423643D01*
X194563550Y-73462315D01*
X194563548Y-73462316D01*
X194563547Y-73462317D01*
X194403589Y-73593589D01*
X194301607Y-73717857D01*
X194272315Y-73753550D01*
X194242167Y-73809953D01*
X194174769Y-73936043D01*
X194114699Y-74134067D01*
X194094417Y-74340000D01*
X155390618Y-74340000D01*
X155435165Y-74242457D01*
X155455647Y-74100000D01*
X155435165Y-73957543D01*
X155375377Y-73826627D01*
X155281128Y-73717857D01*
X155160053Y-73640047D01*
X155160051Y-73640046D01*
X155160049Y-73640045D01*
X155160050Y-73640045D01*
X155021963Y-73599500D01*
X155021961Y-73599500D01*
X154878039Y-73599500D01*
X154878036Y-73599500D01*
X154739949Y-73640045D01*
X154618873Y-73717856D01*
X154524623Y-73826626D01*
X154524622Y-73826628D01*
X154464834Y-73957543D01*
X154444353Y-74100000D01*
X154193458Y-74100000D01*
X154200647Y-74050000D01*
X154180165Y-73907543D01*
X154120377Y-73776627D01*
X154026128Y-73667857D01*
X153905053Y-73590047D01*
X153905051Y-73590046D01*
X153905049Y-73590045D01*
X153905050Y-73590045D01*
X153766963Y-73549500D01*
X153766961Y-73549500D01*
X153623039Y-73549500D01*
X153623036Y-73549500D01*
X153484949Y-73590045D01*
X153363873Y-73667856D01*
X153269623Y-73776626D01*
X153269622Y-73776628D01*
X153209834Y-73907543D01*
X153189353Y-74050000D01*
X151508980Y-74050000D01*
X151481128Y-74017857D01*
X151360053Y-73940047D01*
X151360051Y-73940046D01*
X151360049Y-73940045D01*
X151360050Y-73940045D01*
X151221963Y-73899500D01*
X151221961Y-73899500D01*
X151078039Y-73899500D01*
X151078036Y-73899500D01*
X150939949Y-73940045D01*
X150818873Y-74017856D01*
X150724623Y-74126626D01*
X150724622Y-74126628D01*
X150664834Y-74257543D01*
X150644353Y-74400000D01*
X149858886Y-74400000D01*
X149825377Y-74326627D01*
X149731128Y-74217857D01*
X149610053Y-74140047D01*
X149610051Y-74140046D01*
X149610049Y-74140045D01*
X149610050Y-74140045D01*
X149471963Y-74099500D01*
X149471961Y-74099500D01*
X149328039Y-74099500D01*
X149328036Y-74099500D01*
X149189949Y-74140045D01*
X149068873Y-74217856D01*
X148974623Y-74326626D01*
X148974622Y-74326628D01*
X148914834Y-74457543D01*
X148894353Y-74600000D01*
X145623666Y-74600000D01*
X145621963Y-74599500D01*
X145621961Y-74599500D01*
X145478039Y-74599500D01*
X145478036Y-74599500D01*
X145339949Y-74640045D01*
X145218873Y-74717856D01*
X145124623Y-74826626D01*
X145124622Y-74826628D01*
X145064834Y-74957543D01*
X145044353Y-75100000D01*
X97500500Y-75100000D01*
X97500500Y-74500000D01*
X141744353Y-74500000D01*
X141764834Y-74642456D01*
X141811421Y-74744466D01*
X141824623Y-74773373D01*
X141918872Y-74882143D01*
X142039947Y-74959953D01*
X142039950Y-74959954D01*
X142039949Y-74959954D01*
X142178036Y-75000499D01*
X142178038Y-75000500D01*
X142178039Y-75000500D01*
X142321962Y-75000500D01*
X142321962Y-75000499D01*
X142460053Y-74959953D01*
X142581128Y-74882143D01*
X142675377Y-74773373D01*
X142735165Y-74642457D01*
X142755647Y-74500000D01*
X142735165Y-74357543D01*
X142675377Y-74226627D01*
X142581128Y-74117857D01*
X142460053Y-74040047D01*
X142460051Y-74040046D01*
X142460049Y-74040045D01*
X142460050Y-74040045D01*
X142321963Y-73999500D01*
X142321961Y-73999500D01*
X142178039Y-73999500D01*
X142178036Y-73999500D01*
X142039949Y-74040045D01*
X141918873Y-74117856D01*
X141824623Y-74226626D01*
X141824622Y-74226628D01*
X141764834Y-74357543D01*
X141744353Y-74500000D01*
X97500500Y-74500000D01*
X97500500Y-73900000D01*
X144294353Y-73900000D01*
X144314834Y-74042456D01*
X144353275Y-74126628D01*
X144374623Y-74173373D01*
X144468872Y-74282143D01*
X144589947Y-74359953D01*
X144589950Y-74359954D01*
X144589949Y-74359954D01*
X144697107Y-74391417D01*
X144726336Y-74400000D01*
X144728036Y-74400499D01*
X144728038Y-74400500D01*
X144728039Y-74400500D01*
X144871962Y-74400500D01*
X144871962Y-74400499D01*
X145010053Y-74359953D01*
X145131128Y-74282143D01*
X145225377Y-74173373D01*
X145285165Y-74042457D01*
X145305647Y-73900000D01*
X145285165Y-73757543D01*
X145225377Y-73626627D01*
X145131128Y-73517857D01*
X145010053Y-73440047D01*
X145010051Y-73440046D01*
X145010049Y-73440045D01*
X145010050Y-73440045D01*
X144871963Y-73399500D01*
X144871961Y-73399500D01*
X144728039Y-73399500D01*
X144728036Y-73399500D01*
X144589949Y-73440045D01*
X144468873Y-73517856D01*
X144374623Y-73626626D01*
X144374622Y-73626628D01*
X144314834Y-73757543D01*
X144294353Y-73900000D01*
X97500500Y-73900000D01*
X97500500Y-73000000D01*
X120331853Y-73000000D01*
X120352334Y-73142456D01*
X120382059Y-73207543D01*
X120412123Y-73273373D01*
X120506372Y-73382143D01*
X120627447Y-73459953D01*
X120627450Y-73459954D01*
X120627449Y-73459954D01*
X120765536Y-73500499D01*
X120765538Y-73500500D01*
X120765539Y-73500500D01*
X120909462Y-73500500D01*
X120909462Y-73500499D01*
X121047553Y-73459953D01*
X121168628Y-73382143D01*
X121262877Y-73273373D01*
X121322665Y-73142457D01*
X121343147Y-73000000D01*
X121322665Y-72857543D01*
X121262877Y-72726627D01*
X121168628Y-72617857D01*
X121047553Y-72540047D01*
X121047551Y-72540046D01*
X121047549Y-72540045D01*
X121047550Y-72540045D01*
X120909463Y-72499500D01*
X120909461Y-72499500D01*
X120765539Y-72499500D01*
X120765536Y-72499500D01*
X120627449Y-72540045D01*
X120506373Y-72617856D01*
X120412123Y-72726626D01*
X120412122Y-72726628D01*
X120352334Y-72857543D01*
X120331853Y-73000000D01*
X97500500Y-73000000D01*
X97500500Y-71399999D01*
X102994357Y-71399999D01*
X102994357Y-71400000D01*
X103014884Y-71621535D01*
X103014885Y-71621537D01*
X103075769Y-71835523D01*
X103075775Y-71835538D01*
X103174938Y-72034683D01*
X103174943Y-72034691D01*
X103309020Y-72212238D01*
X103473437Y-72362123D01*
X103473439Y-72362125D01*
X103662595Y-72479245D01*
X103662596Y-72479245D01*
X103662599Y-72479247D01*
X103870060Y-72559618D01*
X104088757Y-72600500D01*
X104088759Y-72600500D01*
X104311241Y-72600500D01*
X104311243Y-72600500D01*
X104529940Y-72559618D01*
X104737401Y-72479247D01*
X104926562Y-72362124D01*
X105000193Y-72295000D01*
X146839353Y-72295000D01*
X146859834Y-72437456D01*
X146878919Y-72479245D01*
X146919623Y-72568373D01*
X147013872Y-72677143D01*
X147134947Y-72754953D01*
X147134950Y-72754954D01*
X147134949Y-72754954D01*
X147273036Y-72795499D01*
X147273038Y-72795500D01*
X147273039Y-72795500D01*
X147416962Y-72795500D01*
X147416962Y-72795499D01*
X147555053Y-72754953D01*
X147640562Y-72700000D01*
X148494353Y-72700000D01*
X148514834Y-72842456D01*
X148541918Y-72901760D01*
X148574623Y-72973373D01*
X148668872Y-73082143D01*
X148789947Y-73159953D01*
X148789950Y-73159954D01*
X148789949Y-73159954D01*
X148928036Y-73200499D01*
X148928038Y-73200500D01*
X148928039Y-73200500D01*
X149071962Y-73200500D01*
X149071962Y-73200499D01*
X149210053Y-73159953D01*
X149210061Y-73159947D01*
X149213918Y-73158187D01*
X149218137Y-73157580D01*
X149218563Y-73157455D01*
X149218580Y-73157516D01*
X149283075Y-73148238D01*
X149346633Y-73177257D01*
X149384413Y-73236032D01*
X149388177Y-73288623D01*
X149379353Y-73349999D01*
X149399834Y-73492456D01*
X149425886Y-73549500D01*
X149459623Y-73623373D01*
X149553872Y-73732143D01*
X149674947Y-73809953D01*
X149674950Y-73809954D01*
X149674949Y-73809954D01*
X149813036Y-73850499D01*
X149813038Y-73850500D01*
X149813039Y-73850500D01*
X149956962Y-73850500D01*
X149956962Y-73850499D01*
X150095053Y-73809953D01*
X150216128Y-73732143D01*
X150310377Y-73623373D01*
X150370165Y-73492457D01*
X150390647Y-73350000D01*
X150370165Y-73207543D01*
X150310377Y-73076627D01*
X150216128Y-72967857D01*
X150095053Y-72890047D01*
X150095051Y-72890046D01*
X150095049Y-72890045D01*
X150095050Y-72890045D01*
X149956963Y-72849500D01*
X149956961Y-72849500D01*
X149813039Y-72849500D01*
X149813036Y-72849500D01*
X149674948Y-72890045D01*
X149671070Y-72891817D01*
X149666850Y-72892423D01*
X149666437Y-72892545D01*
X149666419Y-72892485D01*
X149601911Y-72901760D01*
X149538356Y-72872734D01*
X149500582Y-72813955D01*
X149496822Y-72761377D01*
X149505647Y-72700000D01*
X149485165Y-72557543D01*
X149425377Y-72426627D01*
X149425375Y-72426625D01*
X149425374Y-72426622D01*
X149339362Y-72327359D01*
X149310337Y-72263804D01*
X149320281Y-72194645D01*
X149366034Y-72141843D01*
X149381128Y-72132143D01*
X149475377Y-72023373D01*
X149535165Y-71892457D01*
X149548458Y-71800000D01*
X162594353Y-71800000D01*
X162614834Y-71942456D01*
X162656956Y-72034689D01*
X162674623Y-72073373D01*
X162768872Y-72182143D01*
X162889947Y-72259953D01*
X162889950Y-72259954D01*
X162889949Y-72259954D01*
X163028036Y-72300499D01*
X163028038Y-72300500D01*
X163028039Y-72300500D01*
X163171962Y-72300500D01*
X163171962Y-72300499D01*
X163310053Y-72259953D01*
X163431128Y-72182143D01*
X163525377Y-72073373D01*
X163585165Y-71942457D01*
X163605647Y-71800000D01*
X170594353Y-71800000D01*
X170614834Y-71942456D01*
X170656956Y-72034689D01*
X170674623Y-72073373D01*
X170768872Y-72182143D01*
X170889947Y-72259953D01*
X170889950Y-72259954D01*
X170889949Y-72259954D01*
X171028036Y-72300499D01*
X171028038Y-72300500D01*
X171028039Y-72300500D01*
X171171962Y-72300500D01*
X171171962Y-72300499D01*
X171310053Y-72259953D01*
X171431128Y-72182143D01*
X171525377Y-72073373D01*
X171585165Y-71942457D01*
X171605647Y-71800000D01*
X194094417Y-71800000D01*
X194114699Y-72005932D01*
X194135157Y-72073373D01*
X194174768Y-72203954D01*
X194272315Y-72386450D01*
X194272317Y-72386452D01*
X194403589Y-72546410D01*
X194469499Y-72600500D01*
X194563550Y-72677685D01*
X194746046Y-72775232D01*
X194944066Y-72835300D01*
X194944065Y-72835300D01*
X194962529Y-72837118D01*
X195150000Y-72855583D01*
X195355934Y-72835300D01*
X195553954Y-72775232D01*
X195736450Y-72677685D01*
X195896410Y-72546410D01*
X196027685Y-72386450D01*
X196125232Y-72203954D01*
X196185300Y-72005934D01*
X196205583Y-71800000D01*
X196185300Y-71594066D01*
X196125232Y-71396046D01*
X196027685Y-71213550D01*
X195953679Y-71123373D01*
X195896410Y-71053589D01*
X195770184Y-70950000D01*
X195736450Y-70922315D01*
X195553954Y-70824768D01*
X195355934Y-70764700D01*
X195355932Y-70764699D01*
X195355934Y-70764699D01*
X195150000Y-70744417D01*
X194944067Y-70764699D01*
X194768692Y-70817898D01*
X194750652Y-70823371D01*
X194746043Y-70824769D01*
X194635898Y-70883643D01*
X194563550Y-70922315D01*
X194563548Y-70922316D01*
X194563547Y-70922317D01*
X194403589Y-71053589D01*
X194272317Y-71213547D01*
X194272315Y-71213550D01*
X194262377Y-71232143D01*
X194174769Y-71396043D01*
X194114699Y-71594067D01*
X194094417Y-71800000D01*
X171605647Y-71800000D01*
X171585165Y-71657543D01*
X171525377Y-71526627D01*
X171431128Y-71417857D01*
X171310053Y-71340047D01*
X171310051Y-71340046D01*
X171310049Y-71340045D01*
X171310050Y-71340045D01*
X171171963Y-71299500D01*
X171171961Y-71299500D01*
X171028039Y-71299500D01*
X171028036Y-71299500D01*
X170889949Y-71340045D01*
X170768873Y-71417856D01*
X170674623Y-71526626D01*
X170674622Y-71526628D01*
X170614834Y-71657543D01*
X170594353Y-71800000D01*
X163605647Y-71800000D01*
X163585165Y-71657543D01*
X163525377Y-71526627D01*
X163431128Y-71417857D01*
X163310053Y-71340047D01*
X163310051Y-71340046D01*
X163310049Y-71340045D01*
X163310050Y-71340045D01*
X163171963Y-71299500D01*
X163171961Y-71299500D01*
X163028039Y-71299500D01*
X163028036Y-71299500D01*
X162889949Y-71340045D01*
X162768873Y-71417856D01*
X162674623Y-71526626D01*
X162674622Y-71526628D01*
X162614834Y-71657543D01*
X162594353Y-71800000D01*
X149548458Y-71800000D01*
X149555647Y-71750000D01*
X149535165Y-71607543D01*
X149475377Y-71476627D01*
X149381128Y-71367857D01*
X149260053Y-71290047D01*
X149260051Y-71290046D01*
X149260049Y-71290045D01*
X149260050Y-71290045D01*
X149121963Y-71249500D01*
X149121961Y-71249500D01*
X148978039Y-71249500D01*
X148978036Y-71249500D01*
X148839949Y-71290045D01*
X148718873Y-71367856D01*
X148624623Y-71476626D01*
X148624622Y-71476628D01*
X148564834Y-71607543D01*
X148544353Y-71750000D01*
X148564834Y-71892456D01*
X148624622Y-72023371D01*
X148624625Y-72023377D01*
X148710637Y-72122640D01*
X148739662Y-72186195D01*
X148729718Y-72255354D01*
X148683966Y-72308156D01*
X148668873Y-72317855D01*
X148574623Y-72426626D01*
X148574622Y-72426628D01*
X148514834Y-72557543D01*
X148494353Y-72700000D01*
X147640562Y-72700000D01*
X147676128Y-72677143D01*
X147770377Y-72568373D01*
X147830165Y-72437457D01*
X147850647Y-72295000D01*
X147830165Y-72152543D01*
X147770377Y-72021627D01*
X147676128Y-71912857D01*
X147555053Y-71835047D01*
X147555051Y-71835046D01*
X147555049Y-71835045D01*
X147555050Y-71835045D01*
X147416963Y-71794500D01*
X147416961Y-71794500D01*
X147273039Y-71794500D01*
X147273036Y-71794500D01*
X147134949Y-71835045D01*
X147013873Y-71912856D01*
X146919623Y-72021626D01*
X146919622Y-72021628D01*
X146859834Y-72152543D01*
X146839353Y-72295000D01*
X105000193Y-72295000D01*
X105090981Y-72212236D01*
X105225058Y-72034689D01*
X105324229Y-71835528D01*
X105385115Y-71621536D01*
X105405643Y-71400000D01*
X105402664Y-71367856D01*
X105385115Y-71178464D01*
X105385114Y-71178462D01*
X105369439Y-71123371D01*
X105324229Y-70964472D01*
X105308131Y-70932143D01*
X105225061Y-70765316D01*
X105225056Y-70765308D01*
X105090979Y-70587761D01*
X105049557Y-70550000D01*
X149379353Y-70550000D01*
X149399834Y-70692456D01*
X149459622Y-70823371D01*
X149459623Y-70823373D01*
X149553872Y-70932143D01*
X149674947Y-71009953D01*
X149674950Y-71009954D01*
X149674949Y-71009954D01*
X149813036Y-71050499D01*
X149813038Y-71050500D01*
X149813039Y-71050500D01*
X149956962Y-71050500D01*
X149956962Y-71050499D01*
X150095053Y-71009953D01*
X150216128Y-70932143D01*
X150287305Y-70850000D01*
X153189353Y-70850000D01*
X153209834Y-70992456D01*
X153255504Y-71092457D01*
X153269623Y-71123373D01*
X153363872Y-71232143D01*
X153484947Y-71309953D01*
X153484950Y-71309954D01*
X153484949Y-71309954D01*
X153623036Y-71350499D01*
X153623038Y-71350500D01*
X153623039Y-71350500D01*
X153766962Y-71350500D01*
X153766962Y-71350499D01*
X153905053Y-71309953D01*
X154026128Y-71232143D01*
X154120377Y-71123373D01*
X154180165Y-70992457D01*
X154186269Y-70950000D01*
X155594353Y-70950000D01*
X155614834Y-71092456D01*
X155670137Y-71213550D01*
X155674623Y-71223373D01*
X155768872Y-71332143D01*
X155889947Y-71409953D01*
X155889950Y-71409954D01*
X155889949Y-71409954D01*
X156028036Y-71450499D01*
X156028038Y-71450500D01*
X156028039Y-71450500D01*
X156171962Y-71450500D01*
X156171962Y-71450499D01*
X156310053Y-71409953D01*
X156431128Y-71332143D01*
X156525377Y-71223373D01*
X156585165Y-71092457D01*
X156605647Y-70950000D01*
X156585165Y-70807543D01*
X156525377Y-70676627D01*
X156431128Y-70567857D01*
X156310053Y-70490047D01*
X156310051Y-70490046D01*
X156310049Y-70490045D01*
X156310050Y-70490045D01*
X156171963Y-70449500D01*
X156171961Y-70449500D01*
X156028039Y-70449500D01*
X156028036Y-70449500D01*
X155889949Y-70490045D01*
X155768873Y-70567856D01*
X155674623Y-70676626D01*
X155674622Y-70676628D01*
X155614834Y-70807543D01*
X155594353Y-70950000D01*
X154186269Y-70950000D01*
X154200647Y-70850000D01*
X154180165Y-70707543D01*
X154120377Y-70576627D01*
X154026128Y-70467857D01*
X153905053Y-70390047D01*
X153905051Y-70390046D01*
X153905049Y-70390045D01*
X153905050Y-70390045D01*
X153766963Y-70349500D01*
X153766961Y-70349500D01*
X153623039Y-70349500D01*
X153623036Y-70349500D01*
X153484949Y-70390045D01*
X153363873Y-70467856D01*
X153269623Y-70576626D01*
X153269622Y-70576628D01*
X153209834Y-70707543D01*
X153189353Y-70850000D01*
X150287305Y-70850000D01*
X150310377Y-70823373D01*
X150370165Y-70692457D01*
X150390647Y-70550000D01*
X150370165Y-70407543D01*
X150310377Y-70276627D01*
X150216128Y-70167857D01*
X150095053Y-70090047D01*
X150095051Y-70090046D01*
X150095049Y-70090045D01*
X150095050Y-70090045D01*
X149956963Y-70049500D01*
X149956961Y-70049500D01*
X149813039Y-70049500D01*
X149813036Y-70049500D01*
X149674949Y-70090045D01*
X149553873Y-70167856D01*
X149459623Y-70276626D01*
X149459622Y-70276628D01*
X149399834Y-70407543D01*
X149379353Y-70550000D01*
X105049557Y-70550000D01*
X104926562Y-70437876D01*
X104926560Y-70437874D01*
X104737404Y-70320754D01*
X104737398Y-70320752D01*
X104529940Y-70240382D01*
X104311243Y-70199500D01*
X104088757Y-70199500D01*
X103870060Y-70240382D01*
X103738864Y-70291207D01*
X103662601Y-70320752D01*
X103662595Y-70320754D01*
X103473439Y-70437874D01*
X103473437Y-70437876D01*
X103309020Y-70587761D01*
X103174943Y-70765308D01*
X103174938Y-70765316D01*
X103075775Y-70964461D01*
X103075769Y-70964476D01*
X103014885Y-71178462D01*
X103014884Y-71178464D01*
X102994357Y-71399999D01*
X97500500Y-71399999D01*
X97500500Y-69260000D01*
X194094417Y-69260000D01*
X194114699Y-69465932D01*
X194114700Y-69465934D01*
X194174768Y-69663954D01*
X194272315Y-69846450D01*
X194272317Y-69846452D01*
X194403589Y-70006410D01*
X194500209Y-70085702D01*
X194563550Y-70137685D01*
X194746046Y-70235232D01*
X194944066Y-70295300D01*
X194944065Y-70295300D01*
X194962529Y-70297118D01*
X195150000Y-70315583D01*
X195355934Y-70295300D01*
X195553954Y-70235232D01*
X195736450Y-70137685D01*
X195896410Y-70006410D01*
X196027685Y-69846450D01*
X196125232Y-69663954D01*
X196185300Y-69465934D01*
X196205583Y-69260000D01*
X196185300Y-69054066D01*
X196125232Y-68856046D01*
X196027685Y-68673550D01*
X195975702Y-68610209D01*
X195896410Y-68513589D01*
X195736452Y-68382317D01*
X195736453Y-68382317D01*
X195736450Y-68382315D01*
X195553954Y-68284768D01*
X195355934Y-68224700D01*
X195355932Y-68224699D01*
X195355934Y-68224699D01*
X195150000Y-68204417D01*
X194944067Y-68224699D01*
X194746043Y-68284769D01*
X194635898Y-68343643D01*
X194563550Y-68382315D01*
X194563548Y-68382316D01*
X194563547Y-68382317D01*
X194403589Y-68513589D01*
X194272317Y-68673547D01*
X194174769Y-68856043D01*
X194114699Y-69054067D01*
X194094417Y-69260000D01*
X97500500Y-69260000D01*
X97500500Y-66720000D01*
X194094417Y-66720000D01*
X194114699Y-66925932D01*
X194114700Y-66925934D01*
X194174768Y-67123954D01*
X194272315Y-67306450D01*
X194272317Y-67306452D01*
X194403589Y-67466410D01*
X194500209Y-67545702D01*
X194563550Y-67597685D01*
X194746046Y-67695232D01*
X194944066Y-67755300D01*
X194944065Y-67755300D01*
X194962529Y-67757118D01*
X195150000Y-67775583D01*
X195355934Y-67755300D01*
X195553954Y-67695232D01*
X195736450Y-67597685D01*
X195896410Y-67466410D01*
X196027685Y-67306450D01*
X196125232Y-67123954D01*
X196185300Y-66925934D01*
X196205583Y-66720000D01*
X196185300Y-66514066D01*
X196125232Y-66316046D01*
X196027685Y-66133550D01*
X195926253Y-66009954D01*
X195896410Y-65973589D01*
X195736452Y-65842317D01*
X195736453Y-65842317D01*
X195736450Y-65842315D01*
X195553954Y-65744768D01*
X195355934Y-65684700D01*
X195355932Y-65684699D01*
X195355934Y-65684699D01*
X195150000Y-65664417D01*
X194944067Y-65684699D01*
X194746043Y-65744769D01*
X194635898Y-65803643D01*
X194563550Y-65842315D01*
X194563548Y-65842316D01*
X194563547Y-65842317D01*
X194403589Y-65973589D01*
X194272317Y-66133547D01*
X194174769Y-66316043D01*
X194114699Y-66514067D01*
X194094417Y-66720000D01*
X97500500Y-66720000D01*
X97500500Y-65550000D01*
X99306853Y-65550000D01*
X99327334Y-65692456D01*
X99341453Y-65723371D01*
X99387123Y-65823373D01*
X99481372Y-65932143D01*
X99602447Y-66009953D01*
X99602450Y-66009954D01*
X99602449Y-66009954D01*
X99740536Y-66050499D01*
X99740538Y-66050500D01*
X99740539Y-66050500D01*
X99884462Y-66050500D01*
X99884462Y-66050499D01*
X100022553Y-66009953D01*
X100143628Y-65932143D01*
X100237877Y-65823373D01*
X100297665Y-65692457D01*
X100318147Y-65550000D01*
X100303769Y-65450000D01*
X139994353Y-65450000D01*
X140014834Y-65592456D01*
X140060504Y-65692457D01*
X140074623Y-65723373D01*
X140168872Y-65832143D01*
X140289947Y-65909953D01*
X140289950Y-65909954D01*
X140289949Y-65909954D01*
X140428036Y-65950499D01*
X140428038Y-65950500D01*
X140428039Y-65950500D01*
X140571962Y-65950500D01*
X140571962Y-65950499D01*
X140710053Y-65909953D01*
X140831128Y-65832143D01*
X140925377Y-65723373D01*
X140985165Y-65592457D01*
X141005647Y-65450000D01*
X140985165Y-65307543D01*
X140925377Y-65176627D01*
X140831128Y-65067857D01*
X140710053Y-64990047D01*
X140710051Y-64990046D01*
X140710049Y-64990045D01*
X140710050Y-64990045D01*
X140571963Y-64949500D01*
X140571961Y-64949500D01*
X140428039Y-64949500D01*
X140428036Y-64949500D01*
X140289949Y-64990045D01*
X140168873Y-65067856D01*
X140074623Y-65176626D01*
X140074622Y-65176628D01*
X140014834Y-65307543D01*
X139994353Y-65450000D01*
X100303769Y-65450000D01*
X100297665Y-65407543D01*
X100237877Y-65276627D01*
X100143628Y-65167857D01*
X100022553Y-65090047D01*
X100022551Y-65090046D01*
X100022549Y-65090045D01*
X100022550Y-65090045D01*
X99884463Y-65049500D01*
X99884461Y-65049500D01*
X99740539Y-65049500D01*
X99740536Y-65049500D01*
X99602449Y-65090045D01*
X99481373Y-65167856D01*
X99387123Y-65276626D01*
X99387122Y-65276628D01*
X99327334Y-65407543D01*
X99306853Y-65550000D01*
X97500500Y-65550000D01*
X97500500Y-64180000D01*
X139994353Y-64180000D01*
X140014834Y-64322456D01*
X140074622Y-64453371D01*
X140074623Y-64453373D01*
X140168872Y-64562143D01*
X140289947Y-64639953D01*
X140289950Y-64639954D01*
X140289949Y-64639954D01*
X140428036Y-64680499D01*
X140428038Y-64680500D01*
X140428039Y-64680500D01*
X140571962Y-64680500D01*
X140571962Y-64680499D01*
X140710053Y-64639953D01*
X140831128Y-64562143D01*
X140925377Y-64453373D01*
X140985165Y-64322457D01*
X141002771Y-64200000D01*
X161544353Y-64200000D01*
X161564834Y-64342456D01*
X161615488Y-64453371D01*
X161624623Y-64473373D01*
X161718872Y-64582143D01*
X161839947Y-64659953D01*
X161839950Y-64659954D01*
X161839949Y-64659954D01*
X161978036Y-64700499D01*
X161978038Y-64700500D01*
X161978039Y-64700500D01*
X162121962Y-64700500D01*
X162121962Y-64700499D01*
X162260053Y-64659953D01*
X162381128Y-64582143D01*
X162475377Y-64473373D01*
X162535165Y-64342457D01*
X162555647Y-64200000D01*
X162535165Y-64057543D01*
X162475377Y-63926627D01*
X162381128Y-63817857D01*
X162260053Y-63740047D01*
X162260051Y-63740046D01*
X162260049Y-63740045D01*
X162260050Y-63740045D01*
X162121963Y-63699500D01*
X162121961Y-63699500D01*
X161978039Y-63699500D01*
X161978036Y-63699500D01*
X161839949Y-63740045D01*
X161718873Y-63817856D01*
X161624623Y-63926626D01*
X161624622Y-63926628D01*
X161564834Y-64057543D01*
X161544353Y-64200000D01*
X141002771Y-64200000D01*
X141005647Y-64180000D01*
X140985165Y-64037543D01*
X140925377Y-63906627D01*
X140831128Y-63797857D01*
X140710053Y-63720047D01*
X140710051Y-63720046D01*
X140710049Y-63720045D01*
X140710050Y-63720045D01*
X140571963Y-63679500D01*
X140571961Y-63679500D01*
X140428039Y-63679500D01*
X140428036Y-63679500D01*
X140289949Y-63720045D01*
X140168873Y-63797856D01*
X140074623Y-63906626D01*
X140074622Y-63906628D01*
X140014834Y-64037543D01*
X139994353Y-64180000D01*
X97500500Y-64180000D01*
X97500500Y-63650000D01*
X168194353Y-63650000D01*
X168214834Y-63792456D01*
X168250353Y-63870230D01*
X168274623Y-63923373D01*
X168368872Y-64032143D01*
X168489947Y-64109953D01*
X168489950Y-64109954D01*
X168489949Y-64109954D01*
X168628036Y-64150499D01*
X168628038Y-64150500D01*
X168628039Y-64150500D01*
X168771962Y-64150500D01*
X168771962Y-64150499D01*
X168910053Y-64109953D01*
X169031128Y-64032143D01*
X169125377Y-63923373D01*
X169185165Y-63792457D01*
X169205647Y-63650000D01*
X169185165Y-63507543D01*
X169125377Y-63376627D01*
X169031128Y-63267857D01*
X168910053Y-63190047D01*
X168910051Y-63190046D01*
X168910049Y-63190045D01*
X168910050Y-63190045D01*
X168771963Y-63149500D01*
X168771961Y-63149500D01*
X168628039Y-63149500D01*
X168628036Y-63149500D01*
X168489949Y-63190045D01*
X168368873Y-63267856D01*
X168274623Y-63376626D01*
X168274622Y-63376628D01*
X168214834Y-63507543D01*
X168194353Y-63650000D01*
X97500500Y-63650000D01*
X97500500Y-62900000D01*
X99306853Y-62900000D01*
X99327334Y-63042456D01*
X99354040Y-63100932D01*
X99387123Y-63173373D01*
X99481372Y-63282143D01*
X99602447Y-63359953D01*
X99602450Y-63359954D01*
X99602449Y-63359954D01*
X99740536Y-63400499D01*
X99740538Y-63400500D01*
X99740539Y-63400500D01*
X99884462Y-63400500D01*
X99884462Y-63400499D01*
X100022553Y-63359953D01*
X100143628Y-63282143D01*
X100237877Y-63173373D01*
X100297665Y-63042457D01*
X100318147Y-62900000D01*
X100317428Y-62895000D01*
X194044417Y-62895000D01*
X194064699Y-63100932D01*
X194064700Y-63100934D01*
X194124768Y-63298954D01*
X194222315Y-63481450D01*
X194222317Y-63481452D01*
X194353589Y-63641410D01*
X194400003Y-63679500D01*
X194513550Y-63772685D01*
X194696046Y-63870232D01*
X194894066Y-63930300D01*
X194894065Y-63930300D01*
X194912529Y-63932118D01*
X195100000Y-63950583D01*
X195305934Y-63930300D01*
X195503954Y-63870232D01*
X195686450Y-63772685D01*
X195846410Y-63641410D01*
X195977685Y-63481450D01*
X196075232Y-63298954D01*
X196135300Y-63100934D01*
X196155583Y-62895000D01*
X196135300Y-62689066D01*
X196075232Y-62491046D01*
X195977685Y-62308550D01*
X195925702Y-62245209D01*
X195846410Y-62148589D01*
X195686452Y-62017317D01*
X195686453Y-62017317D01*
X195686450Y-62017315D01*
X195503954Y-61919768D01*
X195305934Y-61859700D01*
X195305932Y-61859699D01*
X195305934Y-61859699D01*
X195100000Y-61839417D01*
X194894067Y-61859699D01*
X194696043Y-61919769D01*
X194585898Y-61978643D01*
X194513550Y-62017315D01*
X194513548Y-62017316D01*
X194513547Y-62017317D01*
X194353589Y-62148589D01*
X194222317Y-62308547D01*
X194124769Y-62491043D01*
X194064699Y-62689067D01*
X194044417Y-62895000D01*
X100317428Y-62895000D01*
X100297665Y-62757543D01*
X100237877Y-62626627D01*
X100143628Y-62517857D01*
X100022553Y-62440047D01*
X100022551Y-62440046D01*
X100022549Y-62440045D01*
X100022550Y-62440045D01*
X99884463Y-62399500D01*
X99884461Y-62399500D01*
X99740539Y-62399500D01*
X99740536Y-62399500D01*
X99602449Y-62440045D01*
X99481373Y-62517856D01*
X99387123Y-62626626D01*
X99387122Y-62626628D01*
X99327334Y-62757543D01*
X99306853Y-62900000D01*
X97500500Y-62900000D01*
X97500500Y-61550000D01*
X159144353Y-61550000D01*
X159164834Y-61692456D01*
X159224622Y-61823371D01*
X159224623Y-61823373D01*
X159318872Y-61932143D01*
X159439947Y-62009953D01*
X159439950Y-62009954D01*
X159439949Y-62009954D01*
X159578036Y-62050499D01*
X159578038Y-62050500D01*
X159578039Y-62050500D01*
X159721962Y-62050500D01*
X159721962Y-62050499D01*
X159860053Y-62009953D01*
X159981128Y-61932143D01*
X160075377Y-61823373D01*
X160135165Y-61692457D01*
X160155647Y-61550000D01*
X160135165Y-61407543D01*
X160075377Y-61276627D01*
X159981128Y-61167857D01*
X159860053Y-61090047D01*
X159860052Y-61090046D01*
X159860051Y-61090046D01*
X159854023Y-61087293D01*
X159801221Y-61041536D01*
X159789257Y-61000789D01*
X159745970Y-61038296D01*
X159694462Y-61049500D01*
X159578036Y-61049500D01*
X159439949Y-61090045D01*
X159318873Y-61167856D01*
X159224623Y-61276626D01*
X159224622Y-61276628D01*
X159164834Y-61407543D01*
X159144353Y-61550000D01*
X97500500Y-61550000D01*
X97500500Y-61316660D01*
X146686892Y-61316660D01*
X146686892Y-61316661D01*
X146700692Y-61325333D01*
X146700691Y-61325333D01*
X146870861Y-61384878D01*
X147049997Y-61405062D01*
X147050003Y-61405062D01*
X147229138Y-61384878D01*
X147229141Y-61384877D01*
X147399305Y-61325334D01*
X147399306Y-61325334D01*
X147413106Y-61316661D01*
X147413106Y-61316660D01*
X148086892Y-61316660D01*
X148086892Y-61316661D01*
X148100692Y-61325333D01*
X148100691Y-61325333D01*
X148270861Y-61384878D01*
X148449997Y-61405062D01*
X148450003Y-61405062D01*
X148629138Y-61384878D01*
X148629141Y-61384877D01*
X148799305Y-61325334D01*
X148799306Y-61325334D01*
X148813106Y-61316661D01*
X148813106Y-61316660D01*
X148450001Y-60953553D01*
X148450000Y-60953553D01*
X148086892Y-61316660D01*
X147413106Y-61316660D01*
X147050001Y-60953553D01*
X147050000Y-60953553D01*
X146686892Y-61316660D01*
X97500500Y-61316660D01*
X97500500Y-60150000D01*
X99269353Y-60150000D01*
X99289834Y-60292456D01*
X99316114Y-60350000D01*
X99349623Y-60423373D01*
X99443872Y-60532143D01*
X99564947Y-60609953D01*
X99564950Y-60609954D01*
X99564949Y-60609954D01*
X99703036Y-60650499D01*
X99703038Y-60650500D01*
X99703039Y-60650500D01*
X99846962Y-60650500D01*
X99846962Y-60650499D01*
X99962210Y-60616660D01*
X145986892Y-60616660D01*
X145986892Y-60616661D01*
X146000692Y-60625333D01*
X146000691Y-60625333D01*
X146170862Y-60684878D01*
X146171644Y-60685057D01*
X146172097Y-60685310D01*
X146177431Y-60687177D01*
X146177104Y-60688111D01*
X146232623Y-60719166D01*
X146261952Y-60772874D01*
X146262822Y-60772570D01*
X146264670Y-60777852D01*
X146264940Y-60778346D01*
X146265121Y-60779142D01*
X146324663Y-60949300D01*
X146324663Y-60949301D01*
X146333338Y-60963107D01*
X146696446Y-60600000D01*
X146676555Y-60580109D01*
X146950000Y-60580109D01*
X146950000Y-60619891D01*
X146965224Y-60656645D01*
X146993355Y-60684776D01*
X147030109Y-60700000D01*
X147069891Y-60700000D01*
X147106645Y-60684776D01*
X147134776Y-60656645D01*
X147150000Y-60619891D01*
X147150000Y-60600000D01*
X147403553Y-60600000D01*
X147750000Y-60946446D01*
X147750001Y-60946446D01*
X148096446Y-60600000D01*
X148076555Y-60580109D01*
X148350000Y-60580109D01*
X148350000Y-60619891D01*
X148365224Y-60656645D01*
X148393355Y-60684776D01*
X148430109Y-60700000D01*
X148469891Y-60700000D01*
X148506645Y-60684776D01*
X148534776Y-60656645D01*
X148550000Y-60619891D01*
X148550000Y-60600000D01*
X148803553Y-60600000D01*
X149166660Y-60963106D01*
X149166661Y-60963106D01*
X149175334Y-60949306D01*
X149175334Y-60949305D01*
X149234876Y-60779144D01*
X149235056Y-60778358D01*
X149235311Y-60777901D01*
X149237177Y-60772570D01*
X149238110Y-60772896D01*
X149269164Y-60717379D01*
X149322875Y-60688049D01*
X149322570Y-60687177D01*
X149327870Y-60685322D01*
X149328358Y-60685056D01*
X149329144Y-60684876D01*
X149499305Y-60625334D01*
X149499306Y-60625334D01*
X149513106Y-60616661D01*
X149513106Y-60616660D01*
X149246447Y-60350000D01*
X159444353Y-60350000D01*
X159464834Y-60492456D01*
X159504865Y-60580109D01*
X159524623Y-60623373D01*
X159618872Y-60732143D01*
X159739947Y-60809953D01*
X159739949Y-60809953D01*
X159745977Y-60812707D01*
X159798779Y-60858464D01*
X159810742Y-60899210D01*
X159854030Y-60861704D01*
X159905538Y-60850500D01*
X160021962Y-60850500D01*
X160021962Y-60850499D01*
X160160053Y-60809953D01*
X160281128Y-60732143D01*
X160375377Y-60623373D01*
X160435165Y-60492457D01*
X160455647Y-60350000D01*
X160435165Y-60207543D01*
X160408886Y-60150000D01*
X160944353Y-60150000D01*
X160964834Y-60292456D01*
X160991114Y-60350000D01*
X161024623Y-60423373D01*
X161118872Y-60532143D01*
X161239947Y-60609953D01*
X161239950Y-60609954D01*
X161239949Y-60609954D01*
X161378036Y-60650499D01*
X161378038Y-60650500D01*
X161378039Y-60650500D01*
X161521962Y-60650500D01*
X161521962Y-60650499D01*
X161660053Y-60609953D01*
X161781128Y-60532143D01*
X161875377Y-60423373D01*
X161935165Y-60292457D01*
X161955647Y-60150000D01*
X161935165Y-60007543D01*
X161875377Y-59876627D01*
X161781128Y-59767857D01*
X161660053Y-59690047D01*
X161660051Y-59690046D01*
X161660049Y-59690045D01*
X161660050Y-59690045D01*
X161521963Y-59649500D01*
X161521961Y-59649500D01*
X161378039Y-59649500D01*
X161378036Y-59649500D01*
X161239949Y-59690045D01*
X161118873Y-59767856D01*
X161024623Y-59876626D01*
X161024622Y-59876628D01*
X160964834Y-60007543D01*
X160944353Y-60150000D01*
X160408886Y-60150000D01*
X160375377Y-60076627D01*
X160281128Y-59967857D01*
X160160053Y-59890047D01*
X160160051Y-59890046D01*
X160160049Y-59890045D01*
X160160050Y-59890045D01*
X160021963Y-59849500D01*
X160021961Y-59849500D01*
X159878039Y-59849500D01*
X159878036Y-59849500D01*
X159739949Y-59890045D01*
X159618873Y-59967856D01*
X159524623Y-60076626D01*
X159524622Y-60076628D01*
X159464834Y-60207543D01*
X159444353Y-60350000D01*
X149246447Y-60350000D01*
X149150000Y-60253553D01*
X149149999Y-60253553D01*
X149111099Y-60292455D01*
X149111097Y-60292457D01*
X148803553Y-60600000D01*
X148550000Y-60600000D01*
X148550000Y-60580109D01*
X148534776Y-60543355D01*
X148506645Y-60515224D01*
X148469891Y-60500000D01*
X148430109Y-60500000D01*
X148393355Y-60515224D01*
X148365224Y-60543355D01*
X148350000Y-60580109D01*
X148076555Y-60580109D01*
X147788902Y-60292456D01*
X147750000Y-60253553D01*
X147711098Y-60292456D01*
X147711097Y-60292457D01*
X147403553Y-60600000D01*
X147150000Y-60600000D01*
X147150000Y-60580109D01*
X147134776Y-60543355D01*
X147106645Y-60515224D01*
X147069891Y-60500000D01*
X147030109Y-60500000D01*
X146993355Y-60515224D01*
X146965224Y-60543355D01*
X146950000Y-60580109D01*
X146676555Y-60580109D01*
X146349999Y-60253553D01*
X146349998Y-60253553D01*
X145986892Y-60616660D01*
X99962210Y-60616660D01*
X99985053Y-60609953D01*
X100106128Y-60532143D01*
X100200377Y-60423373D01*
X100260165Y-60292457D01*
X100280647Y-60150000D01*
X100260165Y-60007543D01*
X100211050Y-59899997D01*
X145544938Y-59899997D01*
X145544938Y-59900002D01*
X145565121Y-60079138D01*
X145624665Y-60249304D01*
X145633338Y-60263107D01*
X145996446Y-59900000D01*
X145996446Y-59899999D01*
X145976556Y-59880109D01*
X146250000Y-59880109D01*
X146250000Y-59919891D01*
X146265224Y-59956645D01*
X146293355Y-59984776D01*
X146330109Y-60000000D01*
X146369891Y-60000000D01*
X146406645Y-59984776D01*
X146434776Y-59956645D01*
X146450000Y-59919891D01*
X146450000Y-59899999D01*
X146703553Y-59899999D01*
X147050000Y-60246446D01*
X147396446Y-59900000D01*
X147376555Y-59880109D01*
X147650000Y-59880109D01*
X147650000Y-59919891D01*
X147665224Y-59956645D01*
X147693355Y-59984776D01*
X147730109Y-60000000D01*
X147769891Y-60000000D01*
X147806645Y-59984776D01*
X147834776Y-59956645D01*
X147850000Y-59919891D01*
X147850000Y-59899999D01*
X148103553Y-59899999D01*
X148450000Y-60246446D01*
X148796446Y-59900000D01*
X148776555Y-59880109D01*
X149050000Y-59880109D01*
X149050000Y-59919891D01*
X149065224Y-59956645D01*
X149093355Y-59984776D01*
X149130109Y-60000000D01*
X149169891Y-60000000D01*
X149206645Y-59984776D01*
X149234776Y-59956645D01*
X149250000Y-59919891D01*
X149250000Y-59900000D01*
X149503553Y-59900000D01*
X149866660Y-60263106D01*
X149866661Y-60263106D01*
X149875334Y-60249306D01*
X149875334Y-60249305D01*
X149934877Y-60079141D01*
X149934878Y-60079138D01*
X149955062Y-59900002D01*
X149955062Y-59899997D01*
X149934878Y-59720861D01*
X149875333Y-59550692D01*
X149866661Y-59536892D01*
X149866660Y-59536892D01*
X149503553Y-59900000D01*
X149250000Y-59900000D01*
X149250000Y-59880109D01*
X149234776Y-59843355D01*
X149206645Y-59815224D01*
X149169891Y-59800000D01*
X149130109Y-59800000D01*
X149093355Y-59815224D01*
X149065224Y-59843355D01*
X149050000Y-59880109D01*
X148776555Y-59880109D01*
X148496945Y-59600499D01*
X148450000Y-59553553D01*
X148403055Y-59600499D01*
X148403054Y-59600500D01*
X148103553Y-59899999D01*
X147850000Y-59899999D01*
X147850000Y-59880109D01*
X147834776Y-59843355D01*
X147806645Y-59815224D01*
X147769891Y-59800000D01*
X147730109Y-59800000D01*
X147693355Y-59815224D01*
X147665224Y-59843355D01*
X147650000Y-59880109D01*
X147376555Y-59880109D01*
X147096945Y-59600499D01*
X147050000Y-59553553D01*
X147003055Y-59600499D01*
X147003054Y-59600500D01*
X146703553Y-59899999D01*
X146450000Y-59899999D01*
X146450000Y-59880109D01*
X146434776Y-59843355D01*
X146406645Y-59815224D01*
X146369891Y-59800000D01*
X146330109Y-59800000D01*
X146293355Y-59815224D01*
X146265224Y-59843355D01*
X146250000Y-59880109D01*
X145976556Y-59880109D01*
X145633338Y-59536891D01*
X145633337Y-59536891D01*
X145624667Y-59550691D01*
X145624662Y-59550701D01*
X145565122Y-59720858D01*
X145565121Y-59720861D01*
X145544938Y-59899997D01*
X100211050Y-59899997D01*
X100200377Y-59876627D01*
X100106128Y-59767857D01*
X99985053Y-59690047D01*
X99985051Y-59690046D01*
X99985049Y-59690045D01*
X99985050Y-59690045D01*
X99846963Y-59649500D01*
X99846961Y-59649500D01*
X99703039Y-59649500D01*
X99703036Y-59649500D01*
X99564949Y-59690045D01*
X99443873Y-59767856D01*
X99349623Y-59876626D01*
X99349622Y-59876628D01*
X99289834Y-60007543D01*
X99269353Y-60150000D01*
X97500500Y-60150000D01*
X97500500Y-58750000D01*
X112056853Y-58750000D01*
X112077334Y-58892456D01*
X112091453Y-58923371D01*
X112137123Y-59023373D01*
X112231372Y-59132143D01*
X112352447Y-59209953D01*
X112352450Y-59209954D01*
X112352449Y-59209954D01*
X112490536Y-59250499D01*
X112490538Y-59250500D01*
X112490539Y-59250500D01*
X112634462Y-59250500D01*
X112634462Y-59250499D01*
X112772553Y-59209953D01*
X112893628Y-59132143D01*
X112987877Y-59023373D01*
X113047665Y-58892457D01*
X113068147Y-58750000D01*
X121706853Y-58750000D01*
X121727334Y-58892456D01*
X121741453Y-58923371D01*
X121787123Y-59023373D01*
X121881372Y-59132143D01*
X122002447Y-59209953D01*
X122002450Y-59209954D01*
X122002449Y-59209954D01*
X122140536Y-59250499D01*
X122140538Y-59250500D01*
X122140539Y-59250500D01*
X122284462Y-59250500D01*
X122284462Y-59250499D01*
X122422553Y-59209953D01*
X122438042Y-59199999D01*
X146003553Y-59199999D01*
X146003553Y-59200001D01*
X146349998Y-59546446D01*
X146349999Y-59546446D01*
X146653989Y-59242457D01*
X146696446Y-59200000D01*
X146676555Y-59180109D01*
X146950000Y-59180109D01*
X146950000Y-59219891D01*
X146965224Y-59256645D01*
X146993355Y-59284776D01*
X147030109Y-59300000D01*
X147069891Y-59300000D01*
X147106645Y-59284776D01*
X147134776Y-59256645D01*
X147150000Y-59219891D01*
X147150000Y-59199999D01*
X147403553Y-59199999D01*
X147446011Y-59242456D01*
X147446012Y-59242458D01*
X147750000Y-59546446D01*
X148096446Y-59200000D01*
X148076555Y-59180109D01*
X148350000Y-59180109D01*
X148350000Y-59219891D01*
X148365224Y-59256645D01*
X148393355Y-59284776D01*
X148430109Y-59300000D01*
X148469891Y-59300000D01*
X148506645Y-59284776D01*
X148534776Y-59256645D01*
X148550000Y-59219891D01*
X148550000Y-59199999D01*
X148803553Y-59199999D01*
X148846011Y-59242456D01*
X148846012Y-59242458D01*
X149150000Y-59546446D01*
X149496446Y-59200000D01*
X149496446Y-59199999D01*
X149396447Y-59100000D01*
X157494353Y-59100000D01*
X157514834Y-59242456D01*
X157548482Y-59316133D01*
X157574623Y-59373373D01*
X157668872Y-59482143D01*
X157789947Y-59559953D01*
X157789950Y-59559954D01*
X157789949Y-59559954D01*
X157928036Y-59600499D01*
X157928038Y-59600500D01*
X157928039Y-59600500D01*
X158071962Y-59600500D01*
X158071962Y-59600499D01*
X158210053Y-59559953D01*
X158326298Y-59485247D01*
X194049500Y-59485247D01*
X194049500Y-61224752D01*
X194061131Y-61283229D01*
X194061132Y-61283230D01*
X194105447Y-61349552D01*
X194171769Y-61393867D01*
X194171770Y-61393868D01*
X194230247Y-61405499D01*
X194230250Y-61405500D01*
X194230252Y-61405500D01*
X195969750Y-61405500D01*
X195969751Y-61405499D01*
X195984568Y-61402552D01*
X196028229Y-61393868D01*
X196028229Y-61393867D01*
X196028231Y-61393867D01*
X196094552Y-61349552D01*
X196138867Y-61283231D01*
X196138867Y-61283229D01*
X196138868Y-61283229D01*
X196150499Y-61224752D01*
X196150500Y-61224750D01*
X196150500Y-59485249D01*
X196150499Y-59485247D01*
X196138868Y-59426770D01*
X196138867Y-59426769D01*
X196094552Y-59360447D01*
X196028230Y-59316132D01*
X196028229Y-59316131D01*
X195969752Y-59304500D01*
X195969748Y-59304500D01*
X194230252Y-59304500D01*
X194230247Y-59304500D01*
X194171770Y-59316131D01*
X194171769Y-59316132D01*
X194105447Y-59360447D01*
X194061132Y-59426769D01*
X194061131Y-59426770D01*
X194049500Y-59485247D01*
X158326298Y-59485247D01*
X158331128Y-59482143D01*
X158425377Y-59373373D01*
X158485165Y-59242457D01*
X158505647Y-59100000D01*
X158485165Y-58957543D01*
X158425377Y-58826627D01*
X158331128Y-58717857D01*
X158225540Y-58650000D01*
X176869353Y-58650000D01*
X176889834Y-58792456D01*
X176935504Y-58892457D01*
X176949623Y-58923373D01*
X177043872Y-59032143D01*
X177164947Y-59109953D01*
X177164950Y-59109954D01*
X177164949Y-59109954D01*
X177303036Y-59150499D01*
X177303038Y-59150500D01*
X177303039Y-59150500D01*
X177446962Y-59150500D01*
X177446962Y-59150499D01*
X177554121Y-59119035D01*
X177585050Y-59109954D01*
X177585050Y-59109953D01*
X177585053Y-59109953D01*
X177706128Y-59032143D01*
X177800377Y-58923373D01*
X177860165Y-58792457D01*
X177880647Y-58650000D01*
X186719353Y-58650000D01*
X186739834Y-58792456D01*
X186785504Y-58892457D01*
X186799623Y-58923373D01*
X186893872Y-59032143D01*
X187014947Y-59109953D01*
X187014950Y-59109954D01*
X187014949Y-59109954D01*
X187153036Y-59150499D01*
X187153038Y-59150500D01*
X187153039Y-59150500D01*
X187296962Y-59150500D01*
X187296962Y-59150499D01*
X187404121Y-59119035D01*
X187435050Y-59109954D01*
X187435050Y-59109953D01*
X187435053Y-59109953D01*
X187556128Y-59032143D01*
X187650377Y-58923373D01*
X187710165Y-58792457D01*
X187730647Y-58650000D01*
X187710165Y-58507543D01*
X187650377Y-58376627D01*
X187556128Y-58267857D01*
X187435053Y-58190047D01*
X187435051Y-58190046D01*
X187435049Y-58190045D01*
X187435050Y-58190045D01*
X187296963Y-58149500D01*
X187296961Y-58149500D01*
X187153039Y-58149500D01*
X187153036Y-58149500D01*
X187014949Y-58190045D01*
X186893873Y-58267856D01*
X186799623Y-58376626D01*
X186799622Y-58376628D01*
X186739834Y-58507543D01*
X186719353Y-58650000D01*
X177880647Y-58650000D01*
X177860165Y-58507543D01*
X177800377Y-58376627D01*
X177706128Y-58267857D01*
X177585053Y-58190047D01*
X177585051Y-58190046D01*
X177585049Y-58190045D01*
X177585050Y-58190045D01*
X177446963Y-58149500D01*
X177446961Y-58149500D01*
X177303039Y-58149500D01*
X177303036Y-58149500D01*
X177164949Y-58190045D01*
X177043873Y-58267856D01*
X176949623Y-58376626D01*
X176949622Y-58376628D01*
X176889834Y-58507543D01*
X176869353Y-58650000D01*
X158225540Y-58650000D01*
X158210053Y-58640047D01*
X158210051Y-58640046D01*
X158210049Y-58640045D01*
X158210050Y-58640045D01*
X158071963Y-58599500D01*
X158071961Y-58599500D01*
X157928039Y-58599500D01*
X157928036Y-58599500D01*
X157789949Y-58640045D01*
X157668873Y-58717856D01*
X157574623Y-58826626D01*
X157574622Y-58826628D01*
X157514834Y-58957543D01*
X157494353Y-59100000D01*
X149396447Y-59100000D01*
X149150000Y-58853553D01*
X149149999Y-58853553D01*
X149111099Y-58892455D01*
X149111097Y-58892457D01*
X148803553Y-59199999D01*
X148550000Y-59199999D01*
X148550000Y-59180109D01*
X148534776Y-59143355D01*
X148506645Y-59115224D01*
X148469891Y-59100000D01*
X148430109Y-59100000D01*
X148393355Y-59115224D01*
X148365224Y-59143355D01*
X148350000Y-59180109D01*
X148076555Y-59180109D01*
X147788902Y-58892456D01*
X147750000Y-58853553D01*
X147711098Y-58892456D01*
X147711097Y-58892457D01*
X147403553Y-59199999D01*
X147150000Y-59199999D01*
X147150000Y-59180109D01*
X147134776Y-59143355D01*
X147106645Y-59115224D01*
X147069891Y-59100000D01*
X147030109Y-59100000D01*
X146993355Y-59115224D01*
X146965224Y-59143355D01*
X146950000Y-59180109D01*
X146676555Y-59180109D01*
X146349999Y-58853553D01*
X146349998Y-58853553D01*
X146003553Y-59199999D01*
X122438042Y-59199999D01*
X122543628Y-59132143D01*
X122637877Y-59023373D01*
X122697665Y-58892457D01*
X122718147Y-58750000D01*
X122697665Y-58607543D01*
X122648550Y-58499997D01*
X145544938Y-58499997D01*
X145544938Y-58500002D01*
X145565121Y-58679138D01*
X145624665Y-58849304D01*
X145633338Y-58863107D01*
X145996446Y-58500000D01*
X145996446Y-58499999D01*
X145976556Y-58480109D01*
X146250000Y-58480109D01*
X146250000Y-58519891D01*
X146265224Y-58556645D01*
X146293355Y-58584776D01*
X146330109Y-58600000D01*
X146369891Y-58600000D01*
X146406645Y-58584776D01*
X146434776Y-58556645D01*
X146450000Y-58519891D01*
X146450000Y-58499999D01*
X146703553Y-58499999D01*
X147050000Y-58846446D01*
X147396446Y-58500000D01*
X147376555Y-58480109D01*
X147650000Y-58480109D01*
X147650000Y-58519891D01*
X147665224Y-58556645D01*
X147693355Y-58584776D01*
X147730109Y-58600000D01*
X147769891Y-58600000D01*
X147806645Y-58584776D01*
X147834776Y-58556645D01*
X147850000Y-58519891D01*
X147850000Y-58499999D01*
X148103553Y-58499999D01*
X148450000Y-58846446D01*
X148796446Y-58500000D01*
X148776555Y-58480109D01*
X149050000Y-58480109D01*
X149050000Y-58519891D01*
X149065224Y-58556645D01*
X149093355Y-58584776D01*
X149130109Y-58600000D01*
X149169891Y-58600000D01*
X149206645Y-58584776D01*
X149234776Y-58556645D01*
X149250000Y-58519891D01*
X149250000Y-58500000D01*
X149503553Y-58500000D01*
X149866660Y-58863106D01*
X149866661Y-58863106D01*
X149875334Y-58849306D01*
X149875334Y-58849305D01*
X149934877Y-58679141D01*
X149934878Y-58679138D01*
X149955062Y-58500002D01*
X149955062Y-58499997D01*
X149934878Y-58320861D01*
X149875333Y-58150692D01*
X149866661Y-58136892D01*
X149866660Y-58136892D01*
X149503553Y-58500000D01*
X149250000Y-58500000D01*
X149250000Y-58480109D01*
X149234776Y-58443355D01*
X149206645Y-58415224D01*
X149169891Y-58400000D01*
X149130109Y-58400000D01*
X149093355Y-58415224D01*
X149065224Y-58443355D01*
X149050000Y-58480109D01*
X148776555Y-58480109D01*
X148486492Y-58190046D01*
X148450000Y-58153553D01*
X148413508Y-58190046D01*
X148413507Y-58190047D01*
X148103553Y-58499999D01*
X147850000Y-58499999D01*
X147850000Y-58480109D01*
X147834776Y-58443355D01*
X147806645Y-58415224D01*
X147769891Y-58400000D01*
X147730109Y-58400000D01*
X147693355Y-58415224D01*
X147665224Y-58443355D01*
X147650000Y-58480109D01*
X147376555Y-58480109D01*
X147086492Y-58190046D01*
X147050000Y-58153553D01*
X147013508Y-58190046D01*
X147013507Y-58190047D01*
X146703553Y-58499999D01*
X146450000Y-58499999D01*
X146450000Y-58480109D01*
X146434776Y-58443355D01*
X146406645Y-58415224D01*
X146369891Y-58400000D01*
X146330109Y-58400000D01*
X146293355Y-58415224D01*
X146265224Y-58443355D01*
X146250000Y-58480109D01*
X145976556Y-58480109D01*
X145633338Y-58136891D01*
X145633337Y-58136891D01*
X145624667Y-58150691D01*
X145624662Y-58150701D01*
X145565122Y-58320858D01*
X145565121Y-58320861D01*
X145544938Y-58499997D01*
X122648550Y-58499997D01*
X122637877Y-58476627D01*
X122543628Y-58367857D01*
X122422553Y-58290047D01*
X122422551Y-58290046D01*
X122422549Y-58290045D01*
X122422550Y-58290045D01*
X122284463Y-58249500D01*
X122284461Y-58249500D01*
X122140539Y-58249500D01*
X122140536Y-58249500D01*
X122002449Y-58290045D01*
X121881373Y-58367856D01*
X121787123Y-58476626D01*
X121787122Y-58476628D01*
X121727334Y-58607543D01*
X121706853Y-58750000D01*
X113068147Y-58750000D01*
X113047665Y-58607543D01*
X112987877Y-58476627D01*
X112893628Y-58367857D01*
X112772553Y-58290047D01*
X112772551Y-58290046D01*
X112772549Y-58290045D01*
X112772550Y-58290045D01*
X112634463Y-58249500D01*
X112634461Y-58249500D01*
X112490539Y-58249500D01*
X112490536Y-58249500D01*
X112352449Y-58290045D01*
X112231373Y-58367856D01*
X112137123Y-58476626D01*
X112137122Y-58476628D01*
X112077334Y-58607543D01*
X112056853Y-58750000D01*
X97500500Y-58750000D01*
X97500500Y-57783337D01*
X145986891Y-57783337D01*
X145986891Y-57783338D01*
X146349998Y-58146446D01*
X146349999Y-58146446D01*
X146625868Y-57870577D01*
X146696446Y-57799998D01*
X146676557Y-57780109D01*
X146950000Y-57780109D01*
X146950000Y-57819891D01*
X146965224Y-57856645D01*
X146993355Y-57884776D01*
X147030109Y-57900000D01*
X147069891Y-57900000D01*
X147106645Y-57884776D01*
X147134776Y-57856645D01*
X147150000Y-57819891D01*
X147150000Y-57799998D01*
X147403553Y-57799998D01*
X147403553Y-57799999D01*
X147750000Y-58146446D01*
X148025870Y-57870577D01*
X148096446Y-57799999D01*
X148096446Y-57799998D01*
X148076557Y-57780109D01*
X148350000Y-57780109D01*
X148350000Y-57819891D01*
X148365224Y-57856645D01*
X148393355Y-57884776D01*
X148430109Y-57900000D01*
X148469891Y-57900000D01*
X148506645Y-57884776D01*
X148534776Y-57856645D01*
X148550000Y-57819891D01*
X148550000Y-57799998D01*
X148803553Y-57799998D01*
X148803553Y-57799999D01*
X149150000Y-58146446D01*
X149150001Y-58146446D01*
X149466445Y-57830000D01*
X157494353Y-57830000D01*
X157514834Y-57972456D01*
X157574622Y-58103371D01*
X157574623Y-58103373D01*
X157668872Y-58212143D01*
X157789947Y-58289953D01*
X157789950Y-58289954D01*
X157789949Y-58289954D01*
X157928036Y-58330499D01*
X157928038Y-58330500D01*
X157928039Y-58330500D01*
X158071962Y-58330500D01*
X158071962Y-58330499D01*
X158210053Y-58289953D01*
X158331128Y-58212143D01*
X158425377Y-58103373D01*
X158485165Y-57972457D01*
X158505647Y-57830000D01*
X158485165Y-57687543D01*
X158425377Y-57556627D01*
X158331128Y-57447857D01*
X158210053Y-57370047D01*
X158210051Y-57370046D01*
X158210049Y-57370045D01*
X158210050Y-57370045D01*
X158071963Y-57329500D01*
X158071961Y-57329500D01*
X157928039Y-57329500D01*
X157928036Y-57329500D01*
X157789949Y-57370045D01*
X157668873Y-57447856D01*
X157668872Y-57447856D01*
X157668872Y-57447857D01*
X157656290Y-57462377D01*
X157574623Y-57556626D01*
X157574622Y-57556628D01*
X157514834Y-57687543D01*
X157494353Y-57830000D01*
X149466445Y-57830000D01*
X149513107Y-57783338D01*
X149499301Y-57774663D01*
X149329142Y-57715121D01*
X149328346Y-57714940D01*
X149327883Y-57714681D01*
X149322570Y-57712822D01*
X149322895Y-57711890D01*
X149267370Y-57680827D01*
X149238049Y-57627125D01*
X149237177Y-57627431D01*
X149235321Y-57622128D01*
X149235057Y-57621644D01*
X149234878Y-57620862D01*
X149175333Y-57450692D01*
X149166661Y-57436892D01*
X149166660Y-57436892D01*
X148803553Y-57799998D01*
X148550000Y-57799998D01*
X148550000Y-57780109D01*
X148534776Y-57743355D01*
X148506645Y-57715224D01*
X148469891Y-57700000D01*
X148430109Y-57700000D01*
X148393355Y-57715224D01*
X148365224Y-57743355D01*
X148350000Y-57780109D01*
X148076557Y-57780109D01*
X147750001Y-57453553D01*
X147750000Y-57453553D01*
X147403553Y-57799998D01*
X147150000Y-57799998D01*
X147150000Y-57780109D01*
X147134776Y-57743355D01*
X147106645Y-57715224D01*
X147069891Y-57700000D01*
X147030109Y-57700000D01*
X146993355Y-57715224D01*
X146965224Y-57743355D01*
X146950000Y-57780109D01*
X146676557Y-57780109D01*
X146333338Y-57436891D01*
X146333337Y-57436891D01*
X146324667Y-57450691D01*
X146324662Y-57450701D01*
X146265119Y-57620866D01*
X146264939Y-57621656D01*
X146264682Y-57622113D01*
X146262823Y-57627429D01*
X146261891Y-57627103D01*
X146230824Y-57682631D01*
X146177124Y-57711952D01*
X146177429Y-57712823D01*
X146172145Y-57714671D01*
X146171656Y-57714939D01*
X146170866Y-57715119D01*
X146000701Y-57774662D01*
X146000691Y-57774667D01*
X145986891Y-57783337D01*
X97500500Y-57783337D01*
X97500500Y-56049999D01*
X104944357Y-56049999D01*
X104944357Y-56050000D01*
X104964884Y-56271535D01*
X104964885Y-56271537D01*
X105025769Y-56485523D01*
X105025775Y-56485538D01*
X105124938Y-56684683D01*
X105124943Y-56684691D01*
X105259020Y-56862238D01*
X105423437Y-57012123D01*
X105423439Y-57012125D01*
X105612595Y-57129245D01*
X105612596Y-57129245D01*
X105612599Y-57129247D01*
X105820060Y-57209618D01*
X106038757Y-57250500D01*
X106038759Y-57250500D01*
X106261241Y-57250500D01*
X106261243Y-57250500D01*
X106479940Y-57209618D01*
X106687401Y-57129247D01*
X106876562Y-57012124D01*
X107040981Y-56862236D01*
X107175058Y-56684689D01*
X107274229Y-56485528D01*
X107335115Y-56271536D01*
X107355643Y-56050000D01*
X107355643Y-56049999D01*
X111444357Y-56049999D01*
X111444357Y-56050000D01*
X111464884Y-56271535D01*
X111464885Y-56271537D01*
X111525769Y-56485523D01*
X111525775Y-56485538D01*
X111624938Y-56684683D01*
X111624943Y-56684691D01*
X111759020Y-56862238D01*
X111923437Y-57012123D01*
X111923439Y-57012125D01*
X112112595Y-57129245D01*
X112112596Y-57129245D01*
X112112599Y-57129247D01*
X112320060Y-57209618D01*
X112538757Y-57250500D01*
X112538759Y-57250500D01*
X112761241Y-57250500D01*
X112761243Y-57250500D01*
X112979940Y-57209618D01*
X113187401Y-57129247D01*
X113376562Y-57012124D01*
X113540981Y-56862236D01*
X113675058Y-56684689D01*
X113774229Y-56485528D01*
X113835115Y-56271536D01*
X113855643Y-56050000D01*
X113855643Y-56049999D01*
X114594357Y-56049999D01*
X114594357Y-56050000D01*
X114614884Y-56271535D01*
X114614885Y-56271537D01*
X114675769Y-56485523D01*
X114675775Y-56485538D01*
X114774938Y-56684683D01*
X114774943Y-56684691D01*
X114909020Y-56862238D01*
X115073437Y-57012123D01*
X115073439Y-57012125D01*
X115262595Y-57129245D01*
X115262596Y-57129245D01*
X115262599Y-57129247D01*
X115470060Y-57209618D01*
X115688757Y-57250500D01*
X115688759Y-57250500D01*
X115911241Y-57250500D01*
X115911243Y-57250500D01*
X116129940Y-57209618D01*
X116337401Y-57129247D01*
X116526562Y-57012124D01*
X116690981Y-56862236D01*
X116825058Y-56684689D01*
X116924229Y-56485528D01*
X116985115Y-56271536D01*
X117005643Y-56050000D01*
X117005643Y-56049999D01*
X121094357Y-56049999D01*
X121094357Y-56050000D01*
X121114884Y-56271535D01*
X121114885Y-56271537D01*
X121175769Y-56485523D01*
X121175775Y-56485538D01*
X121274938Y-56684683D01*
X121274943Y-56684691D01*
X121409020Y-56862238D01*
X121573437Y-57012123D01*
X121573439Y-57012125D01*
X121762595Y-57129245D01*
X121762596Y-57129245D01*
X121762599Y-57129247D01*
X121970060Y-57209618D01*
X122188757Y-57250500D01*
X122188759Y-57250500D01*
X122411241Y-57250500D01*
X122411243Y-57250500D01*
X122629940Y-57209618D01*
X122837401Y-57129247D01*
X122911549Y-57083337D01*
X146686891Y-57083337D01*
X146686891Y-57083338D01*
X147050000Y-57446446D01*
X147050001Y-57446446D01*
X147413107Y-57083338D01*
X147413105Y-57083337D01*
X148086891Y-57083337D01*
X148086891Y-57083338D01*
X148450000Y-57446446D01*
X148450001Y-57446446D01*
X148813107Y-57083338D01*
X148799304Y-57074665D01*
X148629138Y-57015121D01*
X148450003Y-56994938D01*
X148449997Y-56994938D01*
X148270861Y-57015121D01*
X148270858Y-57015122D01*
X148100701Y-57074662D01*
X148100691Y-57074667D01*
X148086891Y-57083337D01*
X147413105Y-57083337D01*
X147399304Y-57074665D01*
X147229138Y-57015121D01*
X147050003Y-56994938D01*
X147049997Y-56994938D01*
X146870861Y-57015121D01*
X146870858Y-57015122D01*
X146700701Y-57074662D01*
X146700691Y-57074667D01*
X146686891Y-57083337D01*
X122911549Y-57083337D01*
X123026562Y-57012124D01*
X123190981Y-56862236D01*
X123325058Y-56684689D01*
X123387146Y-56560000D01*
X157494353Y-56560000D01*
X157514834Y-56702456D01*
X157544023Y-56766369D01*
X157574623Y-56833373D01*
X157668872Y-56942143D01*
X157789947Y-57019953D01*
X157789950Y-57019954D01*
X157789949Y-57019954D01*
X157928036Y-57060499D01*
X157928038Y-57060500D01*
X157928039Y-57060500D01*
X158071962Y-57060500D01*
X158071962Y-57060499D01*
X158210053Y-57019953D01*
X158331128Y-56942143D01*
X158425377Y-56833373D01*
X158485165Y-56702457D01*
X158505647Y-56560000D01*
X158485165Y-56417543D01*
X158425377Y-56286627D01*
X158331128Y-56177857D01*
X158210053Y-56100047D01*
X158210051Y-56100046D01*
X158210049Y-56100045D01*
X158210050Y-56100045D01*
X158209897Y-56100000D01*
X159744353Y-56100000D01*
X159764834Y-56242456D01*
X159785007Y-56286627D01*
X159824623Y-56373373D01*
X159918872Y-56482143D01*
X160039947Y-56559953D01*
X160039950Y-56559954D01*
X160039949Y-56559954D01*
X160147107Y-56591417D01*
X160176336Y-56600000D01*
X160178036Y-56600499D01*
X160178038Y-56600500D01*
X160178039Y-56600500D01*
X160321962Y-56600500D01*
X160321962Y-56600499D01*
X160429121Y-56569035D01*
X160460050Y-56559954D01*
X160460050Y-56559953D01*
X160460053Y-56559953D01*
X160581128Y-56482143D01*
X160675377Y-56373373D01*
X160735165Y-56242457D01*
X160755647Y-56100000D01*
X160748457Y-56049994D01*
X169494859Y-56049994D01*
X169494859Y-56050005D01*
X169515385Y-56297729D01*
X169515387Y-56297738D01*
X169576412Y-56538717D01*
X169676266Y-56766364D01*
X169776564Y-56919882D01*
X170476212Y-56220234D01*
X170487482Y-56262292D01*
X170559890Y-56387708D01*
X170662292Y-56490110D01*
X170787708Y-56562518D01*
X170829765Y-56573787D01*
X170129942Y-57273609D01*
X170176768Y-57310055D01*
X170176770Y-57310056D01*
X170395385Y-57428364D01*
X170395396Y-57428369D01*
X170630506Y-57509083D01*
X170875707Y-57550000D01*
X171124293Y-57550000D01*
X171369493Y-57509083D01*
X171604603Y-57428369D01*
X171604614Y-57428364D01*
X171823228Y-57310057D01*
X171823231Y-57310055D01*
X171870056Y-57273609D01*
X171170234Y-56573787D01*
X171212292Y-56562518D01*
X171337708Y-56490110D01*
X171440110Y-56387708D01*
X171512518Y-56262292D01*
X171523787Y-56220235D01*
X172223434Y-56919882D01*
X172323731Y-56766369D01*
X172423587Y-56538717D01*
X172484612Y-56297738D01*
X172484614Y-56297729D01*
X172505141Y-56050005D01*
X172505141Y-56049994D01*
X175994859Y-56049994D01*
X175994859Y-56050005D01*
X176015385Y-56297729D01*
X176015387Y-56297738D01*
X176076412Y-56538717D01*
X176176266Y-56766364D01*
X176276564Y-56919882D01*
X176976212Y-56220234D01*
X176987482Y-56262292D01*
X177059890Y-56387708D01*
X177162292Y-56490110D01*
X177287708Y-56562518D01*
X177329765Y-56573787D01*
X176629942Y-57273609D01*
X176676768Y-57310055D01*
X176676770Y-57310056D01*
X176895385Y-57428364D01*
X176895396Y-57428369D01*
X177130506Y-57509083D01*
X177375707Y-57550000D01*
X177624293Y-57550000D01*
X177869493Y-57509083D01*
X178104603Y-57428369D01*
X178104614Y-57428364D01*
X178323228Y-57310057D01*
X178323231Y-57310055D01*
X178370056Y-57273609D01*
X177670234Y-56573787D01*
X177712292Y-56562518D01*
X177837708Y-56490110D01*
X177940110Y-56387708D01*
X178012518Y-56262292D01*
X178023787Y-56220235D01*
X178723434Y-56919882D01*
X178823731Y-56766369D01*
X178923588Y-56538716D01*
X178979794Y-56316768D01*
X179015334Y-56256612D01*
X179077754Y-56225220D01*
X179147238Y-56232558D01*
X179201723Y-56276297D01*
X179220206Y-56316768D01*
X179276411Y-56538716D01*
X179376266Y-56766364D01*
X179476564Y-56919882D01*
X180176212Y-56220234D01*
X180187482Y-56262292D01*
X180259890Y-56387708D01*
X180362292Y-56490110D01*
X180487708Y-56562518D01*
X180529765Y-56573787D01*
X179829942Y-57273609D01*
X179876768Y-57310055D01*
X179876770Y-57310056D01*
X180095385Y-57428364D01*
X180095396Y-57428369D01*
X180330506Y-57509083D01*
X180575707Y-57550000D01*
X180824293Y-57550000D01*
X181069493Y-57509083D01*
X181304603Y-57428369D01*
X181304614Y-57428364D01*
X181523228Y-57310057D01*
X181523231Y-57310055D01*
X181570056Y-57273609D01*
X180870234Y-56573787D01*
X180912292Y-56562518D01*
X181037708Y-56490110D01*
X181140110Y-56387708D01*
X181212518Y-56262292D01*
X181223787Y-56220235D01*
X181923434Y-56919882D01*
X182023731Y-56766369D01*
X182123587Y-56538717D01*
X182184612Y-56297738D01*
X182184614Y-56297729D01*
X182205141Y-56050005D01*
X182205141Y-56049994D01*
X185694859Y-56049994D01*
X185694859Y-56050005D01*
X185715385Y-56297729D01*
X185715387Y-56297738D01*
X185776412Y-56538717D01*
X185876266Y-56766364D01*
X185976564Y-56919882D01*
X186676212Y-56220234D01*
X186687482Y-56262292D01*
X186759890Y-56387708D01*
X186862292Y-56490110D01*
X186987708Y-56562518D01*
X187029765Y-56573787D01*
X186329942Y-57273609D01*
X186376768Y-57310055D01*
X186376770Y-57310056D01*
X186595385Y-57428364D01*
X186595396Y-57428369D01*
X186830506Y-57509083D01*
X187075707Y-57550000D01*
X187324293Y-57550000D01*
X187569493Y-57509083D01*
X187804603Y-57428369D01*
X187804614Y-57428364D01*
X188023228Y-57310057D01*
X188023231Y-57310055D01*
X188070056Y-57273609D01*
X187370234Y-56573787D01*
X187412292Y-56562518D01*
X187537708Y-56490110D01*
X187640110Y-56387708D01*
X187712518Y-56262292D01*
X187723787Y-56220234D01*
X188423434Y-56919882D01*
X188523731Y-56766369D01*
X188623587Y-56538717D01*
X188684612Y-56297738D01*
X188684614Y-56297729D01*
X188705141Y-56050005D01*
X188705141Y-56049994D01*
X188684614Y-55802270D01*
X188684612Y-55802261D01*
X188623587Y-55561282D01*
X188523731Y-55333630D01*
X188423434Y-55180116D01*
X187723787Y-55879764D01*
X187712518Y-55837708D01*
X187640110Y-55712292D01*
X187537708Y-55609890D01*
X187412292Y-55537482D01*
X187370235Y-55526212D01*
X188070057Y-54826390D01*
X188070056Y-54826389D01*
X188023229Y-54789943D01*
X187804614Y-54671635D01*
X187804603Y-54671630D01*
X187569493Y-54590916D01*
X187324293Y-54550000D01*
X187075707Y-54550000D01*
X186830506Y-54590916D01*
X186595396Y-54671630D01*
X186595390Y-54671632D01*
X186376761Y-54789949D01*
X186329942Y-54826388D01*
X186329942Y-54826390D01*
X187029765Y-55526212D01*
X186987708Y-55537482D01*
X186862292Y-55609890D01*
X186759890Y-55712292D01*
X186687482Y-55837708D01*
X186676212Y-55879764D01*
X185976564Y-55180116D01*
X185876267Y-55333632D01*
X185776412Y-55561282D01*
X185715387Y-55802261D01*
X185715385Y-55802270D01*
X185694859Y-56049994D01*
X182205141Y-56049994D01*
X182184614Y-55802270D01*
X182184612Y-55802261D01*
X182123587Y-55561282D01*
X182023731Y-55333630D01*
X181923434Y-55180116D01*
X181223787Y-55879764D01*
X181212518Y-55837708D01*
X181140110Y-55712292D01*
X181037708Y-55609890D01*
X180912292Y-55537482D01*
X180870235Y-55526212D01*
X181570057Y-54826390D01*
X181570056Y-54826389D01*
X181523229Y-54789943D01*
X181304614Y-54671635D01*
X181304603Y-54671630D01*
X181069493Y-54590916D01*
X180824293Y-54550000D01*
X180575707Y-54550000D01*
X180330506Y-54590916D01*
X180095396Y-54671630D01*
X180095390Y-54671632D01*
X179876761Y-54789949D01*
X179829942Y-54826388D01*
X179829942Y-54826390D01*
X180529765Y-55526212D01*
X180487708Y-55537482D01*
X180362292Y-55609890D01*
X180259890Y-55712292D01*
X180187482Y-55837708D01*
X180176212Y-55879764D01*
X179476564Y-55180116D01*
X179376267Y-55333632D01*
X179276411Y-55561282D01*
X179220206Y-55783232D01*
X179184666Y-55843387D01*
X179122245Y-55874779D01*
X179052762Y-55867441D01*
X178998277Y-55823702D01*
X178979794Y-55783232D01*
X178923588Y-55561282D01*
X178823731Y-55333630D01*
X178723434Y-55180116D01*
X178023787Y-55879764D01*
X178012518Y-55837708D01*
X177940110Y-55712292D01*
X177837708Y-55609890D01*
X177712292Y-55537482D01*
X177670235Y-55526212D01*
X178370057Y-54826390D01*
X178370056Y-54826389D01*
X178323229Y-54789943D01*
X178104614Y-54671635D01*
X178104603Y-54671630D01*
X177869493Y-54590916D01*
X177624293Y-54550000D01*
X177375707Y-54550000D01*
X177130506Y-54590916D01*
X176895396Y-54671630D01*
X176895390Y-54671632D01*
X176676761Y-54789949D01*
X176629942Y-54826388D01*
X176629942Y-54826390D01*
X177329765Y-55526212D01*
X177287708Y-55537482D01*
X177162292Y-55609890D01*
X177059890Y-55712292D01*
X176987482Y-55837708D01*
X176976212Y-55879764D01*
X176276564Y-55180116D01*
X176176267Y-55333632D01*
X176076412Y-55561282D01*
X176015387Y-55802261D01*
X176015385Y-55802270D01*
X175994859Y-56049994D01*
X172505141Y-56049994D01*
X172484614Y-55802270D01*
X172484612Y-55802261D01*
X172423587Y-55561282D01*
X172323731Y-55333630D01*
X172223434Y-55180116D01*
X171523787Y-55879764D01*
X171512518Y-55837708D01*
X171440110Y-55712292D01*
X171337708Y-55609890D01*
X171212292Y-55537482D01*
X171170235Y-55526212D01*
X171870057Y-54826390D01*
X171870056Y-54826389D01*
X171823229Y-54789943D01*
X171604614Y-54671635D01*
X171604603Y-54671630D01*
X171369493Y-54590916D01*
X171124293Y-54550000D01*
X170875707Y-54550000D01*
X170630506Y-54590916D01*
X170395396Y-54671630D01*
X170395390Y-54671632D01*
X170176761Y-54789949D01*
X170129942Y-54826388D01*
X170129942Y-54826390D01*
X170829765Y-55526212D01*
X170787708Y-55537482D01*
X170662292Y-55609890D01*
X170559890Y-55712292D01*
X170487482Y-55837708D01*
X170476212Y-55879764D01*
X169776564Y-55180116D01*
X169676267Y-55333632D01*
X169576412Y-55561282D01*
X169515387Y-55802261D01*
X169515385Y-55802270D01*
X169494859Y-56049994D01*
X160748457Y-56049994D01*
X160735165Y-55957543D01*
X160675377Y-55826627D01*
X160581128Y-55717857D01*
X160460053Y-55640047D01*
X160460051Y-55640046D01*
X160460049Y-55640045D01*
X160460050Y-55640045D01*
X160321963Y-55599500D01*
X160321961Y-55599500D01*
X160178039Y-55599500D01*
X160178036Y-55599500D01*
X160039949Y-55640045D01*
X159918873Y-55717856D01*
X159824623Y-55826626D01*
X159824622Y-55826628D01*
X159764834Y-55957543D01*
X159744353Y-56100000D01*
X158209897Y-56100000D01*
X158071963Y-56059500D01*
X158071961Y-56059500D01*
X157928039Y-56059500D01*
X157928036Y-56059500D01*
X157789949Y-56100045D01*
X157668873Y-56177856D01*
X157574623Y-56286626D01*
X157574622Y-56286628D01*
X157514834Y-56417543D01*
X157494353Y-56560000D01*
X123387146Y-56560000D01*
X123424229Y-56485528D01*
X123485115Y-56271536D01*
X123505643Y-56050000D01*
X123505642Y-56049994D01*
X123485115Y-55828464D01*
X123485114Y-55828462D01*
X123484592Y-55826628D01*
X123424229Y-55614472D01*
X123424224Y-55614461D01*
X123325061Y-55415316D01*
X123325056Y-55415308D01*
X123190979Y-55237761D01*
X123026562Y-55087876D01*
X123026560Y-55087874D01*
X122837404Y-54970754D01*
X122837398Y-54970752D01*
X122654767Y-54900000D01*
X159244353Y-54900000D01*
X159264834Y-55042456D01*
X159285576Y-55087874D01*
X159324623Y-55173373D01*
X159418872Y-55282143D01*
X159539947Y-55359953D01*
X159539950Y-55359954D01*
X159539949Y-55359954D01*
X159678036Y-55400499D01*
X159678038Y-55400500D01*
X159678039Y-55400500D01*
X159821962Y-55400500D01*
X159821962Y-55400499D01*
X159960053Y-55359953D01*
X160081128Y-55282143D01*
X160175377Y-55173373D01*
X160235165Y-55042457D01*
X160255647Y-54900000D01*
X160235165Y-54757543D01*
X160175377Y-54626627D01*
X160081128Y-54517857D01*
X159960053Y-54440047D01*
X159960051Y-54440046D01*
X159960049Y-54440045D01*
X159960050Y-54440045D01*
X159821963Y-54399500D01*
X159821961Y-54399500D01*
X159678039Y-54399500D01*
X159678036Y-54399500D01*
X159539949Y-54440045D01*
X159418873Y-54517856D01*
X159324623Y-54626626D01*
X159324622Y-54626628D01*
X159264834Y-54757543D01*
X159244353Y-54900000D01*
X122654767Y-54900000D01*
X122629940Y-54890382D01*
X122411243Y-54849500D01*
X122188757Y-54849500D01*
X121970060Y-54890382D01*
X121838864Y-54941207D01*
X121762601Y-54970752D01*
X121762595Y-54970754D01*
X121573439Y-55087874D01*
X121573437Y-55087876D01*
X121409020Y-55237761D01*
X121274943Y-55415308D01*
X121274938Y-55415316D01*
X121175775Y-55614461D01*
X121175769Y-55614476D01*
X121114885Y-55828462D01*
X121114884Y-55828464D01*
X121094357Y-56049999D01*
X117005643Y-56049999D01*
X117005642Y-56049994D01*
X116985115Y-55828464D01*
X116985114Y-55828462D01*
X116984592Y-55826628D01*
X116924229Y-55614472D01*
X116924224Y-55614461D01*
X116825061Y-55415316D01*
X116825056Y-55415308D01*
X116690979Y-55237761D01*
X116526562Y-55087876D01*
X116526560Y-55087874D01*
X116337404Y-54970754D01*
X116337398Y-54970752D01*
X116129940Y-54890382D01*
X115911243Y-54849500D01*
X115688757Y-54849500D01*
X115470060Y-54890382D01*
X115338864Y-54941207D01*
X115262601Y-54970752D01*
X115262595Y-54970754D01*
X115073439Y-55087874D01*
X115073437Y-55087876D01*
X114909020Y-55237761D01*
X114774943Y-55415308D01*
X114774938Y-55415316D01*
X114675775Y-55614461D01*
X114675769Y-55614476D01*
X114614885Y-55828462D01*
X114614884Y-55828464D01*
X114594357Y-56049999D01*
X113855643Y-56049999D01*
X113855642Y-56049994D01*
X113835115Y-55828464D01*
X113835114Y-55828462D01*
X113834592Y-55826628D01*
X113774229Y-55614472D01*
X113774224Y-55614461D01*
X113675061Y-55415316D01*
X113675056Y-55415308D01*
X113540979Y-55237761D01*
X113376562Y-55087876D01*
X113376560Y-55087874D01*
X113187404Y-54970754D01*
X113187398Y-54970752D01*
X112979940Y-54890382D01*
X112761243Y-54849500D01*
X112538757Y-54849500D01*
X112320060Y-54890382D01*
X112188864Y-54941207D01*
X112112601Y-54970752D01*
X112112595Y-54970754D01*
X111923439Y-55087874D01*
X111923437Y-55087876D01*
X111759020Y-55237761D01*
X111624943Y-55415308D01*
X111624938Y-55415316D01*
X111525775Y-55614461D01*
X111525769Y-55614476D01*
X111464885Y-55828462D01*
X111464884Y-55828464D01*
X111444357Y-56049999D01*
X107355643Y-56049999D01*
X107355642Y-56049994D01*
X107335115Y-55828464D01*
X107335114Y-55828462D01*
X107334592Y-55826628D01*
X107274229Y-55614472D01*
X107274224Y-55614461D01*
X107175061Y-55415316D01*
X107175056Y-55415308D01*
X107040979Y-55237761D01*
X106876562Y-55087876D01*
X106876560Y-55087874D01*
X106687404Y-54970754D01*
X106687398Y-54970752D01*
X106479940Y-54890382D01*
X106261243Y-54849500D01*
X106038757Y-54849500D01*
X105820060Y-54890382D01*
X105688864Y-54941207D01*
X105612601Y-54970752D01*
X105612595Y-54970754D01*
X105423439Y-55087874D01*
X105423437Y-55087876D01*
X105259020Y-55237761D01*
X105124943Y-55415308D01*
X105124938Y-55415316D01*
X105025775Y-55614461D01*
X105025769Y-55614476D01*
X104964885Y-55828462D01*
X104964884Y-55828464D01*
X104944357Y-56049999D01*
X97500500Y-56049999D01*
X97500500Y-53878711D01*
X98949500Y-53878711D01*
X98949500Y-54121288D01*
X98981161Y-54361785D01*
X99043947Y-54596104D01*
X99124238Y-54789943D01*
X99136776Y-54820212D01*
X99258064Y-55030289D01*
X99258066Y-55030292D01*
X99258067Y-55030293D01*
X99405733Y-55222736D01*
X99405739Y-55222743D01*
X99577256Y-55394260D01*
X99577263Y-55394266D01*
X99604686Y-55415308D01*
X99769711Y-55541936D01*
X99979788Y-55663224D01*
X100203900Y-55756054D01*
X100438211Y-55818838D01*
X100618586Y-55842584D01*
X100678711Y-55850500D01*
X100678712Y-55850500D01*
X100921289Y-55850500D01*
X100969388Y-55844167D01*
X101161789Y-55818838D01*
X101396100Y-55756054D01*
X101620212Y-55663224D01*
X101830289Y-55541936D01*
X102022738Y-55394265D01*
X102194265Y-55222738D01*
X102341936Y-55030289D01*
X102463224Y-54820212D01*
X102556054Y-54596100D01*
X102618838Y-54361789D01*
X102650500Y-54121288D01*
X102650500Y-54020000D01*
X139994353Y-54020000D01*
X140014834Y-54162456D01*
X140023825Y-54182143D01*
X140074623Y-54293373D01*
X140168872Y-54402143D01*
X140289947Y-54479953D01*
X140289950Y-54479954D01*
X140289949Y-54479954D01*
X140397107Y-54511417D01*
X140419034Y-54517856D01*
X140428036Y-54520499D01*
X140428038Y-54520500D01*
X140428039Y-54520500D01*
X140571962Y-54520500D01*
X140571962Y-54520499D01*
X140710053Y-54479953D01*
X140831128Y-54402143D01*
X140925377Y-54293373D01*
X140985165Y-54162457D01*
X141005647Y-54020000D01*
X140985165Y-53877543D01*
X140949752Y-53800000D01*
X155444353Y-53800000D01*
X155464834Y-53942456D01*
X155500248Y-54020000D01*
X155524623Y-54073373D01*
X155618872Y-54182143D01*
X155739947Y-54259953D01*
X155739950Y-54259954D01*
X155739949Y-54259954D01*
X155878036Y-54300499D01*
X155878038Y-54300500D01*
X155878039Y-54300500D01*
X156021962Y-54300500D01*
X156021962Y-54300499D01*
X156160053Y-54259953D01*
X156281128Y-54182143D01*
X156375377Y-54073373D01*
X156435165Y-53942457D01*
X156444330Y-53878711D01*
X191099500Y-53878711D01*
X191099500Y-54121288D01*
X191131161Y-54361785D01*
X191193947Y-54596104D01*
X191274238Y-54789943D01*
X191286776Y-54820212D01*
X191408064Y-55030289D01*
X191408066Y-55030292D01*
X191408067Y-55030293D01*
X191555733Y-55222736D01*
X191555739Y-55222743D01*
X191727256Y-55394260D01*
X191727263Y-55394266D01*
X191754686Y-55415308D01*
X191919711Y-55541936D01*
X192129788Y-55663224D01*
X192353900Y-55756054D01*
X192588211Y-55818838D01*
X192768586Y-55842584D01*
X192828711Y-55850500D01*
X192828712Y-55850500D01*
X193071289Y-55850500D01*
X193119388Y-55844167D01*
X193311789Y-55818838D01*
X193546100Y-55756054D01*
X193770212Y-55663224D01*
X193980289Y-55541936D01*
X194172738Y-55394265D01*
X194344265Y-55222738D01*
X194491936Y-55030289D01*
X194613224Y-54820212D01*
X194706054Y-54596100D01*
X194768838Y-54361789D01*
X194800500Y-54121288D01*
X194800500Y-53878712D01*
X194768838Y-53638211D01*
X194706054Y-53403900D01*
X194613224Y-53179788D01*
X194491936Y-52969711D01*
X194381072Y-52825230D01*
X194344266Y-52777263D01*
X194344260Y-52777256D01*
X194172743Y-52605739D01*
X194172736Y-52605733D01*
X193980293Y-52458067D01*
X193980292Y-52458066D01*
X193980289Y-52458064D01*
X193770212Y-52336776D01*
X193770205Y-52336773D01*
X193546104Y-52243947D01*
X193311785Y-52181161D01*
X193071289Y-52149500D01*
X193071288Y-52149500D01*
X192828712Y-52149500D01*
X192828711Y-52149500D01*
X192588214Y-52181161D01*
X192353895Y-52243947D01*
X192129794Y-52336773D01*
X192129785Y-52336777D01*
X191919706Y-52458067D01*
X191727263Y-52605733D01*
X191727256Y-52605739D01*
X191555739Y-52777256D01*
X191555733Y-52777263D01*
X191408067Y-52969706D01*
X191286777Y-53179785D01*
X191286773Y-53179794D01*
X191193947Y-53403895D01*
X191131161Y-53638214D01*
X191099500Y-53878711D01*
X156444330Y-53878711D01*
X156455647Y-53800000D01*
X156435165Y-53657543D01*
X156375377Y-53526627D01*
X156281128Y-53417857D01*
X156160053Y-53340047D01*
X156160051Y-53340046D01*
X156160049Y-53340045D01*
X156160050Y-53340045D01*
X156021963Y-53299500D01*
X156021961Y-53299500D01*
X155878039Y-53299500D01*
X155878036Y-53299500D01*
X155739949Y-53340045D01*
X155618873Y-53417856D01*
X155524623Y-53526626D01*
X155524622Y-53526628D01*
X155464834Y-53657543D01*
X155444353Y-53800000D01*
X140949752Y-53800000D01*
X140925377Y-53746627D01*
X140831128Y-53637857D01*
X140710053Y-53560047D01*
X140710051Y-53560046D01*
X140710049Y-53560045D01*
X140710050Y-53560045D01*
X140571963Y-53519500D01*
X140571961Y-53519500D01*
X140428039Y-53519500D01*
X140428036Y-53519500D01*
X140289949Y-53560045D01*
X140168873Y-53637856D01*
X140074623Y-53746626D01*
X140074622Y-53746628D01*
X140014834Y-53877543D01*
X139994353Y-54020000D01*
X102650500Y-54020000D01*
X102650500Y-53878712D01*
X102618838Y-53638211D01*
X102556054Y-53403900D01*
X102463224Y-53179788D01*
X102341936Y-52969711D01*
X102231072Y-52825230D01*
X102194266Y-52777263D01*
X102194260Y-52777256D01*
X102022743Y-52605739D01*
X102022736Y-52605733D01*
X101830293Y-52458067D01*
X101830292Y-52458066D01*
X101830289Y-52458064D01*
X101620212Y-52336776D01*
X101620205Y-52336773D01*
X101396104Y-52243947D01*
X101161785Y-52181161D01*
X100921289Y-52149500D01*
X100921288Y-52149500D01*
X100678712Y-52149500D01*
X100678711Y-52149500D01*
X100438214Y-52181161D01*
X100203895Y-52243947D01*
X99979794Y-52336773D01*
X99979785Y-52336777D01*
X99769706Y-52458067D01*
X99577263Y-52605733D01*
X99577256Y-52605739D01*
X99405739Y-52777256D01*
X99405733Y-52777263D01*
X99258067Y-52969706D01*
X99136777Y-53179785D01*
X99136773Y-53179794D01*
X99043947Y-53403895D01*
X98981161Y-53638214D01*
X98949500Y-53878711D01*
X97500500Y-53878711D01*
X97500500Y-52504066D01*
X97500765Y-52495956D01*
X97503248Y-52458067D01*
X97517075Y-52247102D01*
X97519190Y-52231048D01*
X97567045Y-51990462D01*
X97571243Y-51974797D01*
X97605113Y-51875018D01*
X97650093Y-51742512D01*
X97656291Y-51727547D01*
X97764790Y-51507533D01*
X97772893Y-51493498D01*
X97909182Y-51289527D01*
X97919039Y-51276681D01*
X98080786Y-51092244D01*
X98092244Y-51080786D01*
X98276681Y-50919039D01*
X98289527Y-50909182D01*
X98493498Y-50772893D01*
X98507533Y-50764790D01*
X98727547Y-50656291D01*
X98742512Y-50650093D01*
X98920819Y-50589566D01*
X98974797Y-50571243D01*
X98990464Y-50567045D01*
X99000373Y-50565074D01*
X99231048Y-50519190D01*
X99247102Y-50517075D01*
X99495957Y-50500765D01*
X99504067Y-50500500D01*
X99565892Y-50500500D01*
X104814781Y-50500500D01*
X104881820Y-50520185D01*
G37*
G04 #@! TD.AperFunction*
M02*
