M48
; DRILL file {KiCad 8.0.5} date 2024-11-13T12:29:45-0600
; FORMAT={-:-/ absolute / metric / decimal}
; #@! TF.CreationDate,2024-11-13T12:29:45-06:00
; #@! TF.GenerationSoftware,Kicad,Pcbnew,8.0.5
; #@! TF.FileFunction,Plated,1,4,PTH
FMAT,2
METRIC
; #@! TA.AperFunction,Plated,PTH,ComponentDrill
T1C0.200
; #@! TA.AperFunction,Plated,PTH,ViaDrill
T2C0.300
; #@! TA.AperFunction,Plated,PTH,ComponentDrill
T3C0.600
; #@! TA.AperFunction,Plated,PTH,ComponentDrill
T4C1.000
; #@! TA.AperFunction,Plated,PTH,ComponentDrill
T5C1.100
%
G90
G05
T1
X146.35Y-58.5
X146.35Y-59.9
X147.05Y-57.8
X147.05Y-59.2
X147.05Y-60.6
X147.75Y-58.5
X147.75Y-59.9
X148.45Y-57.8
X148.45Y-59.2
X148.45Y-60.6
X149.15Y-58.5
X149.15Y-59.9
T2
X99.775Y-60.15
X99.812Y-62.9
X99.812Y-65.55
X104.2Y-83.025
X106.325Y-58.75
X112.562Y-58.75
X115.625Y-85.25
X115.625Y-87.25
X115.675Y-81.5
X115.975Y-58.75
X116.0Y-67.1
X117.012Y-72.0
X118.562Y-74.75
X120.837Y-73.0
X121.8Y-82.0
X122.212Y-58.75
X122.387Y-72.0
X124.7Y-75.725
X124.7Y-80.5
X126.55Y-82.0
X131.5Y-51.025
X133.1Y-88.0
X134.25Y-51.1
X136.229Y-51.2
X138.208Y-51.2
X140.463Y-78.75
X140.475Y-76.65
X140.475Y-80.85
X140.5Y-51.48
X140.5Y-54.02
X140.5Y-64.18
X140.5Y-65.45
X142.25Y-74.5
X143.55Y-77.45
X143.55Y-79.05
X143.55Y-79.85
X144.8Y-73.9
X145.55Y-75.1
X145.55Y-82.7
X147.345Y-72.295
X147.7Y-79.3
X148.25Y-80.65
X149.0Y-72.7
X149.05Y-71.75
X149.4Y-74.6
X149.885Y-70.55
X149.885Y-73.35
X149.95Y-76.55
X150.125Y-83.25
X151.15Y-74.4
X151.95Y-79.3
X152.05Y-75.75
X153.695Y-70.85
X153.695Y-74.05
X153.75Y-84.975
X153.85Y-75.15
X154.8Y-81.95
X154.95Y-74.1
X155.3Y-79.45
X155.4Y-75.3
X155.8Y-84.987
X155.95Y-53.8
X156.0Y-52.25
X156.1Y-70.95
X157.1Y-78.55
X157.1Y-81.05
X157.15Y-77.3
X157.85Y-84.975
X158.0Y-56.56
X158.0Y-57.83
X158.0Y-59.1
X159.325Y-79.55
X159.65Y-61.55
X159.75Y-54.9
X159.95Y-60.35
X160.25Y-56.1
X160.85Y-54.95
X161.45Y-60.15
X161.5Y-52.75
X162.05Y-64.2
X163.1Y-71.8
X166.3Y-77.05
X166.5Y-89.075
X167.05Y-60.6
X168.05Y-85.925
X168.5Y-77.15
X168.7Y-63.65
X169.0Y-84.15
X171.1Y-71.8
X171.3Y-87.525
X177.375Y-58.65
X187.225Y-58.65
T4
X104.2Y-71.4
X104.2Y-76.4
X125.875Y-51.85
X128.415Y-51.85
X195.1Y-60.355
X195.1Y-62.895
X195.15Y-66.72
X195.15Y-69.26
X195.15Y-71.8
X195.15Y-74.34
X195.15Y-76.88
X195.15Y-79.42
T5
X106.15Y-51.55
X106.15Y-56.05
X112.65Y-51.55
X112.65Y-56.05
X115.8Y-51.55
X115.8Y-56.05
X122.3Y-51.55
X122.3Y-56.05
X171.0Y-51.55
X171.0Y-56.05
X177.5Y-51.55
X177.5Y-56.05
X180.7Y-51.55
X180.7Y-56.05
X187.2Y-51.55
X187.2Y-56.05
T3
X119.88Y-83.295G85X119.88Y-84.395
G05
X119.88Y-87.625G85X119.88Y-88.425
G05
X128.52Y-83.295G85X128.52Y-84.395
G05
X128.52Y-87.625G85X128.52Y-88.425
G05
M30
